<svg width="206" height="30" viewBox="0 0 206 30" fill="none" xmlns="http://www.w3.org/2000/svg">
<line x1="11" y1="0.5" x2="193" y2="0.5" stroke="#ADB7FF"/>
<line x1="11" y1="29.5" x2="193" y2="29.5" stroke="#ADB7FF"/>
<path d="M46.6858 19.052L41.4658 19.04C41.3858 19.04 41.3458 19 41.3458 18.92C41.3458 18.888 41.3498 18.844 41.3578 18.788C41.3658 18.724 41.3858 18.668 41.4178 18.62C41.6818 18.588 41.8738 18.508 41.9938 18.38C42.1218 18.252 42.1858 18.028 42.1858 17.708V11.864C42.1858 11.656 42.1698 11.504 42.1378 11.408C42.1138 11.312 42.0458 11.252 41.9338 11.228C41.8298 11.196 41.6538 11.18 41.4058 11.18C41.4058 11.14 41.4098 11.088 41.4178 11.024C41.4258 10.96 41.4338 10.908 41.4418 10.868C41.4658 10.78 41.4938 10.732 41.5258 10.724C41.5658 10.708 41.5898 10.7 41.5978 10.7H43.7458C43.8258 10.7 43.8658 10.74 43.8658 10.82C43.8658 10.852 43.8578 10.9 43.8418 10.964C43.8258 11.02 43.8018 11.072 43.7698 11.12C43.4098 11.16 43.1738 11.232 43.0618 11.336C42.9578 11.432 42.9058 11.62 42.9058 11.9V17.708C42.9058 18.012 42.9458 18.224 43.0258 18.344C43.1058 18.464 43.2378 18.524 43.4218 18.524L45.6538 18.5C45.8858 18.5 46.0658 18.464 46.1938 18.392C46.3298 18.312 46.4298 18.176 46.4938 17.984L46.7098 17.336C46.7338 17.264 46.7858 17.228 46.8658 17.228C46.9858 17.228 47.0858 17.26 47.1658 17.324L46.8778 18.908C46.8538 19.004 46.7898 19.052 46.6858 19.052ZM47.7663 11.18C47.7663 11.14 47.7703 11.088 47.7783 11.024C47.7863 10.96 47.7943 10.908 47.8022 10.868C47.8263 10.78 47.8543 10.732 47.8863 10.724C47.9263 10.708 47.9503 10.7 47.9583 10.7H49.9863C50.0663 10.7 50.1063 10.74 50.1063 10.82C50.1063 10.852 50.0983 10.9 50.0823 10.964C50.0663 11.02 50.0423 11.072 50.0103 11.12C49.7383 11.16 49.5463 11.232 49.4343 11.336C49.3223 11.432 49.2663 11.62 49.2663 11.9V16.172C49.2663 16.628 49.3503 17.036 49.5183 17.396C49.6863 17.756 49.9463 18.04 50.2983 18.248C50.6503 18.456 51.0943 18.56 51.6303 18.56C52.1263 18.56 52.5303 18.492 52.8423 18.356C53.1623 18.212 53.4103 18.024 53.5863 17.792C53.7703 17.552 53.8943 17.288 53.9583 17C54.0303 16.704 54.0663 16.404 54.0663 16.1L54.0543 11.864C54.0543 11.656 54.0303 11.504 53.9823 11.408C53.9343 11.312 53.8463 11.252 53.7183 11.228C53.5983 11.196 53.4143 11.18 53.1663 11.18C53.1663 11.14 53.1703 11.088 53.1783 11.024C53.1863 10.96 53.1943 10.908 53.2023 10.868C53.2263 10.78 53.2543 10.732 53.2863 10.724C53.3263 10.708 53.3503 10.7 53.3583 10.7H55.3263C55.4063 10.7 55.4463 10.74 55.4463 10.82C55.4463 10.852 55.4383 10.9 55.4223 10.964C55.4063 11.02 55.3823 11.072 55.3503 11.12C55.0783 11.16 54.8863 11.232 54.7743 11.336C54.6623 11.432 54.6063 11.62 54.6063 11.9V16.124C54.6063 16.74 54.4903 17.28 54.2583 17.744C54.0263 18.208 53.6783 18.572 53.2143 18.836C52.7583 19.092 52.1863 19.22 51.4983 19.22C50.9143 19.22 50.3983 19.112 49.9503 18.896C49.5103 18.68 49.1663 18.348 48.9183 17.9C48.6703 17.444 48.5463 16.868 48.5463 16.172V11.864C48.5463 11.656 48.5303 11.504 48.4983 11.408C48.4743 11.312 48.4063 11.252 48.2943 11.228C48.1903 11.196 48.0143 11.18 47.7663 11.18ZM56.2886 14.984C56.2886 14.344 56.3886 13.752 56.5886 13.208C56.7886 12.664 57.0726 12.192 57.4406 11.792C57.8166 11.392 58.2526 11.08 58.7486 10.856C59.2526 10.632 59.8006 10.52 60.3926 10.52C60.7446 10.52 61.0966 10.564 61.4486 10.652C61.8006 10.732 62.1206 10.864 62.4086 11.048L62.7806 11.072C62.8446 11.08 62.8806 11.092 62.8886 11.108C62.9046 11.124 62.9166 11.164 62.9246 11.228L63.0926 12.944C62.9566 12.984 62.8526 13.004 62.7806 13.004C62.6686 13.004 62.5966 12.952 62.5646 12.848L62.4206 12.368C62.3246 12.04 62.1606 11.788 61.9286 11.612C61.6966 11.428 61.4286 11.3 61.1246 11.228C60.8286 11.148 60.5286 11.108 60.2246 11.108C59.5686 11.108 58.9966 11.264 58.5086 11.576C58.0286 11.888 57.6566 12.32 57.3926 12.872C57.1366 13.416 57.0086 14.044 57.0086 14.756C57.0086 15.524 57.1606 16.192 57.4646 16.76C57.7686 17.32 58.1726 17.756 58.6766 18.068C59.1886 18.372 59.7446 18.524 60.3446 18.524C60.7766 18.524 61.2206 18.44 61.6766 18.272C62.1326 18.104 62.5766 17.836 63.0086 17.468L63.3086 17.888C63.0286 18.176 62.7046 18.42 62.3366 18.62C61.9766 18.82 61.6046 18.972 61.2206 19.076C60.8366 19.172 60.4726 19.22 60.1286 19.22C59.6246 19.22 59.1406 19.124 58.6766 18.932C58.2206 18.732 57.8126 18.448 57.4526 18.08C57.1006 17.712 56.8166 17.268 56.6006 16.748C56.3926 16.228 56.2886 15.64 56.2886 14.984ZM66.2519 19.04C66.1719 19.04 66.1319 19 66.1319 18.92C66.1319 18.888 66.1359 18.844 66.1439 18.788C66.1519 18.724 66.1719 18.668 66.2039 18.62C66.5319 18.58 66.7599 18.492 66.8879 18.356C67.0239 18.22 67.0919 18.004 67.0919 17.708V15.416L64.9919 11.972C64.8479 11.724 64.7199 11.548 64.6079 11.444C64.4959 11.332 64.3759 11.264 64.2479 11.24C64.1199 11.208 63.9479 11.188 63.7319 11.18C63.7319 11.14 63.7359 11.088 63.7439 11.024C63.7519 10.96 63.7599 10.908 63.7679 10.868C63.7919 10.78 63.8199 10.732 63.8519 10.724C63.8919 10.708 63.9159 10.7 63.9239 10.7H66.1079C66.1879 10.7 66.2279 10.74 66.2279 10.82C66.2279 10.852 66.2239 10.9 66.2159 10.964C66.2079 11.02 66.1879 11.072 66.1559 11.12C65.9879 11.136 65.8519 11.168 65.7479 11.216C65.6519 11.264 65.6039 11.34 65.6039 11.444C65.6039 11.524 65.6479 11.632 65.7359 11.768L67.5599 14.768C67.5919 14.824 67.6199 14.824 67.6439 14.768L69.2879 11.78C69.3359 11.692 69.3759 11.616 69.4079 11.552C69.4479 11.48 69.4679 11.42 69.4679 11.372C69.4679 11.22 69.2839 11.14 68.9159 11.132C68.9159 11.092 68.9199 11.044 68.9279 10.988C68.9439 10.932 68.9639 10.876 68.9879 10.82C69.0199 10.756 69.0479 10.72 69.0719 10.712C69.1039 10.704 69.1359 10.7 69.1679 10.7H70.9319C70.9719 10.7 70.9999 10.708 71.0159 10.724C71.0399 10.732 71.0519 10.764 71.0519 10.82C71.0519 10.932 71.0279 11.036 70.9799 11.132C70.8039 11.148 70.6519 11.176 70.5239 11.216C70.3959 11.248 70.2719 11.324 70.1519 11.444C70.0399 11.564 69.9119 11.752 69.7679 12.008L67.8119 15.452V17.708C67.8119 18.012 67.8279 18.224 67.8599 18.344C67.8999 18.464 67.9959 18.532 68.1479 18.548C68.2039 18.556 68.2999 18.56 68.4359 18.56C68.5799 18.56 68.6919 18.56 68.7719 18.56C68.7719 18.6 68.7679 18.652 68.7599 18.716C68.7599 18.78 68.7519 18.832 68.7359 18.872C68.7119 18.952 68.6839 19 68.6519 19.016C68.6199 19.032 68.5959 19.04 68.5799 19.04H66.2519ZM75.6561 18.692C75.6001 18.652 75.5481 18.604 75.5001 18.548C75.4521 18.492 75.4281 18.432 75.4281 18.368C75.4281 18.264 75.4761 18.144 75.5721 18.008C75.6681 17.872 75.7441 17.776 75.8001 17.72C76.0801 18.032 76.4001 18.272 76.7601 18.44C77.1201 18.6 77.4841 18.68 77.8521 18.68C78.2361 18.68 78.5841 18.604 78.8961 18.452C79.2081 18.292 79.4561 18.06 79.6401 17.756C79.8321 17.452 79.9241 17.08 79.9161 16.64C79.9081 15.992 79.6881 15.472 79.2561 15.08C78.8241 14.68 78.2401 14.48 77.5041 14.48C77.3361 14.48 77.1521 14.492 76.9521 14.516C76.7521 14.54 76.5601 14.58 76.3761 14.636L76.2321 14.42L76.4601 10.7H79.1361C79.3441 10.7 79.5561 10.7 79.7721 10.7C79.9881 10.692 80.2001 10.672 80.4081 10.64L80.3481 11.072C80.3161 11.304 80.1921 11.42 79.9761 11.42H76.9881L76.8441 13.892C77.1161 13.844 77.3761 13.82 77.6241 13.82C78.1841 13.82 78.6841 13.924 79.1241 14.132C79.5721 14.34 79.9281 14.636 80.1921 15.02C80.4561 15.404 80.5881 15.868 80.5881 16.412C80.5961 16.972 80.4641 17.464 80.1921 17.888C79.9201 18.304 79.5601 18.632 79.1121 18.872C78.6721 19.104 78.1841 19.22 77.6481 19.22C77.4241 19.22 77.1841 19.196 76.9281 19.148C76.6721 19.1 76.4321 19.036 76.2081 18.956C75.9841 18.876 75.8001 18.788 75.6561 18.692ZM83.9126 19.22C83.4806 19.22 83.1326 19.08 82.8686 18.8C82.6046 18.512 82.4766 18.088 82.4846 17.528L82.5086 14.108H81.6086C81.5286 14.108 81.4886 14.068 81.4886 13.988C81.4886 13.956 81.5046 13.884 81.5366 13.772C81.5766 13.652 81.6126 13.568 81.6446 13.52H82.5086V12.512C82.5086 12.4 82.5566 12.328 82.6526 12.296C82.7326 12.264 82.8406 12.232 82.9766 12.2C83.1206 12.168 83.2446 12.148 83.3486 12.14C83.3326 12.236 83.3126 12.408 83.2886 12.656C83.2726 12.896 83.2566 13.184 83.2406 13.52H84.2246C84.6086 13.52 84.9286 13.5 85.1846 13.46C85.1686 13.572 85.1486 13.68 85.1246 13.784C85.1086 13.888 85.0926 13.952 85.0766 13.976C85.0366 14.064 84.9446 14.108 84.8006 14.108H83.2166C83.2086 14.452 83.2006 14.816 83.1926 15.2C83.1846 15.576 83.1806 15.952 83.1806 16.328C83.1806 16.52 83.1806 16.708 83.1806 16.892C83.1806 17.076 83.1846 17.256 83.1926 17.432C83.2086 17.824 83.3086 18.108 83.4926 18.284C83.6766 18.46 83.9246 18.548 84.2366 18.548C84.5966 18.548 84.9806 18.424 85.3886 18.176C85.4126 18.2 85.4366 18.26 85.4606 18.356C85.4926 18.444 85.5086 18.516 85.5086 18.572C85.5086 18.652 85.4606 18.72 85.3646 18.776C85.1646 18.904 84.9366 19.012 84.6806 19.1C84.4246 19.18 84.1686 19.22 83.9126 19.22ZM86.1968 19.04C86.1168 19.04 86.0768 19 86.0768 18.92C86.0768 18.888 86.0808 18.844 86.0888 18.788C86.0968 18.724 86.1168 18.668 86.1488 18.62C86.3888 18.596 86.5648 18.524 86.6768 18.404C86.7888 18.284 86.8488 18.1 86.8568 17.852C86.8728 17.636 86.8848 17.34 86.8928 16.964C86.9008 16.588 86.9088 16.172 86.9168 15.716C86.9328 15.26 86.9408 14.796 86.9408 14.324C86.9488 13.852 86.9528 13.412 86.9528 13.004C86.9528 12.652 86.9488 12.328 86.9408 12.032C86.9408 11.728 86.9328 11.524 86.9168 11.42C86.9008 11.276 86.8688 11.18 86.8208 11.132C86.7728 11.076 86.6848 11.04 86.5568 11.024L86.0768 10.976C86.0208 10.976 85.9928 10.944 85.9928 10.88C85.9928 10.832 86.0048 10.776 86.0288 10.712C86.0528 10.648 86.0808 10.596 86.1128 10.556C86.2648 10.508 86.4368 10.472 86.6288 10.448C86.8288 10.416 87.0048 10.4 87.1568 10.4C87.3408 10.4 87.4808 10.428 87.5768 10.484C87.6808 10.532 87.7248 10.66 87.7088 10.868C87.7008 11.068 87.6888 11.348 87.6728 11.708C87.6568 12.06 87.6408 12.46 87.6248 12.908C87.6168 13.356 87.6088 13.816 87.6008 14.288C87.8328 14 88.1168 13.772 88.4528 13.604C88.7968 13.428 89.1528 13.34 89.5208 13.34C90.0328 13.34 90.4408 13.492 90.7448 13.796C91.0568 14.1 91.2128 14.576 91.2128 15.224V16.676C91.2128 17.028 91.2128 17.328 91.2128 17.576C91.2208 17.816 91.2288 18.032 91.2368 18.224C91.2448 18.336 91.2688 18.412 91.3088 18.452C91.3488 18.484 91.3928 18.508 91.4408 18.524C91.4968 18.532 91.5848 18.54 91.7048 18.548C91.8328 18.556 91.9488 18.56 92.0528 18.56C92.0528 18.6 92.0488 18.66 92.0408 18.74C92.0328 18.82 92.0208 18.88 92.0048 18.92C91.9808 19 91.9368 19.04 91.8728 19.04H89.8208C89.7408 19.04 89.7008 19 89.7008 18.92C89.7008 18.888 89.7048 18.844 89.7128 18.788C89.7208 18.724 89.7408 18.668 89.7728 18.62C90.0448 18.588 90.2328 18.52 90.3368 18.416C90.4408 18.312 90.5048 18.16 90.5288 17.96C90.5448 17.864 90.5528 17.676 90.5528 17.396C90.5608 17.116 90.5648 16.812 90.5648 16.484C90.5648 16.236 90.5608 16.004 90.5528 15.788C90.5528 15.572 90.5488 15.408 90.5408 15.296C90.5168 14.848 90.3888 14.516 90.1568 14.3C89.9248 14.084 89.6328 13.972 89.2808 13.964C88.9128 13.956 88.5688 14.072 88.2488 14.312C87.9288 14.552 87.7048 14.86 87.5768 15.236C87.5768 15.572 87.5728 15.896 87.5648 16.208C87.5648 16.512 87.5648 16.792 87.5648 17.048C87.5648 17.28 87.5648 17.496 87.5648 17.696C87.5648 17.888 87.5688 18.056 87.5768 18.2C87.5848 18.328 87.6088 18.416 87.6488 18.464C87.6888 18.504 87.7568 18.532 87.8528 18.548C87.9088 18.556 87.9928 18.56 88.1048 18.56C88.2168 18.56 88.3128 18.56 88.3928 18.56C88.3928 18.6 88.3888 18.652 88.3808 18.716C88.3808 18.78 88.3728 18.832 88.3568 18.872C88.3328 18.952 88.3048 19 88.2728 19.016C88.2408 19.032 88.2168 19.04 88.2008 19.04H86.1968ZM101.893 19.052L96.6728 19.04C96.5928 19.04 96.5528 19 96.5528 18.92C96.5528 18.888 96.5568 18.844 96.5648 18.788C96.5728 18.724 96.5928 18.668 96.6248 18.62C96.8888 18.588 97.0808 18.508 97.2008 18.38C97.3288 18.252 97.3928 18.028 97.3928 17.708V11.864C97.3928 11.656 97.3768 11.504 97.3448 11.408C97.3208 11.312 97.2528 11.252 97.1408 11.228C97.0368 11.196 96.8608 11.18 96.6128 11.18C96.6128 11.14 96.6168 11.088 96.6248 11.024C96.6328 10.96 96.6408 10.908 96.6488 10.868C96.6728 10.78 96.7008 10.732 96.7328 10.724C96.7728 10.708 96.7968 10.7 96.8048 10.7L101.713 10.688C101.841 10.688 101.909 10.736 101.917 10.832L102.013 12.152C101.981 12.184 101.925 12.208 101.845 12.224C101.773 12.24 101.713 12.248 101.665 12.248C101.593 12.248 101.549 12.212 101.533 12.14L101.461 11.768C101.429 11.584 101.373 11.448 101.293 11.36C101.213 11.264 101.085 11.216 100.909 11.216L98.5328 11.204C98.3728 11.204 98.2608 11.236 98.1968 11.3C98.1408 11.356 98.1128 11.468 98.1128 11.636V14.312H100.045C100.317 14.312 100.497 14.28 100.585 14.216C100.681 14.152 100.741 13.984 100.765 13.712C100.813 13.68 100.861 13.66 100.909 13.652C100.957 13.644 100.997 13.64 101.029 13.64C101.109 13.64 101.149 13.68 101.149 13.76L101.125 15.632C101.125 15.688 101.097 15.72 101.041 15.728C101.001 15.736 100.949 15.744 100.885 15.752C100.829 15.76 100.781 15.764 100.741 15.764C100.717 15.484 100.669 15.26 100.597 15.092C100.533 14.916 100.349 14.828 100.045 14.828H98.1128V17.708C98.1128 18.012 98.1528 18.228 98.2328 18.356C98.3128 18.476 98.4448 18.536 98.6288 18.536L100.909 18.524C101.141 18.524 101.317 18.484 101.437 18.404C101.565 18.324 101.665 18.192 101.737 18.008L101.917 17.54C101.941 17.468 101.993 17.432 102.073 17.432C102.193 17.432 102.293 17.464 102.373 17.528L102.085 18.908C102.061 19.004 101.997 19.052 101.893 19.052ZM103.27 19.04C103.19 19.04 103.15 19 103.15 18.92C103.15 18.888 103.154 18.844 103.162 18.788C103.17 18.724 103.19 18.668 103.222 18.62C103.486 18.588 103.678 18.516 103.798 18.404C103.926 18.284 103.99 18.076 103.99 17.78V11.864C103.99 11.656 103.974 11.504 103.942 11.408C103.918 11.312 103.85 11.252 103.738 11.228C103.634 11.196 103.458 11.18 103.21 11.18C103.21 11.14 103.214 11.088 103.222 11.024C103.23 10.96 103.238 10.908 103.246 10.868C103.27 10.756 103.322 10.7 103.402 10.7H106.138C106.69 10.7 107.186 10.776 107.626 10.928C108.074 11.072 108.43 11.304 108.694 11.624C108.958 11.936 109.09 12.352 109.09 12.872C109.09 13.496 108.918 14.02 108.574 14.444C108.23 14.86 107.778 15.172 107.218 15.38C106.666 15.588 106.066 15.692 105.418 15.692C105.194 15.692 104.958 15.68 104.71 15.656V17.78C104.71 18.076 104.75 18.272 104.83 18.368C104.918 18.464 105.038 18.52 105.19 18.536C105.246 18.544 105.35 18.552 105.502 18.56C105.662 18.56 105.782 18.56 105.862 18.56C105.862 18.6 105.858 18.652 105.85 18.716C105.85 18.78 105.842 18.832 105.826 18.872C105.802 18.952 105.774 19 105.742 19.016C105.71 19.032 105.686 19.04 105.67 19.04H103.27ZM104.71 15.008C105.094 15.088 105.466 15.128 105.826 15.128C106.274 15.128 106.686 15.052 107.062 14.9C107.438 14.748 107.742 14.516 107.974 14.204C108.206 13.892 108.322 13.5 108.322 13.028C108.322 12.596 108.21 12.244 107.986 11.972C107.77 11.7 107.47 11.5 107.086 11.372C106.71 11.244 106.278 11.18 105.79 11.18C105.566 11.18 105.326 11.192 105.07 11.216C104.958 11.224 104.87 11.264 104.806 11.336C104.742 11.4 104.71 11.48 104.71 11.576V15.008ZM114.609 15.464V15.224C114.609 15.096 114.665 15 114.777 14.936L119.529 12.08V12.848L115.281 15.356L119.529 17.912V18.68L114.777 15.752C114.665 15.688 114.609 15.592 114.609 15.464ZM121.634 19.04C121.554 19.04 121.514 19 121.514 18.92C121.514 18.888 121.518 18.844 121.526 18.788C121.534 18.724 121.554 18.668 121.586 18.62C121.85 18.588 122.042 18.516 122.162 18.404C122.29 18.284 122.354 18.076 122.354 17.78V11.864C122.354 11.656 122.338 11.504 122.306 11.408C122.282 11.312 122.214 11.252 122.102 11.228C121.998 11.196 121.822 11.18 121.574 11.18C121.574 11.14 121.578 11.088 121.586 11.024C121.594 10.96 121.602 10.908 121.61 10.868C121.634 10.78 121.662 10.732 121.694 10.724C121.734 10.708 121.758 10.7 121.766 10.7L126.674 10.688C126.802 10.688 126.87 10.736 126.878 10.832L126.974 12.152C126.942 12.184 126.886 12.208 126.806 12.224C126.734 12.24 126.674 12.248 126.626 12.248C126.554 12.248 126.51 12.212 126.494 12.14L126.422 11.768C126.39 11.584 126.334 11.448 126.254 11.36C126.174 11.264 126.046 11.216 125.87 11.216L123.494 11.204C123.334 11.204 123.222 11.236 123.158 11.3C123.102 11.356 123.074 11.468 123.074 11.636V14.312H124.946C125.218 14.312 125.398 14.28 125.486 14.216C125.582 14.152 125.642 13.984 125.666 13.712C125.714 13.68 125.762 13.66 125.81 13.652C125.858 13.644 125.898 13.64 125.93 13.64C126.01 13.64 126.05 13.68 126.05 13.76L126.026 15.632C126.026 15.688 125.998 15.72 125.942 15.728C125.902 15.736 125.85 15.744 125.786 15.752C125.73 15.76 125.682 15.764 125.642 15.764C125.618 15.484 125.57 15.26 125.498 15.092C125.434 14.916 125.25 14.828 124.946 14.828H123.074V17.78C123.074 18.076 123.114 18.272 123.194 18.368C123.282 18.464 123.402 18.52 123.554 18.536C123.61 18.544 123.714 18.552 123.866 18.56C124.026 18.56 124.146 18.56 124.226 18.56C124.226 18.6 124.222 18.652 124.214 18.716C124.214 18.78 124.206 18.832 124.19 18.872C124.166 18.952 124.138 19 124.106 19.016C124.074 19.032 124.05 19.04 124.034 19.04H121.634ZM127.81 19.04C127.73 19.04 127.69 19 127.69 18.92C127.69 18.888 127.694 18.844 127.702 18.788C127.71 18.724 127.73 18.668 127.762 18.62C128.026 18.588 128.218 18.516 128.338 18.404C128.466 18.284 128.53 18.072 128.53 17.768V11.864C128.53 11.656 128.514 11.504 128.482 11.408C128.458 11.312 128.39 11.252 128.278 11.228C128.174 11.196 127.998 11.18 127.75 11.18C127.75 11.14 127.754 11.088 127.762 11.024C127.77 10.96 127.778 10.908 127.786 10.868C127.81 10.756 127.862 10.7 127.942 10.7H130.618C131.106 10.7 131.562 10.768 131.986 10.904C132.41 11.032 132.754 11.248 133.018 11.552C133.282 11.848 133.414 12.248 133.414 12.752C133.414 13.344 133.246 13.852 132.91 14.276C132.582 14.7 132.122 15.012 131.53 15.212C131.978 15.948 132.346 16.536 132.634 16.976C132.93 17.416 133.182 17.748 133.39 17.972C133.598 18.188 133.79 18.332 133.966 18.404C134.15 18.476 134.358 18.512 134.59 18.512C134.59 18.664 134.562 18.812 134.506 18.956C134.41 19.012 134.302 19.052 134.182 19.076C134.07 19.092 133.95 19.1 133.822 19.1C133.622 19.1 133.422 19.032 133.222 18.896C133.022 18.76 132.802 18.5 132.562 18.116L130.846 15.38C130.534 15.436 130.198 15.464 129.838 15.464C129.742 15.464 129.642 15.46 129.538 15.452C129.442 15.444 129.346 15.436 129.25 15.428V17.78C129.25 18.076 129.266 18.276 129.298 18.38C129.338 18.476 129.434 18.532 129.586 18.548C129.642 18.556 129.718 18.56 129.814 18.56C129.918 18.56 130.01 18.56 130.09 18.56C130.09 18.6 130.086 18.652 130.078 18.716C130.078 18.78 130.07 18.832 130.054 18.872C130.03 18.952 130.002 19 129.97 19.016C129.938 19.032 129.914 19.04 129.898 19.04H127.81ZM129.25 14.828C129.57 14.884 129.882 14.912 130.186 14.912C130.658 14.912 131.078 14.844 131.446 14.708C131.814 14.564 132.106 14.348 132.322 14.06C132.538 13.764 132.646 13.388 132.646 12.932C132.646 12.324 132.418 11.88 131.962 11.6C131.514 11.32 130.942 11.18 130.246 11.18C130.038 11.18 129.826 11.192 129.61 11.216C129.37 11.24 129.25 11.36 129.25 11.576V14.828ZM138.912 19.22C138.176 19.22 137.52 19.04 136.944 18.68C136.376 18.312 135.932 17.816 135.612 17.192C135.292 16.56 135.132 15.848 135.132 15.056C135.132 14.368 135.244 13.744 135.468 13.184C135.692 12.624 136 12.148 136.392 11.756C136.784 11.356 137.236 11.052 137.748 10.844C138.26 10.628 138.804 10.52 139.38 10.52C139.908 10.52 140.4 10.624 140.856 10.832C141.32 11.032 141.724 11.316 142.068 11.684C142.412 12.052 142.68 12.488 142.872 12.992C143.072 13.496 143.172 14.056 143.172 14.672C143.172 15.352 143.06 15.972 142.836 16.532C142.612 17.084 142.304 17.564 141.912 17.972C141.52 18.372 141.064 18.68 140.544 18.896C140.032 19.112 139.488 19.22 138.912 19.22ZM139.224 18.572C139.872 18.572 140.436 18.416 140.916 18.104C141.396 17.784 141.768 17.356 142.032 16.82C142.296 16.284 142.428 15.68 142.428 15.008C142.428 14.304 142.292 13.664 142.02 13.088C141.756 12.504 141.372 12.04 140.868 11.696C140.364 11.344 139.76 11.168 139.056 11.168C138.424 11.168 137.868 11.324 137.388 11.636C136.908 11.94 136.536 12.36 136.272 12.896C136.008 13.432 135.876 14.04 135.876 14.72C135.876 15.408 136.004 16.044 136.26 16.628C136.516 17.212 136.892 17.684 137.388 18.044C137.892 18.396 138.504 18.572 139.224 18.572ZM144.012 18.92C144.012 18.888 144.016 18.844 144.024 18.788C144.032 18.724 144.052 18.668 144.084 18.62C144.348 18.588 144.54 18.516 144.66 18.404C144.78 18.284 144.844 18.072 144.852 17.768L145.032 11.924C145.04 11.716 145.028 11.56 144.996 11.456C144.972 11.344 144.904 11.272 144.792 11.24C144.68 11.2 144.5 11.18 144.252 11.18C144.252 11.14 144.256 11.088 144.264 11.024C144.272 10.96 144.28 10.908 144.288 10.868C144.312 10.78 144.34 10.732 144.372 10.724C144.412 10.708 144.436 10.7 144.444 10.7H145.296C145.392 10.7 145.472 10.716 145.536 10.748C145.6 10.78 145.652 10.84 145.692 10.928L148.608 16.964C148.648 17.06 148.688 17.06 148.728 16.964L151.644 10.964C151.732 10.788 151.872 10.7 152.064 10.7H153.132C153.212 10.7 153.252 10.74 153.252 10.82C153.252 10.852 153.244 10.9 153.228 10.964C153.212 11.02 153.188 11.072 153.156 11.12C152.884 11.16 152.688 11.232 152.568 11.336C152.448 11.432 152.392 11.62 152.4 11.9L152.592 17.768C152.608 18.072 152.628 18.276 152.652 18.38C152.684 18.476 152.776 18.532 152.928 18.548C152.984 18.556 153.06 18.56 153.156 18.56C153.26 18.56 153.352 18.56 153.432 18.56C153.432 18.6 153.428 18.652 153.42 18.716C153.42 18.78 153.412 18.832 153.396 18.872C153.372 18.952 153.344 19 153.312 19.016C153.28 19.032 153.256 19.04 153.24 19.04H151.152C151.072 19.04 151.032 19 151.032 18.92C151.032 18.888 151.036 18.844 151.044 18.788C151.052 18.724 151.072 18.668 151.104 18.62C151.368 18.588 151.564 18.516 151.692 18.404C151.828 18.284 151.888 18.072 151.872 17.768L151.68 12.284C151.68 12.268 151.676 12.26 151.668 12.26C151.66 12.252 151.652 12.256 151.644 12.272L148.896 17.816C148.848 17.92 148.764 17.972 148.644 17.972H148.464C148.344 17.972 148.26 17.92 148.212 17.816L145.62 12.524C145.612 12.508 145.604 12.504 145.596 12.512C145.588 12.512 145.584 12.52 145.584 12.536L145.392 17.768C145.384 18.072 145.408 18.276 145.464 18.38C145.528 18.476 145.636 18.532 145.788 18.548C145.876 18.556 145.972 18.56 146.076 18.56C146.18 18.56 146.272 18.56 146.352 18.56C146.352 18.6 146.348 18.652 146.34 18.716C146.34 18.78 146.332 18.832 146.316 18.872C146.292 18.952 146.264 19 146.232 19.016C146.2 19.032 146.176 19.04 146.16 19.04H144.132C144.052 19.04 144.012 19 144.012 18.92ZM155.541 19.52C155.349 19.52 155.189 19.456 155.061 19.328C154.933 19.2 154.869 19.04 154.869 18.848C154.869 18.664 154.933 18.512 155.061 18.392C155.189 18.264 155.349 18.2 155.541 18.2C155.725 18.2 155.877 18.264 155.997 18.392C156.125 18.512 156.189 18.664 156.189 18.848C156.189 19.04 156.125 19.2 155.997 19.328C155.877 19.456 155.725 19.52 155.541 19.52ZM163.75 15.464C163.75 15.592 163.694 15.688 163.582 15.752L158.83 18.68V17.912L163.078 15.356L158.83 12.848V12.08L163.582 14.936C163.694 15 163.75 15.096 163.75 15.224V15.464Z" fill="#ADB7FF"/>
</svg>
