<svg width="215" height="54" viewBox="0 0 215 54" fill="none" xmlns="http://www.w3.org/2000/svg">
<path d="M39.032 0.671997V5.088L36.792 2.4H17.08V19.168H31.736V20.896H17.08V43.104H8.568V3.04C8.26933 2.656 7.94933 2.272 7.608 1.888C7.26667 1.504 6.92533 1.09866 6.584 0.671997H39.032ZM76.928 43.04H68.864L56.064 23.392H53.376V43.04H44.864V3.04C44.5653 2.656 44.2453 2.272 43.904 1.888C43.5627 1.504 43.2213 1.09866 42.88 0.671997H65.216C66.7947 0.671997 68.2667 0.970664 69.632 1.568C71.04 2.16533 72.256 2.976 73.28 4C74.304 5.024 75.1147 6.24 75.712 7.648C76.3093 9.01333 76.608 10.4853 76.608 12.064C76.608 13.6 76.288 15.0507 75.648 16.416C75.008 17.7387 74.112 18.912 72.96 19.936C71.8507 20.96 70.528 21.792 68.992 22.432C67.4987 23.0293 65.8987 23.392 64.192 23.52L76.928 43.04ZM58.368 21.728C59.6907 21.728 60.928 21.472 62.08 20.96C63.2747 20.448 64.2987 19.7653 65.152 18.912C66.048 18.016 66.752 16.992 67.264 15.84C67.776 14.6453 68.032 13.3867 68.032 12.064C68.032 10.8267 67.7973 9.67467 67.328 8.608C66.9013 7.49866 66.304 6.51733 65.536 5.664C64.768 4.768 63.872 4.04267 62.848 3.488C61.824 2.93333 60.7147 2.57066 59.52 2.4H53.376V21.728H58.368ZM103.019 0.671997C105.963 0.671997 108.715 1.22666 111.275 2.336C113.835 3.44533 116.054 4.96 117.931 6.88C119.851 8.8 121.366 11.0613 122.475 13.664C123.584 16.224 124.139 18.976 124.139 21.92C124.139 24.864 123.584 27.616 122.475 30.176C121.366 32.736 119.851 34.976 117.931 36.896C116.054 38.816 113.835 40.3307 111.275 41.44C108.715 42.5493 105.963 43.104 103.019 43.104C100.075 43.104 97.3017 42.5493 94.699 41.44C92.139 40.3307 89.899 38.816 87.979 36.896C86.059 34.976 84.5443 32.736 83.435 30.176C82.3257 27.616 81.771 24.864 81.771 21.92C81.771 18.976 82.3257 16.224 83.435 13.664C84.5443 11.0613 86.059 8.8 87.979 6.88C89.899 4.96 92.139 3.44533 94.699 2.336C97.3017 1.22666 100.075 0.671997 103.019 0.671997ZM103.019 41.376C104.726 41.376 106.347 40.864 107.883 39.84C109.419 38.816 110.763 37.4293 111.915 35.68C113.067 33.9307 113.984 31.8827 114.667 29.536C115.35 27.1467 115.691 24.608 115.691 21.92C115.691 19.232 115.35 16.7147 114.667 14.368C113.984 11.9787 113.067 9.90933 111.915 8.16C110.763 6.368 109.419 4.96 107.883 3.936C106.347 2.912 104.726 2.4 103.019 2.4C101.27 2.4 99.6057 2.912 98.027 3.936C96.491 4.96 95.147 6.368 93.995 8.16C92.843 9.90933 91.9257 11.9787 91.243 14.368C90.603 16.7147 90.283 19.232 90.283 21.92C90.283 24.608 90.603 27.1467 91.243 29.536C91.9257 31.8827 92.843 33.9307 93.995 35.68C95.147 37.4293 96.491 38.816 98.027 39.84C99.6057 40.864 101.27 41.376 103.019 41.376ZM168.259 4.128L166.531 3.808L151.939 43.04H149.635L135.043 5.152L133.315 5.472L133.251 40.416V43.104H131.523V3.04C131.224 2.656 130.904 2.272 130.563 1.888C130.222 1.504 129.88 1.09866 129.539 0.671997H141.699L154.947 30.432L165.955 0.671997C167.875 0.671997 169.667 0.671997 171.331 0.671997C173.038 0.629331 174.83 0.607998 176.707 0.607998V43.104H168.259V4.128ZM193.264 39.52C193.264 40.7573 192.816 41.824 191.92 42.72C191.067 43.616 190 44.064 188.72 44.064C187.44 44.064 186.373 43.616 185.52 42.72C184.667 41.824 184.24 40.7573 184.24 39.52C184.24 38.2827 184.667 37.2373 185.52 36.384C186.416 35.488 187.483 35.04 188.72 35.04C190 35.04 191.067 35.488 191.92 36.384C192.816 37.2373 193.264 38.2827 193.264 39.52Z" fill="#ADB7FF"/>
<mask id="path-2-outside-1_118_299" maskUnits="userSpaceOnUse" x="1" y="1" width="191" height="47" fill="black">
<rect fill="white" x="1" y="1" width="191" height="47"/>
<path d="M36.032 2.672V7.088L33.792 4.4H14.08V21.168H28.736V22.896H14.08V45.104H5.568V5.04C5.26933 4.656 4.94933 4.272 4.608 3.888C4.26667 3.504 3.92533 3.09866 3.584 2.672H36.032ZM73.928 45.04H65.864L53.064 25.392H50.376V45.04H41.864V5.04C41.5653 4.656 41.2453 4.272 40.904 3.888C40.5627 3.504 40.2213 3.09866 39.88 2.672H62.216C63.7947 2.672 65.2667 2.97066 66.632 3.568C68.04 4.16533 69.256 4.976 70.28 6C71.304 7.024 72.1147 8.24 72.712 9.648C73.3093 11.0133 73.608 12.4853 73.608 14.064C73.608 15.6 73.288 17.0507 72.648 18.416C72.008 19.7387 71.112 20.912 69.96 21.936C68.8507 22.96 67.528 23.792 65.992 24.432C64.4987 25.0293 62.8987 25.392 61.192 25.52L73.928 45.04ZM55.368 23.728C56.6907 23.728 57.928 23.472 59.08 22.96C60.2747 22.448 61.2987 21.7653 62.152 20.912C63.048 20.016 63.752 18.992 64.264 17.84C64.776 16.6453 65.032 15.3867 65.032 14.064C65.032 12.8267 64.7973 11.6747 64.328 10.608C63.9013 9.49866 63.304 8.51733 62.536 7.664C61.768 6.768 60.872 6.04267 59.848 5.488C58.824 4.93333 57.7147 4.57066 56.52 4.4H50.376V23.728H55.368ZM100.019 2.672C102.963 2.672 105.715 3.22666 108.275 4.336C110.835 5.44533 113.054 6.96 114.931 8.88C116.851 10.8 118.366 13.0613 119.475 15.664C120.584 18.224 121.139 20.976 121.139 23.92C121.139 26.864 120.584 29.616 119.475 32.176C118.366 34.736 116.851 36.976 114.931 38.896C113.054 40.816 110.835 42.3307 108.275 43.44C105.715 44.5493 102.963 45.104 100.019 45.104C97.075 45.104 94.3017 44.5493 91.699 43.44C89.139 42.3307 86.899 40.816 84.979 38.896C83.059 36.976 81.5443 34.736 80.435 32.176C79.3257 29.616 78.771 26.864 78.771 23.92C78.771 20.976 79.3257 18.224 80.435 15.664C81.5443 13.0613 83.059 10.8 84.979 8.88C86.899 6.96 89.139 5.44533 91.699 4.336C94.3017 3.22666 97.075 2.672 100.019 2.672ZM100.019 43.376C101.726 43.376 103.347 42.864 104.883 41.84C106.419 40.816 107.763 39.4293 108.915 37.68C110.067 35.9307 110.984 33.8827 111.667 31.536C112.35 29.1467 112.691 26.608 112.691 23.92C112.691 21.232 112.35 18.7147 111.667 16.368C110.984 13.9787 110.067 11.9093 108.915 10.16C107.763 8.368 106.419 6.96 104.883 5.936C103.347 4.912 101.726 4.4 100.019 4.4C98.2697 4.4 96.6057 4.912 95.027 5.936C93.491 6.96 92.147 8.368 90.995 10.16C89.843 11.9093 88.9257 13.9787 88.243 16.368C87.603 18.7147 87.283 21.232 87.283 23.92C87.283 26.608 87.603 29.1467 88.243 31.536C88.9257 33.8827 89.843 35.9307 90.995 37.68C92.147 39.4293 93.491 40.816 95.027 41.84C96.6057 42.864 98.2697 43.376 100.019 43.376ZM165.259 6.128L163.531 5.808L148.939 45.04H146.635L132.043 7.152L130.315 7.472L130.251 42.416V45.104H128.523V5.04C128.224 4.656 127.904 4.272 127.563 3.888C127.222 3.504 126.88 3.09866 126.539 2.672H138.699L151.947 32.432L162.955 2.672C164.875 2.672 166.667 2.672 168.331 2.672C170.038 2.62933 171.83 2.608 173.707 2.608V45.104H165.259V6.128ZM190.264 41.52C190.264 42.7573 189.816 43.824 188.92 44.72C188.067 45.616 187 46.064 185.72 46.064C184.44 46.064 183.373 45.616 182.52 44.72C181.667 43.824 181.24 42.7573 181.24 41.52C181.24 40.2827 181.667 39.2373 182.52 38.384C183.416 37.488 184.483 37.04 185.72 37.04C187 37.04 188.067 37.488 188.92 38.384C189.816 39.2373 190.264 40.2827 190.264 41.52Z"/>
</mask>
<path d="M36.032 2.672H37.032V1.672H36.032V2.672ZM36.032 7.088L35.2638 7.72818L37.032 9.85005V7.088H36.032ZM33.792 4.4L34.5602 3.75981L34.2604 3.4H33.792V4.4ZM14.08 4.4V3.4H13.08V4.4H14.08ZM14.08 21.168H13.08V22.168H14.08V21.168ZM28.736 21.168H29.736V20.168H28.736V21.168ZM28.736 22.896V23.896H29.736V22.896H28.736ZM14.08 22.896V21.896H13.08V22.896H14.08ZM14.08 45.104V46.104H15.08V45.104H14.08ZM5.568 45.104H4.568V46.104H5.568V45.104ZM5.568 5.04H6.568V4.69689L6.35735 4.42606L5.568 5.04ZM3.584 2.672V1.672H1.50337L2.80313 3.29669L3.584 2.672ZM35.032 2.672V7.088H37.032V2.672H35.032ZM36.8002 6.44781L34.5602 3.75981L33.0238 5.04018L35.2638 7.72818L36.8002 6.44781ZM33.792 3.4H14.08V5.4H33.792V3.4ZM13.08 4.4V21.168H15.08V4.4H13.08ZM14.08 22.168H28.736V20.168H14.08V22.168ZM27.736 21.168V22.896H29.736V21.168H27.736ZM28.736 21.896H14.08V23.896H28.736V21.896ZM13.08 22.896V45.104H15.08V22.896H13.08ZM14.08 44.104H5.568V46.104H14.08V44.104ZM6.568 45.104V5.04H4.568V45.104H6.568ZM6.35735 4.42606C6.04454 4.02386 5.71047 3.62307 5.35541 3.22363L3.86059 4.55236C4.1882 4.92092 4.49413 5.28813 4.77865 5.65394L6.35735 4.42606ZM5.35541 3.22363C5.02627 2.85335 4.69607 2.4613 4.36487 2.0473L2.80313 3.29669C3.1546 3.73602 3.50707 4.15465 3.86059 4.55236L5.35541 3.22363ZM3.584 3.672H36.032V1.672H3.584V3.672ZM73.928 45.04V46.04H75.7745L74.7655 44.4936L73.928 45.04ZM65.864 45.04L65.0261 45.5859L65.322 46.04H65.864V45.04ZM53.064 25.392L53.9019 24.8461L53.606 24.392H53.064V25.392ZM50.376 25.392V24.392H49.376V25.392H50.376ZM50.376 45.04V46.04H51.376V45.04H50.376ZM41.864 45.04H40.864V46.04H41.864V45.04ZM41.864 5.04H42.864V4.69689L42.6534 4.42606L41.864 5.04ZM39.88 2.672V1.672H37.7994L39.0991 3.29669L39.88 2.672ZM66.632 3.568L66.2312 4.48421L66.2415 4.48858L66.632 3.568ZM70.28 6L69.5729 6.70711L69.5729 6.70711L70.28 6ZM72.712 9.648L71.7914 10.0386L71.7958 10.0488L72.712 9.648ZM72.648 18.416L73.5482 18.8516L73.5535 18.8404L72.648 18.416ZM69.96 21.936L69.2956 21.1886L69.2886 21.1948L69.2817 21.2012L69.96 21.936ZM65.992 24.432L66.3634 25.3605L66.37 25.3578L66.3766 25.3551L65.992 24.432ZM61.192 25.52L61.1172 24.5228L59.4299 24.6493L60.3545 26.0664L61.192 25.52ZM59.08 22.96L58.686 22.0408L58.6739 22.0462L59.08 22.96ZM64.264 17.84L65.1779 18.2462L65.1831 18.2339L64.264 17.84ZM64.328 10.608L63.3947 10.967L63.4032 10.9891L63.4127 11.0107L64.328 10.608ZM62.536 7.664L61.7767 8.31479L61.7846 8.32397L61.7927 8.33296L62.536 7.664ZM59.848 5.488L60.3243 4.60871L60.3243 4.60871L59.848 5.488ZM56.52 4.4L56.6614 3.41005L56.5911 3.4H56.52V4.4ZM50.376 4.4V3.4H49.376V4.4H50.376ZM50.376 23.728H49.376V24.728H50.376V23.728ZM73.928 44.04H65.864V46.04H73.928V44.04ZM66.7019 44.4941L53.9019 24.8461L52.2261 25.9378L65.0261 45.5859L66.7019 44.4941ZM53.064 24.392H50.376V26.392H53.064V24.392ZM49.376 25.392V45.04H51.376V25.392H49.376ZM50.376 44.04H41.864V46.04H50.376V44.04ZM42.864 45.04V5.04H40.864V45.04H42.864ZM42.6534 4.42606C42.3405 4.02386 42.0065 3.62307 41.6514 3.22363L40.1566 4.55236C40.4842 4.92092 40.7901 5.28813 41.0746 5.65394L42.6534 4.42606ZM41.6514 3.22363C41.3223 2.85335 40.9921 2.4613 40.6609 2.0473L39.0991 3.29669C39.4506 3.73602 39.8031 4.15465 40.1566 4.55236L41.6514 3.22363ZM39.88 3.672H62.216V1.672H39.88V3.672ZM62.216 3.672C63.665 3.672 64.9997 3.94536 66.2312 4.48415L67.0328 2.65184C65.5337 1.99597 63.9243 1.672 62.216 1.672V3.672ZM66.2415 4.48858C67.5379 5.0386 68.6448 5.77896 69.5729 6.70711L70.9871 5.29289C69.8673 4.17303 68.5421 3.29206 67.0226 2.64742L66.2415 4.48858ZM69.5729 6.70711C70.501 7.63525 71.2414 8.74207 71.7914 10.0385L73.6326 9.25745C72.9879 7.73793 72.107 6.41275 70.9871 5.29289L69.5729 6.70711ZM71.7958 10.0488C72.3346 11.2803 72.608 12.615 72.608 14.064H74.608C74.608 12.3557 74.284 10.7463 73.6282 9.24718L71.7958 10.0488ZM72.608 14.064C72.608 15.4561 72.3191 16.7616 71.7425 17.9916L73.5535 18.8404C74.2569 17.3397 74.608 15.7439 74.608 14.064H72.608ZM71.7478 17.9804C71.1679 19.1789 70.3542 20.2477 69.2956 21.1886L70.6244 22.6834C71.8698 21.5763 72.8481 20.2984 73.5482 18.8516L71.7478 17.9804ZM69.2817 21.2012C68.2669 22.138 67.0462 22.9094 65.6074 23.5089L66.3766 25.3551C68.0098 24.6746 69.4345 23.782 70.6383 22.6708L69.2817 21.2012ZM65.6206 23.5035C64.228 24.0606 62.7286 24.4019 61.1172 24.5228L61.2668 26.5172C63.0687 26.3821 64.7694 25.9981 66.3634 25.3605L65.6206 23.5035ZM60.3545 26.0664L73.0905 45.5864L74.7655 44.4936L62.0295 24.9736L60.3545 26.0664ZM55.368 24.728C56.8236 24.728 58.2 24.4454 59.4861 23.8738L58.6739 22.0462C57.656 22.4986 56.5578 22.728 55.368 22.728V24.728ZM59.4739 23.8791C60.7764 23.3209 61.9091 22.5691 62.8591 21.6191L61.4449 20.2049C60.6882 20.9615 59.7729 21.5751 58.6861 22.0409L59.4739 23.8791ZM62.8591 21.6191C63.8414 20.6368 64.6157 19.5109 65.1778 18.2461L63.3502 17.4339C62.8883 18.4731 62.2546 19.3952 61.4449 20.2049L62.8591 21.6191ZM65.1831 18.2339C65.7495 16.9125 66.032 15.5196 66.032 14.064H64.032C64.032 15.2537 63.8026 16.3781 63.3449 17.4461L65.1831 18.2339ZM66.032 14.064C66.032 12.6967 65.7719 11.4066 65.2433 10.2053L63.4127 11.0107C63.8228 11.9427 64.032 12.9566 64.032 14.064H66.032ZM65.2613 10.249C64.7924 9.0297 64.1319 7.94241 63.2793 6.99503L61.7927 8.33296C62.4761 9.09225 63.0103 9.96762 63.3947 10.967L65.2613 10.249ZM63.2953 7.01321C62.4488 6.02565 61.4572 5.22239 60.3243 4.60871L59.3717 6.36729C60.2868 6.86294 61.0872 7.51035 61.7767 8.31479L63.2953 7.01321ZM60.3243 4.60871C59.1923 3.99557 57.9691 3.59686 56.6614 3.41005L56.3786 5.38995C57.4603 5.54447 58.4557 5.8711 59.3717 6.36729L60.3243 4.60871ZM56.52 3.4H50.376V5.4H56.52V3.4ZM49.376 4.4V23.728H51.376V4.4H49.376ZM50.376 24.728H55.368V22.728H50.376V24.728ZM108.275 4.336L107.877 5.25355L107.877 5.25355L108.275 4.336ZM114.931 8.88L114.216 9.57916L114.224 9.5871L114.931 8.88ZM119.475 15.664L118.555 16.0561L118.557 16.0616L119.475 15.664ZM119.475 32.176L120.393 32.5736L120.393 32.5736L119.475 32.176ZM114.931 38.896L114.224 38.1888L114.216 38.1969L114.931 38.896ZM108.275 43.44L107.877 42.5224L107.877 42.5224L108.275 43.44ZM91.699 43.44L91.3014 44.3576L91.3069 44.3599L91.699 43.44ZM84.979 38.896L85.6861 38.1889L85.6861 38.1889L84.979 38.896ZM80.435 32.176L79.5174 32.5736L79.5174 32.5736L80.435 32.176ZM80.435 15.664L81.3526 16.0616L81.3549 16.0561L80.435 15.664ZM84.979 8.88L84.2719 8.17289L84.2719 8.17289L84.979 8.88ZM91.699 4.336L91.3069 3.41606L91.3014 3.41844L91.699 4.336ZM104.883 41.84L105.438 42.6721L105.438 42.672L104.883 41.84ZM108.915 37.68L108.08 37.13L108.08 37.13L108.915 37.68ZM111.667 31.536L112.627 31.8153L112.629 31.8107L111.667 31.536ZM111.667 16.368L110.705 16.6427L110.707 16.6473L111.667 16.368ZM108.915 10.16L108.074 10.7008L108.08 10.71L108.915 10.16ZM104.883 5.936L105.438 5.10395L105.438 5.10395L104.883 5.936ZM95.027 5.936L94.4828 5.09697L94.4723 5.10395L95.027 5.936ZM90.995 10.16L91.8302 10.71L91.8362 10.7008L90.995 10.16ZM88.243 16.368L87.2814 16.0933L87.2782 16.1049L88.243 16.368ZM88.243 31.536L87.2771 31.7947L87.2798 31.8051L87.2828 31.8153L88.243 31.536ZM90.995 37.68L91.8302 37.13L91.8302 37.13L90.995 37.68ZM95.027 41.84L94.4723 42.6721L94.4828 42.679L95.027 41.84ZM100.019 3.672C102.834 3.672 105.45 4.20158 107.877 5.25355L108.673 3.41844C105.98 2.25175 103.092 1.672 100.019 1.672V3.672ZM107.877 5.25355C110.323 6.31339 112.433 7.75543 114.216 9.57911L115.646 8.18088C113.675 6.16457 111.347 4.57728 108.673 3.41844L107.877 5.25355ZM114.224 9.5871C116.05 11.4129 117.494 13.5661 118.555 16.0561L120.395 15.2719C119.238 12.5566 117.652 10.1871 115.638 8.17289L114.224 9.5871ZM118.557 16.0616C119.609 18.4892 120.139 21.1051 120.139 23.92H122.139C122.139 20.8469 121.559 17.9588 120.393 15.2664L118.557 16.0616ZM120.139 23.92C120.139 26.7349 119.609 29.3508 118.557 31.7784L120.393 32.5736C121.559 29.8812 122.139 26.9931 122.139 23.92H120.139ZM118.557 31.7784C117.497 34.2261 116.052 36.3604 114.224 38.1889L115.638 39.6031C117.65 37.5916 119.235 35.2459 120.393 32.5736L118.557 31.7784ZM114.216 38.1969C112.433 40.0206 110.323 41.4626 107.877 42.5224L108.673 44.3576C111.347 43.1987 113.675 41.6114 115.646 39.5951L114.216 38.1969ZM107.877 42.5224C105.45 43.5744 102.834 44.104 100.019 44.104V46.104C103.092 46.104 105.98 45.5242 108.673 44.3576L107.877 42.5224ZM100.019 44.104C97.2042 44.104 94.5648 43.5744 92.0911 42.5201L91.3069 44.3599C94.0386 45.5242 96.9458 46.104 100.019 46.104V44.104ZM92.0966 42.5224C89.6489 41.4618 87.5146 40.0174 85.6861 38.1889L84.2719 39.6031C86.2834 41.6146 88.6291 43.1996 91.3014 44.3576L92.0966 42.5224ZM85.6861 38.1889C83.8576 36.3604 82.4133 34.2261 81.3526 31.7784L79.5174 32.5736C80.6754 35.2459 82.2604 37.5916 84.2719 39.6031L85.6861 38.1889ZM81.3526 31.7784C80.3006 29.3508 79.771 26.7349 79.771 23.92H77.771C77.771 26.9931 78.3508 29.8812 79.5174 32.5736L81.3526 31.7784ZM79.771 23.92C79.771 21.1051 80.3006 18.4892 81.3526 16.0616L79.5174 15.2664C78.3508 17.9588 77.771 20.8469 77.771 23.92H79.771ZM81.3549 16.0561C82.4163 13.5661 83.8603 11.4129 85.6861 9.5871L84.2719 8.17289C82.2577 10.1871 80.6724 12.5566 79.5151 15.2719L81.3549 16.0561ZM85.6861 9.5871C87.5146 7.75857 89.6489 6.31425 92.0966 5.25355L91.3014 3.41844C88.6291 4.57642 86.2834 6.16142 84.2719 8.17289L85.6861 9.5871ZM92.0911 5.25592C94.5648 4.20157 97.2042 3.672 100.019 3.672V1.672C96.9458 1.672 94.0386 2.25176 91.3069 3.41608L92.0911 5.25592ZM100.019 44.376C101.939 44.376 103.751 43.7962 105.438 42.6721L104.328 41.0079C102.943 41.9318 101.512 42.376 100.019 42.376V44.376ZM105.438 42.672C107.099 41.5644 108.534 40.0762 109.75 38.23L108.08 37.13C106.992 38.7825 105.739 40.0676 104.328 41.0079L105.438 42.672ZM109.75 38.23C110.965 36.3846 111.921 34.2424 112.627 31.8153L110.707 31.2567C110.048 33.523 109.169 35.4767 108.08 37.13L109.75 38.23ZM112.629 31.8107C113.339 29.3251 113.691 26.6934 113.691 23.92H111.691C111.691 26.5226 111.361 28.9683 110.705 31.2613L112.629 31.8107ZM113.691 23.92C113.691 21.1468 113.339 18.5347 112.627 16.0887L110.707 16.6473C111.361 18.8947 111.691 21.3172 111.691 23.92H113.691ZM112.629 16.0933C111.923 13.624 110.967 11.4582 109.75 9.61001L108.08 10.71C109.167 12.3604 110.046 14.3334 110.705 16.6427L112.629 16.0933ZM109.756 9.61924C108.541 7.72917 107.105 6.21516 105.438 5.10395L104.328 6.76805C105.733 7.70483 106.985 9.00683 108.074 10.7008L109.756 9.61924ZM105.438 5.10395C103.751 3.97979 101.939 3.4 100.019 3.4V5.4C101.512 5.4 102.943 5.8442 104.328 6.76805L105.438 5.10395ZM100.019 3.4C98.0618 3.4 96.2107 3.97624 94.4828 5.09704L95.5712 6.77496C97.0006 5.84775 98.4775 5.4 100.019 5.4V3.4ZM94.4723 5.10395C92.8055 6.21516 91.3689 7.72917 90.1538 9.61924L91.8362 10.7008C92.9251 9.00683 94.1765 7.70483 95.5817 6.76805L94.4723 5.10395ZM90.1598 9.61001C88.9427 11.4582 87.987 13.624 87.2815 16.0933L89.2045 16.6427C89.8643 14.3334 90.7433 12.3604 91.8302 10.71L90.1598 9.61001ZM87.2782 16.1049C86.6125 18.5458 86.283 21.1523 86.283 23.92H88.283C88.283 21.3117 88.5935 18.8836 89.2078 16.6311L87.2782 16.1049ZM86.283 23.92C86.283 26.6879 86.6126 29.3141 87.2771 31.7947L89.209 31.2773C88.5934 28.9793 88.283 26.5281 88.283 23.92H86.283ZM87.2828 31.8153C87.9889 34.2424 88.9446 36.3846 90.1598 38.23L91.8302 37.13C90.7414 35.4767 89.8625 33.523 89.2032 31.2567L87.2828 31.8153ZM90.1598 38.23C91.3756 40.0762 92.8108 41.5644 94.4723 42.6721L95.5817 41.0079C94.1712 40.0676 92.9184 38.7825 91.8302 37.13L90.1598 38.23ZM94.4828 42.679C96.2107 43.7998 98.0618 44.376 100.019 44.376V42.376C98.4775 42.376 97.0006 41.9282 95.5712 41.001L94.4828 42.679ZM165.259 6.128H166.259V5.29618L165.441 5.14472L165.259 6.128ZM163.531 5.808L163.713 4.82472L162.887 4.67168L162.594 5.45939L163.531 5.808ZM148.939 45.04V46.04H149.634L149.876 45.3886L148.939 45.04ZM146.635 45.04L145.702 45.3994L145.949 46.04H146.635V45.04ZM132.043 7.152L132.976 6.7926L132.678 6.01747L131.861 6.16871L132.043 7.152ZM130.315 7.472L130.133 6.48871L129.317 6.6399L129.315 7.47016L130.315 7.472ZM130.251 42.416L129.251 42.4142V42.416H130.251ZM130.251 45.104V46.104H131.251V45.104H130.251ZM128.523 45.104H127.523V46.104H128.523V45.104ZM128.523 5.04H129.523V4.69689L129.312 4.42606L128.523 5.04ZM126.539 2.672V1.672H124.458L125.758 3.29669L126.539 2.672ZM138.699 2.672L139.613 2.26531L139.348 1.672H138.699V2.672ZM151.947 32.432L151.033 32.8387L152.033 35.0831L152.885 32.7789L151.947 32.432ZM162.955 2.672V1.672H162.259L162.017 2.32508L162.955 2.672ZM168.331 2.672V3.672H168.343L168.356 3.67168L168.331 2.672ZM173.707 2.608H174.707V1.608H173.707V2.608ZM173.707 45.104V46.104H174.707V45.104H173.707ZM165.259 45.104H164.259V46.104H165.259V45.104ZM165.441 5.14472L163.713 4.82472L163.349 6.79128L165.077 7.11128L165.441 5.14472ZM162.594 5.45939L148.002 44.6914L149.876 45.3886L164.468 6.15661L162.594 5.45939ZM148.939 44.04H146.635V46.04H148.939V44.04ZM147.568 44.6806L132.976 6.7926L131.11 7.5114L145.702 45.3994L147.568 44.6806ZM131.861 6.16871L130.133 6.48871L130.497 8.45528L132.225 8.13528L131.861 6.16871ZM129.315 7.47016L129.251 42.4142L131.251 42.4178L131.315 7.47383L129.315 7.47016ZM129.251 42.416V45.104H131.251V42.416H129.251ZM130.251 44.104H128.523V46.104H130.251V44.104ZM129.523 45.104V5.04H127.523V45.104H129.523ZM129.312 4.42606C129 4.02386 128.665 3.62307 128.31 3.22363L126.816 4.55236C127.143 4.92092 127.449 5.28813 127.734 5.65394L129.312 4.42606ZM128.31 3.22363C127.981 2.85335 127.651 2.4613 127.32 2.0473L125.758 3.29669C126.11 3.73602 126.462 4.15465 126.816 4.55236L128.31 3.22363ZM126.539 3.672H138.699V1.672H126.539V3.672ZM137.785 3.07868L151.033 32.8387L152.861 32.0253L139.613 2.26531L137.785 3.07868ZM152.885 32.7789L163.893 3.01892L162.017 2.32508L151.009 32.0851L152.885 32.7789ZM162.955 3.672C162.959 3.672 162.963 3.672 162.966 3.672C162.97 3.672 162.974 3.672 162.977 3.672C162.981 3.672 162.985 3.672 162.989 3.672C162.992 3.672 162.996 3.672 163 3.672C163.004 3.672 163.007 3.672 163.011 3.672C163.015 3.672 163.019 3.672 163.022 3.672C163.026 3.672 163.03 3.672 163.034 3.672C163.037 3.672 163.041 3.672 163.045 3.672C163.049 3.672 163.052 3.672 163.056 3.672C163.06 3.672 163.064 3.672 163.067 3.672C163.071 3.672 163.075 3.672 163.079 3.672C163.082 3.672 163.086 3.672 163.09 3.672C163.094 3.672 163.097 3.672 163.101 3.672C163.105 3.672 163.108 3.672 163.112 3.672C163.116 3.672 163.12 3.672 163.123 3.672C163.127 3.672 163.131 3.672 163.135 3.672C163.138 3.672 163.142 3.672 163.146 3.672C163.15 3.672 163.153 3.672 163.157 3.672C163.161 3.672 163.164 3.672 163.168 3.672C163.172 3.672 163.176 3.672 163.179 3.672C163.183 3.672 163.187 3.672 163.191 3.672C163.194 3.672 163.198 3.672 163.202 3.672C163.206 3.672 163.209 3.672 163.213 3.672C163.217 3.672 163.22 3.672 163.224 3.672C163.228 3.672 163.232 3.672 163.235 3.672C163.239 3.672 163.243 3.672 163.247 3.672C163.25 3.672 163.254 3.672 163.258 3.672C163.261 3.672 163.265 3.672 163.269 3.672C163.273 3.672 163.276 3.672 163.28 3.672C163.284 3.672 163.287 3.672 163.291 3.672C163.295 3.672 163.299 3.672 163.302 3.672C163.306 3.672 163.31 3.672 163.314 3.672C163.317 3.672 163.321 3.672 163.325 3.672C163.328 3.672 163.332 3.672 163.336 3.672C163.34 3.672 163.343 3.672 163.347 3.672C163.351 3.672 163.354 3.672 163.358 3.672C163.362 3.672 163.366 3.672 163.369 3.672C163.373 3.672 163.377 3.672 163.38 3.672C163.384 3.672 163.388 3.672 163.392 3.672C163.395 3.672 163.399 3.672 163.403 3.672C163.406 3.672 163.41 3.672 163.414 3.672C163.417 3.672 163.421 3.672 163.425 3.672C163.429 3.672 163.432 3.672 163.436 3.672C163.44 3.672 163.443 3.672 163.447 3.672C163.451 3.672 163.455 3.672 163.458 3.672C163.462 3.672 163.466 3.672 163.469 3.672C163.473 3.672 163.477 3.672 163.481 3.672C163.484 3.672 163.488 3.672 163.492 3.672C163.495 3.672 163.499 3.672 163.503 3.672C163.506 3.672 163.51 3.672 163.514 3.672C163.518 3.672 163.521 3.672 163.525 3.672C163.529 3.672 163.532 3.672 163.536 3.672C163.54 3.672 163.543 3.672 163.547 3.672C163.551 3.672 163.555 3.672 163.558 3.672C163.562 3.672 163.566 3.672 163.569 3.672C163.573 3.672 163.577 3.672 163.58 3.672C163.584 3.672 163.588 3.672 163.591 3.672C163.595 3.672 163.599 3.672 163.603 3.672C163.606 3.672 163.61 3.672 163.614 3.672C163.617 3.672 163.621 3.672 163.625 3.672C163.628 3.672 163.632 3.672 163.636 3.672C163.639 3.672 163.643 3.672 163.647 3.672C163.651 3.672 163.654 3.672 163.658 3.672C163.662 3.672 163.665 3.672 163.669 3.672C163.673 3.672 163.676 3.672 163.68 3.672C163.684 3.672 163.687 3.672 163.691 3.672C163.695 3.672 163.698 3.672 163.702 3.672C163.706 3.672 163.71 3.672 163.713 3.672C163.717 3.672 163.721 3.672 163.724 3.672C163.728 3.672 163.732 3.672 163.735 3.672C163.739 3.672 163.743 3.672 163.746 3.672C163.75 3.672 163.754 3.672 163.757 3.672C163.761 3.672 163.765 3.672 163.768 3.672C163.772 3.672 163.776 3.672 163.779 3.672C163.783 3.672 163.787 3.672 163.791 3.672C163.794 3.672 163.798 3.672 163.802 3.672C163.805 3.672 163.809 3.672 163.813 3.672C163.816 3.672 163.82 3.672 163.824 3.672C163.827 3.672 163.831 3.672 163.835 3.672C163.838 3.672 163.842 3.672 163.846 3.672C163.849 3.672 163.853 3.672 163.857 3.672C163.86 3.672 163.864 3.672 163.868 3.672C163.871 3.672 163.875 3.672 163.879 3.672C163.882 3.672 163.886 3.672 163.89 3.672C163.893 3.672 163.897 3.672 163.901 3.672C163.904 3.672 163.908 3.672 163.912 3.672C163.915 3.672 163.919 3.672 163.923 3.672C163.926 3.672 163.93 3.672 163.934 3.672C163.937 3.672 163.941 3.672 163.945 3.672C163.948 3.672 163.952 3.672 163.956 3.672C163.959 3.672 163.963 3.672 163.967 3.672C163.97 3.672 163.974 3.672 163.978 3.672C163.981 3.672 163.985 3.672 163.989 3.672C163.992 3.672 163.996 3.672 164 3.672C164.003 3.672 164.007 3.672 164.011 3.672C164.014 3.672 164.018 3.672 164.022 3.672C164.025 3.672 164.029 3.672 164.032 3.672C164.036 3.672 164.04 3.672 164.043 3.672C164.047 3.672 164.051 3.672 164.054 3.672C164.058 3.672 164.062 3.672 164.065 3.672C164.069 3.672 164.073 3.672 164.076 3.672C164.08 3.672 164.084 3.672 164.087 3.672C164.091 3.672 164.095 3.672 164.098 3.672C164.102 3.672 164.106 3.672 164.109 3.672C164.113 3.672 164.116 3.672 164.12 3.672C164.124 3.672 164.127 3.672 164.131 3.672C164.135 3.672 164.138 3.672 164.142 3.672C164.146 3.672 164.149 3.672 164.153 3.672C164.157 3.672 164.16 3.672 164.164 3.672C164.167 3.672 164.171 3.672 164.175 3.672C164.178 3.672 164.182 3.672 164.186 3.672C164.189 3.672 164.193 3.672 164.197 3.672C164.2 3.672 164.204 3.672 164.208 3.672C164.211 3.672 164.215 3.672 164.218 3.672C164.222 3.672 164.226 3.672 164.229 3.672C164.233 3.672 164.237 3.672 164.24 3.672C164.244 3.672 164.248 3.672 164.251 3.672C164.255 3.672 164.258 3.672 164.262 3.672C164.266 3.672 164.269 3.672 164.273 3.672C164.277 3.672 164.28 3.672 164.284 3.672C164.288 3.672 164.291 3.672 164.295 3.672C164.298 3.672 164.302 3.672 164.306 3.672C164.309 3.672 164.313 3.672 164.317 3.672C164.32 3.672 164.324 3.672 164.327 3.672C164.331 3.672 164.335 3.672 164.338 3.672C164.342 3.672 164.346 3.672 164.349 3.672C164.353 3.672 164.356 3.672 164.36 3.672C164.364 3.672 164.367 3.672 164.371 3.672C164.375 3.672 164.378 3.672 164.382 3.672C164.385 3.672 164.389 3.672 164.393 3.672C164.396 3.672 164.4 3.672 164.404 3.672C164.407 3.672 164.411 3.672 164.414 3.672C164.418 3.672 164.422 3.672 164.425 3.672C164.429 3.672 164.433 3.672 164.436 3.672C164.44 3.672 164.443 3.672 164.447 3.672C164.451 3.672 164.454 3.672 164.458 3.672C164.462 3.672 164.465 3.672 164.469 3.672C164.472 3.672 164.476 3.672 164.48 3.672C164.483 3.672 164.487 3.672 164.49 3.672C164.494 3.672 164.498 3.672 164.501 3.672C164.505 3.672 164.509 3.672 164.512 3.672C164.516 3.672 164.519 3.672 164.523 3.672C164.527 3.672 164.53 3.672 164.534 3.672C164.537 3.672 164.541 3.672 164.545 3.672C164.548 3.672 164.552 3.672 164.555 3.672C164.559 3.672 164.563 3.672 164.566 3.672C164.57 3.672 164.573 3.672 164.577 3.672C164.581 3.672 164.584 3.672 164.588 3.672C164.592 3.672 164.595 3.672 164.599 3.672C164.602 3.672 164.606 3.672 164.61 3.672C164.613 3.672 164.617 3.672 164.62 3.672C164.624 3.672 164.628 3.672 164.631 3.672C164.635 3.672 164.638 3.672 164.642 3.672C164.646 3.672 164.649 3.672 164.653 3.672C164.656 3.672 164.66 3.672 164.664 3.672C164.667 3.672 164.671 3.672 164.674 3.672C164.678 3.672 164.682 3.672 164.685 3.672C164.689 3.672 164.692 3.672 164.696 3.672C164.7 3.672 164.703 3.672 164.707 3.672C164.71 3.672 164.714 3.672 164.718 3.672C164.721 3.672 164.725 3.672 164.728 3.672C164.732 3.672 164.735 3.672 164.739 3.672C164.743 3.672 164.746 3.672 164.75 3.672C164.753 3.672 164.757 3.672 164.761 3.672C164.764 3.672 164.768 3.672 164.771 3.672C164.775 3.672 164.779 3.672 164.782 3.672C164.786 3.672 164.789 3.672 164.793 3.672C164.796 3.672 164.8 3.672 164.804 3.672C164.807 3.672 164.811 3.672 164.814 3.672C164.818 3.672 164.822 3.672 164.825 3.672C164.829 3.672 164.832 3.672 164.836 3.672C164.84 3.672 164.843 3.672 164.847 3.672C164.85 3.672 164.854 3.672 164.857 3.672C164.861 3.672 164.865 3.672 164.868 3.672C164.872 3.672 164.875 3.672 164.879 3.672C164.882 3.672 164.886 3.672 164.89 3.672C164.893 3.672 164.897 3.672 164.9 3.672C164.904 3.672 164.908 3.672 164.911 3.672C164.915 3.672 164.918 3.672 164.922 3.672C164.925 3.672 164.929 3.672 164.933 3.672C164.936 3.672 164.94 3.672 164.943 3.672C164.947 3.672 164.95 3.672 164.954 3.672C164.958 3.672 164.961 3.672 164.965 3.672C164.968 3.672 164.972 3.672 164.975 3.672C164.979 3.672 164.983 3.672 164.986 3.672C164.99 3.672 164.993 3.672 164.997 3.672C165 3.672 165.004 3.672 165.008 3.672C165.011 3.672 165.015 3.672 165.018 3.672C165.022 3.672 165.025 3.672 165.029 3.672C165.032 3.672 165.036 3.672 165.04 3.672C165.043 3.672 165.047 3.672 165.05 3.672C165.054 3.672 165.057 3.672 165.061 3.672C165.065 3.672 165.068 3.672 165.072 3.672C165.075 3.672 165.079 3.672 165.082 3.672C165.086 3.672 165.089 3.672 165.093 3.672C165.097 3.672 165.1 3.672 165.104 3.672C165.107 3.672 165.111 3.672 165.114 3.672C165.118 3.672 165.122 3.672 165.125 3.672C165.129 3.672 165.132 3.672 165.136 3.672C165.139 3.672 165.143 3.672 165.146 3.672C165.15 3.672 165.154 3.672 165.157 3.672C165.161 3.672 165.164 3.672 165.168 3.672C165.171 3.672 165.175 3.672 165.178 3.672C165.182 3.672 165.185 3.672 165.189 3.672C165.193 3.672 165.196 3.672 165.2 3.672C165.203 3.672 165.207 3.672 165.21 3.672C165.214 3.672 165.217 3.672 165.221 3.672C165.225 3.672 165.228 3.672 165.232 3.672C165.235 3.672 165.239 3.672 165.242 3.672C165.246 3.672 165.249 3.672 165.253 3.672C165.256 3.672 165.26 3.672 165.264 3.672C165.267 3.672 165.271 3.672 165.274 3.672C165.278 3.672 165.281 3.672 165.285 3.672C165.288 3.672 165.292 3.672 165.295 3.672C165.299 3.672 165.302 3.672 165.306 3.672C165.31 3.672 165.313 3.672 165.317 3.672C165.32 3.672 165.324 3.672 165.327 3.672C165.331 3.672 165.334 3.672 165.338 3.672C165.341 3.672 165.345 3.672 165.348 3.672C165.352 3.672 165.356 3.672 165.359 3.672C165.363 3.672 165.366 3.672 165.37 3.672C165.373 3.672 165.377 3.672 165.38 3.672C165.384 3.672 165.387 3.672 165.391 3.672C165.394 3.672 165.398 3.672 165.402 3.672C165.405 3.672 165.409 3.672 165.412 3.672C165.416 3.672 165.419 3.672 165.423 3.672C165.426 3.672 165.43 3.672 165.433 3.672C165.437 3.672 165.44 3.672 165.444 3.672C165.447 3.672 165.451 3.672 165.454 3.672C165.458 3.672 165.461 3.672 165.465 3.672C165.469 3.672 165.472 3.672 165.476 3.672C165.479 3.672 165.483 3.672 165.486 3.672C165.49 3.672 165.493 3.672 165.497 3.672C165.5 3.672 165.504 3.672 165.507 3.672C165.511 3.672 165.514 3.672 165.518 3.672C165.521 3.672 165.525 3.672 165.528 3.672C165.532 3.672 165.535 3.672 165.539 3.672C165.542 3.672 165.546 3.672 165.55 3.672C165.553 3.672 165.557 3.672 165.56 3.672C165.564 3.672 165.567 3.672 165.571 3.672C165.574 3.672 165.578 3.672 165.581 3.672C165.585 3.672 165.588 3.672 165.592 3.672C165.595 3.672 165.599 3.672 165.602 3.672C165.606 3.672 165.609 3.672 165.613 3.672C165.616 3.672 165.62 3.672 165.623 3.672C165.627 3.672 165.63 3.672 165.634 3.672C165.637 3.672 165.641 3.672 165.644 3.672C165.648 3.672 165.651 3.672 165.655 3.672C165.658 3.672 165.662 3.672 165.665 3.672C165.669 3.672 165.672 3.672 165.676 3.672C165.679 3.672 165.683 3.672 165.686 3.672C165.69 3.672 165.693 3.672 165.697 3.672C165.7 3.672 165.704 3.672 165.707 3.672C165.711 3.672 165.714 3.672 165.718 3.672C165.721 3.672 165.725 3.672 165.729 3.672C165.732 3.672 165.736 3.672 165.739 3.672C165.743 3.672 165.746 3.672 165.75 3.672C165.753 3.672 165.756 3.672 165.76 3.672C165.763 3.672 165.767 3.672 165.77 3.672C165.774 3.672 165.777 3.672 165.781 3.672C165.784 3.672 165.788 3.672 165.791 3.672C165.795 3.672 165.798 3.672 165.802 3.672C165.805 3.672 165.809 3.672 165.812 3.672C165.816 3.672 165.819 3.672 165.823 3.672C165.826 3.672 165.83 3.672 165.833 3.672C165.837 3.672 165.84 3.672 165.844 3.672C165.847 3.672 165.851 3.672 165.854 3.672C165.858 3.672 165.861 3.672 165.865 3.672C165.868 3.672 165.872 3.672 165.875 3.672C165.879 3.672 165.882 3.672 165.886 3.672C165.889 3.672 165.893 3.672 165.896 3.672C165.9 3.672 165.903 3.672 165.907 3.672C165.91 3.672 165.914 3.672 165.917 3.672C165.921 3.672 165.924 3.672 165.928 3.672C165.931 3.672 165.934 3.672 165.938 3.672C165.941 3.672 165.945 3.672 165.948 3.672C165.952 3.672 165.955 3.672 165.959 3.672C165.962 3.672 165.966 3.672 165.969 3.672C165.973 3.672 165.976 3.672 165.98 3.672C165.983 3.672 165.987 3.672 165.99 3.672C165.994 3.672 165.997 3.672 166.001 3.672C166.004 3.672 166.008 3.672 166.011 3.672C166.014 3.672 166.018 3.672 166.021 3.672C166.025 3.672 166.028 3.672 166.032 3.672C166.035 3.672 166.039 3.672 166.042 3.672C166.046 3.672 166.049 3.672 166.053 3.672C166.056 3.672 166.06 3.672 166.063 3.672C166.067 3.672 166.07 3.672 166.074 3.672C166.077 3.672 166.08 3.672 166.084 3.672C166.087 3.672 166.091 3.672 166.094 3.672C166.098 3.672 166.101 3.672 166.105 3.672C166.108 3.672 166.112 3.672 166.115 3.672C166.119 3.672 166.122 3.672 166.125 3.672C166.129 3.672 166.132 3.672 166.136 3.672C166.139 3.672 166.143 3.672 166.146 3.672C166.15 3.672 166.153 3.672 166.157 3.672C166.16 3.672 166.164 3.672 166.167 3.672C166.17 3.672 166.174 3.672 166.177 3.672C166.181 3.672 166.184 3.672 166.188 3.672C166.191 3.672 166.195 3.672 166.198 3.672C166.202 3.672 166.205 3.672 166.209 3.672C166.212 3.672 166.215 3.672 166.219 3.672C166.222 3.672 166.226 3.672 166.229 3.672C166.233 3.672 166.236 3.672 166.24 3.672C166.243 3.672 166.247 3.672 166.25 3.672C166.253 3.672 166.257 3.672 166.26 3.672C166.264 3.672 166.267 3.672 166.271 3.672C166.274 3.672 166.278 3.672 166.281 3.672C166.284 3.672 166.288 3.672 166.291 3.672C166.295 3.672 166.298 3.672 166.302 3.672C166.305 3.672 166.309 3.672 166.312 3.672C166.316 3.672 166.319 3.672 166.322 3.672C166.326 3.672 166.329 3.672 166.333 3.672C166.336 3.672 166.34 3.672 166.343 3.672C166.347 3.672 166.35 3.672 166.353 3.672C166.357 3.672 166.36 3.672 166.364 3.672C166.367 3.672 166.371 3.672 166.374 3.672C166.377 3.672 166.381 3.672 166.384 3.672C166.388 3.672 166.391 3.672 166.395 3.672C166.398 3.672 166.402 3.672 166.405 3.672C166.408 3.672 166.412 3.672 166.415 3.672C166.419 3.672 166.422 3.672 166.426 3.672C166.429 3.672 166.432 3.672 166.436 3.672C166.439 3.672 166.443 3.672 166.446 3.672C166.45 3.672 166.453 3.672 166.457 3.672C166.46 3.672 166.463 3.672 166.467 3.672C166.47 3.672 166.474 3.672 166.477 3.672C166.481 3.672 166.484 3.672 166.487 3.672C166.491 3.672 166.494 3.672 166.498 3.672C166.501 3.672 166.505 3.672 166.508 3.672C166.511 3.672 166.515 3.672 166.518 3.672C166.522 3.672 166.525 3.672 166.529 3.672C166.532 3.672 166.535 3.672 166.539 3.672C166.542 3.672 166.546 3.672 166.549 3.672C166.553 3.672 166.556 3.672 166.559 3.672C166.563 3.672 166.566 3.672 166.57 3.672C166.573 3.672 166.576 3.672 166.58 3.672C166.583 3.672 166.587 3.672 166.59 3.672C166.594 3.672 166.597 3.672 166.6 3.672C166.604 3.672 166.607 3.672 166.611 3.672C166.614 3.672 166.618 3.672 166.621 3.672C166.624 3.672 166.628 3.672 166.631 3.672C166.635 3.672 166.638 3.672 166.641 3.672C166.645 3.672 166.648 3.672 166.652 3.672C166.655 3.672 166.658 3.672 166.662 3.672C166.665 3.672 166.669 3.672 166.672 3.672C166.676 3.672 166.679 3.672 166.682 3.672C166.686 3.672 166.689 3.672 166.693 3.672C166.696 3.672 166.699 3.672 166.703 3.672C166.706 3.672 166.71 3.672 166.713 3.672C166.716 3.672 166.72 3.672 166.723 3.672C166.727 3.672 166.73 3.672 166.734 3.672C166.737 3.672 166.74 3.672 166.744 3.672C166.747 3.672 166.751 3.672 166.754 3.672C166.757 3.672 166.761 3.672 166.764 3.672C166.768 3.672 166.771 3.672 166.774 3.672C166.778 3.672 166.781 3.672 166.785 3.672C166.788 3.672 166.791 3.672 166.795 3.672C166.798 3.672 166.802 3.672 166.805 3.672C166.808 3.672 166.812 3.672 166.815 3.672C166.819 3.672 166.822 3.672 166.825 3.672C166.829 3.672 166.832 3.672 166.836 3.672C166.839 3.672 166.842 3.672 166.846 3.672C166.849 3.672 166.853 3.672 166.856 3.672C166.859 3.672 166.863 3.672 166.866 3.672C166.869 3.672 166.873 3.672 166.876 3.672C166.88 3.672 166.883 3.672 166.886 3.672C166.89 3.672 166.893 3.672 166.897 3.672C166.9 3.672 166.903 3.672 166.907 3.672C166.91 3.672 166.914 3.672 166.917 3.672C166.92 3.672 166.924 3.672 166.927 3.672C166.931 3.672 166.934 3.672 166.937 3.672C166.941 3.672 166.944 3.672 166.947 3.672C166.951 3.672 166.954 3.672 166.958 3.672C166.961 3.672 166.964 3.672 166.968 3.672C166.971 3.672 166.975 3.672 166.978 3.672C166.981 3.672 166.985 3.672 166.988 3.672C166.991 3.672 166.995 3.672 166.998 3.672C167.002 3.672 167.005 3.672 167.008 3.672C167.012 3.672 167.015 3.672 167.018 3.672C167.022 3.672 167.025 3.672 167.029 3.672C167.032 3.672 167.035 3.672 167.039 3.672C167.042 3.672 167.045 3.672 167.049 3.672C167.052 3.672 167.056 3.672 167.059 3.672C167.062 3.672 167.066 3.672 167.069 3.672C167.072 3.672 167.076 3.672 167.079 3.672C167.083 3.672 167.086 3.672 167.089 3.672C167.093 3.672 167.096 3.672 167.099 3.672C167.103 3.672 167.106 3.672 167.11 3.672C167.113 3.672 167.116 3.672 167.12 3.672C167.123 3.672 167.126 3.672 167.13 3.672C167.133 3.672 167.137 3.672 167.14 3.672C167.143 3.672 167.147 3.672 167.15 3.672C167.153 3.672 167.157 3.672 167.16 3.672C167.163 3.672 167.167 3.672 167.17 3.672C167.174 3.672 167.177 3.672 167.18 3.672C167.184 3.672 167.187 3.672 167.19 3.672C167.194 3.672 167.197 3.672 167.2 3.672C167.204 3.672 167.207 3.672 167.211 3.672C167.214 3.672 167.217 3.672 167.221 3.672C167.224 3.672 167.227 3.672 167.231 3.672C167.234 3.672 167.237 3.672 167.241 3.672C167.244 3.672 167.247 3.672 167.251 3.672C167.254 3.672 167.258 3.672 167.261 3.672C167.264 3.672 167.268 3.672 167.271 3.672C167.274 3.672 167.278 3.672 167.281 3.672C167.284 3.672 167.288 3.672 167.291 3.672C167.294 3.672 167.298 3.672 167.301 3.672C167.305 3.672 167.308 3.672 167.311 3.672C167.315 3.672 167.318 3.672 167.321 3.672C167.325 3.672 167.328 3.672 167.331 3.672C167.335 3.672 167.338 3.672 167.341 3.672C167.345 3.672 167.348 3.672 167.351 3.672C167.355 3.672 167.358 3.672 167.361 3.672C167.365 3.672 167.368 3.672 167.371 3.672C167.375 3.672 167.378 3.672 167.382 3.672C167.385 3.672 167.388 3.672 167.392 3.672C167.395 3.672 167.398 3.672 167.402 3.672C167.405 3.672 167.408 3.672 167.412 3.672C167.415 3.672 167.418 3.672 167.422 3.672C167.425 3.672 167.428 3.672 167.432 3.672C167.435 3.672 167.438 3.672 167.442 3.672C167.445 3.672 167.448 3.672 167.452 3.672C167.455 3.672 167.458 3.672 167.462 3.672C167.465 3.672 167.468 3.672 167.472 3.672C167.475 3.672 167.478 3.672 167.482 3.672C167.485 3.672 167.488 3.672 167.492 3.672C167.495 3.672 167.498 3.672 167.502 3.672C167.505 3.672 167.508 3.672 167.512 3.672C167.515 3.672 167.518 3.672 167.522 3.672C167.525 3.672 167.528 3.672 167.532 3.672C167.535 3.672 167.538 3.672 167.542 3.672C167.545 3.672 167.548 3.672 167.552 3.672C167.555 3.672 167.558 3.672 167.562 3.672C167.565 3.672 167.568 3.672 167.572 3.672C167.575 3.672 167.578 3.672 167.582 3.672C167.585 3.672 167.588 3.672 167.592 3.672C167.595 3.672 167.598 3.672 167.601 3.672C167.605 3.672 167.608 3.672 167.611 3.672C167.615 3.672 167.618 3.672 167.621 3.672C167.625 3.672 167.628 3.672 167.631 3.672C167.635 3.672 167.638 3.672 167.641 3.672C167.645 3.672 167.648 3.672 167.651 3.672C167.655 3.672 167.658 3.672 167.661 3.672C167.665 3.672 167.668 3.672 167.671 3.672C167.674 3.672 167.678 3.672 167.681 3.672C167.684 3.672 167.688 3.672 167.691 3.672C167.694 3.672 167.698 3.672 167.701 3.672C167.704 3.672 167.708 3.672 167.711 3.672C167.714 3.672 167.718 3.672 167.721 3.672C167.724 3.672 167.727 3.672 167.731 3.672C167.734 3.672 167.737 3.672 167.741 3.672C167.744 3.672 167.747 3.672 167.751 3.672C167.754 3.672 167.757 3.672 167.761 3.672C167.764 3.672 167.767 3.672 167.77 3.672C167.774 3.672 167.777 3.672 167.78 3.672C167.784 3.672 167.787 3.672 167.79 3.672C167.794 3.672 167.797 3.672 167.8 3.672C167.804 3.672 167.807 3.672 167.81 3.672C167.813 3.672 167.817 3.672 167.82 3.672C167.823 3.672 167.827 3.672 167.83 3.672C167.833 3.672 167.837 3.672 167.84 3.672C167.843 3.672 167.846 3.672 167.85 3.672C167.853 3.672 167.856 3.672 167.86 3.672C167.863 3.672 167.866 3.672 167.87 3.672C167.873 3.672 167.876 3.672 167.879 3.672C167.883 3.672 167.886 3.672 167.889 3.672C167.893 3.672 167.896 3.672 167.899 3.672C167.902 3.672 167.906 3.672 167.909 3.672C167.912 3.672 167.916 3.672 167.919 3.672C167.922 3.672 167.925 3.672 167.929 3.672C167.932 3.672 167.935 3.672 167.939 3.672C167.942 3.672 167.945 3.672 167.949 3.672C167.952 3.672 167.955 3.672 167.958 3.672C167.962 3.672 167.965 3.672 167.968 3.672C167.972 3.672 167.975 3.672 167.978 3.672C167.981 3.672 167.985 3.672 167.988 3.672C167.991 3.672 167.995 3.672 167.998 3.672C168.001 3.672 168.004 3.672 168.008 3.672C168.011 3.672 168.014 3.672 168.018 3.672C168.021 3.672 168.024 3.672 168.027 3.672C168.031 3.672 168.034 3.672 168.037 3.672C168.04 3.672 168.044 3.672 168.047 3.672C168.05 3.672 168.054 3.672 168.057 3.672C168.06 3.672 168.063 3.672 168.067 3.672C168.07 3.672 168.073 3.672 168.077 3.672C168.08 3.672 168.083 3.672 168.086 3.672C168.09 3.672 168.093 3.672 168.096 3.672C168.099 3.672 168.103 3.672 168.106 3.672C168.109 3.672 168.113 3.672 168.116 3.672C168.119 3.672 168.122 3.672 168.126 3.672C168.129 3.672 168.132 3.672 168.135 3.672C168.139 3.672 168.142 3.672 168.145 3.672C168.148 3.672 168.152 3.672 168.155 3.672C168.158 3.672 168.162 3.672 168.165 3.672C168.168 3.672 168.171 3.672 168.175 3.672C168.178 3.672 168.181 3.672 168.184 3.672C168.188 3.672 168.191 3.672 168.194 3.672C168.197 3.672 168.201 3.672 168.204 3.672C168.207 3.672 168.211 3.672 168.214 3.672C168.217 3.672 168.22 3.672 168.224 3.672C168.227 3.672 168.23 3.672 168.233 3.672C168.237 3.672 168.24 3.672 168.243 3.672C168.246 3.672 168.25 3.672 168.253 3.672C168.256 3.672 168.259 3.672 168.263 3.672C168.266 3.672 168.269 3.672 168.272 3.672C168.276 3.672 168.279 3.672 168.282 3.672C168.285 3.672 168.289 3.672 168.292 3.672C168.295 3.672 168.298 3.672 168.302 3.672C168.305 3.672 168.308 3.672 168.311 3.672C168.315 3.672 168.318 3.672 168.321 3.672C168.325 3.672 168.328 3.672 168.331 3.672V1.672C168.328 1.672 168.325 1.672 168.321 1.672C168.318 1.672 168.315 1.672 168.311 1.672C168.308 1.672 168.305 1.672 168.302 1.672C168.298 1.672 168.295 1.672 168.292 1.672C168.289 1.672 168.285 1.672 168.282 1.672C168.279 1.672 168.276 1.672 168.272 1.672C168.269 1.672 168.266 1.672 168.263 1.672C168.259 1.672 168.256 1.672 168.253 1.672C168.25 1.672 168.246 1.672 168.243 1.672C168.24 1.672 168.237 1.672 168.233 1.672C168.23 1.672 168.227 1.672 168.224 1.672C168.22 1.672 168.217 1.672 168.214 1.672C168.211 1.672 168.207 1.672 168.204 1.672C168.201 1.672 168.197 1.672 168.194 1.672C168.191 1.672 168.188 1.672 168.184 1.672C168.181 1.672 168.178 1.672 168.175 1.672C168.171 1.672 168.168 1.672 168.165 1.672C168.162 1.672 168.158 1.672 168.155 1.672C168.152 1.672 168.148 1.672 168.145 1.672C168.142 1.672 168.139 1.672 168.135 1.672C168.132 1.672 168.129 1.672 168.126 1.672C168.122 1.672 168.119 1.672 168.116 1.672C168.113 1.672 168.109 1.672 168.106 1.672C168.103 1.672 168.099 1.672 168.096 1.672C168.093 1.672 168.09 1.672 168.086 1.672C168.083 1.672 168.08 1.672 168.077 1.672C168.073 1.672 168.07 1.672 168.067 1.672C168.063 1.672 168.06 1.672 168.057 1.672C168.054 1.672 168.05 1.672 168.047 1.672C168.044 1.672 168.04 1.672 168.037 1.672C168.034 1.672 168.031 1.672 168.027 1.672C168.024 1.672 168.021 1.672 168.018 1.672C168.014 1.672 168.011 1.672 168.008 1.672C168.004 1.672 168.001 1.672 167.998 1.672C167.995 1.672 167.991 1.672 167.988 1.672C167.985 1.672 167.981 1.672 167.978 1.672C167.975 1.672 167.972 1.672 167.968 1.672C167.965 1.672 167.962 1.672 167.958 1.672C167.955 1.672 167.952 1.672 167.949 1.672C167.945 1.672 167.942 1.672 167.939 1.672C167.935 1.672 167.932 1.672 167.929 1.672C167.925 1.672 167.922 1.672 167.919 1.672C167.916 1.672 167.912 1.672 167.909 1.672C167.906 1.672 167.902 1.672 167.899 1.672C167.896 1.672 167.893 1.672 167.889 1.672C167.886 1.672 167.883 1.672 167.879 1.672C167.876 1.672 167.873 1.672 167.87 1.672C167.866 1.672 167.863 1.672 167.86 1.672C167.856 1.672 167.853 1.672 167.85 1.672C167.846 1.672 167.843 1.672 167.84 1.672C167.837 1.672 167.833 1.672 167.83 1.672C167.827 1.672 167.823 1.672 167.82 1.672C167.817 1.672 167.813 1.672 167.81 1.672C167.807 1.672 167.804 1.672 167.8 1.672C167.797 1.672 167.794 1.672 167.79 1.672C167.787 1.672 167.784 1.672 167.78 1.672C167.777 1.672 167.774 1.672 167.77 1.672C167.767 1.672 167.764 1.672 167.761 1.672C167.757 1.672 167.754 1.672 167.751 1.672C167.747 1.672 167.744 1.672 167.741 1.672C167.737 1.672 167.734 1.672 167.731 1.672C167.727 1.672 167.724 1.672 167.721 1.672C167.718 1.672 167.714 1.672 167.711 1.672C167.708 1.672 167.704 1.672 167.701 1.672C167.698 1.672 167.694 1.672 167.691 1.672C167.688 1.672 167.684 1.672 167.681 1.672C167.678 1.672 167.674 1.672 167.671 1.672C167.668 1.672 167.665 1.672 167.661 1.672C167.658 1.672 167.655 1.672 167.651 1.672C167.648 1.672 167.645 1.672 167.641 1.672C167.638 1.672 167.635 1.672 167.631 1.672C167.628 1.672 167.625 1.672 167.621 1.672C167.618 1.672 167.615 1.672 167.611 1.672C167.608 1.672 167.605 1.672 167.601 1.672C167.598 1.672 167.595 1.672 167.592 1.672C167.588 1.672 167.585 1.672 167.582 1.672C167.578 1.672 167.575 1.672 167.572 1.672C167.568 1.672 167.565 1.672 167.562 1.672C167.558 1.672 167.555 1.672 167.552 1.672C167.548 1.672 167.545 1.672 167.542 1.672C167.538 1.672 167.535 1.672 167.532 1.672C167.528 1.672 167.525 1.672 167.522 1.672C167.518 1.672 167.515 1.672 167.512 1.672C167.508 1.672 167.505 1.672 167.502 1.672C167.498 1.672 167.495 1.672 167.492 1.672C167.488 1.672 167.485 1.672 167.482 1.672C167.478 1.672 167.475 1.672 167.472 1.672C167.468 1.672 167.465 1.672 167.462 1.672C167.458 1.672 167.455 1.672 167.452 1.672C167.448 1.672 167.445 1.672 167.442 1.672C167.438 1.672 167.435 1.672 167.432 1.672C167.428 1.672 167.425 1.672 167.422 1.672C167.418 1.672 167.415 1.672 167.412 1.672C167.408 1.672 167.405 1.672 167.402 1.672C167.398 1.672 167.395 1.672 167.392 1.672C167.388 1.672 167.385 1.672 167.382 1.672C167.378 1.672 167.375 1.672 167.371 1.672C167.368 1.672 167.365 1.672 167.361 1.672C167.358 1.672 167.355 1.672 167.351 1.672C167.348 1.672 167.345 1.672 167.341 1.672C167.338 1.672 167.335 1.672 167.331 1.672C167.328 1.672 167.325 1.672 167.321 1.672C167.318 1.672 167.315 1.672 167.311 1.672C167.308 1.672 167.305 1.672 167.301 1.672C167.298 1.672 167.294 1.672 167.291 1.672C167.288 1.672 167.284 1.672 167.281 1.672C167.278 1.672 167.274 1.672 167.271 1.672C167.268 1.672 167.264 1.672 167.261 1.672C167.258 1.672 167.254 1.672 167.251 1.672C167.247 1.672 167.244 1.672 167.241 1.672C167.237 1.672 167.234 1.672 167.231 1.672C167.227 1.672 167.224 1.672 167.221 1.672C167.217 1.672 167.214 1.672 167.211 1.672C167.207 1.672 167.204 1.672 167.2 1.672C167.197 1.672 167.194 1.672 167.19 1.672C167.187 1.672 167.184 1.672 167.18 1.672C167.177 1.672 167.174 1.672 167.17 1.672C167.167 1.672 167.163 1.672 167.16 1.672C167.157 1.672 167.153 1.672 167.15 1.672C167.147 1.672 167.143 1.672 167.14 1.672C167.137 1.672 167.133 1.672 167.13 1.672C167.126 1.672 167.123 1.672 167.12 1.672C167.116 1.672 167.113 1.672 167.11 1.672C167.106 1.672 167.103 1.672 167.099 1.672C167.096 1.672 167.093 1.672 167.089 1.672C167.086 1.672 167.083 1.672 167.079 1.672C167.076 1.672 167.072 1.672 167.069 1.672C167.066 1.672 167.062 1.672 167.059 1.672C167.056 1.672 167.052 1.672 167.049 1.672C167.045 1.672 167.042 1.672 167.039 1.672C167.035 1.672 167.032 1.672 167.029 1.672C167.025 1.672 167.022 1.672 167.018 1.672C167.015 1.672 167.012 1.672 167.008 1.672C167.005 1.672 167.002 1.672 166.998 1.672C166.995 1.672 166.991 1.672 166.988 1.672C166.985 1.672 166.981 1.672 166.978 1.672C166.975 1.672 166.971 1.672 166.968 1.672C166.964 1.672 166.961 1.672 166.958 1.672C166.954 1.672 166.951 1.672 166.947 1.672C166.944 1.672 166.941 1.672 166.937 1.672C166.934 1.672 166.931 1.672 166.927 1.672C166.924 1.672 166.92 1.672 166.917 1.672C166.914 1.672 166.91 1.672 166.907 1.672C166.903 1.672 166.9 1.672 166.897 1.672C166.893 1.672 166.89 1.672 166.886 1.672C166.883 1.672 166.88 1.672 166.876 1.672C166.873 1.672 166.869 1.672 166.866 1.672C166.863 1.672 166.859 1.672 166.856 1.672C166.853 1.672 166.849 1.672 166.846 1.672C166.842 1.672 166.839 1.672 166.836 1.672C166.832 1.672 166.829 1.672 166.825 1.672C166.822 1.672 166.819 1.672 166.815 1.672C166.812 1.672 166.808 1.672 166.805 1.672C166.802 1.672 166.798 1.672 166.795 1.672C166.791 1.672 166.788 1.672 166.785 1.672C166.781 1.672 166.778 1.672 166.774 1.672C166.771 1.672 166.768 1.672 166.764 1.672C166.761 1.672 166.757 1.672 166.754 1.672C166.751 1.672 166.747 1.672 166.744 1.672C166.74 1.672 166.737 1.672 166.734 1.672C166.73 1.672 166.727 1.672 166.723 1.672C166.72 1.672 166.716 1.672 166.713 1.672C166.71 1.672 166.706 1.672 166.703 1.672C166.699 1.672 166.696 1.672 166.693 1.672C166.689 1.672 166.686 1.672 166.682 1.672C166.679 1.672 166.676 1.672 166.672 1.672C166.669 1.672 166.665 1.672 166.662 1.672C166.658 1.672 166.655 1.672 166.652 1.672C166.648 1.672 166.645 1.672 166.641 1.672C166.638 1.672 166.635 1.672 166.631 1.672C166.628 1.672 166.624 1.672 166.621 1.672C166.618 1.672 166.614 1.672 166.611 1.672C166.607 1.672 166.604 1.672 166.6 1.672C166.597 1.672 166.594 1.672 166.59 1.672C166.587 1.672 166.583 1.672 166.58 1.672C166.576 1.672 166.573 1.672 166.57 1.672C166.566 1.672 166.563 1.672 166.559 1.672C166.556 1.672 166.553 1.672 166.549 1.672C166.546 1.672 166.542 1.672 166.539 1.672C166.535 1.672 166.532 1.672 166.529 1.672C166.525 1.672 166.522 1.672 166.518 1.672C166.515 1.672 166.511 1.672 166.508 1.672C166.505 1.672 166.501 1.672 166.498 1.672C166.494 1.672 166.491 1.672 166.487 1.672C166.484 1.672 166.481 1.672 166.477 1.672C166.474 1.672 166.47 1.672 166.467 1.672C166.463 1.672 166.46 1.672 166.457 1.672C166.453 1.672 166.45 1.672 166.446 1.672C166.443 1.672 166.439 1.672 166.436 1.672C166.432 1.672 166.429 1.672 166.426 1.672C166.422 1.672 166.419 1.672 166.415 1.672C166.412 1.672 166.408 1.672 166.405 1.672C166.402 1.672 166.398 1.672 166.395 1.672C166.391 1.672 166.388 1.672 166.384 1.672C166.381 1.672 166.377 1.672 166.374 1.672C166.371 1.672 166.367 1.672 166.364 1.672C166.36 1.672 166.357 1.672 166.353 1.672C166.35 1.672 166.347 1.672 166.343 1.672C166.34 1.672 166.336 1.672 166.333 1.672C166.329 1.672 166.326 1.672 166.322 1.672C166.319 1.672 166.316 1.672 166.312 1.672C166.309 1.672 166.305 1.672 166.302 1.672C166.298 1.672 166.295 1.672 166.291 1.672C166.288 1.672 166.284 1.672 166.281 1.672C166.278 1.672 166.274 1.672 166.271 1.672C166.267 1.672 166.264 1.672 166.26 1.672C166.257 1.672 166.253 1.672 166.25 1.672C166.247 1.672 166.243 1.672 166.24 1.672C166.236 1.672 166.233 1.672 166.229 1.672C166.226 1.672 166.222 1.672 166.219 1.672C166.215 1.672 166.212 1.672 166.209 1.672C166.205 1.672 166.202 1.672 166.198 1.672C166.195 1.672 166.191 1.672 166.188 1.672C166.184 1.672 166.181 1.672 166.177 1.672C166.174 1.672 166.17 1.672 166.167 1.672C166.164 1.672 166.16 1.672 166.157 1.672C166.153 1.672 166.15 1.672 166.146 1.672C166.143 1.672 166.139 1.672 166.136 1.672C166.132 1.672 166.129 1.672 166.125 1.672C166.122 1.672 166.119 1.672 166.115 1.672C166.112 1.672 166.108 1.672 166.105 1.672C166.101 1.672 166.098 1.672 166.094 1.672C166.091 1.672 166.087 1.672 166.084 1.672C166.08 1.672 166.077 1.672 166.074 1.672C166.07 1.672 166.067 1.672 166.063 1.672C166.06 1.672 166.056 1.672 166.053 1.672C166.049 1.672 166.046 1.672 166.042 1.672C166.039 1.672 166.035 1.672 166.032 1.672C166.028 1.672 166.025 1.672 166.021 1.672C166.018 1.672 166.014 1.672 166.011 1.672C166.008 1.672 166.004 1.672 166.001 1.672C165.997 1.672 165.994 1.672 165.99 1.672C165.987 1.672 165.983 1.672 165.98 1.672C165.976 1.672 165.973 1.672 165.969 1.672C165.966 1.672 165.962 1.672 165.959 1.672C165.955 1.672 165.952 1.672 165.948 1.672C165.945 1.672 165.941 1.672 165.938 1.672C165.934 1.672 165.931 1.672 165.928 1.672C165.924 1.672 165.921 1.672 165.917 1.672C165.914 1.672 165.91 1.672 165.907 1.672C165.903 1.672 165.9 1.672 165.896 1.672C165.893 1.672 165.889 1.672 165.886 1.672C165.882 1.672 165.879 1.672 165.875 1.672C165.872 1.672 165.868 1.672 165.865 1.672C165.861 1.672 165.858 1.672 165.854 1.672C165.851 1.672 165.847 1.672 165.844 1.672C165.84 1.672 165.837 1.672 165.833 1.672C165.83 1.672 165.826 1.672 165.823 1.672C165.819 1.672 165.816 1.672 165.812 1.672C165.809 1.672 165.805 1.672 165.802 1.672C165.798 1.672 165.795 1.672 165.791 1.672C165.788 1.672 165.784 1.672 165.781 1.672C165.777 1.672 165.774 1.672 165.77 1.672C165.767 1.672 165.763 1.672 165.76 1.672C165.756 1.672 165.753 1.672 165.75 1.672C165.746 1.672 165.743 1.672 165.739 1.672C165.736 1.672 165.732 1.672 165.729 1.672C165.725 1.672 165.721 1.672 165.718 1.672C165.714 1.672 165.711 1.672 165.707 1.672C165.704 1.672 165.7 1.672 165.697 1.672C165.693 1.672 165.69 1.672 165.686 1.672C165.683 1.672 165.679 1.672 165.676 1.672C165.672 1.672 165.669 1.672 165.665 1.672C165.662 1.672 165.658 1.672 165.655 1.672C165.651 1.672 165.648 1.672 165.644 1.672C165.641 1.672 165.637 1.672 165.634 1.672C165.63 1.672 165.627 1.672 165.623 1.672C165.62 1.672 165.616 1.672 165.613 1.672C165.609 1.672 165.606 1.672 165.602 1.672C165.599 1.672 165.595 1.672 165.592 1.672C165.588 1.672 165.585 1.672 165.581 1.672C165.578 1.672 165.574 1.672 165.571 1.672C165.567 1.672 165.564 1.672 165.56 1.672C165.557 1.672 165.553 1.672 165.55 1.672C165.546 1.672 165.542 1.672 165.539 1.672C165.535 1.672 165.532 1.672 165.528 1.672C165.525 1.672 165.521 1.672 165.518 1.672C165.514 1.672 165.511 1.672 165.507 1.672C165.504 1.672 165.5 1.672 165.497 1.672C165.493 1.672 165.49 1.672 165.486 1.672C165.483 1.672 165.479 1.672 165.476 1.672C165.472 1.672 165.469 1.672 165.465 1.672C165.461 1.672 165.458 1.672 165.454 1.672C165.451 1.672 165.447 1.672 165.444 1.672C165.44 1.672 165.437 1.672 165.433 1.672C165.43 1.672 165.426 1.672 165.423 1.672C165.419 1.672 165.416 1.672 165.412 1.672C165.409 1.672 165.405 1.672 165.402 1.672C165.398 1.672 165.394 1.672 165.391 1.672C165.387 1.672 165.384 1.672 165.38 1.672C165.377 1.672 165.373 1.672 165.37 1.672C165.366 1.672 165.363 1.672 165.359 1.672C165.356 1.672 165.352 1.672 165.348 1.672C165.345 1.672 165.341 1.672 165.338 1.672C165.334 1.672 165.331 1.672 165.327 1.672C165.324 1.672 165.32 1.672 165.317 1.672C165.313 1.672 165.31 1.672 165.306 1.672C165.302 1.672 165.299 1.672 165.295 1.672C165.292 1.672 165.288 1.672 165.285 1.672C165.281 1.672 165.278 1.672 165.274 1.672C165.271 1.672 165.267 1.672 165.264 1.672C165.26 1.672 165.256 1.672 165.253 1.672C165.249 1.672 165.246 1.672 165.242 1.672C165.239 1.672 165.235 1.672 165.232 1.672C165.228 1.672 165.225 1.672 165.221 1.672C165.217 1.672 165.214 1.672 165.21 1.672C165.207 1.672 165.203 1.672 165.2 1.672C165.196 1.672 165.193 1.672 165.189 1.672C165.185 1.672 165.182 1.672 165.178 1.672C165.175 1.672 165.171 1.672 165.168 1.672C165.164 1.672 165.161 1.672 165.157 1.672C165.154 1.672 165.15 1.672 165.146 1.672C165.143 1.672 165.139 1.672 165.136 1.672C165.132 1.672 165.129 1.672 165.125 1.672C165.122 1.672 165.118 1.672 165.114 1.672C165.111 1.672 165.107 1.672 165.104 1.672C165.1 1.672 165.097 1.672 165.093 1.672C165.089 1.672 165.086 1.672 165.082 1.672C165.079 1.672 165.075 1.672 165.072 1.672C165.068 1.672 165.065 1.672 165.061 1.672C165.057 1.672 165.054 1.672 165.05 1.672C165.047 1.672 165.043 1.672 165.04 1.672C165.036 1.672 165.032 1.672 165.029 1.672C165.025 1.672 165.022 1.672 165.018 1.672C165.015 1.672 165.011 1.672 165.008 1.672C165.004 1.672 165 1.672 164.997 1.672C164.993 1.672 164.99 1.672 164.986 1.672C164.983 1.672 164.979 1.672 164.975 1.672C164.972 1.672 164.968 1.672 164.965 1.672C164.961 1.672 164.958 1.672 164.954 1.672C164.95 1.672 164.947 1.672 164.943 1.672C164.94 1.672 164.936 1.672 164.933 1.672C164.929 1.672 164.925 1.672 164.922 1.672C164.918 1.672 164.915 1.672 164.911 1.672C164.908 1.672 164.904 1.672 164.9 1.672C164.897 1.672 164.893 1.672 164.89 1.672C164.886 1.672 164.882 1.672 164.879 1.672C164.875 1.672 164.872 1.672 164.868 1.672C164.865 1.672 164.861 1.672 164.857 1.672C164.854 1.672 164.85 1.672 164.847 1.672C164.843 1.672 164.84 1.672 164.836 1.672C164.832 1.672 164.829 1.672 164.825 1.672C164.822 1.672 164.818 1.672 164.814 1.672C164.811 1.672 164.807 1.672 164.804 1.672C164.8 1.672 164.796 1.672 164.793 1.672C164.789 1.672 164.786 1.672 164.782 1.672C164.779 1.672 164.775 1.672 164.771 1.672C164.768 1.672 164.764 1.672 164.761 1.672C164.757 1.672 164.753 1.672 164.75 1.672C164.746 1.672 164.743 1.672 164.739 1.672C164.735 1.672 164.732 1.672 164.728 1.672C164.725 1.672 164.721 1.672 164.718 1.672C164.714 1.672 164.71 1.672 164.707 1.672C164.703 1.672 164.7 1.672 164.696 1.672C164.692 1.672 164.689 1.672 164.685 1.672C164.682 1.672 164.678 1.672 164.674 1.672C164.671 1.672 164.667 1.672 164.664 1.672C164.66 1.672 164.656 1.672 164.653 1.672C164.649 1.672 164.646 1.672 164.642 1.672C164.638 1.672 164.635 1.672 164.631 1.672C164.628 1.672 164.624 1.672 164.62 1.672C164.617 1.672 164.613 1.672 164.61 1.672C164.606 1.672 164.602 1.672 164.599 1.672C164.595 1.672 164.592 1.672 164.588 1.672C164.584 1.672 164.581 1.672 164.577 1.672C164.573 1.672 164.57 1.672 164.566 1.672C164.563 1.672 164.559 1.672 164.555 1.672C164.552 1.672 164.548 1.672 164.545 1.672C164.541 1.672 164.537 1.672 164.534 1.672C164.53 1.672 164.527 1.672 164.523 1.672C164.519 1.672 164.516 1.672 164.512 1.672C164.509 1.672 164.505 1.672 164.501 1.672C164.498 1.672 164.494 1.672 164.49 1.672C164.487 1.672 164.483 1.672 164.48 1.672C164.476 1.672 164.472 1.672 164.469 1.672C164.465 1.672 164.462 1.672 164.458 1.672C164.454 1.672 164.451 1.672 164.447 1.672C164.443 1.672 164.44 1.672 164.436 1.672C164.433 1.672 164.429 1.672 164.425 1.672C164.422 1.672 164.418 1.672 164.414 1.672C164.411 1.672 164.407 1.672 164.404 1.672C164.4 1.672 164.396 1.672 164.393 1.672C164.389 1.672 164.385 1.672 164.382 1.672C164.378 1.672 164.375 1.672 164.371 1.672C164.367 1.672 164.364 1.672 164.36 1.672C164.356 1.672 164.353 1.672 164.349 1.672C164.346 1.672 164.342 1.672 164.338 1.672C164.335 1.672 164.331 1.672 164.327 1.672C164.324 1.672 164.32 1.672 164.317 1.672C164.313 1.672 164.309 1.672 164.306 1.672C164.302 1.672 164.298 1.672 164.295 1.672C164.291 1.672 164.288 1.672 164.284 1.672C164.28 1.672 164.277 1.672 164.273 1.672C164.269 1.672 164.266 1.672 164.262 1.672C164.258 1.672 164.255 1.672 164.251 1.672C164.248 1.672 164.244 1.672 164.24 1.672C164.237 1.672 164.233 1.672 164.229 1.672C164.226 1.672 164.222 1.672 164.218 1.672C164.215 1.672 164.211 1.672 164.208 1.672C164.204 1.672 164.2 1.672 164.197 1.672C164.193 1.672 164.189 1.672 164.186 1.672C164.182 1.672 164.178 1.672 164.175 1.672C164.171 1.672 164.167 1.672 164.164 1.672C164.16 1.672 164.157 1.672 164.153 1.672C164.149 1.672 164.146 1.672 164.142 1.672C164.138 1.672 164.135 1.672 164.131 1.672C164.127 1.672 164.124 1.672 164.12 1.672C164.116 1.672 164.113 1.672 164.109 1.672C164.106 1.672 164.102 1.672 164.098 1.672C164.095 1.672 164.091 1.672 164.087 1.672C164.084 1.672 164.08 1.672 164.076 1.672C164.073 1.672 164.069 1.672 164.065 1.672C164.062 1.672 164.058 1.672 164.054 1.672C164.051 1.672 164.047 1.672 164.043 1.672C164.04 1.672 164.036 1.672 164.032 1.672C164.029 1.672 164.025 1.672 164.022 1.672C164.018 1.672 164.014 1.672 164.011 1.672C164.007 1.672 164.003 1.672 164 1.672C163.996 1.672 163.992 1.672 163.989 1.672C163.985 1.672 163.981 1.672 163.978 1.672C163.974 1.672 163.97 1.672 163.967 1.672C163.963 1.672 163.959 1.672 163.956 1.672C163.952 1.672 163.948 1.672 163.945 1.672C163.941 1.672 163.937 1.672 163.934 1.672C163.93 1.672 163.926 1.672 163.923 1.672C163.919 1.672 163.915 1.672 163.912 1.672C163.908 1.672 163.904 1.672 163.901 1.672C163.897 1.672 163.893 1.672 163.89 1.672C163.886 1.672 163.882 1.672 163.879 1.672C163.875 1.672 163.871 1.672 163.868 1.672C163.864 1.672 163.86 1.672 163.857 1.672C163.853 1.672 163.849 1.672 163.846 1.672C163.842 1.672 163.838 1.672 163.835 1.672C163.831 1.672 163.827 1.672 163.824 1.672C163.82 1.672 163.816 1.672 163.813 1.672C163.809 1.672 163.805 1.672 163.802 1.672C163.798 1.672 163.794 1.672 163.791 1.672C163.787 1.672 163.783 1.672 163.779 1.672C163.776 1.672 163.772 1.672 163.768 1.672C163.765 1.672 163.761 1.672 163.757 1.672C163.754 1.672 163.75 1.672 163.746 1.672C163.743 1.672 163.739 1.672 163.735 1.672C163.732 1.672 163.728 1.672 163.724 1.672C163.721 1.672 163.717 1.672 163.713 1.672C163.71 1.672 163.706 1.672 163.702 1.672C163.698 1.672 163.695 1.672 163.691 1.672C163.687 1.672 163.684 1.672 163.68 1.672C163.676 1.672 163.673 1.672 163.669 1.672C163.665 1.672 163.662 1.672 163.658 1.672C163.654 1.672 163.651 1.672 163.647 1.672C163.643 1.672 163.639 1.672 163.636 1.672C163.632 1.672 163.628 1.672 163.625 1.672C163.621 1.672 163.617 1.672 163.614 1.672C163.61 1.672 163.606 1.672 163.603 1.672C163.599 1.672 163.595 1.672 163.591 1.672C163.588 1.672 163.584 1.672 163.58 1.672C163.577 1.672 163.573 1.672 163.569 1.672C163.566 1.672 163.562 1.672 163.558 1.672C163.555 1.672 163.551 1.672 163.547 1.672C163.543 1.672 163.54 1.672 163.536 1.672C163.532 1.672 163.529 1.672 163.525 1.672C163.521 1.672 163.518 1.672 163.514 1.672C163.51 1.672 163.506 1.672 163.503 1.672C163.499 1.672 163.495 1.672 163.492 1.672C163.488 1.672 163.484 1.672 163.481 1.672C163.477 1.672 163.473 1.672 163.469 1.672C163.466 1.672 163.462 1.672 163.458 1.672C163.455 1.672 163.451 1.672 163.447 1.672C163.443 1.672 163.44 1.672 163.436 1.672C163.432 1.672 163.429 1.672 163.425 1.672C163.421 1.672 163.417 1.672 163.414 1.672C163.41 1.672 163.406 1.672 163.403 1.672C163.399 1.672 163.395 1.672 163.392 1.672C163.388 1.672 163.384 1.672 163.38 1.672C163.377 1.672 163.373 1.672 163.369 1.672C163.366 1.672 163.362 1.672 163.358 1.672C163.354 1.672 163.351 1.672 163.347 1.672C163.343 1.672 163.34 1.672 163.336 1.672C163.332 1.672 163.328 1.672 163.325 1.672C163.321 1.672 163.317 1.672 163.314 1.672C163.31 1.672 163.306 1.672 163.302 1.672C163.299 1.672 163.295 1.672 163.291 1.672C163.287 1.672 163.284 1.672 163.28 1.672C163.276 1.672 163.273 1.672 163.269 1.672C163.265 1.672 163.261 1.672 163.258 1.672C163.254 1.672 163.25 1.672 163.247 1.672C163.243 1.672 163.239 1.672 163.235 1.672C163.232 1.672 163.228 1.672 163.224 1.672C163.22 1.672 163.217 1.672 163.213 1.672C163.209 1.672 163.206 1.672 163.202 1.672C163.198 1.672 163.194 1.672 163.191 1.672C163.187 1.672 163.183 1.672 163.179 1.672C163.176 1.672 163.172 1.672 163.168 1.672C163.164 1.672 163.161 1.672 163.157 1.672C163.153 1.672 163.15 1.672 163.146 1.672C163.142 1.672 163.138 1.672 163.135 1.672C163.131 1.672 163.127 1.672 163.123 1.672C163.12 1.672 163.116 1.672 163.112 1.672C163.108 1.672 163.105 1.672 163.101 1.672C163.097 1.672 163.094 1.672 163.09 1.672C163.086 1.672 163.082 1.672 163.079 1.672C163.075 1.672 163.071 1.672 163.067 1.672C163.064 1.672 163.06 1.672 163.056 1.672C163.052 1.672 163.049 1.672 163.045 1.672C163.041 1.672 163.037 1.672 163.034 1.672C163.03 1.672 163.026 1.672 163.022 1.672C163.019 1.672 163.015 1.672 163.011 1.672C163.007 1.672 163.004 1.672 163 1.672C162.996 1.672 162.992 1.672 162.989 1.672C162.985 1.672 162.981 1.672 162.977 1.672C162.974 1.672 162.97 1.672 162.966 1.672C162.963 1.672 162.959 1.672 162.955 1.672V3.672ZM168.356 3.67168C170.054 3.62925 171.837 3.608 173.707 3.608V1.608C171.822 1.608 170.022 1.62942 168.306 1.67231L168.356 3.67168ZM172.707 2.608V45.104H174.707V2.608H172.707ZM173.707 44.104H165.259V46.104H173.707V44.104ZM166.259 45.104V6.128H164.259V45.104H166.259ZM188.92 44.72L188.213 44.0129L188.204 44.0215L188.196 44.0303L188.92 44.72ZM182.52 44.72L183.244 44.0303L183.244 44.0303L182.52 44.72ZM182.52 38.384L183.227 39.0911L183.227 39.0911L182.52 38.384ZM188.92 38.384L188.196 39.0737L188.213 39.0913L188.23 39.1081L188.92 38.384ZM189.264 41.52C189.264 42.485 188.926 43.2994 188.213 44.0129L189.627 45.4271C190.706 44.3486 191.264 43.0296 191.264 41.52H189.264ZM188.196 44.0303C187.538 44.7206 186.737 45.064 185.72 45.064V47.064C187.263 47.064 188.595 46.5114 189.644 45.4097L188.196 44.0303ZM185.72 45.064C184.703 45.064 183.902 44.7206 183.244 44.0303L181.796 45.4097C182.845 46.5114 184.177 47.064 185.72 47.064V45.064ZM183.244 44.0303C182.568 43.3203 182.24 42.5006 182.24 41.52H180.24C180.24 43.0141 180.765 44.3277 181.796 45.4097L183.244 44.0303ZM182.24 41.52C182.24 40.5404 182.567 39.7517 183.227 39.0911L181.813 37.6769C180.767 38.723 180.24 40.025 180.24 41.52H182.24ZM183.227 39.0911C183.941 38.3776 184.755 38.04 185.72 38.04V36.04C184.21 36.04 182.891 36.5984 181.813 37.6769L183.227 39.0911ZM185.72 38.04C186.737 38.04 187.538 38.3834 188.196 39.0737L189.644 37.6943C188.595 36.5926 187.263 36.04 185.72 36.04V38.04ZM188.23 39.1081C188.928 39.7727 189.264 40.5563 189.264 41.52H191.264C191.264 40.009 190.704 38.7019 189.61 37.6599L188.23 39.1081Z" fill="white" mask="url(#path-2-outside-1_118_299)"/>
</svg>
