<svg width="215" height="55" viewBox="0 0 215 55" fill="none" xmlns="http://www.w3.org/2000/svg">
<path d="M25.208 3.672C28.152 3.672 30.904 4.22666 33.464 5.336C36.024 6.44533 38.264 7.96 40.184 9.88C42.104 11.8 43.6187 14.0613 44.728 16.664C45.8373 19.224 46.392 21.976 46.392 24.92C46.392 27.864 45.8373 30.616 44.728 33.176C43.6187 35.736 42.104 37.976 40.184 39.896C38.264 41.816 36.024 43.3307 33.464 44.44C30.904 45.5493 28.152 46.104 25.208 46.104H8.696V6.04C8.39733 5.656 8.07733 5.272 7.736 4.888C7.39467 4.504 7.05333 4.09866 6.712 3.672H25.208ZM25.272 44.376C26.9787 44.376 28.5787 43.864 30.072 42.84C31.5653 41.816 32.8667 40.4293 33.976 38.68C35.0853 36.888 35.96 34.8187 36.6 32.472C37.2827 30.1253 37.624 27.608 37.624 24.92C37.624 22.232 37.2827 19.7147 36.6 17.368C35.96 14.9787 35.0853 12.9093 33.976 11.16C32.8667 9.368 31.544 7.96 30.008 6.936C28.5147 5.912 26.9147 5.4 25.208 5.4H17.208V44.376L25.208 44.44L25.272 44.376ZM83.889 39.64L82.865 46.04C77.873 46.04 72.9663 46.0613 68.145 46.104C63.3237 46.104 58.4383 46.104 53.489 46.104V6.04C53.1903 5.656 52.8703 5.272 52.529 4.888C52.1877 4.504 51.8463 4.09866 51.505 3.672H83.953V8.088L81.713 5.4H62.065V24.024H77.041V25.752H62.065V44.376H80.561L83.889 39.64ZM117.818 46.104L112.634 33.752H95.546L90.426 46.104H88.89L105.466 6.104L103.418 3.672H108.794L126.394 46.104H117.818ZM96.25 32.024H111.994L104.122 13.144L96.25 32.024ZM165.333 46.04H157.269L144.469 26.392H141.781V46.04H133.269V6.04C132.97 5.656 132.65 5.272 132.309 4.888C131.967 4.504 131.626 4.09866 131.285 3.672H153.621C155.199 3.672 156.671 3.97066 158.037 4.568C159.445 5.16533 160.661 5.976 161.685 7C162.709 8.024 163.519 9.24 164.117 10.648C164.714 12.0133 165.013 13.4853 165.013 15.064C165.013 16.6 164.693 18.0507 164.053 19.416C163.413 20.7387 162.517 21.912 161.365 22.936C160.255 23.96 158.933 24.792 157.397 25.432C155.903 26.0293 154.303 26.392 152.597 26.52L165.333 46.04ZM146.773 24.728C148.095 24.728 149.333 24.472 150.485 23.96C151.679 23.448 152.703 22.7653 153.557 21.912C154.453 21.016 155.157 19.992 155.669 18.84C156.181 17.6453 156.437 16.3867 156.437 15.064C156.437 13.8267 156.202 12.6747 155.733 11.608C155.306 10.4987 154.709 9.51733 153.941 8.664C153.173 7.768 152.277 7.04267 151.253 6.488C150.229 5.93333 149.119 5.57066 147.925 5.4H141.781V24.728H146.773ZM181.952 42.52C181.952 43.7573 181.504 44.824 180.608 45.72C179.754 46.616 178.688 47.064 177.408 47.064C176.128 47.064 175.061 46.616 174.208 45.72C173.354 44.824 172.928 43.7573 172.928 42.52C172.928 41.2827 173.354 40.2373 174.208 39.384C175.104 38.488 176.17 38.04 177.408 38.04C178.688 38.04 179.754 38.488 180.608 39.384C181.504 40.2373 181.952 41.2827 181.952 42.52Z" fill="white"/>
<mask id="path-2-outside-1_114_56" maskUnits="userSpaceOnUse" x="1" y="-1" width="179" height="47" fill="black">
<rect fill="white" x="1" y="-1" width="179" height="47"/>
<path d="M22.208 0.671997C25.152 0.671997 27.904 1.22666 30.464 2.336C33.024 3.44533 35.264 4.96 37.184 6.88C39.104 8.8 40.6187 11.0613 41.728 13.664C42.8373 16.224 43.392 18.976 43.392 21.92C43.392 24.864 42.8373 27.616 41.728 30.176C40.6187 32.736 39.104 34.976 37.184 36.896C35.264 38.816 33.024 40.3307 30.464 41.44C27.904 42.5493 25.152 43.104 22.208 43.104H5.696V3.04C5.39733 2.656 5.07733 2.272 4.736 1.888C4.39467 1.504 4.05333 1.09866 3.712 0.671997H22.208ZM22.272 41.376C23.9787 41.376 25.5787 40.864 27.072 39.84C28.5653 38.816 29.8667 37.4293 30.976 35.68C32.0853 33.888 32.96 31.8187 33.6 29.472C34.2827 27.1253 34.624 24.608 34.624 21.92C34.624 19.232 34.2827 16.7147 33.6 14.368C32.96 11.9787 32.0853 9.90933 30.976 8.16C29.8667 6.368 28.544 4.96 27.008 3.936C25.5147 2.912 23.9147 2.4 22.208 2.4H14.208V41.376L22.208 41.44L22.272 41.376ZM80.889 36.64L79.865 43.04C74.873 43.04 69.9663 43.0613 65.145 43.104C60.3237 43.104 55.4383 43.104 50.489 43.104V3.04C50.1903 2.656 49.8703 2.272 49.529 1.888C49.1877 1.504 48.8463 1.09866 48.505 0.671997H80.953V5.088L78.713 2.4H59.065V21.024H74.041V22.752H59.065V41.376H77.561L80.889 36.64ZM114.818 43.104L109.634 30.752H92.546L87.426 43.104H85.89L102.466 3.104L100.418 0.671997H105.794L123.394 43.104H114.818ZM93.25 29.024H108.994L101.122 10.144L93.25 29.024ZM162.333 43.04H154.269L141.469 23.392H138.781V43.04H130.269V3.04C129.97 2.656 129.65 2.272 129.309 1.888C128.967 1.504 128.626 1.09866 128.285 0.671997H150.621C152.199 0.671997 153.671 0.970664 155.037 1.568C156.445 2.16533 157.661 2.976 158.685 4C159.709 5.024 160.519 6.24 161.117 7.648C161.714 9.01333 162.013 10.4853 162.013 12.064C162.013 13.6 161.693 15.0507 161.053 16.416C160.413 17.7387 159.517 18.912 158.365 19.936C157.255 20.96 155.933 21.792 154.397 22.432C152.903 23.0293 151.303 23.392 149.597 23.52L162.333 43.04ZM143.773 21.728C145.095 21.728 146.333 21.472 147.485 20.96C148.679 20.448 149.703 19.7653 150.557 18.912C151.453 18.016 152.157 16.992 152.669 15.84C153.181 14.6453 153.437 13.3867 153.437 12.064C153.437 10.8267 153.202 9.67467 152.733 8.608C152.306 7.49866 151.709 6.51733 150.941 5.664C150.173 4.768 149.277 4.04267 148.253 3.488C147.229 2.93333 146.119 2.57066 144.925 2.4H138.781V21.728H143.773ZM178.952 39.52C178.952 40.7573 178.504 41.824 177.608 42.72C176.754 43.616 175.688 44.064 174.408 44.064C173.128 44.064 172.061 43.616 171.208 42.72C170.354 41.824 169.928 40.7573 169.928 39.52C169.928 38.2827 170.354 37.2373 171.208 36.384C172.104 35.488 173.17 35.04 174.408 35.04C175.688 35.04 176.754 35.488 177.608 36.384C178.504 37.2373 178.952 38.2827 178.952 39.52Z"/>
</mask>
<path d="M37.184 6.88L37.8911 6.17289V6.17289L37.184 6.88ZM41.728 13.664L40.8081 14.0561L40.8104 14.0616L41.728 13.664ZM41.728 30.176L40.8104 29.7784L41.728 30.176ZM37.184 36.896L36.4769 36.1889L37.184 36.896ZM30.464 41.44L30.0664 40.5224L30.464 41.44ZM5.696 43.104H4.696V44.104H5.696V43.104ZM5.696 3.04H6.696V2.69689L6.48535 2.42606L5.696 3.04ZM3.712 0.671997V-0.328003H1.63137L2.93113 1.29669L3.712 0.671997ZM22.272 41.376V40.376H21.8578L21.5649 40.6689L22.272 41.376ZM27.072 39.84L26.5065 39.0153L27.072 39.84ZM30.976 35.68L31.8206 36.2156L31.8263 36.2064L30.976 35.68ZM33.6 29.472L32.6398 29.1927L32.6375 29.2008L32.6352 29.2089L33.6 29.472ZM33.6 14.368L32.6341 14.6267L32.6368 14.6371L32.6398 14.6473L33.6 14.368ZM30.976 8.16L30.1257 8.68639L30.1315 8.69554L30.976 8.16ZM27.008 3.936L26.4424 4.7608L26.4533 4.76805L27.008 3.936ZM14.208 2.4V1.4H13.208V2.4H14.208ZM14.208 41.376H13.208V42.368L14.2 42.376L14.208 41.376ZM22.208 41.44L22.2 42.44L22.6189 42.4433L22.9151 42.1471L22.208 41.44ZM22.208 1.672C25.0229 1.672 27.6388 2.20158 30.0664 3.25355L30.8616 1.41844C28.1692 0.25175 25.2811 -0.328003 22.208 -0.328003V1.672ZM30.0664 3.25355C32.5141 4.31425 34.6484 5.75857 36.4769 7.5871L37.8911 6.17289C35.8796 4.16142 33.5339 2.57642 30.8616 1.41844L30.0664 3.25355ZM36.4769 7.5871C38.3027 9.4129 39.7467 11.5661 40.8081 14.0561L42.6479 13.2719C41.4906 10.5566 39.9053 8.1871 37.8911 6.17289L36.4769 7.5871ZM40.8104 14.0616C41.8624 16.4892 42.392 19.1051 42.392 21.92H44.392C44.392 18.8469 43.8122 15.9588 42.6456 13.2664L40.8104 14.0616ZM42.392 21.92C42.392 24.7349 41.8624 27.3508 40.8104 29.7784L42.6456 30.5736C43.8122 27.8812 44.392 24.9931 44.392 21.92H42.392ZM40.8104 29.7784C39.7498 32.2261 38.3054 34.3604 36.4769 36.1889L37.8911 37.6031C39.9026 35.5916 41.4876 33.2459 42.6456 30.5736L40.8104 29.7784ZM36.4769 36.1889C34.6484 38.0174 32.5141 39.4618 30.0664 40.5224L30.8616 42.3576C33.5339 41.1996 35.8796 39.6146 37.8911 37.6031L36.4769 36.1889ZM30.0664 40.5224C27.6388 41.5744 25.0229 42.104 22.208 42.104V44.104C25.2811 44.104 28.1692 43.5242 30.8616 42.3576L30.0664 40.5224ZM22.208 42.104H5.696V44.104H22.208V42.104ZM6.696 43.104V3.04H4.696V43.104H6.696ZM6.48535 2.42606C6.17254 2.02386 5.83847 1.62307 5.48341 1.22363L3.98859 2.55236C4.3162 2.92092 4.62213 3.28813 4.90665 3.65394L6.48535 2.42606ZM5.48341 1.22363C5.15427 0.853348 4.82407 0.461303 4.49287 0.0473018L2.93113 1.29669C3.2826 1.73602 3.63507 2.15465 3.98859 2.55236L5.48341 1.22363ZM3.712 1.672H22.208V-0.328003H3.712V1.672ZM22.272 42.376C24.1932 42.376 25.9884 41.7956 27.6375 40.6647L26.5065 39.0153C25.1689 39.9324 23.7642 40.376 22.272 40.376V42.376ZM27.6375 40.6647C29.2574 39.554 30.6491 38.0628 31.8205 36.2155L30.1315 35.1445C29.0843 36.7959 27.8733 38.078 26.5065 39.0153L27.6375 40.6647ZM31.8263 36.2064C32.9933 34.3211 33.9033 32.1606 34.5648 29.7351L32.6352 29.2089C32.0167 31.4767 31.1773 33.4549 30.1257 35.1536L31.8263 36.2064ZM34.5602 29.7513C35.2718 27.3053 35.624 24.6932 35.624 21.92H33.624C33.624 24.5228 33.2936 26.9453 32.6398 29.1927L34.5602 29.7513ZM35.624 21.92C35.624 19.1468 35.2718 16.5347 34.5602 14.0887L32.6398 14.6473C33.2936 16.8947 33.624 19.3172 33.624 21.92H35.624ZM34.566 14.1093C33.9047 11.6404 32.9935 9.4741 31.8205 7.62446L30.1315 8.69554C31.1772 10.3446 32.0153 12.3169 32.6341 14.6267L34.566 14.1093ZM31.8263 7.63365C30.6521 5.73698 29.2338 4.21801 27.5627 3.10395L26.4533 4.76805C27.8542 5.70198 29.0812 6.99901 30.1257 8.68635L31.8263 7.63365ZM27.5735 3.11127C25.9244 1.98044 24.1292 1.4 22.208 1.4V3.4C23.7002 3.4 25.1049 3.84355 26.4425 4.76073L27.5735 3.11127ZM22.208 1.4H14.208V3.4H22.208V1.4ZM13.208 2.4V41.376H15.208V2.4H13.208ZM14.2 42.376L22.2 42.44L22.216 40.44L14.216 40.376L14.2 42.376ZM22.9151 42.1471L22.9791 42.0831L21.5649 40.6689L21.5009 40.7329L22.9151 42.1471ZM80.889 36.64L81.8764 36.798L80.0708 36.0651L80.889 36.64ZM79.865 43.04V44.04H80.7177L80.8524 43.198L79.865 43.04ZM65.145 43.104V44.104L65.1539 44.104L65.145 43.104ZM50.489 43.104H49.489V44.104H50.489V43.104ZM50.489 3.04H51.489V2.69689L51.2784 2.42606L50.489 3.04ZM48.505 0.671997V-0.328003H46.4244L47.7241 1.29669L48.505 0.671997ZM80.953 0.671997H81.953V-0.328003H80.953V0.671997ZM80.953 5.088L80.1848 5.72818L81.953 7.85005V5.088H80.953ZM78.713 2.4L79.4812 1.75981L79.1814 1.4H78.713V2.4ZM59.065 2.4V1.4H58.065V2.4H59.065ZM59.065 21.024H58.065V22.024H59.065V21.024ZM74.041 21.024H75.041V20.024H74.041V21.024ZM74.041 22.752V23.752H75.041V22.752H74.041ZM59.065 22.752V21.752H58.065V22.752H59.065ZM59.065 41.376H58.065V42.376H59.065V41.376ZM77.561 41.376V42.376H78.0805L78.3792 41.9509L77.561 41.376ZM79.9016 36.482L78.8776 42.882L80.8524 43.198L81.8764 36.798L79.9016 36.482ZM79.865 42.04C74.8702 42.04 69.9605 42.0613 65.1362 42.104L65.1539 44.104C69.9721 44.0613 74.8758 44.04 79.865 44.04V42.04ZM65.145 42.104C65.1356 42.104 65.1262 42.104 65.1168 42.104C65.1073 42.104 65.0979 42.104 65.0885 42.104C65.0791 42.104 65.0697 42.104 65.0602 42.104C65.0508 42.104 65.0414 42.104 65.032 42.104C65.0226 42.104 65.0132 42.104 65.0037 42.104C64.9943 42.104 64.9849 42.104 64.9755 42.104C64.9661 42.104 64.9566 42.104 64.9472 42.104C64.9378 42.104 64.9284 42.104 64.919 42.104C64.9095 42.104 64.9001 42.104 64.8907 42.104C64.8813 42.104 64.8718 42.104 64.8624 42.104C64.853 42.104 64.8436 42.104 64.8342 42.104C64.8247 42.104 64.8153 42.104 64.8059 42.104C64.7965 42.104 64.787 42.104 64.7776 42.104C64.7682 42.104 64.7588 42.104 64.7494 42.104C64.7399 42.104 64.7305 42.104 64.7211 42.104C64.7117 42.104 64.7022 42.104 64.6928 42.104C64.6834 42.104 64.674 42.104 64.6645 42.104C64.6551 42.104 64.6457 42.104 64.6363 42.104C64.6268 42.104 64.6174 42.104 64.608 42.104C64.5986 42.104 64.5891 42.104 64.5797 42.104C64.5703 42.104 64.5609 42.104 64.5514 42.104C64.542 42.104 64.5326 42.104 64.5231 42.104C64.5137 42.104 64.5043 42.104 64.4949 42.104C64.4854 42.104 64.476 42.104 64.4666 42.104C64.4572 42.104 64.4477 42.104 64.4383 42.104C64.4289 42.104 64.4194 42.104 64.41 42.104C64.4006 42.104 64.3912 42.104 64.3817 42.104C64.3723 42.104 64.3629 42.104 64.3534 42.104C64.344 42.104 64.3346 42.104 64.3251 42.104C64.3157 42.104 64.3063 42.104 64.2968 42.104C64.2874 42.104 64.278 42.104 64.2685 42.104C64.2591 42.104 64.2497 42.104 64.2402 42.104C64.2308 42.104 64.2214 42.104 64.212 42.104C64.2025 42.104 64.1931 42.104 64.1837 42.104C64.1742 42.104 64.1648 42.104 64.1554 42.104C64.1459 42.104 64.1365 42.104 64.1271 42.104C64.1176 42.104 64.1082 42.104 64.0987 42.104C64.0893 42.104 64.0799 42.104 64.0704 42.104C64.061 42.104 64.0516 42.104 64.0421 42.104C64.0327 42.104 64.0233 42.104 64.0138 42.104C64.0044 42.104 63.995 42.104 63.9855 42.104C63.9761 42.104 63.9666 42.104 63.9572 42.104C63.9478 42.104 63.9383 42.104 63.9289 42.104C63.9195 42.104 63.91 42.104 63.9006 42.104C63.8911 42.104 63.8817 42.104 63.8723 42.104C63.8628 42.104 63.8534 42.104 63.844 42.104C63.8345 42.104 63.8251 42.104 63.8156 42.104C63.8062 42.104 63.7968 42.104 63.7873 42.104C63.7779 42.104 63.7684 42.104 63.759 42.104C63.7496 42.104 63.7401 42.104 63.7307 42.104C63.7212 42.104 63.7118 42.104 63.7023 42.104C63.6929 42.104 63.6835 42.104 63.674 42.104C63.6646 42.104 63.6551 42.104 63.6457 42.104C63.6363 42.104 63.6268 42.104 63.6174 42.104C63.6079 42.104 63.5985 42.104 63.589 42.104C63.5796 42.104 63.5701 42.104 63.5607 42.104C63.5513 42.104 63.5418 42.104 63.5324 42.104C63.5229 42.104 63.5135 42.104 63.504 42.104C63.4946 42.104 63.4851 42.104 63.4757 42.104C63.4663 42.104 63.4568 42.104 63.4474 42.104C63.4379 42.104 63.4285 42.104 63.419 42.104C63.4096 42.104 63.4001 42.104 63.3907 42.104C63.3812 42.104 63.3718 42.104 63.3623 42.104C63.3529 42.104 63.3434 42.104 63.334 42.104C63.3246 42.104 63.3151 42.104 63.3057 42.104C63.2962 42.104 63.2868 42.104 63.2773 42.104C63.2679 42.104 63.2584 42.104 63.249 42.104C63.2395 42.104 63.2301 42.104 63.2206 42.104C63.2112 42.104 63.2017 42.104 63.1923 42.104C63.1828 42.104 63.1734 42.104 63.1639 42.104C63.1545 42.104 63.145 42.104 63.1356 42.104C63.1261 42.104 63.1167 42.104 63.1072 42.104C63.0978 42.104 63.0883 42.104 63.0788 42.104C63.0694 42.104 63.0599 42.104 63.0505 42.104C63.041 42.104 63.0316 42.104 63.0221 42.104C63.0127 42.104 63.0032 42.104 62.9938 42.104C62.9843 42.104 62.9749 42.104 62.9654 42.104C62.956 42.104 62.9465 42.104 62.937 42.104C62.9276 42.104 62.9181 42.104 62.9087 42.104C62.8992 42.104 62.8898 42.104 62.8803 42.104C62.8709 42.104 62.8614 42.104 62.8519 42.104C62.8425 42.104 62.833 42.104 62.8236 42.104C62.8141 42.104 62.8047 42.104 62.7952 42.104C62.7857 42.104 62.7763 42.104 62.7668 42.104C62.7574 42.104 62.7479 42.104 62.7385 42.104C62.729 42.104 62.7195 42.104 62.7101 42.104C62.7006 42.104 62.6912 42.104 62.6817 42.104C62.6722 42.104 62.6628 42.104 62.6533 42.104C62.6439 42.104 62.6344 42.104 62.625 42.104C62.6155 42.104 62.606 42.104 62.5966 42.104C62.5871 42.104 62.5776 42.104 62.5682 42.104C62.5587 42.104 62.5493 42.104 62.5398 42.104C62.5303 42.104 62.5209 42.104 62.5114 42.104C62.502 42.104 62.4925 42.104 62.483 42.104C62.4736 42.104 62.4641 42.104 62.4546 42.104C62.4452 42.104 62.4357 42.104 62.4263 42.104C62.4168 42.104 62.4073 42.104 62.3979 42.104C62.3884 42.104 62.3789 42.104 62.3695 42.104C62.36 42.104 62.3505 42.104 62.3411 42.104C62.3316 42.104 62.3221 42.104 62.3127 42.104C62.3032 42.104 62.2937 42.104 62.2843 42.104C62.2748 42.104 62.2654 42.104 62.2559 42.104C62.2464 42.104 62.2369 42.104 62.2275 42.104C62.218 42.104 62.2085 42.104 62.1991 42.104C62.1896 42.104 62.1801 42.104 62.1707 42.104C62.1612 42.104 62.1517 42.104 62.1423 42.104C62.1328 42.104 62.1233 42.104 62.1139 42.104C62.1044 42.104 62.0949 42.104 62.0855 42.104C62.076 42.104 62.0665 42.104 62.057 42.104C62.0476 42.104 62.0381 42.104 62.0286 42.104C62.0192 42.104 62.0097 42.104 62.0002 42.104C61.9908 42.104 61.9813 42.104 61.9718 42.104C61.9623 42.104 61.9529 42.104 61.9434 42.104C61.9339 42.104 61.9245 42.104 61.915 42.104C61.9055 42.104 61.896 42.104 61.8866 42.104C61.8771 42.104 61.8676 42.104 61.8581 42.104C61.8487 42.104 61.8392 42.104 61.8297 42.104C61.8203 42.104 61.8108 42.104 61.8013 42.104C61.7918 42.104 61.7824 42.104 61.7729 42.104C61.7634 42.104 61.7539 42.104 61.7445 42.104C61.735 42.104 61.7255 42.104 61.716 42.104C61.7066 42.104 61.6971 42.104 61.6876 42.104C61.6781 42.104 61.6686 42.104 61.6592 42.104C61.6497 42.104 61.6402 42.104 61.6307 42.104C61.6213 42.104 61.6118 42.104 61.6023 42.104C61.5928 42.104 61.5834 42.104 61.5739 42.104C61.5644 42.104 61.5549 42.104 61.5454 42.104C61.536 42.104 61.5265 42.104 61.517 42.104C61.5075 42.104 61.498 42.104 61.4886 42.104C61.4791 42.104 61.4696 42.104 61.4601 42.104C61.4506 42.104 61.4412 42.104 61.4317 42.104C61.4222 42.104 61.4127 42.104 61.4032 42.104C61.3938 42.104 61.3843 42.104 61.3748 42.104C61.3653 42.104 61.3558 42.104 61.3464 42.104C61.3369 42.104 61.3274 42.104 61.3179 42.104C61.3084 42.104 61.2989 42.104 61.2895 42.104C61.28 42.104 61.2705 42.104 61.261 42.104C61.2515 42.104 61.242 42.104 61.2326 42.104C61.2231 42.104 61.2136 42.104 61.2041 42.104C61.1946 42.104 61.1851 42.104 61.1756 42.104C61.1662 42.104 61.1567 42.104 61.1472 42.104C61.1377 42.104 61.1282 42.104 61.1187 42.104C61.1092 42.104 61.0998 42.104 61.0903 42.104C61.0808 42.104 61.0713 42.104 61.0618 42.104C61.0523 42.104 61.0428 42.104 61.0334 42.104C61.0239 42.104 61.0144 42.104 61.0049 42.104C60.9954 42.104 60.9859 42.104 60.9764 42.104C60.9669 42.104 60.9574 42.104 60.948 42.104C60.9385 42.104 60.929 42.104 60.9195 42.104C60.91 42.104 60.9005 42.104 60.891 42.104C60.8815 42.104 60.872 42.104 60.8626 42.104C60.8531 42.104 60.8436 42.104 60.8341 42.104C60.8246 42.104 60.8151 42.104 60.8056 42.104C60.7961 42.104 60.7866 42.104 60.7771 42.104C60.7676 42.104 60.7581 42.104 60.7487 42.104C60.7392 42.104 60.7297 42.104 60.7202 42.104C60.7107 42.104 60.7012 42.104 60.6917 42.104C60.6822 42.104 60.6727 42.104 60.6632 42.104C60.6537 42.104 60.6442 42.104 60.6347 42.104C60.6252 42.104 60.6157 42.104 60.6063 42.104C60.5968 42.104 60.5873 42.104 60.5778 42.104C60.5683 42.104 60.5588 42.104 60.5493 42.104C60.5398 42.104 60.5303 42.104 60.5208 42.104C60.5113 42.104 60.5018 42.104 60.4923 42.104C60.4828 42.104 60.4733 42.104 60.4638 42.104C60.4543 42.104 60.4448 42.104 60.4353 42.104C60.4258 42.104 60.4163 42.104 60.4068 42.104C60.3973 42.104 60.3878 42.104 60.3783 42.104C60.3688 42.104 60.3593 42.104 60.3498 42.104C60.3403 42.104 60.3308 42.104 60.3213 42.104C60.3118 42.104 60.3023 42.104 60.2928 42.104C60.2833 42.104 60.2738 42.104 60.2643 42.104C60.2548 42.104 60.2453 42.104 60.2358 42.104C60.2263 42.104 60.2168 42.104 60.2073 42.104C60.1978 42.104 60.1883 42.104 60.1788 42.104C60.1693 42.104 60.1598 42.104 60.1503 42.104C60.1408 42.104 60.1313 42.104 60.1218 42.104C60.1123 42.104 60.1028 42.104 60.0933 42.104C60.0838 42.104 60.0743 42.104 60.0648 42.104C60.0553 42.104 60.0458 42.104 60.0363 42.104C60.0268 42.104 60.0173 42.104 60.0078 42.104C59.9983 42.104 59.9887 42.104 59.9792 42.104C59.9697 42.104 59.9602 42.104 59.9507 42.104C59.9412 42.104 59.9317 42.104 59.9222 42.104C59.9127 42.104 59.9032 42.104 59.8937 42.104C59.8842 42.104 59.8747 42.104 59.8652 42.104C59.8557 42.104 59.8461 42.104 59.8366 42.104C59.8271 42.104 59.8176 42.104 59.8081 42.104C59.7986 42.104 59.7891 42.104 59.7796 42.104C59.7701 42.104 59.7606 42.104 59.7511 42.104C59.7416 42.104 59.732 42.104 59.7225 42.104C59.713 42.104 59.7035 42.104 59.694 42.104C59.6845 42.104 59.675 42.104 59.6655 42.104C59.656 42.104 59.6464 42.104 59.6369 42.104C59.6274 42.104 59.6179 42.104 59.6084 42.104C59.5989 42.104 59.5894 42.104 59.5799 42.104C59.5704 42.104 59.5608 42.104 59.5513 42.104C59.5418 42.104 59.5323 42.104 59.5228 42.104C59.5133 42.104 59.5038 42.104 59.4942 42.104C59.4847 42.104 59.4752 42.104 59.4657 42.104C59.4562 42.104 59.4467 42.104 59.4372 42.104C59.4276 42.104 59.4181 42.104 59.4086 42.104C59.3991 42.104 59.3896 42.104 59.3801 42.104C59.3706 42.104 59.361 42.104 59.3515 42.104C59.342 42.104 59.3325 42.104 59.323 42.104C59.3135 42.104 59.3039 42.104 59.2944 42.104C59.2849 42.104 59.2754 42.104 59.2659 42.104C59.2564 42.104 59.2468 42.104 59.2373 42.104C59.2278 42.104 59.2183 42.104 59.2088 42.104C59.1992 42.104 59.1897 42.104 59.1802 42.104C59.1707 42.104 59.1612 42.104 59.1516 42.104C59.1421 42.104 59.1326 42.104 59.1231 42.104C59.1136 42.104 59.104 42.104 59.0945 42.104C59.085 42.104 59.0755 42.104 59.066 42.104C59.0564 42.104 59.0469 42.104 59.0374 42.104C59.0279 42.104 59.0184 42.104 59.0088 42.104C58.9993 42.104 58.9898 42.104 58.9803 42.104C58.9707 42.104 58.9612 42.104 58.9517 42.104C58.9422 42.104 58.9326 42.104 58.9231 42.104C58.9136 42.104 58.9041 42.104 58.8946 42.104C58.885 42.104 58.8755 42.104 58.866 42.104C58.8565 42.104 58.8469 42.104 58.8374 42.104C58.8279 42.104 58.8184 42.104 58.8088 42.104C58.7993 42.104 58.7898 42.104 58.7803 42.104C58.7707 42.104 58.7612 42.104 58.7517 42.104C58.7421 42.104 58.7326 42.104 58.7231 42.104C58.7136 42.104 58.704 42.104 58.6945 42.104C58.685 42.104 58.6755 42.104 58.6659 42.104C58.6564 42.104 58.6469 42.104 58.6373 42.104C58.6278 42.104 58.6183 42.104 58.6088 42.104C58.5992 42.104 58.5897 42.104 58.5802 42.104C58.5706 42.104 58.5611 42.104 58.5516 42.104C58.542 42.104 58.5325 42.104 58.523 42.104C58.5135 42.104 58.5039 42.104 58.4944 42.104C58.4849 42.104 58.4753 42.104 58.4658 42.104C58.4563 42.104 58.4467 42.104 58.4372 42.104C58.4277 42.104 58.4181 42.104 58.4086 42.104C58.3991 42.104 58.3895 42.104 58.38 42.104C58.3705 42.104 58.361 42.104 58.3514 42.104C58.3419 42.104 58.3323 42.104 58.3228 42.104C58.3133 42.104 58.3037 42.104 58.2942 42.104C58.2847 42.104 58.2751 42.104 58.2656 42.104C58.2561 42.104 58.2465 42.104 58.237 42.104C58.2275 42.104 58.2179 42.104 58.2084 42.104C58.1989 42.104 58.1893 42.104 58.1798 42.104C58.1703 42.104 58.1607 42.104 58.1512 42.104C58.1416 42.104 58.1321 42.104 58.1226 42.104C58.113 42.104 58.1035 42.104 58.094 42.104C58.0844 42.104 58.0749 42.104 58.0653 42.104C58.0558 42.104 58.0463 42.104 58.0367 42.104C58.0272 42.104 58.0176 42.104 58.0081 42.104C57.9986 42.104 57.989 42.104 57.9795 42.104C57.97 42.104 57.9604 42.104 57.9509 42.104C57.9413 42.104 57.9318 42.104 57.9222 42.104C57.9127 42.104 57.9032 42.104 57.8936 42.104C57.8841 42.104 57.8745 42.104 57.865 42.104C57.8555 42.104 57.8459 42.104 57.8364 42.104C57.8268 42.104 57.8173 42.104 57.8078 42.104C57.7982 42.104 57.7887 42.104 57.7791 42.104C57.7696 42.104 57.76 42.104 57.7505 42.104C57.7409 42.104 57.7314 42.104 57.7219 42.104C57.7123 42.104 57.7028 42.104 57.6932 42.104C57.6837 42.104 57.6741 42.104 57.6646 42.104C57.655 42.104 57.6455 42.104 57.636 42.104C57.6264 42.104 57.6169 42.104 57.6073 42.104C57.5978 42.104 57.5882 42.104 57.5787 42.104C57.5691 42.104 57.5596 42.104 57.55 42.104C57.5405 42.104 57.5309 42.104 57.5214 42.104C57.5118 42.104 57.5023 42.104 57.4928 42.104C57.4832 42.104 57.4737 42.104 57.4641 42.104C57.4546 42.104 57.445 42.104 57.4355 42.104C57.4259 42.104 57.4164 42.104 57.4068 42.104C57.3973 42.104 57.3877 42.104 57.3782 42.104C57.3686 42.104 57.3591 42.104 57.3495 42.104C57.34 42.104 57.3304 42.104 57.3209 42.104C57.3113 42.104 57.3018 42.104 57.2922 42.104C57.2827 42.104 57.2731 42.104 57.2636 42.104C57.254 42.104 57.2444 42.104 57.2349 42.104C57.2253 42.104 57.2158 42.104 57.2062 42.104C57.1967 42.104 57.1871 42.104 57.1776 42.104C57.168 42.104 57.1585 42.104 57.1489 42.104C57.1394 42.104 57.1298 42.104 57.1203 42.104C57.1107 42.104 57.1011 42.104 57.0916 42.104C57.082 42.104 57.0725 42.104 57.0629 42.104C57.0534 42.104 57.0438 42.104 57.0343 42.104C57.0247 42.104 57.0151 42.104 57.0056 42.104C56.996 42.104 56.9865 42.104 56.9769 42.104C56.9674 42.104 56.9578 42.104 56.9483 42.104C56.9387 42.104 56.9291 42.104 56.9196 42.104C56.91 42.104 56.9005 42.104 56.8909 42.104C56.8813 42.104 56.8718 42.104 56.8622 42.104C56.8527 42.104 56.8431 42.104 56.8336 42.104C56.824 42.104 56.8144 42.104 56.8049 42.104C56.7953 42.104 56.7858 42.104 56.7762 42.104C56.7666 42.104 56.7571 42.104 56.7475 42.104C56.738 42.104 56.7284 42.104 56.7188 42.104C56.7093 42.104 56.6997 42.104 56.6901 42.104C56.6806 42.104 56.671 42.104 56.6615 42.104C56.6519 42.104 56.6423 42.104 56.6328 42.104C56.6232 42.104 56.6136 42.104 56.6041 42.104C56.5945 42.104 56.585 42.104 56.5754 42.104C56.5658 42.104 56.5563 42.104 56.5467 42.104C56.5371 42.104 56.5276 42.104 56.518 42.104C56.5084 42.104 56.4989 42.104 56.4893 42.104C56.4797 42.104 56.4702 42.104 56.4606 42.104C56.4511 42.104 56.4415 42.104 56.4319 42.104C56.4224 42.104 56.4128 42.104 56.4032 42.104C56.3937 42.104 56.3841 42.104 56.3745 42.104C56.365 42.104 56.3554 42.104 56.3458 42.104C56.3363 42.104 56.3267 42.104 56.3171 42.104C56.3075 42.104 56.298 42.104 56.2884 42.104C56.2788 42.104 56.2693 42.104 56.2597 42.104C56.2501 42.104 56.2406 42.104 56.231 42.104C56.2214 42.104 56.2119 42.104 56.2023 42.104C56.1927 42.104 56.1831 42.104 56.1736 42.104C56.164 42.104 56.1544 42.104 56.1449 42.104C56.1353 42.104 56.1257 42.104 56.1161 42.104C56.1066 42.104 56.097 42.104 56.0874 42.104C56.0779 42.104 56.0683 42.104 56.0587 42.104C56.0491 42.104 56.0396 42.104 56.03 42.104C56.0204 42.104 56.0109 42.104 56.0013 42.104C55.9917 42.104 55.9821 42.104 55.9726 42.104C55.963 42.104 55.9534 42.104 55.9438 42.104C55.9343 42.104 55.9247 42.104 55.9151 42.104C55.9055 42.104 55.896 42.104 55.8864 42.104C55.8768 42.104 55.8672 42.104 55.8577 42.104C55.8481 42.104 55.8385 42.104 55.8289 42.104C55.8194 42.104 55.8098 42.104 55.8002 42.104C55.7906 42.104 55.7811 42.104 55.7715 42.104C55.7619 42.104 55.7523 42.104 55.7427 42.104C55.7332 42.104 55.7236 42.104 55.714 42.104C55.7044 42.104 55.6949 42.104 55.6853 42.104C55.6757 42.104 55.6661 42.104 55.6565 42.104C55.647 42.104 55.6374 42.104 55.6278 42.104C55.6182 42.104 55.6086 42.104 55.5991 42.104C55.5895 42.104 55.5799 42.104 55.5703 42.104C55.5607 42.104 55.5512 42.104 55.5416 42.104C55.532 42.104 55.5224 42.104 55.5128 42.104C55.5032 42.104 55.4937 42.104 55.4841 42.104C55.4745 42.104 55.4649 42.104 55.4553 42.104C55.4458 42.104 55.4362 42.104 55.4266 42.104C55.417 42.104 55.4074 42.104 55.3978 42.104C55.3883 42.104 55.3787 42.104 55.3691 42.104C55.3595 42.104 55.3499 42.104 55.3403 42.104C55.3307 42.104 55.3212 42.104 55.3116 42.104C55.302 42.104 55.2924 42.104 55.2828 42.104C55.2732 42.104 55.2636 42.104 55.2541 42.104C55.2445 42.104 55.2349 42.104 55.2253 42.104C55.2157 42.104 55.2061 42.104 55.1965 42.104C55.187 42.104 55.1774 42.104 55.1678 42.104C55.1582 42.104 55.1486 42.104 55.139 42.104C55.1294 42.104 55.1198 42.104 55.1103 42.104C55.1007 42.104 55.0911 42.104 55.0815 42.104C55.0719 42.104 55.0623 42.104 55.0527 42.104C55.0431 42.104 55.0335 42.104 55.0239 42.104C55.0144 42.104 55.0048 42.104 54.9952 42.104C54.9856 42.104 54.976 42.104 54.9664 42.104C54.9568 42.104 54.9472 42.104 54.9376 42.104C54.928 42.104 54.9184 42.104 54.9089 42.104C54.8993 42.104 54.8897 42.104 54.8801 42.104C54.8705 42.104 54.8609 42.104 54.8513 42.104C54.8417 42.104 54.8321 42.104 54.8225 42.104C54.8129 42.104 54.8033 42.104 54.7937 42.104C54.7841 42.104 54.7746 42.104 54.765 42.104C54.7554 42.104 54.7458 42.104 54.7362 42.104C54.7266 42.104 54.717 42.104 54.7074 42.104C54.6978 42.104 54.6882 42.104 54.6786 42.104C54.669 42.104 54.6594 42.104 54.6498 42.104C54.6402 42.104 54.6306 42.104 54.621 42.104C54.6114 42.104 54.6018 42.104 54.5922 42.104C54.5826 42.104 54.573 42.104 54.5634 42.104C54.5538 42.104 54.5442 42.104 54.5346 42.104C54.525 42.104 54.5154 42.104 54.5059 42.104C54.4963 42.104 54.4867 42.104 54.4771 42.104C54.4675 42.104 54.4579 42.104 54.4483 42.104C54.4387 42.104 54.4291 42.104 54.4195 42.104C54.4099 42.104 54.4003 42.104 54.3907 42.104C54.3811 42.104 54.3715 42.104 54.3619 42.104C54.3522 42.104 54.3426 42.104 54.333 42.104C54.3234 42.104 54.3138 42.104 54.3042 42.104C54.2946 42.104 54.285 42.104 54.2754 42.104C54.2658 42.104 54.2562 42.104 54.2466 42.104C54.237 42.104 54.2274 42.104 54.2178 42.104C54.2082 42.104 54.1986 42.104 54.189 42.104C54.1794 42.104 54.1698 42.104 54.1602 42.104C54.1506 42.104 54.141 42.104 54.1314 42.104C54.1218 42.104 54.1122 42.104 54.1026 42.104C54.093 42.104 54.0833 42.104 54.0737 42.104C54.0641 42.104 54.0545 42.104 54.0449 42.104C54.0353 42.104 54.0257 42.104 54.0161 42.104C54.0065 42.104 53.9969 42.104 53.9873 42.104C53.9777 42.104 53.9681 42.104 53.9585 42.104C53.9488 42.104 53.9392 42.104 53.9296 42.104C53.92 42.104 53.9104 42.104 53.9008 42.104C53.8912 42.104 53.8816 42.104 53.872 42.104C53.8624 42.104 53.8528 42.104 53.8431 42.104C53.8335 42.104 53.8239 42.104 53.8143 42.104C53.8047 42.104 53.7951 42.104 53.7855 42.104C53.7759 42.104 53.7663 42.104 53.7566 42.104C53.747 42.104 53.7374 42.104 53.7278 42.104C53.7182 42.104 53.7086 42.104 53.699 42.104C53.6894 42.104 53.6798 42.104 53.6701 42.104C53.6605 42.104 53.6509 42.104 53.6413 42.104C53.6317 42.104 53.6221 42.104 53.6125 42.104C53.6028 42.104 53.5932 42.104 53.5836 42.104C53.574 42.104 53.5644 42.104 53.5548 42.104C53.5452 42.104 53.5355 42.104 53.5259 42.104C53.5163 42.104 53.5067 42.104 53.4971 42.104C53.4875 42.104 53.4778 42.104 53.4682 42.104C53.4586 42.104 53.449 42.104 53.4394 42.104C53.4298 42.104 53.4201 42.104 53.4105 42.104C53.4009 42.104 53.3913 42.104 53.3817 42.104C53.3721 42.104 53.3624 42.104 53.3528 42.104C53.3432 42.104 53.3336 42.104 53.324 42.104C53.3144 42.104 53.3047 42.104 53.2951 42.104C53.2855 42.104 53.2759 42.104 53.2663 42.104C53.2566 42.104 53.247 42.104 53.2374 42.104C53.2278 42.104 53.2182 42.104 53.2085 42.104C53.1989 42.104 53.1893 42.104 53.1797 42.104C53.17 42.104 53.1604 42.104 53.1508 42.104C53.1412 42.104 53.1316 42.104 53.1219 42.104C53.1123 42.104 53.1027 42.104 53.0931 42.104C53.0834 42.104 53.0738 42.104 53.0642 42.104C53.0546 42.104 53.045 42.104 53.0353 42.104C53.0257 42.104 53.0161 42.104 53.0065 42.104C52.9968 42.104 52.9872 42.104 52.9776 42.104C52.968 42.104 52.9583 42.104 52.9487 42.104C52.9391 42.104 52.9295 42.104 52.9198 42.104C52.9102 42.104 52.9006 42.104 52.891 42.104C52.8813 42.104 52.8717 42.104 52.8621 42.104C52.8525 42.104 52.8428 42.104 52.8332 42.104C52.8236 42.104 52.8139 42.104 52.8043 42.104C52.7947 42.104 52.7851 42.104 52.7754 42.104C52.7658 42.104 52.7562 42.104 52.7465 42.104C52.7369 42.104 52.7273 42.104 52.7177 42.104C52.708 42.104 52.6984 42.104 52.6888 42.104C52.6791 42.104 52.6695 42.104 52.6599 42.104C52.6503 42.104 52.6406 42.104 52.631 42.104C52.6214 42.104 52.6117 42.104 52.6021 42.104C52.5925 42.104 52.5828 42.104 52.5732 42.104C52.5636 42.104 52.5539 42.104 52.5443 42.104C52.5347 42.104 52.525 42.104 52.5154 42.104C52.5058 42.104 52.4961 42.104 52.4865 42.104C52.4769 42.104 52.4672 42.104 52.4576 42.104C52.448 42.104 52.4383 42.104 52.4287 42.104C52.4191 42.104 52.4094 42.104 52.3998 42.104C52.3902 42.104 52.3805 42.104 52.3709 42.104C52.3613 42.104 52.3516 42.104 52.342 42.104C52.3324 42.104 52.3227 42.104 52.3131 42.104C52.3035 42.104 52.2938 42.104 52.2842 42.104C52.2746 42.104 52.2649 42.104 52.2553 42.104C52.2456 42.104 52.236 42.104 52.2264 42.104C52.2167 42.104 52.2071 42.104 52.1975 42.104C52.1878 42.104 52.1782 42.104 52.1685 42.104C52.1589 42.104 52.1493 42.104 52.1396 42.104C52.13 42.104 52.1203 42.104 52.1107 42.104C52.1011 42.104 52.0914 42.104 52.0818 42.104C52.0721 42.104 52.0625 42.104 52.0529 42.104C52.0432 42.104 52.0336 42.104 52.0239 42.104C52.0143 42.104 52.0047 42.104 51.995 42.104C51.9854 42.104 51.9757 42.104 51.9661 42.104C51.9565 42.104 51.9468 42.104 51.9372 42.104C51.9275 42.104 51.9179 42.104 51.9082 42.104C51.8986 42.104 51.889 42.104 51.8793 42.104C51.8697 42.104 51.86 42.104 51.8504 42.104C51.8407 42.104 51.8311 42.104 51.8215 42.104C51.8118 42.104 51.8022 42.104 51.7925 42.104C51.7829 42.104 51.7732 42.104 51.7636 42.104C51.7539 42.104 51.7443 42.104 51.7346 42.104C51.725 42.104 51.7154 42.104 51.7057 42.104C51.6961 42.104 51.6864 42.104 51.6768 42.104C51.6671 42.104 51.6575 42.104 51.6478 42.104C51.6382 42.104 51.6285 42.104 51.6189 42.104C51.6092 42.104 51.5996 42.104 51.5899 42.104C51.5803 42.104 51.5706 42.104 51.561 42.104C51.5513 42.104 51.5417 42.104 51.5321 42.104C51.5224 42.104 51.5128 42.104 51.5031 42.104C51.4935 42.104 51.4838 42.104 51.4742 42.104C51.4645 42.104 51.4549 42.104 51.4452 42.104C51.4356 42.104 51.4259 42.104 51.4163 42.104C51.4066 42.104 51.3969 42.104 51.3873 42.104C51.3776 42.104 51.368 42.104 51.3583 42.104C51.3487 42.104 51.339 42.104 51.3294 42.104C51.3197 42.104 51.3101 42.104 51.3004 42.104C51.2908 42.104 51.2811 42.104 51.2715 42.104C51.2618 42.104 51.2522 42.104 51.2425 42.104C51.2329 42.104 51.2232 42.104 51.2135 42.104C51.2039 42.104 51.1942 42.104 51.1846 42.104C51.1749 42.104 51.1653 42.104 51.1556 42.104C51.146 42.104 51.1363 42.104 51.1266 42.104C51.117 42.104 51.1073 42.104 51.0977 42.104C51.088 42.104 51.0784 42.104 51.0687 42.104C51.0591 42.104 51.0494 42.104 51.0397 42.104C51.0301 42.104 51.0204 42.104 51.0108 42.104C51.0011 42.104 50.9914 42.104 50.9818 42.104C50.9721 42.104 50.9625 42.104 50.9528 42.104C50.9432 42.104 50.9335 42.104 50.9238 42.104C50.9142 42.104 50.9045 42.104 50.8949 42.104C50.8852 42.104 50.8755 42.104 50.8659 42.104C50.8562 42.104 50.8466 42.104 50.8369 42.104C50.8272 42.104 50.8176 42.104 50.8079 42.104C50.7983 42.104 50.7886 42.104 50.7789 42.104C50.7693 42.104 50.7596 42.104 50.7499 42.104C50.7403 42.104 50.7306 42.104 50.721 42.104C50.7113 42.104 50.7016 42.104 50.692 42.104C50.6823 42.104 50.6726 42.104 50.663 42.104C50.6533 42.104 50.6436 42.104 50.634 42.104C50.6243 42.104 50.6147 42.104 50.605 42.104C50.5953 42.104 50.5857 42.104 50.576 42.104C50.5663 42.104 50.5567 42.104 50.547 42.104C50.5373 42.104 50.5277 42.104 50.518 42.104C50.5083 42.104 50.4987 42.104 50.489 42.104V44.104C50.4987 44.104 50.5083 44.104 50.518 44.104C50.5277 44.104 50.5373 44.104 50.547 44.104C50.5567 44.104 50.5663 44.104 50.576 44.104C50.5857 44.104 50.5953 44.104 50.605 44.104C50.6147 44.104 50.6243 44.104 50.634 44.104C50.6436 44.104 50.6533 44.104 50.663 44.104C50.6726 44.104 50.6823 44.104 50.692 44.104C50.7016 44.104 50.7113 44.104 50.721 44.104C50.7306 44.104 50.7403 44.104 50.7499 44.104C50.7596 44.104 50.7693 44.104 50.7789 44.104C50.7886 44.104 50.7983 44.104 50.8079 44.104C50.8176 44.104 50.8272 44.104 50.8369 44.104C50.8466 44.104 50.8562 44.104 50.8659 44.104C50.8755 44.104 50.8852 44.104 50.8949 44.104C50.9045 44.104 50.9142 44.104 50.9238 44.104C50.9335 44.104 50.9432 44.104 50.9528 44.104C50.9625 44.104 50.9721 44.104 50.9818 44.104C50.9914 44.104 51.0011 44.104 51.0108 44.104C51.0204 44.104 51.0301 44.104 51.0397 44.104C51.0494 44.104 51.0591 44.104 51.0687 44.104C51.0784 44.104 51.088 44.104 51.0977 44.104C51.1073 44.104 51.117 44.104 51.1266 44.104C51.1363 44.104 51.146 44.104 51.1556 44.104C51.1653 44.104 51.1749 44.104 51.1846 44.104C51.1942 44.104 51.2039 44.104 51.2135 44.104C51.2232 44.104 51.2329 44.104 51.2425 44.104C51.2522 44.104 51.2618 44.104 51.2715 44.104C51.2811 44.104 51.2908 44.104 51.3004 44.104C51.3101 44.104 51.3197 44.104 51.3294 44.104C51.339 44.104 51.3487 44.104 51.3583 44.104C51.368 44.104 51.3776 44.104 51.3873 44.104C51.3969 44.104 51.4066 44.104 51.4163 44.104C51.4259 44.104 51.4356 44.104 51.4452 44.104C51.4549 44.104 51.4645 44.104 51.4742 44.104C51.4838 44.104 51.4935 44.104 51.5031 44.104C51.5128 44.104 51.5224 44.104 51.5321 44.104C51.5417 44.104 51.5513 44.104 51.561 44.104C51.5706 44.104 51.5803 44.104 51.5899 44.104C51.5996 44.104 51.6092 44.104 51.6189 44.104C51.6285 44.104 51.6382 44.104 51.6478 44.104C51.6575 44.104 51.6671 44.104 51.6768 44.104C51.6864 44.104 51.6961 44.104 51.7057 44.104C51.7154 44.104 51.725 44.104 51.7346 44.104C51.7443 44.104 51.7539 44.104 51.7636 44.104C51.7732 44.104 51.7829 44.104 51.7925 44.104C51.8022 44.104 51.8118 44.104 51.8215 44.104C51.8311 44.104 51.8407 44.104 51.8504 44.104C51.86 44.104 51.8697 44.104 51.8793 44.104C51.889 44.104 51.8986 44.104 51.9082 44.104C51.9179 44.104 51.9275 44.104 51.9372 44.104C51.9468 44.104 51.9565 44.104 51.9661 44.104C51.9757 44.104 51.9854 44.104 51.995 44.104C52.0047 44.104 52.0143 44.104 52.0239 44.104C52.0336 44.104 52.0432 44.104 52.0529 44.104C52.0625 44.104 52.0721 44.104 52.0818 44.104C52.0914 44.104 52.1011 44.104 52.1107 44.104C52.1203 44.104 52.13 44.104 52.1396 44.104C52.1493 44.104 52.1589 44.104 52.1685 44.104C52.1782 44.104 52.1878 44.104 52.1975 44.104C52.2071 44.104 52.2167 44.104 52.2264 44.104C52.236 44.104 52.2456 44.104 52.2553 44.104C52.2649 44.104 52.2746 44.104 52.2842 44.104C52.2938 44.104 52.3035 44.104 52.3131 44.104C52.3227 44.104 52.3324 44.104 52.342 44.104C52.3516 44.104 52.3613 44.104 52.3709 44.104C52.3805 44.104 52.3902 44.104 52.3998 44.104C52.4094 44.104 52.4191 44.104 52.4287 44.104C52.4383 44.104 52.448 44.104 52.4576 44.104C52.4672 44.104 52.4769 44.104 52.4865 44.104C52.4961 44.104 52.5058 44.104 52.5154 44.104C52.525 44.104 52.5347 44.104 52.5443 44.104C52.5539 44.104 52.5636 44.104 52.5732 44.104C52.5828 44.104 52.5925 44.104 52.6021 44.104C52.6117 44.104 52.6214 44.104 52.631 44.104C52.6406 44.104 52.6503 44.104 52.6599 44.104C52.6695 44.104 52.6791 44.104 52.6888 44.104C52.6984 44.104 52.708 44.104 52.7177 44.104C52.7273 44.104 52.7369 44.104 52.7465 44.104C52.7562 44.104 52.7658 44.104 52.7754 44.104C52.7851 44.104 52.7947 44.104 52.8043 44.104C52.8139 44.104 52.8236 44.104 52.8332 44.104C52.8428 44.104 52.8525 44.104 52.8621 44.104C52.8717 44.104 52.8813 44.104 52.891 44.104C52.9006 44.104 52.9102 44.104 52.9198 44.104C52.9295 44.104 52.9391 44.104 52.9487 44.104C52.9583 44.104 52.968 44.104 52.9776 44.104C52.9872 44.104 52.9968 44.104 53.0065 44.104C53.0161 44.104 53.0257 44.104 53.0353 44.104C53.045 44.104 53.0546 44.104 53.0642 44.104C53.0738 44.104 53.0834 44.104 53.0931 44.104C53.1027 44.104 53.1123 44.104 53.1219 44.104C53.1316 44.104 53.1412 44.104 53.1508 44.104C53.1604 44.104 53.17 44.104 53.1797 44.104C53.1893 44.104 53.1989 44.104 53.2085 44.104C53.2182 44.104 53.2278 44.104 53.2374 44.104C53.247 44.104 53.2566 44.104 53.2663 44.104C53.2759 44.104 53.2855 44.104 53.2951 44.104C53.3047 44.104 53.3144 44.104 53.324 44.104C53.3336 44.104 53.3432 44.104 53.3528 44.104C53.3624 44.104 53.3721 44.104 53.3817 44.104C53.3913 44.104 53.4009 44.104 53.4105 44.104C53.4201 44.104 53.4298 44.104 53.4394 44.104C53.449 44.104 53.4586 44.104 53.4682 44.104C53.4778 44.104 53.4875 44.104 53.4971 44.104C53.5067 44.104 53.5163 44.104 53.5259 44.104C53.5355 44.104 53.5452 44.104 53.5548 44.104C53.5644 44.104 53.574 44.104 53.5836 44.104C53.5932 44.104 53.6028 44.104 53.6125 44.104C53.6221 44.104 53.6317 44.104 53.6413 44.104C53.6509 44.104 53.6605 44.104 53.6701 44.104C53.6798 44.104 53.6894 44.104 53.699 44.104C53.7086 44.104 53.7182 44.104 53.7278 44.104C53.7374 44.104 53.747 44.104 53.7566 44.104C53.7663 44.104 53.7759 44.104 53.7855 44.104C53.7951 44.104 53.8047 44.104 53.8143 44.104C53.8239 44.104 53.8335 44.104 53.8431 44.104C53.8528 44.104 53.8624 44.104 53.872 44.104C53.8816 44.104 53.8912 44.104 53.9008 44.104C53.9104 44.104 53.92 44.104 53.9296 44.104C53.9392 44.104 53.9488 44.104 53.9585 44.104C53.9681 44.104 53.9777 44.104 53.9873 44.104C53.9969 44.104 54.0065 44.104 54.0161 44.104C54.0257 44.104 54.0353 44.104 54.0449 44.104C54.0545 44.104 54.0641 44.104 54.0737 44.104C54.0833 44.104 54.093 44.104 54.1026 44.104C54.1122 44.104 54.1218 44.104 54.1314 44.104C54.141 44.104 54.1506 44.104 54.1602 44.104C54.1698 44.104 54.1794 44.104 54.189 44.104C54.1986 44.104 54.2082 44.104 54.2178 44.104C54.2274 44.104 54.237 44.104 54.2466 44.104C54.2562 44.104 54.2658 44.104 54.2754 44.104C54.285 44.104 54.2946 44.104 54.3042 44.104C54.3138 44.104 54.3234 44.104 54.333 44.104C54.3426 44.104 54.3522 44.104 54.3619 44.104C54.3715 44.104 54.3811 44.104 54.3907 44.104C54.4003 44.104 54.4099 44.104 54.4195 44.104C54.4291 44.104 54.4387 44.104 54.4483 44.104C54.4579 44.104 54.4675 44.104 54.4771 44.104C54.4867 44.104 54.4963 44.104 54.5059 44.104C54.5154 44.104 54.525 44.104 54.5346 44.104C54.5442 44.104 54.5538 44.104 54.5634 44.104C54.573 44.104 54.5826 44.104 54.5922 44.104C54.6018 44.104 54.6114 44.104 54.621 44.104C54.6306 44.104 54.6402 44.104 54.6498 44.104C54.6594 44.104 54.669 44.104 54.6786 44.104C54.6882 44.104 54.6978 44.104 54.7074 44.104C54.717 44.104 54.7266 44.104 54.7362 44.104C54.7458 44.104 54.7554 44.104 54.765 44.104C54.7746 44.104 54.7841 44.104 54.7937 44.104C54.8033 44.104 54.8129 44.104 54.8225 44.104C54.8321 44.104 54.8417 44.104 54.8513 44.104C54.8609 44.104 54.8705 44.104 54.8801 44.104C54.8897 44.104 54.8993 44.104 54.9089 44.104C54.9184 44.104 54.928 44.104 54.9376 44.104C54.9472 44.104 54.9568 44.104 54.9664 44.104C54.976 44.104 54.9856 44.104 54.9952 44.104C55.0048 44.104 55.0144 44.104 55.0239 44.104C55.0335 44.104 55.0431 44.104 55.0527 44.104C55.0623 44.104 55.0719 44.104 55.0815 44.104C55.0911 44.104 55.1007 44.104 55.1103 44.104C55.1198 44.104 55.1294 44.104 55.139 44.104C55.1486 44.104 55.1582 44.104 55.1678 44.104C55.1774 44.104 55.187 44.104 55.1965 44.104C55.2061 44.104 55.2157 44.104 55.2253 44.104C55.2349 44.104 55.2445 44.104 55.2541 44.104C55.2636 44.104 55.2732 44.104 55.2828 44.104C55.2924 44.104 55.302 44.104 55.3116 44.104C55.3212 44.104 55.3307 44.104 55.3403 44.104C55.3499 44.104 55.3595 44.104 55.3691 44.104C55.3787 44.104 55.3883 44.104 55.3978 44.104C55.4074 44.104 55.417 44.104 55.4266 44.104C55.4362 44.104 55.4458 44.104 55.4553 44.104C55.4649 44.104 55.4745 44.104 55.4841 44.104C55.4937 44.104 55.5032 44.104 55.5128 44.104C55.5224 44.104 55.532 44.104 55.5416 44.104C55.5512 44.104 55.5607 44.104 55.5703 44.104C55.5799 44.104 55.5895 44.104 55.5991 44.104C55.6086 44.104 55.6182 44.104 55.6278 44.104C55.6374 44.104 55.647 44.104 55.6565 44.104C55.6661 44.104 55.6757 44.104 55.6853 44.104C55.6949 44.104 55.7044 44.104 55.714 44.104C55.7236 44.104 55.7332 44.104 55.7427 44.104C55.7523 44.104 55.7619 44.104 55.7715 44.104C55.7811 44.104 55.7906 44.104 55.8002 44.104C55.8098 44.104 55.8194 44.104 55.8289 44.104C55.8385 44.104 55.8481 44.104 55.8577 44.104C55.8672 44.104 55.8768 44.104 55.8864 44.104C55.896 44.104 55.9055 44.104 55.9151 44.104C55.9247 44.104 55.9343 44.104 55.9438 44.104C55.9534 44.104 55.963 44.104 55.9726 44.104C55.9821 44.104 55.9917 44.104 56.0013 44.104C56.0109 44.104 56.0204 44.104 56.03 44.104C56.0396 44.104 56.0491 44.104 56.0587 44.104C56.0683 44.104 56.0779 44.104 56.0874 44.104C56.097 44.104 56.1066 44.104 56.1161 44.104C56.1257 44.104 56.1353 44.104 56.1449 44.104C56.1544 44.104 56.164 44.104 56.1736 44.104C56.1831 44.104 56.1927 44.104 56.2023 44.104C56.2119 44.104 56.2214 44.104 56.231 44.104C56.2406 44.104 56.2501 44.104 56.2597 44.104C56.2693 44.104 56.2788 44.104 56.2884 44.104C56.298 44.104 56.3075 44.104 56.3171 44.104C56.3267 44.104 56.3363 44.104 56.3458 44.104C56.3554 44.104 56.365 44.104 56.3745 44.104C56.3841 44.104 56.3937 44.104 56.4032 44.104C56.4128 44.104 56.4224 44.104 56.4319 44.104C56.4415 44.104 56.4511 44.104 56.4606 44.104C56.4702 44.104 56.4797 44.104 56.4893 44.104C56.4989 44.104 56.5084 44.104 56.518 44.104C56.5276 44.104 56.5371 44.104 56.5467 44.104C56.5563 44.104 56.5658 44.104 56.5754 44.104C56.585 44.104 56.5945 44.104 56.6041 44.104C56.6136 44.104 56.6232 44.104 56.6328 44.104C56.6423 44.104 56.6519 44.104 56.6615 44.104C56.671 44.104 56.6806 44.104 56.6901 44.104C56.6997 44.104 56.7093 44.104 56.7188 44.104C56.7284 44.104 56.738 44.104 56.7475 44.104C56.7571 44.104 56.7666 44.104 56.7762 44.104C56.7858 44.104 56.7953 44.104 56.8049 44.104C56.8144 44.104 56.824 44.104 56.8336 44.104C56.8431 44.104 56.8527 44.104 56.8622 44.104C56.8718 44.104 56.8813 44.104 56.8909 44.104C56.9005 44.104 56.91 44.104 56.9196 44.104C56.9291 44.104 56.9387 44.104 56.9483 44.104C56.9578 44.104 56.9674 44.104 56.9769 44.104C56.9865 44.104 56.996 44.104 57.0056 44.104C57.0151 44.104 57.0247 44.104 57.0343 44.104C57.0438 44.104 57.0534 44.104 57.0629 44.104C57.0725 44.104 57.082 44.104 57.0916 44.104C57.1011 44.104 57.1107 44.104 57.1203 44.104C57.1298 44.104 57.1394 44.104 57.1489 44.104C57.1585 44.104 57.168 44.104 57.1776 44.104C57.1871 44.104 57.1967 44.104 57.2062 44.104C57.2158 44.104 57.2253 44.104 57.2349 44.104C57.2444 44.104 57.254 44.104 57.2636 44.104C57.2731 44.104 57.2827 44.104 57.2922 44.104C57.3018 44.104 57.3113 44.104 57.3209 44.104C57.3304 44.104 57.34 44.104 57.3495 44.104C57.3591 44.104 57.3686 44.104 57.3782 44.104C57.3877 44.104 57.3973 44.104 57.4068 44.104C57.4164 44.104 57.4259 44.104 57.4355 44.104C57.445 44.104 57.4546 44.104 57.4641 44.104C57.4737 44.104 57.4832 44.104 57.4928 44.104C57.5023 44.104 57.5118 44.104 57.5214 44.104C57.5309 44.104 57.5405 44.104 57.55 44.104C57.5596 44.104 57.5691 44.104 57.5787 44.104C57.5882 44.104 57.5978 44.104 57.6073 44.104C57.6169 44.104 57.6264 44.104 57.636 44.104C57.6455 44.104 57.655 44.104 57.6646 44.104C57.6741 44.104 57.6837 44.104 57.6932 44.104C57.7028 44.104 57.7123 44.104 57.7219 44.104C57.7314 44.104 57.7409 44.104 57.7505 44.104C57.76 44.104 57.7696 44.104 57.7791 44.104C57.7887 44.104 57.7982 44.104 57.8078 44.104C57.8173 44.104 57.8268 44.104 57.8364 44.104C57.8459 44.104 57.8555 44.104 57.865 44.104C57.8745 44.104 57.8841 44.104 57.8936 44.104C57.9032 44.104 57.9127 44.104 57.9222 44.104C57.9318 44.104 57.9413 44.104 57.9509 44.104C57.9604 44.104 57.97 44.104 57.9795 44.104C57.989 44.104 57.9986 44.104 58.0081 44.104C58.0176 44.104 58.0272 44.104 58.0367 44.104C58.0463 44.104 58.0558 44.104 58.0653 44.104C58.0749 44.104 58.0844 44.104 58.094 44.104C58.1035 44.104 58.113 44.104 58.1226 44.104C58.1321 44.104 58.1416 44.104 58.1512 44.104C58.1607 44.104 58.1703 44.104 58.1798 44.104C58.1893 44.104 58.1989 44.104 58.2084 44.104C58.2179 44.104 58.2275 44.104 58.237 44.104C58.2465 44.104 58.2561 44.104 58.2656 44.104C58.2751 44.104 58.2847 44.104 58.2942 44.104C58.3037 44.104 58.3133 44.104 58.3228 44.104C58.3323 44.104 58.3419 44.104 58.3514 44.104C58.361 44.104 58.3705 44.104 58.38 44.104C58.3895 44.104 58.3991 44.104 58.4086 44.104C58.4181 44.104 58.4277 44.104 58.4372 44.104C58.4467 44.104 58.4563 44.104 58.4658 44.104C58.4753 44.104 58.4849 44.104 58.4944 44.104C58.5039 44.104 58.5135 44.104 58.523 44.104C58.5325 44.104 58.542 44.104 58.5516 44.104C58.5611 44.104 58.5706 44.104 58.5802 44.104C58.5897 44.104 58.5992 44.104 58.6088 44.104C58.6183 44.104 58.6278 44.104 58.6373 44.104C58.6469 44.104 58.6564 44.104 58.6659 44.104C58.6755 44.104 58.685 44.104 58.6945 44.104C58.704 44.104 58.7136 44.104 58.7231 44.104C58.7326 44.104 58.7421 44.104 58.7517 44.104C58.7612 44.104 58.7707 44.104 58.7803 44.104C58.7898 44.104 58.7993 44.104 58.8088 44.104C58.8184 44.104 58.8279 44.104 58.8374 44.104C58.8469 44.104 58.8565 44.104 58.866 44.104C58.8755 44.104 58.885 44.104 58.8946 44.104C58.9041 44.104 58.9136 44.104 58.9231 44.104C58.9326 44.104 58.9422 44.104 58.9517 44.104C58.9612 44.104 58.9707 44.104 58.9803 44.104C58.9898 44.104 58.9993 44.104 59.0088 44.104C59.0184 44.104 59.0279 44.104 59.0374 44.104C59.0469 44.104 59.0564 44.104 59.066 44.104C59.0755 44.104 59.085 44.104 59.0945 44.104C59.104 44.104 59.1136 44.104 59.1231 44.104C59.1326 44.104 59.1421 44.104 59.1516 44.104C59.1612 44.104 59.1707 44.104 59.1802 44.104C59.1897 44.104 59.1992 44.104 59.2088 44.104C59.2183 44.104 59.2278 44.104 59.2373 44.104C59.2468 44.104 59.2564 44.104 59.2659 44.104C59.2754 44.104 59.2849 44.104 59.2944 44.104C59.3039 44.104 59.3135 44.104 59.323 44.104C59.3325 44.104 59.342 44.104 59.3515 44.104C59.361 44.104 59.3706 44.104 59.3801 44.104C59.3896 44.104 59.3991 44.104 59.4086 44.104C59.4181 44.104 59.4276 44.104 59.4372 44.104C59.4467 44.104 59.4562 44.104 59.4657 44.104C59.4752 44.104 59.4847 44.104 59.4942 44.104C59.5038 44.104 59.5133 44.104 59.5228 44.104C59.5323 44.104 59.5418 44.104 59.5513 44.104C59.5608 44.104 59.5704 44.104 59.5799 44.104C59.5894 44.104 59.5989 44.104 59.6084 44.104C59.6179 44.104 59.6274 44.104 59.6369 44.104C59.6464 44.104 59.656 44.104 59.6655 44.104C59.675 44.104 59.6845 44.104 59.694 44.104C59.7035 44.104 59.713 44.104 59.7225 44.104C59.732 44.104 59.7416 44.104 59.7511 44.104C59.7606 44.104 59.7701 44.104 59.7796 44.104C59.7891 44.104 59.7986 44.104 59.8081 44.104C59.8176 44.104 59.8271 44.104 59.8366 44.104C59.8461 44.104 59.8557 44.104 59.8652 44.104C59.8747 44.104 59.8842 44.104 59.8937 44.104C59.9032 44.104 59.9127 44.104 59.9222 44.104C59.9317 44.104 59.9412 44.104 59.9507 44.104C59.9602 44.104 59.9697 44.104 59.9792 44.104C59.9887 44.104 59.9983 44.104 60.0078 44.104C60.0173 44.104 60.0268 44.104 60.0363 44.104C60.0458 44.104 60.0553 44.104 60.0648 44.104C60.0743 44.104 60.0838 44.104 60.0933 44.104C60.1028 44.104 60.1123 44.104 60.1218 44.104C60.1313 44.104 60.1408 44.104 60.1503 44.104C60.1598 44.104 60.1693 44.104 60.1788 44.104C60.1883 44.104 60.1978 44.104 60.2073 44.104C60.2168 44.104 60.2263 44.104 60.2358 44.104C60.2453 44.104 60.2548 44.104 60.2643 44.104C60.2738 44.104 60.2833 44.104 60.2928 44.104C60.3023 44.104 60.3118 44.104 60.3213 44.104C60.3308 44.104 60.3403 44.104 60.3498 44.104C60.3593 44.104 60.3688 44.104 60.3783 44.104C60.3878 44.104 60.3973 44.104 60.4068 44.104C60.4163 44.104 60.4258 44.104 60.4353 44.104C60.4448 44.104 60.4543 44.104 60.4638 44.104C60.4733 44.104 60.4828 44.104 60.4923 44.104C60.5018 44.104 60.5113 44.104 60.5208 44.104C60.5303 44.104 60.5398 44.104 60.5493 44.104C60.5588 44.104 60.5683 44.104 60.5778 44.104C60.5873 44.104 60.5968 44.104 60.6063 44.104C60.6157 44.104 60.6252 44.104 60.6347 44.104C60.6442 44.104 60.6537 44.104 60.6632 44.104C60.6727 44.104 60.6822 44.104 60.6917 44.104C60.7012 44.104 60.7107 44.104 60.7202 44.104C60.7297 44.104 60.7392 44.104 60.7487 44.104C60.7581 44.104 60.7676 44.104 60.7771 44.104C60.7866 44.104 60.7961 44.104 60.8056 44.104C60.8151 44.104 60.8246 44.104 60.8341 44.104C60.8436 44.104 60.8531 44.104 60.8626 44.104C60.872 44.104 60.8815 44.104 60.891 44.104C60.9005 44.104 60.91 44.104 60.9195 44.104C60.929 44.104 60.9385 44.104 60.948 44.104C60.9574 44.104 60.9669 44.104 60.9764 44.104C60.9859 44.104 60.9954 44.104 61.0049 44.104C61.0144 44.104 61.0239 44.104 61.0334 44.104C61.0428 44.104 61.0523 44.104 61.0618 44.104C61.0713 44.104 61.0808 44.104 61.0903 44.104C61.0998 44.104 61.1092 44.104 61.1187 44.104C61.1282 44.104 61.1377 44.104 61.1472 44.104C61.1567 44.104 61.1662 44.104 61.1756 44.104C61.1851 44.104 61.1946 44.104 61.2041 44.104C61.2136 44.104 61.2231 44.104 61.2326 44.104C61.242 44.104 61.2515 44.104 61.261 44.104C61.2705 44.104 61.28 44.104 61.2895 44.104C61.2989 44.104 61.3084 44.104 61.3179 44.104C61.3274 44.104 61.3369 44.104 61.3464 44.104C61.3558 44.104 61.3653 44.104 61.3748 44.104C61.3843 44.104 61.3938 44.104 61.4032 44.104C61.4127 44.104 61.4222 44.104 61.4317 44.104C61.4412 44.104 61.4506 44.104 61.4601 44.104C61.4696 44.104 61.4791 44.104 61.4886 44.104C61.498 44.104 61.5075 44.104 61.517 44.104C61.5265 44.104 61.536 44.104 61.5454 44.104C61.5549 44.104 61.5644 44.104 61.5739 44.104C61.5834 44.104 61.5928 44.104 61.6023 44.104C61.6118 44.104 61.6213 44.104 61.6307 44.104C61.6402 44.104 61.6497 44.104 61.6592 44.104C61.6686 44.104 61.6781 44.104 61.6876 44.104C61.6971 44.104 61.7066 44.104 61.716 44.104C61.7255 44.104 61.735 44.104 61.7445 44.104C61.7539 44.104 61.7634 44.104 61.7729 44.104C61.7824 44.104 61.7918 44.104 61.8013 44.104C61.8108 44.104 61.8203 44.104 61.8297 44.104C61.8392 44.104 61.8487 44.104 61.8581 44.104C61.8676 44.104 61.8771 44.104 61.8866 44.104C61.896 44.104 61.9055 44.104 61.915 44.104C61.9245 44.104 61.9339 44.104 61.9434 44.104C61.9529 44.104 61.9623 44.104 61.9718 44.104C61.9813 44.104 61.9908 44.104 62.0002 44.104C62.0097 44.104 62.0192 44.104 62.0286 44.104C62.0381 44.104 62.0476 44.104 62.057 44.104C62.0665 44.104 62.076 44.104 62.0855 44.104C62.0949 44.104 62.1044 44.104 62.1139 44.104C62.1233 44.104 62.1328 44.104 62.1423 44.104C62.1517 44.104 62.1612 44.104 62.1707 44.104C62.1801 44.104 62.1896 44.104 62.1991 44.104C62.2085 44.104 62.218 44.104 62.2275 44.104C62.2369 44.104 62.2464 44.104 62.2559 44.104C62.2654 44.104 62.2748 44.104 62.2843 44.104C62.2937 44.104 62.3032 44.104 62.3127 44.104C62.3221 44.104 62.3316 44.104 62.3411 44.104C62.3505 44.104 62.36 44.104 62.3695 44.104C62.3789 44.104 62.3884 44.104 62.3979 44.104C62.4073 44.104 62.4168 44.104 62.4263 44.104C62.4357 44.104 62.4452 44.104 62.4546 44.104C62.4641 44.104 62.4736 44.104 62.483 44.104C62.4925 44.104 62.502 44.104 62.5114 44.104C62.5209 44.104 62.5303 44.104 62.5398 44.104C62.5493 44.104 62.5587 44.104 62.5682 44.104C62.5776 44.104 62.5871 44.104 62.5966 44.104C62.606 44.104 62.6155 44.104 62.625 44.104C62.6344 44.104 62.6439 44.104 62.6533 44.104C62.6628 44.104 62.6722 44.104 62.6817 44.104C62.6912 44.104 62.7006 44.104 62.7101 44.104C62.7195 44.104 62.729 44.104 62.7385 44.104C62.7479 44.104 62.7574 44.104 62.7668 44.104C62.7763 44.104 62.7857 44.104 62.7952 44.104C62.8047 44.104 62.8141 44.104 62.8236 44.104C62.833 44.104 62.8425 44.104 62.8519 44.104C62.8614 44.104 62.8709 44.104 62.8803 44.104C62.8898 44.104 62.8992 44.104 62.9087 44.104C62.9181 44.104 62.9276 44.104 62.937 44.104C62.9465 44.104 62.956 44.104 62.9654 44.104C62.9749 44.104 62.9843 44.104 62.9938 44.104C63.0032 44.104 63.0127 44.104 63.0221 44.104C63.0316 44.104 63.041 44.104 63.0505 44.104C63.0599 44.104 63.0694 44.104 63.0788 44.104C63.0883 44.104 63.0978 44.104 63.1072 44.104C63.1167 44.104 63.1261 44.104 63.1356 44.104C63.145 44.104 63.1545 44.104 63.1639 44.104C63.1734 44.104 63.1828 44.104 63.1923 44.104C63.2017 44.104 63.2112 44.104 63.2206 44.104C63.2301 44.104 63.2395 44.104 63.249 44.104C63.2584 44.104 63.2679 44.104 63.2773 44.104C63.2868 44.104 63.2962 44.104 63.3057 44.104C63.3151 44.104 63.3246 44.104 63.334 44.104C63.3434 44.104 63.3529 44.104 63.3623 44.104C63.3718 44.104 63.3812 44.104 63.3907 44.104C63.4001 44.104 63.4096 44.104 63.419 44.104C63.4285 44.104 63.4379 44.104 63.4474 44.104C63.4568 44.104 63.4663 44.104 63.4757 44.104C63.4851 44.104 63.4946 44.104 63.504 44.104C63.5135 44.104 63.5229 44.104 63.5324 44.104C63.5418 44.104 63.5513 44.104 63.5607 44.104C63.5701 44.104 63.5796 44.104 63.589 44.104C63.5985 44.104 63.6079 44.104 63.6174 44.104C63.6268 44.104 63.6363 44.104 63.6457 44.104C63.6551 44.104 63.6646 44.104 63.674 44.104C63.6835 44.104 63.6929 44.104 63.7023 44.104C63.7118 44.104 63.7212 44.104 63.7307 44.104C63.7401 44.104 63.7496 44.104 63.759 44.104C63.7684 44.104 63.7779 44.104 63.7873 44.104C63.7968 44.104 63.8062 44.104 63.8156 44.104C63.8251 44.104 63.8345 44.104 63.844 44.104C63.8534 44.104 63.8628 44.104 63.8723 44.104C63.8817 44.104 63.8911 44.104 63.9006 44.104C63.91 44.104 63.9195 44.104 63.9289 44.104C63.9383 44.104 63.9478 44.104 63.9572 44.104C63.9666 44.104 63.9761 44.104 63.9855 44.104C63.995 44.104 64.0044 44.104 64.0138 44.104C64.0233 44.104 64.0327 44.104 64.0421 44.104C64.0516 44.104 64.061 44.104 64.0704 44.104C64.0799 44.104 64.0893 44.104 64.0987 44.104C64.1082 44.104 64.1176 44.104 64.1271 44.104C64.1365 44.104 64.1459 44.104 64.1554 44.104C64.1648 44.104 64.1742 44.104 64.1837 44.104C64.1931 44.104 64.2025 44.104 64.212 44.104C64.2214 44.104 64.2308 44.104 64.2402 44.104C64.2497 44.104 64.2591 44.104 64.2685 44.104C64.278 44.104 64.2874 44.104 64.2968 44.104C64.3063 44.104 64.3157 44.104 64.3251 44.104C64.3346 44.104 64.344 44.104 64.3534 44.104C64.3629 44.104 64.3723 44.104 64.3817 44.104C64.3912 44.104 64.4006 44.104 64.41 44.104C64.4194 44.104 64.4289 44.104 64.4383 44.104C64.4477 44.104 64.4572 44.104 64.4666 44.104C64.476 44.104 64.4854 44.104 64.4949 44.104C64.5043 44.104 64.5137 44.104 64.5231 44.104C64.5326 44.104 64.542 44.104 64.5514 44.104C64.5609 44.104 64.5703 44.104 64.5797 44.104C64.5891 44.104 64.5986 44.104 64.608 44.104C64.6174 44.104 64.6268 44.104 64.6363 44.104C64.6457 44.104 64.6551 44.104 64.6645 44.104C64.674 44.104 64.6834 44.104 64.6928 44.104C64.7022 44.104 64.7117 44.104 64.7211 44.104C64.7305 44.104 64.7399 44.104 64.7494 44.104C64.7588 44.104 64.7682 44.104 64.7776 44.104C64.787 44.104 64.7965 44.104 64.8059 44.104C64.8153 44.104 64.8247 44.104 64.8342 44.104C64.8436 44.104 64.853 44.104 64.8624 44.104C64.8718 44.104 64.8813 44.104 64.8907 44.104C64.9001 44.104 64.9095 44.104 64.919 44.104C64.9284 44.104 64.9378 44.104 64.9472 44.104C64.9566 44.104 64.9661 44.104 64.9755 44.104C64.9849 44.104 64.9943 44.104 65.0037 44.104C65.0132 44.104 65.0226 44.104 65.032 44.104C65.0414 44.104 65.0508 44.104 65.0602 44.104C65.0697 44.104 65.0791 44.104 65.0885 44.104C65.0979 44.104 65.1073 44.104 65.1168 44.104C65.1262 44.104 65.1356 44.104 65.145 44.104V42.104ZM51.489 43.104V3.04H49.489V43.104H51.489ZM51.2784 2.42606C50.9655 2.02386 50.6315 1.62307 50.2764 1.22363L48.7816 2.55236C49.1092 2.92092 49.4151 3.28813 49.6996 3.65394L51.2784 2.42606ZM50.2764 1.22363C49.9473 0.853348 49.6171 0.461303 49.2859 0.0473016L47.7241 1.29669C48.0756 1.73602 48.4281 2.15465 48.7816 2.55236L50.2764 1.22363ZM48.505 1.672H80.953V-0.328003H48.505V1.672ZM79.953 0.671997V5.088H81.953V0.671997H79.953ZM81.7212 4.44781L79.4812 1.75981L77.9448 3.04018L80.1848 5.72818L81.7212 4.44781ZM78.713 1.4H59.065V3.4H78.713V1.4ZM58.065 2.4V21.024H60.065V2.4H58.065ZM59.065 22.024H74.041V20.024H59.065V22.024ZM73.041 21.024V22.752H75.041V21.024H73.041ZM74.041 21.752H59.065V23.752H74.041V21.752ZM58.065 22.752V41.376H60.065V22.752H58.065ZM59.065 42.376H77.561V40.376H59.065V42.376ZM78.3792 41.9509L81.7072 37.2149L80.0708 36.0651L76.7428 40.8011L78.3792 41.9509ZM114.818 43.104L113.896 43.491L114.153 44.104H114.818V43.104ZM109.634 30.752L110.556 30.365L110.299 29.752H109.634V30.752ZM92.546 30.752V29.752H91.878L91.6222 30.3691L92.546 30.752ZM87.426 43.104V44.104H88.094L88.3498 43.4869L87.426 43.104ZM85.89 43.104L84.9662 42.7212L84.3931 44.104H85.89V43.104ZM102.466 3.104L103.39 3.48683L103.623 2.92503L103.231 2.45986L102.466 3.104ZM100.418 0.671997V-0.328003H98.2686L99.6531 1.31613L100.418 0.671997ZM105.794 0.671997L106.718 0.288866L106.462 -0.328003H105.794V0.671997ZM123.394 43.104V44.104H124.891L124.318 42.7209L123.394 43.104ZM93.25 29.024L92.327 28.6392L91.7496 30.024H93.25V29.024ZM108.994 29.024V30.024H110.494L109.917 28.6392L108.994 29.024ZM101.122 10.144L102.045 9.75916L101.122 7.5455L100.199 9.75916L101.122 10.144ZM115.74 42.717L110.556 30.365L108.712 31.139L113.896 43.491L115.74 42.717ZM109.634 29.752H92.546V31.752H109.634V29.752ZM91.6222 30.3691L86.5022 42.7211L88.3498 43.4869L93.4698 31.1349L91.6222 30.3691ZM87.426 42.104H85.89V44.104H87.426V42.104ZM86.8138 43.4868L103.39 3.48683L101.542 2.72117L84.9662 42.7212L86.8138 43.4868ZM103.231 2.45986L101.183 0.0278611L99.6531 1.31613L101.701 3.74813L103.231 2.45986ZM100.418 1.672H105.794V-0.328003H100.418V1.672ZM104.87 1.05513L122.47 43.4871L124.318 42.7209L106.718 0.288866L104.87 1.05513ZM123.394 42.104H114.818V44.104H123.394V42.104ZM93.25 30.024H108.994V28.024H93.25V30.024ZM109.917 28.6392L102.045 9.75916L100.199 10.5288L108.071 29.4088L109.917 28.6392ZM100.199 9.75916L92.327 28.6392L94.173 29.4088L102.045 10.5288L100.199 9.75916ZM162.333 43.04V44.04H164.179L163.17 42.4936L162.333 43.04ZM154.268 43.04L153.431 43.5858L153.726 44.04H154.268V43.04ZM141.469 23.392L142.306 22.8461L142.011 22.392H141.469V23.392ZM138.781 23.392V22.392H137.781V23.392H138.781ZM138.781 43.04V44.04H139.781V43.04H138.781ZM130.268 43.04H129.268V44.04H130.268V43.04ZM130.268 3.04H131.268V2.69689L131.058 2.42606L130.268 3.04ZM128.285 0.671997V-0.328003H126.204L127.504 1.29669L128.285 0.671997ZM155.036 1.568L154.636 2.48421L154.646 2.48858L155.036 1.568ZM158.685 4L157.977 4.70711L157.977 4.70711L158.685 4ZM161.117 7.648L160.196 8.03857L160.2 8.04882L161.117 7.648ZM161.053 16.416L161.953 16.8516L161.958 16.8404L161.053 16.416ZM158.365 19.936L157.7 19.1886L157.693 19.1948L157.686 19.2012L158.365 19.936ZM154.396 22.432L154.768 23.3605L154.775 23.3578L154.781 23.3551L154.396 22.432ZM149.596 23.52L149.522 22.5228L147.834 22.6493L148.759 24.0664L149.596 23.52ZM147.484 20.96L147.091 20.0408L147.078 20.0462L147.484 20.96ZM152.669 15.84L153.582 16.2462L153.588 16.2339L152.669 15.84ZM152.732 8.608L151.799 8.96698L151.808 8.98907L151.817 9.01074L152.732 8.608ZM150.941 5.664L150.181 6.31479L150.189 6.32397L150.197 6.33296L150.941 5.664ZM148.253 3.488L148.729 2.60871V2.60871L148.253 3.488ZM144.924 2.4L145.066 1.41005L144.996 1.4H144.924V2.4ZM138.781 2.4V1.4H137.781V2.4H138.781ZM138.781 21.728H137.781V22.728H138.781V21.728ZM162.333 42.04H154.268V44.04H162.333V42.04ZM155.106 42.4941L142.306 22.8461L140.631 23.9378L153.431 43.5858L155.106 42.4941ZM141.469 22.392H138.781V24.392H141.469V22.392ZM137.781 23.392V43.04H139.781V23.392H137.781ZM138.781 42.04H130.268V44.04H138.781V42.04ZM131.268 43.04V3.04H129.268V43.04H131.268ZM131.058 2.42606C130.745 2.02386 130.411 1.62307 130.056 1.22363L128.561 2.55236C128.889 2.92092 129.195 3.28813 129.479 3.65394L131.058 2.42606ZM130.056 1.22363C129.727 0.853348 129.397 0.461303 129.065 0.0473016L127.504 1.29669C127.855 1.73602 128.208 2.15465 128.561 2.55236L130.056 1.22363ZM128.285 1.672H150.62V-0.328003H128.285V1.672ZM150.62 1.672C152.07 1.672 153.404 1.94536 154.636 2.48415L155.437 0.65184C153.938 -0.00403209 152.329 -0.328003 150.62 -0.328003V1.672ZM154.646 2.48858C155.942 3.0386 157.049 3.77896 157.977 4.70711L159.392 3.29289C158.272 2.17303 156.947 1.29206 155.427 0.647415L154.646 2.48858ZM157.977 4.70711C158.906 5.63525 159.646 6.74207 160.196 8.03855L162.037 7.25745C161.392 5.73793 160.511 4.41275 159.392 3.29289L157.977 4.70711ZM160.2 8.04882C160.739 9.28035 161.012 10.615 161.012 12.064H163.012C163.012 10.3557 162.689 8.74632 162.033 7.24718L160.2 8.04882ZM161.012 12.064C161.012 13.4561 160.724 14.7616 160.147 15.9916L161.958 16.8404C162.661 15.3397 163.012 13.7439 163.012 12.064H161.012ZM160.152 15.9804C159.572 17.1789 158.759 18.2477 157.7 19.1886L159.029 20.6834C160.274 19.5763 161.253 18.2984 161.953 16.8516L160.152 15.9804ZM157.686 19.2012C156.671 20.138 155.451 20.9094 154.012 21.5089L154.781 23.3551C156.414 22.6746 157.839 21.782 159.043 20.6708L157.686 19.2012ZM154.025 21.5035C152.632 22.0606 151.133 22.4019 149.522 22.5228L149.671 24.5172C151.473 24.3821 153.174 23.9981 154.768 23.3605L154.025 21.5035ZM148.759 24.0664L161.495 43.5864L163.17 42.4936L150.434 22.9736L148.759 24.0664ZM143.773 22.728C145.228 22.728 146.605 22.4454 147.891 21.8738L147.078 20.0462C146.06 20.4986 144.962 20.728 143.773 20.728V22.728ZM147.878 21.8791C149.181 21.3209 150.314 20.5691 151.264 19.6191L149.849 18.2049C149.093 18.9615 148.177 19.5751 147.091 20.0409L147.878 21.8791ZM151.264 19.6191C152.246 18.6368 153.02 17.5109 153.582 16.2461L151.755 15.4339C151.293 16.4731 150.659 17.3952 149.849 18.2049L151.264 19.6191ZM153.588 16.2339C154.154 14.9125 154.437 13.5196 154.437 12.064H152.437C152.437 13.2537 152.207 14.3781 151.749 15.4461L153.588 16.2339ZM154.437 12.064C154.437 10.6967 154.176 9.40659 153.648 8.20526L151.817 9.01074C152.227 9.94274 152.437 10.9566 152.437 12.064H154.437ZM153.666 8.24902C153.197 7.0297 152.536 5.94241 151.684 4.99503L150.197 6.33296C150.881 7.09225 151.415 7.96762 151.799 8.96698L153.666 8.24902ZM151.7 5.01321C150.853 4.02565 149.862 3.22239 148.729 2.60871L147.776 4.36729C148.691 4.86294 149.492 5.51035 150.181 6.31479L151.7 5.01321ZM148.729 2.60871C147.597 1.99557 146.374 1.59686 145.066 1.41005L144.783 3.38995C145.865 3.54447 146.86 3.8711 147.776 4.36729L148.729 2.60871ZM144.924 1.4H138.781V3.4H144.924V1.4ZM137.781 2.4V21.728H139.781V2.4H137.781ZM138.781 22.728H143.773V20.728H138.781V22.728ZM177.608 42.72L176.9 42.0129L176.892 42.0215L176.883 42.0303L177.608 42.72ZM171.208 42.72L171.932 42.0303L171.208 42.72ZM171.208 36.384L171.915 37.0911L171.208 36.384ZM177.608 36.384L176.883 37.0737L176.9 37.0913L176.918 37.1081L177.608 36.384ZM177.952 39.52C177.952 40.485 177.614 41.2994 176.9 42.0129L178.315 43.4271C179.393 42.3486 179.952 41.0296 179.952 39.52H177.952ZM176.883 42.0303C176.226 42.7206 175.424 43.064 174.408 43.064V45.064C175.951 45.064 177.282 44.5114 178.332 43.4097L176.883 42.0303ZM174.408 43.064C173.391 43.064 172.589 42.7206 171.932 42.0303L170.483 43.4097C171.533 44.5114 172.864 45.064 174.408 45.064V43.064ZM171.932 42.0303C171.255 41.3203 170.928 40.5006 170.928 39.52H168.928C168.928 41.0141 169.453 42.3277 170.483 43.4097L171.932 42.0303ZM170.928 39.52C170.928 38.5404 171.254 37.7517 171.915 37.0911L170.5 35.6769C169.454 36.723 168.928 38.025 168.928 39.52H170.928ZM171.915 37.0911C172.628 36.3776 173.442 36.04 174.408 36.04V34.04C172.898 34.04 171.579 34.5984 170.5 35.6769L171.915 37.0911ZM174.408 36.04C175.424 36.04 176.226 36.3834 176.883 37.0737L178.332 35.6943C177.282 34.5926 175.951 34.04 174.408 34.04V36.04ZM176.918 37.1081C177.616 37.7727 177.952 38.5563 177.952 39.52H179.952C179.952 38.009 179.391 36.7019 178.297 35.6599L176.918 37.1081Z" fill="#E8A0AB" mask="url(#path-2-outside-1_114_56)"/>
</svg>
