<svg width="215" height="55" viewBox="0 0 215 55" fill="none" xmlns="http://www.w3.org/2000/svg">
<path d="M39.032 3.672V8.088L36.792 5.4H17.08V22.168H31.736V23.896H17.08V46.104H8.568V6.04C8.26933 5.656 7.94933 5.272 7.608 4.888C7.26667 4.504 6.92533 4.09866 6.584 3.672H39.032ZM76.928 46.04H68.864L56.064 26.392H53.376V46.04H44.864V6.04C44.5653 5.656 44.2453 5.272 43.904 4.888C43.5627 4.504 43.2213 4.09866 42.88 3.672H65.216C66.7947 3.672 68.2667 3.97066 69.632 4.568C71.04 5.16533 72.256 5.976 73.28 7C74.304 8.024 75.1147 9.24 75.712 10.648C76.3093 12.0133 76.608 13.4853 76.608 15.064C76.608 16.6 76.288 18.0507 75.648 19.416C75.008 20.7387 74.112 21.912 72.96 22.936C71.8507 23.96 70.528 24.792 68.992 25.432C67.4987 26.0293 65.8987 26.392 64.192 26.52L76.928 46.04ZM58.368 24.728C59.6907 24.728 60.928 24.472 62.08 23.96C63.2747 23.448 64.2987 22.7653 65.152 21.912C66.048 21.016 66.752 19.992 67.264 18.84C67.776 17.6453 68.032 16.3867 68.032 15.064C68.032 13.8267 67.7973 12.6747 67.328 11.608C66.9013 10.4987 66.304 9.51733 65.536 8.664C64.768 7.768 63.872 7.04267 62.848 6.488C61.824 5.93333 60.7147 5.57066 59.52 5.4H53.376V24.728H58.368ZM103.019 3.672C105.963 3.672 108.715 4.22666 111.275 5.336C113.835 6.44533 116.054 7.96 117.931 9.88C119.851 11.8 121.366 14.0613 122.475 16.664C123.584 19.224 124.139 21.976 124.139 24.92C124.139 27.864 123.584 30.616 122.475 33.176C121.366 35.736 119.851 37.976 117.931 39.896C116.054 41.816 113.835 43.3307 111.275 44.44C108.715 45.5493 105.963 46.104 103.019 46.104C100.075 46.104 97.3017 45.5493 94.699 44.44C92.139 43.3307 89.899 41.816 87.979 39.896C86.059 37.976 84.5443 35.736 83.435 33.176C82.3257 30.616 81.771 27.864 81.771 24.92C81.771 21.976 82.3257 19.224 83.435 16.664C84.5443 14.0613 86.059 11.8 87.979 9.88C89.899 7.96 92.139 6.44533 94.699 5.336C97.3017 4.22666 100.075 3.672 103.019 3.672ZM103.019 44.376C104.726 44.376 106.347 43.864 107.883 42.84C109.419 41.816 110.763 40.4293 111.915 38.68C113.067 36.9307 113.984 34.8827 114.667 32.536C115.35 30.1467 115.691 27.608 115.691 24.92C115.691 22.232 115.35 19.7147 114.667 17.368C113.984 14.9787 113.067 12.9093 111.915 11.16C110.763 9.368 109.419 7.96 107.883 6.936C106.347 5.912 104.726 5.4 103.019 5.4C101.27 5.4 99.6057 5.912 98.027 6.936C96.491 7.96 95.147 9.368 93.995 11.16C92.843 12.9093 91.9257 14.9787 91.243 17.368C90.603 19.7147 90.283 22.232 90.283 24.92C90.283 27.608 90.603 30.1467 91.243 32.536C91.9257 34.8827 92.843 36.9307 93.995 38.68C95.147 40.4293 96.491 41.816 98.027 42.84C99.6057 43.864 101.27 44.376 103.019 44.376ZM168.259 7.128L166.531 6.808L151.939 46.04H149.635L135.043 8.152L133.315 8.472L133.251 43.416V46.104H131.523V6.04C131.224 5.656 130.904 5.272 130.563 4.888C130.222 4.504 129.88 4.09866 129.539 3.672H141.699L154.947 33.432L165.955 3.672C167.875 3.672 169.667 3.672 171.331 3.672C173.038 3.62933 174.83 3.608 176.707 3.608V46.104H168.259V7.128ZM193.264 42.52C193.264 43.7573 192.816 44.824 191.92 45.72C191.067 46.616 190 47.064 188.72 47.064C187.44 47.064 186.373 46.616 185.52 45.72C184.667 44.824 184.24 43.7573 184.24 42.52C184.24 41.2827 184.667 40.2373 185.52 39.384C186.416 38.488 187.483 38.04 188.72 38.04C190 38.04 191.067 38.488 191.92 39.384C192.816 40.2373 193.264 41.2827 193.264 42.52Z" fill="#B3BCFF"/>
<mask id="path-2-outside-1_118_179" maskUnits="userSpaceOnUse" x="1" y="-1" width="191" height="47" fill="black">
<rect fill="white" x="1" y="-1" width="191" height="47"/>
<path d="M36.032 0.671997V5.088L33.792 2.4H14.08V19.168H28.736V20.896H14.08V43.104H5.568V3.04C5.26933 2.656 4.94933 2.272 4.608 1.888C4.26667 1.504 3.92533 1.09866 3.584 0.671997H36.032ZM73.928 43.04H65.864L53.064 23.392H50.376V43.04H41.864V3.04C41.5653 2.656 41.2453 2.272 40.904 1.888C40.5627 1.504 40.2213 1.09866 39.88 0.671997H62.216C63.7947 0.671997 65.2667 0.970664 66.632 1.568C68.04 2.16533 69.256 2.976 70.28 4C71.304 5.024 72.1147 6.24 72.712 7.648C73.3093 9.01333 73.608 10.4853 73.608 12.064C73.608 13.6 73.288 15.0507 72.648 16.416C72.008 17.7387 71.112 18.912 69.96 19.936C68.8507 20.96 67.528 21.792 65.992 22.432C64.4987 23.0293 62.8987 23.392 61.192 23.52L73.928 43.04ZM55.368 21.728C56.6907 21.728 57.928 21.472 59.08 20.96C60.2747 20.448 61.2987 19.7653 62.152 18.912C63.048 18.016 63.752 16.992 64.264 15.84C64.776 14.6453 65.032 13.3867 65.032 12.064C65.032 10.8267 64.7973 9.67467 64.328 8.608C63.9013 7.49866 63.304 6.51733 62.536 5.664C61.768 4.768 60.872 4.04267 59.848 3.488C58.824 2.93333 57.7147 2.57066 56.52 2.4H50.376V21.728H55.368ZM100.019 0.671997C102.963 0.671997 105.715 1.22666 108.275 2.336C110.835 3.44533 113.054 4.96 114.931 6.88C116.851 8.8 118.366 11.0613 119.475 13.664C120.584 16.224 121.139 18.976 121.139 21.92C121.139 24.864 120.584 27.616 119.475 30.176C118.366 32.736 116.851 34.976 114.931 36.896C113.054 38.816 110.835 40.3307 108.275 41.44C105.715 42.5493 102.963 43.104 100.019 43.104C97.075 43.104 94.3017 42.5493 91.699 41.44C89.139 40.3307 86.899 38.816 84.979 36.896C83.059 34.976 81.5443 32.736 80.435 30.176C79.3257 27.616 78.771 24.864 78.771 21.92C78.771 18.976 79.3257 16.224 80.435 13.664C81.5443 11.0613 83.059 8.8 84.979 6.88C86.899 4.96 89.139 3.44533 91.699 2.336C94.3017 1.22666 97.075 0.671997 100.019 0.671997ZM100.019 41.376C101.726 41.376 103.347 40.864 104.883 39.84C106.419 38.816 107.763 37.4293 108.915 35.68C110.067 33.9307 110.984 31.8827 111.667 29.536C112.35 27.1467 112.691 24.608 112.691 21.92C112.691 19.232 112.35 16.7147 111.667 14.368C110.984 11.9787 110.067 9.90933 108.915 8.16C107.763 6.368 106.419 4.96 104.883 3.936C103.347 2.912 101.726 2.4 100.019 2.4C98.2697 2.4 96.6057 2.912 95.027 3.936C93.491 4.96 92.147 6.368 90.995 8.16C89.843 9.90933 88.9257 11.9787 88.243 14.368C87.603 16.7147 87.283 19.232 87.283 21.92C87.283 24.608 87.603 27.1467 88.243 29.536C88.9257 31.8827 89.843 33.9307 90.995 35.68C92.147 37.4293 93.491 38.816 95.027 39.84C96.6057 40.864 98.2697 41.376 100.019 41.376ZM165.259 4.128L163.531 3.808L148.939 43.04H146.635L132.043 5.152L130.315 5.472L130.251 40.416V43.104H128.523V3.04C128.224 2.656 127.904 2.272 127.563 1.888C127.222 1.504 126.88 1.09866 126.539 0.671997H138.699L151.947 30.432L162.955 0.671997C164.875 0.671997 166.667 0.671997 168.331 0.671997C170.038 0.629331 171.83 0.607998 173.707 0.607998V43.104H165.259V4.128ZM190.264 39.52C190.264 40.7573 189.816 41.824 188.92 42.72C188.067 43.616 187 44.064 185.72 44.064C184.44 44.064 183.373 43.616 182.52 42.72C181.667 41.824 181.24 40.7573 181.24 39.52C181.24 38.2827 181.667 37.2373 182.52 36.384C183.416 35.488 184.483 35.04 185.72 35.04C187 35.04 188.067 35.488 188.92 36.384C189.816 37.2373 190.264 38.2827 190.264 39.52Z"/>
</mask>
<path d="M36.032 0.671997H37.032V-0.328003H36.032V0.671997ZM36.032 5.088L35.2638 5.72818L37.032 7.85005V5.088H36.032ZM33.792 2.4L34.5602 1.75981L34.2604 1.4H33.792V2.4ZM14.08 2.4V1.4H13.08V2.4H14.08ZM14.08 19.168H13.08V20.168H14.08V19.168ZM28.736 19.168H29.736V18.168H28.736V19.168ZM28.736 20.896V21.896H29.736V20.896H28.736ZM14.08 20.896V19.896H13.08V20.896H14.08ZM14.08 43.104V44.104H15.08V43.104H14.08ZM5.568 43.104H4.568V44.104H5.568V43.104ZM5.568 3.04H6.568V2.69689L6.35735 2.42606L5.568 3.04ZM3.584 0.671997V-0.328003H1.50337L2.80313 1.29669L3.584 0.671997ZM35.032 0.671997V5.088H37.032V0.671997H35.032ZM36.8002 4.44781L34.5602 1.75981L33.0238 3.04018L35.2638 5.72818L36.8002 4.44781ZM33.792 1.4H14.08V3.4H33.792V1.4ZM13.08 2.4V19.168H15.08V2.4H13.08ZM14.08 20.168H28.736V18.168H14.08V20.168ZM27.736 19.168V20.896H29.736V19.168H27.736ZM28.736 19.896H14.08V21.896H28.736V19.896ZM13.08 20.896V43.104H15.08V20.896H13.08ZM14.08 42.104H5.568V44.104H14.08V42.104ZM6.568 43.104V3.04H4.568V43.104H6.568ZM6.35735 2.42606C6.04454 2.02386 5.71047 1.62307 5.35541 1.22363L3.86059 2.55236C4.1882 2.92092 4.49413 3.28813 4.77865 3.65394L6.35735 2.42606ZM5.35541 1.22363C5.02627 0.853348 4.69607 0.461303 4.36487 0.0473016L2.80313 1.29669C3.1546 1.73602 3.50707 2.15465 3.86059 2.55236L5.35541 1.22363ZM3.584 1.672H36.032V-0.328003H3.584V1.672ZM73.928 43.04V44.04H75.7745L74.7655 42.4936L73.928 43.04ZM65.864 43.04L65.0261 43.5859L65.322 44.04H65.864V43.04ZM53.064 23.392L53.9019 22.8461L53.606 22.392H53.064V23.392ZM50.376 23.392V22.392H49.376V23.392H50.376ZM50.376 43.04V44.04H51.376V43.04H50.376ZM41.864 43.04H40.864V44.04H41.864V43.04ZM41.864 3.04H42.864V2.69689L42.6534 2.42606L41.864 3.04ZM39.88 0.671997V-0.328003H37.7994L39.0991 1.29669L39.88 0.671997ZM66.632 1.568L66.2312 2.48421L66.2415 2.48858L66.632 1.568ZM70.28 4L69.5729 4.70711L69.5729 4.70711L70.28 4ZM72.712 7.648L71.7914 8.03857L71.7958 8.04882L72.712 7.648ZM72.648 16.416L73.5482 16.8516L73.5535 16.8404L72.648 16.416ZM69.96 19.936L69.2956 19.1886L69.2886 19.1948L69.2817 19.2012L69.96 19.936ZM65.992 22.432L66.3634 23.3605L66.37 23.3578L66.3766 23.3551L65.992 22.432ZM61.192 23.52L61.1172 22.5228L59.4299 22.6493L60.3545 24.0664L61.192 23.52ZM59.08 20.96L58.686 20.0408L58.6739 20.0462L59.08 20.96ZM64.264 15.84L65.1779 16.2462L65.1831 16.2339L64.264 15.84ZM64.328 8.608L63.3947 8.96698L63.4032 8.98907L63.4127 9.01074L64.328 8.608ZM62.536 5.664L61.7767 6.31479L61.7846 6.32397L61.7927 6.33296L62.536 5.664ZM59.848 3.488L60.3243 2.60871L60.3243 2.60871L59.848 3.488ZM56.52 2.4L56.6614 1.41005L56.5911 1.4H56.52V2.4ZM50.376 2.4V1.4H49.376V2.4H50.376ZM50.376 21.728H49.376V22.728H50.376V21.728ZM73.928 42.04H65.864V44.04H73.928V42.04ZM66.7019 42.4941L53.9019 22.8461L52.2261 23.9378L65.0261 43.5859L66.7019 42.4941ZM53.064 22.392H50.376V24.392H53.064V22.392ZM49.376 23.392V43.04H51.376V23.392H49.376ZM50.376 42.04H41.864V44.04H50.376V42.04ZM42.864 43.04V3.04H40.864V43.04H42.864ZM42.6534 2.42606C42.3405 2.02386 42.0065 1.62307 41.6514 1.22363L40.1566 2.55236C40.4842 2.92092 40.7901 3.28813 41.0746 3.65394L42.6534 2.42606ZM41.6514 1.22363C41.3223 0.853348 40.9921 0.461303 40.6609 0.0473016L39.0991 1.29669C39.4506 1.73602 39.8031 2.15465 40.1566 2.55236L41.6514 1.22363ZM39.88 1.672H62.216V-0.328003H39.88V1.672ZM62.216 1.672C63.665 1.672 64.9997 1.94536 66.2312 2.48415L67.0328 0.65184C65.5337 -0.00403209 63.9243 -0.328003 62.216 -0.328003V1.672ZM66.2415 2.48858C67.5379 3.0386 68.6448 3.77896 69.5729 4.70711L70.9871 3.29289C69.8673 2.17303 68.5421 1.29206 67.0226 0.647415L66.2415 2.48858ZM69.5729 4.70711C70.501 5.63525 71.2414 6.74207 71.7914 8.03855L73.6326 7.25745C72.9879 5.73793 72.107 4.41275 70.9871 3.29289L69.5729 4.70711ZM71.7958 8.04882C72.3346 9.28035 72.608 10.615 72.608 12.064H74.608C74.608 10.3557 74.284 8.74632 73.6282 7.24718L71.7958 8.04882ZM72.608 12.064C72.608 13.4561 72.3191 14.7616 71.7425 15.9916L73.5535 16.8404C74.2569 15.3397 74.608 13.7439 74.608 12.064H72.608ZM71.7478 15.9804C71.1679 17.1789 70.3542 18.2477 69.2956 19.1886L70.6244 20.6834C71.8698 19.5763 72.8481 18.2984 73.5482 16.8516L71.7478 15.9804ZM69.2817 19.2012C68.2669 20.138 67.0462 20.9094 65.6074 21.5089L66.3766 23.3551C68.0098 22.6746 69.4345 21.782 70.6383 20.6708L69.2817 19.2012ZM65.6206 21.5035C64.228 22.0606 62.7286 22.4019 61.1172 22.5228L61.2668 24.5172C63.0687 24.3821 64.7694 23.9981 66.3634 23.3605L65.6206 21.5035ZM60.3545 24.0664L73.0905 43.5864L74.7655 42.4936L62.0295 22.9736L60.3545 24.0664ZM55.368 22.728C56.8236 22.728 58.2 22.4454 59.4861 21.8738L58.6739 20.0462C57.656 20.4986 56.5578 20.728 55.368 20.728V22.728ZM59.4739 21.8791C60.7764 21.3209 61.9091 20.5691 62.8591 19.6191L61.4449 18.2049C60.6882 18.9615 59.7729 19.5751 58.6861 20.0409L59.4739 21.8791ZM62.8591 19.6191C63.8414 18.6368 64.6157 17.5109 65.1778 16.2461L63.3502 15.4339C62.8883 16.4731 62.2546 17.3952 61.4449 18.2049L62.8591 19.6191ZM65.1831 16.2339C65.7495 14.9125 66.032 13.5196 66.032 12.064H64.032C64.032 13.2537 63.8026 14.3781 63.3449 15.4461L65.1831 16.2339ZM66.032 12.064C66.032 10.6967 65.7719 9.40659 65.2433 8.20526L63.4127 9.01074C63.8228 9.94274 64.032 10.9566 64.032 12.064H66.032ZM65.2613 8.24902C64.7924 7.0297 64.1319 5.94241 63.2793 4.99503L61.7927 6.33296C62.4761 7.09225 63.0103 7.96762 63.3947 8.96698L65.2613 8.24902ZM63.2953 5.01321C62.4488 4.02565 61.4572 3.22239 60.3243 2.60871L59.3717 4.36729C60.2868 4.86294 61.0872 5.51035 61.7767 6.31479L63.2953 5.01321ZM60.3243 2.60871C59.1923 1.99557 57.9691 1.59686 56.6614 1.41005L56.3786 3.38995C57.4603 3.54447 58.4557 3.8711 59.3717 4.36729L60.3243 2.60871ZM56.52 1.4H50.376V3.4H56.52V1.4ZM49.376 2.4V21.728H51.376V2.4H49.376ZM50.376 22.728H55.368V20.728H50.376V22.728ZM108.275 2.336L107.877 3.25355L107.877 3.25355L108.275 2.336ZM114.931 6.88L114.216 7.57916L114.224 7.5871L114.931 6.88ZM119.475 13.664L118.555 14.0561L118.557 14.0616L119.475 13.664ZM119.475 30.176L120.393 30.5736L120.393 30.5736L119.475 30.176ZM114.931 36.896L114.224 36.1888L114.216 36.1969L114.931 36.896ZM108.275 41.44L107.877 40.5224L107.877 40.5224L108.275 41.44ZM91.699 41.44L91.3014 42.3576L91.3069 42.3599L91.699 41.44ZM84.979 36.896L85.6861 36.1889L85.6861 36.1889L84.979 36.896ZM80.435 30.176L79.5174 30.5736L79.5174 30.5736L80.435 30.176ZM80.435 13.664L81.3526 14.0616L81.3549 14.0561L80.435 13.664ZM84.979 6.88L84.2719 6.17289L84.2719 6.17289L84.979 6.88ZM91.699 2.336L91.3069 1.41606L91.3014 1.41844L91.699 2.336ZM104.883 39.84L105.438 40.6721L105.438 40.672L104.883 39.84ZM108.915 35.68L108.08 35.13L108.08 35.13L108.915 35.68ZM111.667 29.536L112.627 29.8153L112.629 29.8107L111.667 29.536ZM111.667 14.368L110.705 14.6427L110.707 14.6473L111.667 14.368ZM108.915 8.16L108.074 8.70079L108.08 8.70999L108.915 8.16ZM104.883 3.936L105.438 3.10395L105.438 3.10395L104.883 3.936ZM95.027 3.936L94.4828 3.09697L94.4723 3.10395L95.027 3.936ZM90.995 8.16L91.8302 8.71002L91.8362 8.70076L90.995 8.16ZM88.243 14.368L87.2814 14.0933L87.2782 14.1049L88.243 14.368ZM88.243 29.536L87.2771 29.7947L87.2798 29.8051L87.2828 29.8153L88.243 29.536ZM90.995 35.68L91.8302 35.13L91.8302 35.13L90.995 35.68ZM95.027 39.84L94.4723 40.6721L94.4828 40.679L95.027 39.84ZM100.019 1.672C102.834 1.672 105.45 2.20158 107.877 3.25355L108.673 1.41844C105.98 0.25175 103.092 -0.328003 100.019 -0.328003V1.672ZM107.877 3.25355C110.323 4.31339 112.433 5.75543 114.216 7.57911L115.646 6.18088C113.675 4.16457 111.347 2.57728 108.673 1.41844L107.877 3.25355ZM114.224 7.5871C116.05 9.41289 117.494 11.5661 118.555 14.0561L120.395 13.2719C119.238 10.5566 117.652 8.1871 115.638 6.17289L114.224 7.5871ZM118.557 14.0616C119.609 16.4892 120.139 19.1051 120.139 21.92H122.139C122.139 18.8469 121.559 15.9588 120.393 13.2664L118.557 14.0616ZM120.139 21.92C120.139 24.7349 119.609 27.3508 118.557 29.7784L120.393 30.5736C121.559 27.8812 122.139 24.9931 122.139 21.92H120.139ZM118.557 29.7784C117.497 32.2261 116.052 34.3604 114.224 36.1889L115.638 37.6031C117.65 35.5916 119.235 33.2459 120.393 30.5736L118.557 29.7784ZM114.216 36.1969C112.433 38.0206 110.323 39.4626 107.877 40.5224L108.673 42.3576C111.347 41.1987 113.675 39.6114 115.646 37.5951L114.216 36.1969ZM107.877 40.5224C105.45 41.5744 102.834 42.104 100.019 42.104V44.104C103.092 44.104 105.98 43.5242 108.673 42.3576L107.877 40.5224ZM100.019 42.104C97.2042 42.104 94.5648 41.5744 92.0911 40.5201L91.3069 42.3599C94.0386 43.5242 96.9458 44.104 100.019 44.104V42.104ZM92.0966 40.5224C89.6489 39.4618 87.5146 38.0174 85.6861 36.1889L84.2719 37.6031C86.2834 39.6146 88.6291 41.1996 91.3014 42.3576L92.0966 40.5224ZM85.6861 36.1889C83.8576 34.3604 82.4133 32.2261 81.3526 29.7784L79.5174 30.5736C80.6754 33.2459 82.2604 35.5916 84.2719 37.6031L85.6861 36.1889ZM81.3526 29.7784C80.3006 27.3508 79.771 24.7349 79.771 21.92H77.771C77.771 24.9931 78.3508 27.8812 79.5174 30.5736L81.3526 29.7784ZM79.771 21.92C79.771 19.1051 80.3006 16.4892 81.3526 14.0616L79.5174 13.2664C78.3508 15.9588 77.771 18.8469 77.771 21.92H79.771ZM81.3549 14.0561C82.4163 11.5661 83.8603 9.41289 85.6861 7.5871L84.2719 6.17289C82.2577 8.1871 80.6724 10.5566 79.5151 13.2719L81.3549 14.0561ZM85.6861 7.5871C87.5146 5.75857 89.6489 4.31425 92.0966 3.25355L91.3014 1.41844C88.6291 2.57642 86.2834 4.16142 84.2719 6.17289L85.6861 7.5871ZM92.0911 3.25592C94.5648 2.20157 97.2042 1.672 100.019 1.672V-0.328003C96.9458 -0.328003 94.0386 0.251757 91.3069 1.41608L92.0911 3.25592ZM100.019 42.376C101.939 42.376 103.751 41.7962 105.438 40.6721L104.328 39.0079C102.943 39.9318 101.512 40.376 100.019 40.376V42.376ZM105.438 40.672C107.099 39.5644 108.534 38.0762 109.75 36.23L108.08 35.13C106.992 36.7825 105.739 38.0676 104.328 39.0079L105.438 40.672ZM109.75 36.23C110.965 34.3846 111.921 32.2424 112.627 29.8153L110.707 29.2567C110.048 31.523 109.169 33.4767 108.08 35.13L109.75 36.23ZM112.629 29.8107C113.339 27.3251 113.691 24.6934 113.691 21.92H111.691C111.691 24.5226 111.361 26.9683 110.705 29.2613L112.629 29.8107ZM113.691 21.92C113.691 19.1468 113.339 16.5347 112.627 14.0887L110.707 14.6473C111.361 16.8947 111.691 19.3172 111.691 21.92H113.691ZM112.629 14.0933C111.923 11.624 110.967 9.45823 109.75 7.61001L108.08 8.70999C109.167 10.3604 110.046 12.3334 110.705 14.6427L112.629 14.0933ZM109.756 7.61924C108.541 5.72917 107.105 4.21516 105.438 3.10395L104.328 4.76805C105.733 5.70483 106.985 7.00683 108.074 8.70076L109.756 7.61924ZM105.438 3.10395C103.751 1.97979 101.939 1.4 100.019 1.4V3.4C101.512 3.4 102.943 3.8442 104.328 4.76805L105.438 3.10395ZM100.019 1.4C98.0618 1.4 96.2107 1.97624 94.4828 3.09704L95.5712 4.77496C97.0006 3.84775 98.4775 3.4 100.019 3.4V1.4ZM94.4723 3.10395C92.8055 4.21516 91.3689 5.72917 90.1538 7.61924L91.8362 8.70076C92.9251 7.00683 94.1765 5.70483 95.5817 4.76805L94.4723 3.10395ZM90.1598 7.61001C88.9427 9.45823 87.987 11.624 87.2815 14.0933L89.2045 14.6427C89.8643 12.3334 90.7433 10.3604 91.8302 8.70999L90.1598 7.61001ZM87.2782 14.1049C86.6125 16.5458 86.283 19.1523 86.283 21.92H88.283C88.283 19.3117 88.5935 16.8836 89.2078 14.6311L87.2782 14.1049ZM86.283 21.92C86.283 24.6879 86.6126 27.3141 87.2771 29.7947L89.209 29.2773C88.5934 26.9793 88.283 24.5281 88.283 21.92H86.283ZM87.2828 29.8153C87.9889 32.2424 88.9446 34.3846 90.1598 36.23L91.8302 35.13C90.7414 33.4767 89.8625 31.523 89.2032 29.2567L87.2828 29.8153ZM90.1598 36.23C91.3756 38.0762 92.8108 39.5644 94.4723 40.6721L95.5817 39.0079C94.1712 38.0676 92.9184 36.7825 91.8302 35.13L90.1598 36.23ZM94.4828 40.679C96.2107 41.7998 98.0618 42.376 100.019 42.376V40.376C98.4775 40.376 97.0006 39.9282 95.5712 39.001L94.4828 40.679ZM165.259 4.128H166.259V3.29618L165.441 3.14472L165.259 4.128ZM163.531 3.808L163.713 2.82472L162.887 2.67168L162.594 3.45939L163.531 3.808ZM148.939 43.04V44.04H149.634L149.876 43.3886L148.939 43.04ZM146.635 43.04L145.702 43.3994L145.949 44.04H146.635V43.04ZM132.043 5.152L132.976 4.7926L132.678 4.01747L131.861 4.16871L132.043 5.152ZM130.315 5.472L130.133 4.48871L129.317 4.6399L129.315 5.47016L130.315 5.472ZM130.251 40.416L129.251 40.4142V40.416H130.251ZM130.251 43.104V44.104H131.251V43.104H130.251ZM128.523 43.104H127.523V44.104H128.523V43.104ZM128.523 3.04H129.523V2.69689L129.312 2.42606L128.523 3.04ZM126.539 0.671997V-0.328003H124.458L125.758 1.29669L126.539 0.671997ZM138.699 0.671997L139.613 0.265312L139.348 -0.328003H138.699V0.671997ZM151.947 30.432L151.033 30.8387L152.033 33.0831L152.885 30.7789L151.947 30.432ZM162.955 0.671997V-0.328003H162.259L162.017 0.325077L162.955 0.671997ZM168.331 0.671997V1.672H168.343L168.356 1.67168L168.331 0.671997ZM173.707 0.607998H174.707V-0.392002H173.707V0.607998ZM173.707 43.104V44.104H174.707V43.104H173.707ZM165.259 43.104H164.259V44.104H165.259V43.104ZM165.441 3.14472L163.713 2.82472L163.349 4.79128L165.077 5.11128L165.441 3.14472ZM162.594 3.45939L148.002 42.6914L149.876 43.3886L164.468 4.15661L162.594 3.45939ZM148.939 42.04H146.635V44.04H148.939V42.04ZM147.568 42.6806L132.976 4.7926L131.11 5.5114L145.702 43.3994L147.568 42.6806ZM131.861 4.16871L130.133 4.48871L130.497 6.45528L132.225 6.13528L131.861 4.16871ZM129.315 5.47016L129.251 40.4142L131.251 40.4178L131.315 5.47383L129.315 5.47016ZM129.251 40.416V43.104H131.251V40.416H129.251ZM130.251 42.104H128.523V44.104H130.251V42.104ZM129.523 43.104V3.04H127.523V43.104H129.523ZM129.312 2.42606C129 2.02386 128.665 1.62307 128.31 1.22363L126.816 2.55236C127.143 2.92092 127.449 3.28813 127.734 3.65394L129.312 2.42606ZM128.31 1.22363C127.981 0.853348 127.651 0.461303 127.32 0.0473018L125.758 1.29669C126.11 1.73602 126.462 2.15465 126.816 2.55236L128.31 1.22363ZM126.539 1.672H138.699V-0.328003H126.539V1.672ZM137.785 1.07868L151.033 30.8387L152.861 30.0253L139.613 0.265312L137.785 1.07868ZM152.885 30.7789L163.893 1.01892L162.017 0.325077L151.009 30.0851L152.885 30.7789ZM162.955 1.672C162.959 1.672 162.963 1.672 162.966 1.672C162.97 1.672 162.974 1.672 162.977 1.672C162.981 1.672 162.985 1.672 162.989 1.672C162.992 1.672 162.996 1.672 163 1.672C163.004 1.672 163.007 1.672 163.011 1.672C163.015 1.672 163.019 1.672 163.022 1.672C163.026 1.672 163.03 1.672 163.034 1.672C163.037 1.672 163.041 1.672 163.045 1.672C163.049 1.672 163.052 1.672 163.056 1.672C163.06 1.672 163.064 1.672 163.067 1.672C163.071 1.672 163.075 1.672 163.079 1.672C163.082 1.672 163.086 1.672 163.09 1.672C163.094 1.672 163.097 1.672 163.101 1.672C163.105 1.672 163.108 1.672 163.112 1.672C163.116 1.672 163.12 1.672 163.123 1.672C163.127 1.672 163.131 1.672 163.135 1.672C163.138 1.672 163.142 1.672 163.146 1.672C163.15 1.672 163.153 1.672 163.157 1.672C163.161 1.672 163.164 1.672 163.168 1.672C163.172 1.672 163.176 1.672 163.179 1.672C163.183 1.672 163.187 1.672 163.191 1.672C163.194 1.672 163.198 1.672 163.202 1.672C163.206 1.672 163.209 1.672 163.213 1.672C163.217 1.672 163.22 1.672 163.224 1.672C163.228 1.672 163.232 1.672 163.235 1.672C163.239 1.672 163.243 1.672 163.247 1.672C163.25 1.672 163.254 1.672 163.258 1.672C163.261 1.672 163.265 1.672 163.269 1.672C163.273 1.672 163.276 1.672 163.28 1.672C163.284 1.672 163.287 1.672 163.291 1.672C163.295 1.672 163.299 1.672 163.302 1.672C163.306 1.672 163.31 1.672 163.314 1.672C163.317 1.672 163.321 1.672 163.325 1.672C163.328 1.672 163.332 1.672 163.336 1.672C163.34 1.672 163.343 1.672 163.347 1.672C163.351 1.672 163.354 1.672 163.358 1.672C163.362 1.672 163.366 1.672 163.369 1.672C163.373 1.672 163.377 1.672 163.38 1.672C163.384 1.672 163.388 1.672 163.392 1.672C163.395 1.672 163.399 1.672 163.403 1.672C163.406 1.672 163.41 1.672 163.414 1.672C163.417 1.672 163.421 1.672 163.425 1.672C163.429 1.672 163.432 1.672 163.436 1.672C163.44 1.672 163.443 1.672 163.447 1.672C163.451 1.672 163.455 1.672 163.458 1.672C163.462 1.672 163.466 1.672 163.469 1.672C163.473 1.672 163.477 1.672 163.481 1.672C163.484 1.672 163.488 1.672 163.492 1.672C163.495 1.672 163.499 1.672 163.503 1.672C163.506 1.672 163.51 1.672 163.514 1.672C163.518 1.672 163.521 1.672 163.525 1.672C163.529 1.672 163.532 1.672 163.536 1.672C163.54 1.672 163.543 1.672 163.547 1.672C163.551 1.672 163.555 1.672 163.558 1.672C163.562 1.672 163.566 1.672 163.569 1.672C163.573 1.672 163.577 1.672 163.58 1.672C163.584 1.672 163.588 1.672 163.591 1.672C163.595 1.672 163.599 1.672 163.603 1.672C163.606 1.672 163.61 1.672 163.614 1.672C163.617 1.672 163.621 1.672 163.625 1.672C163.628 1.672 163.632 1.672 163.636 1.672C163.639 1.672 163.643 1.672 163.647 1.672C163.651 1.672 163.654 1.672 163.658 1.672C163.662 1.672 163.665 1.672 163.669 1.672C163.673 1.672 163.676 1.672 163.68 1.672C163.684 1.672 163.687 1.672 163.691 1.672C163.695 1.672 163.698 1.672 163.702 1.672C163.706 1.672 163.71 1.672 163.713 1.672C163.717 1.672 163.721 1.672 163.724 1.672C163.728 1.672 163.732 1.672 163.735 1.672C163.739 1.672 163.743 1.672 163.746 1.672C163.75 1.672 163.754 1.672 163.757 1.672C163.761 1.672 163.765 1.672 163.768 1.672C163.772 1.672 163.776 1.672 163.779 1.672C163.783 1.672 163.787 1.672 163.791 1.672C163.794 1.672 163.798 1.672 163.802 1.672C163.805 1.672 163.809 1.672 163.813 1.672C163.816 1.672 163.82 1.672 163.824 1.672C163.827 1.672 163.831 1.672 163.835 1.672C163.838 1.672 163.842 1.672 163.846 1.672C163.849 1.672 163.853 1.672 163.857 1.672C163.86 1.672 163.864 1.672 163.868 1.672C163.871 1.672 163.875 1.672 163.879 1.672C163.882 1.672 163.886 1.672 163.89 1.672C163.893 1.672 163.897 1.672 163.901 1.672C163.904 1.672 163.908 1.672 163.912 1.672C163.915 1.672 163.919 1.672 163.923 1.672C163.926 1.672 163.93 1.672 163.934 1.672C163.937 1.672 163.941 1.672 163.945 1.672C163.948 1.672 163.952 1.672 163.956 1.672C163.959 1.672 163.963 1.672 163.967 1.672C163.97 1.672 163.974 1.672 163.978 1.672C163.981 1.672 163.985 1.672 163.989 1.672C163.992 1.672 163.996 1.672 164 1.672C164.003 1.672 164.007 1.672 164.011 1.672C164.014 1.672 164.018 1.672 164.022 1.672C164.025 1.672 164.029 1.672 164.032 1.672C164.036 1.672 164.04 1.672 164.043 1.672C164.047 1.672 164.051 1.672 164.054 1.672C164.058 1.672 164.062 1.672 164.065 1.672C164.069 1.672 164.073 1.672 164.076 1.672C164.08 1.672 164.084 1.672 164.087 1.672C164.091 1.672 164.095 1.672 164.098 1.672C164.102 1.672 164.106 1.672 164.109 1.672C164.113 1.672 164.116 1.672 164.12 1.672C164.124 1.672 164.127 1.672 164.131 1.672C164.135 1.672 164.138 1.672 164.142 1.672C164.146 1.672 164.149 1.672 164.153 1.672C164.157 1.672 164.16 1.672 164.164 1.672C164.167 1.672 164.171 1.672 164.175 1.672C164.178 1.672 164.182 1.672 164.186 1.672C164.189 1.672 164.193 1.672 164.197 1.672C164.2 1.672 164.204 1.672 164.208 1.672C164.211 1.672 164.215 1.672 164.218 1.672C164.222 1.672 164.226 1.672 164.229 1.672C164.233 1.672 164.237 1.672 164.24 1.672C164.244 1.672 164.248 1.672 164.251 1.672C164.255 1.672 164.258 1.672 164.262 1.672C164.266 1.672 164.269 1.672 164.273 1.672C164.277 1.672 164.28 1.672 164.284 1.672C164.288 1.672 164.291 1.672 164.295 1.672C164.298 1.672 164.302 1.672 164.306 1.672C164.309 1.672 164.313 1.672 164.317 1.672C164.32 1.672 164.324 1.672 164.327 1.672C164.331 1.672 164.335 1.672 164.338 1.672C164.342 1.672 164.346 1.672 164.349 1.672C164.353 1.672 164.356 1.672 164.36 1.672C164.364 1.672 164.367 1.672 164.371 1.672C164.375 1.672 164.378 1.672 164.382 1.672C164.385 1.672 164.389 1.672 164.393 1.672C164.396 1.672 164.4 1.672 164.404 1.672C164.407 1.672 164.411 1.672 164.414 1.672C164.418 1.672 164.422 1.672 164.425 1.672C164.429 1.672 164.433 1.672 164.436 1.672C164.44 1.672 164.443 1.672 164.447 1.672C164.451 1.672 164.454 1.672 164.458 1.672C164.462 1.672 164.465 1.672 164.469 1.672C164.472 1.672 164.476 1.672 164.48 1.672C164.483 1.672 164.487 1.672 164.49 1.672C164.494 1.672 164.498 1.672 164.501 1.672C164.505 1.672 164.509 1.672 164.512 1.672C164.516 1.672 164.519 1.672 164.523 1.672C164.527 1.672 164.53 1.672 164.534 1.672C164.537 1.672 164.541 1.672 164.545 1.672C164.548 1.672 164.552 1.672 164.555 1.672C164.559 1.672 164.563 1.672 164.566 1.672C164.57 1.672 164.573 1.672 164.577 1.672C164.581 1.672 164.584 1.672 164.588 1.672C164.592 1.672 164.595 1.672 164.599 1.672C164.602 1.672 164.606 1.672 164.61 1.672C164.613 1.672 164.617 1.672 164.62 1.672C164.624 1.672 164.628 1.672 164.631 1.672C164.635 1.672 164.638 1.672 164.642 1.672C164.646 1.672 164.649 1.672 164.653 1.672C164.656 1.672 164.66 1.672 164.664 1.672C164.667 1.672 164.671 1.672 164.674 1.672C164.678 1.672 164.682 1.672 164.685 1.672C164.689 1.672 164.692 1.672 164.696 1.672C164.7 1.672 164.703 1.672 164.707 1.672C164.71 1.672 164.714 1.672 164.718 1.672C164.721 1.672 164.725 1.672 164.728 1.672C164.732 1.672 164.735 1.672 164.739 1.672C164.743 1.672 164.746 1.672 164.75 1.672C164.753 1.672 164.757 1.672 164.761 1.672C164.764 1.672 164.768 1.672 164.771 1.672C164.775 1.672 164.779 1.672 164.782 1.672C164.786 1.672 164.789 1.672 164.793 1.672C164.796 1.672 164.8 1.672 164.804 1.672C164.807 1.672 164.811 1.672 164.814 1.672C164.818 1.672 164.822 1.672 164.825 1.672C164.829 1.672 164.832 1.672 164.836 1.672C164.84 1.672 164.843 1.672 164.847 1.672C164.85 1.672 164.854 1.672 164.857 1.672C164.861 1.672 164.865 1.672 164.868 1.672C164.872 1.672 164.875 1.672 164.879 1.672C164.882 1.672 164.886 1.672 164.89 1.672C164.893 1.672 164.897 1.672 164.9 1.672C164.904 1.672 164.908 1.672 164.911 1.672C164.915 1.672 164.918 1.672 164.922 1.672C164.925 1.672 164.929 1.672 164.933 1.672C164.936 1.672 164.94 1.672 164.943 1.672C164.947 1.672 164.95 1.672 164.954 1.672C164.958 1.672 164.961 1.672 164.965 1.672C164.968 1.672 164.972 1.672 164.975 1.672C164.979 1.672 164.983 1.672 164.986 1.672C164.99 1.672 164.993 1.672 164.997 1.672C165 1.672 165.004 1.672 165.008 1.672C165.011 1.672 165.015 1.672 165.018 1.672C165.022 1.672 165.025 1.672 165.029 1.672C165.032 1.672 165.036 1.672 165.04 1.672C165.043 1.672 165.047 1.672 165.05 1.672C165.054 1.672 165.057 1.672 165.061 1.672C165.065 1.672 165.068 1.672 165.072 1.672C165.075 1.672 165.079 1.672 165.082 1.672C165.086 1.672 165.089 1.672 165.093 1.672C165.097 1.672 165.1 1.672 165.104 1.672C165.107 1.672 165.111 1.672 165.114 1.672C165.118 1.672 165.122 1.672 165.125 1.672C165.129 1.672 165.132 1.672 165.136 1.672C165.139 1.672 165.143 1.672 165.146 1.672C165.15 1.672 165.154 1.672 165.157 1.672C165.161 1.672 165.164 1.672 165.168 1.672C165.171 1.672 165.175 1.672 165.178 1.672C165.182 1.672 165.185 1.672 165.189 1.672C165.193 1.672 165.196 1.672 165.2 1.672C165.203 1.672 165.207 1.672 165.21 1.672C165.214 1.672 165.217 1.672 165.221 1.672C165.225 1.672 165.228 1.672 165.232 1.672C165.235 1.672 165.239 1.672 165.242 1.672C165.246 1.672 165.249 1.672 165.253 1.672C165.256 1.672 165.26 1.672 165.264 1.672C165.267 1.672 165.271 1.672 165.274 1.672C165.278 1.672 165.281 1.672 165.285 1.672C165.288 1.672 165.292 1.672 165.295 1.672C165.299 1.672 165.302 1.672 165.306 1.672C165.31 1.672 165.313 1.672 165.317 1.672C165.32 1.672 165.324 1.672 165.327 1.672C165.331 1.672 165.334 1.672 165.338 1.672C165.341 1.672 165.345 1.672 165.348 1.672C165.352 1.672 165.356 1.672 165.359 1.672C165.363 1.672 165.366 1.672 165.37 1.672C165.373 1.672 165.377 1.672 165.38 1.672C165.384 1.672 165.387 1.672 165.391 1.672C165.394 1.672 165.398 1.672 165.402 1.672C165.405 1.672 165.409 1.672 165.412 1.672C165.416 1.672 165.419 1.672 165.423 1.672C165.426 1.672 165.43 1.672 165.433 1.672C165.437 1.672 165.44 1.672 165.444 1.672C165.447 1.672 165.451 1.672 165.454 1.672C165.458 1.672 165.461 1.672 165.465 1.672C165.469 1.672 165.472 1.672 165.476 1.672C165.479 1.672 165.483 1.672 165.486 1.672C165.49 1.672 165.493 1.672 165.497 1.672C165.5 1.672 165.504 1.672 165.507 1.672C165.511 1.672 165.514 1.672 165.518 1.672C165.521 1.672 165.525 1.672 165.528 1.672C165.532 1.672 165.535 1.672 165.539 1.672C165.542 1.672 165.546 1.672 165.55 1.672C165.553 1.672 165.557 1.672 165.56 1.672C165.564 1.672 165.567 1.672 165.571 1.672C165.574 1.672 165.578 1.672 165.581 1.672C165.585 1.672 165.588 1.672 165.592 1.672C165.595 1.672 165.599 1.672 165.602 1.672C165.606 1.672 165.609 1.672 165.613 1.672C165.616 1.672 165.62 1.672 165.623 1.672C165.627 1.672 165.63 1.672 165.634 1.672C165.637 1.672 165.641 1.672 165.644 1.672C165.648 1.672 165.651 1.672 165.655 1.672C165.658 1.672 165.662 1.672 165.665 1.672C165.669 1.672 165.672 1.672 165.676 1.672C165.679 1.672 165.683 1.672 165.686 1.672C165.69 1.672 165.693 1.672 165.697 1.672C165.7 1.672 165.704 1.672 165.707 1.672C165.711 1.672 165.714 1.672 165.718 1.672C165.721 1.672 165.725 1.672 165.729 1.672C165.732 1.672 165.736 1.672 165.739 1.672C165.743 1.672 165.746 1.672 165.75 1.672C165.753 1.672 165.756 1.672 165.76 1.672C165.763 1.672 165.767 1.672 165.77 1.672C165.774 1.672 165.777 1.672 165.781 1.672C165.784 1.672 165.788 1.672 165.791 1.672C165.795 1.672 165.798 1.672 165.802 1.672C165.805 1.672 165.809 1.672 165.812 1.672C165.816 1.672 165.819 1.672 165.823 1.672C165.826 1.672 165.83 1.672 165.833 1.672C165.837 1.672 165.84 1.672 165.844 1.672C165.847 1.672 165.851 1.672 165.854 1.672C165.858 1.672 165.861 1.672 165.865 1.672C165.868 1.672 165.872 1.672 165.875 1.672C165.879 1.672 165.882 1.672 165.886 1.672C165.889 1.672 165.893 1.672 165.896 1.672C165.9 1.672 165.903 1.672 165.907 1.672C165.91 1.672 165.914 1.672 165.917 1.672C165.921 1.672 165.924 1.672 165.928 1.672C165.931 1.672 165.934 1.672 165.938 1.672C165.941 1.672 165.945 1.672 165.948 1.672C165.952 1.672 165.955 1.672 165.959 1.672C165.962 1.672 165.966 1.672 165.969 1.672C165.973 1.672 165.976 1.672 165.98 1.672C165.983 1.672 165.987 1.672 165.99 1.672C165.994 1.672 165.997 1.672 166.001 1.672C166.004 1.672 166.008 1.672 166.011 1.672C166.014 1.672 166.018 1.672 166.021 1.672C166.025 1.672 166.028 1.672 166.032 1.672C166.035 1.672 166.039 1.672 166.042 1.672C166.046 1.672 166.049 1.672 166.053 1.672C166.056 1.672 166.06 1.672 166.063 1.672C166.067 1.672 166.07 1.672 166.074 1.672C166.077 1.672 166.08 1.672 166.084 1.672C166.087 1.672 166.091 1.672 166.094 1.672C166.098 1.672 166.101 1.672 166.105 1.672C166.108 1.672 166.112 1.672 166.115 1.672C166.119 1.672 166.122 1.672 166.125 1.672C166.129 1.672 166.132 1.672 166.136 1.672C166.139 1.672 166.143 1.672 166.146 1.672C166.15 1.672 166.153 1.672 166.157 1.672C166.16 1.672 166.164 1.672 166.167 1.672C166.17 1.672 166.174 1.672 166.177 1.672C166.181 1.672 166.184 1.672 166.188 1.672C166.191 1.672 166.195 1.672 166.198 1.672C166.202 1.672 166.205 1.672 166.209 1.672C166.212 1.672 166.215 1.672 166.219 1.672C166.222 1.672 166.226 1.672 166.229 1.672C166.233 1.672 166.236 1.672 166.24 1.672C166.243 1.672 166.247 1.672 166.25 1.672C166.253 1.672 166.257 1.672 166.26 1.672C166.264 1.672 166.267 1.672 166.271 1.672C166.274 1.672 166.278 1.672 166.281 1.672C166.284 1.672 166.288 1.672 166.291 1.672C166.295 1.672 166.298 1.672 166.302 1.672C166.305 1.672 166.309 1.672 166.312 1.672C166.316 1.672 166.319 1.672 166.322 1.672C166.326 1.672 166.329 1.672 166.333 1.672C166.336 1.672 166.34 1.672 166.343 1.672C166.347 1.672 166.35 1.672 166.353 1.672C166.357 1.672 166.36 1.672 166.364 1.672C166.367 1.672 166.371 1.672 166.374 1.672C166.377 1.672 166.381 1.672 166.384 1.672C166.388 1.672 166.391 1.672 166.395 1.672C166.398 1.672 166.402 1.672 166.405 1.672C166.408 1.672 166.412 1.672 166.415 1.672C166.419 1.672 166.422 1.672 166.426 1.672C166.429 1.672 166.432 1.672 166.436 1.672C166.439 1.672 166.443 1.672 166.446 1.672C166.45 1.672 166.453 1.672 166.457 1.672C166.46 1.672 166.463 1.672 166.467 1.672C166.47 1.672 166.474 1.672 166.477 1.672C166.481 1.672 166.484 1.672 166.487 1.672C166.491 1.672 166.494 1.672 166.498 1.672C166.501 1.672 166.505 1.672 166.508 1.672C166.511 1.672 166.515 1.672 166.518 1.672C166.522 1.672 166.525 1.672 166.529 1.672C166.532 1.672 166.535 1.672 166.539 1.672C166.542 1.672 166.546 1.672 166.549 1.672C166.553 1.672 166.556 1.672 166.559 1.672C166.563 1.672 166.566 1.672 166.57 1.672C166.573 1.672 166.576 1.672 166.58 1.672C166.583 1.672 166.587 1.672 166.59 1.672C166.594 1.672 166.597 1.672 166.6 1.672C166.604 1.672 166.607 1.672 166.611 1.672C166.614 1.672 166.618 1.672 166.621 1.672C166.624 1.672 166.628 1.672 166.631 1.672C166.635 1.672 166.638 1.672 166.641 1.672C166.645 1.672 166.648 1.672 166.652 1.672C166.655 1.672 166.658 1.672 166.662 1.672C166.665 1.672 166.669 1.672 166.672 1.672C166.676 1.672 166.679 1.672 166.682 1.672C166.686 1.672 166.689 1.672 166.693 1.672C166.696 1.672 166.699 1.672 166.703 1.672C166.706 1.672 166.71 1.672 166.713 1.672C166.716 1.672 166.72 1.672 166.723 1.672C166.727 1.672 166.73 1.672 166.734 1.672C166.737 1.672 166.74 1.672 166.744 1.672C166.747 1.672 166.751 1.672 166.754 1.672C166.757 1.672 166.761 1.672 166.764 1.672C166.768 1.672 166.771 1.672 166.774 1.672C166.778 1.672 166.781 1.672 166.785 1.672C166.788 1.672 166.791 1.672 166.795 1.672C166.798 1.672 166.802 1.672 166.805 1.672C166.808 1.672 166.812 1.672 166.815 1.672C166.819 1.672 166.822 1.672 166.825 1.672C166.829 1.672 166.832 1.672 166.836 1.672C166.839 1.672 166.842 1.672 166.846 1.672C166.849 1.672 166.853 1.672 166.856 1.672C166.859 1.672 166.863 1.672 166.866 1.672C166.869 1.672 166.873 1.672 166.876 1.672C166.88 1.672 166.883 1.672 166.886 1.672C166.89 1.672 166.893 1.672 166.897 1.672C166.9 1.672 166.903 1.672 166.907 1.672C166.91 1.672 166.914 1.672 166.917 1.672C166.92 1.672 166.924 1.672 166.927 1.672C166.931 1.672 166.934 1.672 166.937 1.672C166.941 1.672 166.944 1.672 166.947 1.672C166.951 1.672 166.954 1.672 166.958 1.672C166.961 1.672 166.964 1.672 166.968 1.672C166.971 1.672 166.975 1.672 166.978 1.672C166.981 1.672 166.985 1.672 166.988 1.672C166.991 1.672 166.995 1.672 166.998 1.672C167.002 1.672 167.005 1.672 167.008 1.672C167.012 1.672 167.015 1.672 167.018 1.672C167.022 1.672 167.025 1.672 167.029 1.672C167.032 1.672 167.035 1.672 167.039 1.672C167.042 1.672 167.045 1.672 167.049 1.672C167.052 1.672 167.056 1.672 167.059 1.672C167.062 1.672 167.066 1.672 167.069 1.672C167.072 1.672 167.076 1.672 167.079 1.672C167.083 1.672 167.086 1.672 167.089 1.672C167.093 1.672 167.096 1.672 167.099 1.672C167.103 1.672 167.106 1.672 167.11 1.672C167.113 1.672 167.116 1.672 167.12 1.672C167.123 1.672 167.126 1.672 167.13 1.672C167.133 1.672 167.137 1.672 167.14 1.672C167.143 1.672 167.147 1.672 167.15 1.672C167.153 1.672 167.157 1.672 167.16 1.672C167.163 1.672 167.167 1.672 167.17 1.672C167.174 1.672 167.177 1.672 167.18 1.672C167.184 1.672 167.187 1.672 167.19 1.672C167.194 1.672 167.197 1.672 167.2 1.672C167.204 1.672 167.207 1.672 167.211 1.672C167.214 1.672 167.217 1.672 167.221 1.672C167.224 1.672 167.227 1.672 167.231 1.672C167.234 1.672 167.237 1.672 167.241 1.672C167.244 1.672 167.247 1.672 167.251 1.672C167.254 1.672 167.258 1.672 167.261 1.672C167.264 1.672 167.268 1.672 167.271 1.672C167.274 1.672 167.278 1.672 167.281 1.672C167.284 1.672 167.288 1.672 167.291 1.672C167.294 1.672 167.298 1.672 167.301 1.672C167.305 1.672 167.308 1.672 167.311 1.672C167.315 1.672 167.318 1.672 167.321 1.672C167.325 1.672 167.328 1.672 167.331 1.672C167.335 1.672 167.338 1.672 167.341 1.672C167.345 1.672 167.348 1.672 167.351 1.672C167.355 1.672 167.358 1.672 167.361 1.672C167.365 1.672 167.368 1.672 167.371 1.672C167.375 1.672 167.378 1.672 167.382 1.672C167.385 1.672 167.388 1.672 167.392 1.672C167.395 1.672 167.398 1.672 167.402 1.672C167.405 1.672 167.408 1.672 167.412 1.672C167.415 1.672 167.418 1.672 167.422 1.672C167.425 1.672 167.428 1.672 167.432 1.672C167.435 1.672 167.438 1.672 167.442 1.672C167.445 1.672 167.448 1.672 167.452 1.672C167.455 1.672 167.458 1.672 167.462 1.672C167.465 1.672 167.468 1.672 167.472 1.672C167.475 1.672 167.478 1.672 167.482 1.672C167.485 1.672 167.488 1.672 167.492 1.672C167.495 1.672 167.498 1.672 167.502 1.672C167.505 1.672 167.508 1.672 167.512 1.672C167.515 1.672 167.518 1.672 167.522 1.672C167.525 1.672 167.528 1.672 167.532 1.672C167.535 1.672 167.538 1.672 167.542 1.672C167.545 1.672 167.548 1.672 167.552 1.672C167.555 1.672 167.558 1.672 167.562 1.672C167.565 1.672 167.568 1.672 167.572 1.672C167.575 1.672 167.578 1.672 167.582 1.672C167.585 1.672 167.588 1.672 167.592 1.672C167.595 1.672 167.598 1.672 167.601 1.672C167.605 1.672 167.608 1.672 167.611 1.672C167.615 1.672 167.618 1.672 167.621 1.672C167.625 1.672 167.628 1.672 167.631 1.672C167.635 1.672 167.638 1.672 167.641 1.672C167.645 1.672 167.648 1.672 167.651 1.672C167.655 1.672 167.658 1.672 167.661 1.672C167.665 1.672 167.668 1.672 167.671 1.672C167.674 1.672 167.678 1.672 167.681 1.672C167.684 1.672 167.688 1.672 167.691 1.672C167.694 1.672 167.698 1.672 167.701 1.672C167.704 1.672 167.708 1.672 167.711 1.672C167.714 1.672 167.718 1.672 167.721 1.672C167.724 1.672 167.727 1.672 167.731 1.672C167.734 1.672 167.737 1.672 167.741 1.672C167.744 1.672 167.747 1.672 167.751 1.672C167.754 1.672 167.757 1.672 167.761 1.672C167.764 1.672 167.767 1.672 167.77 1.672C167.774 1.672 167.777 1.672 167.78 1.672C167.784 1.672 167.787 1.672 167.79 1.672C167.794 1.672 167.797 1.672 167.8 1.672C167.804 1.672 167.807 1.672 167.81 1.672C167.813 1.672 167.817 1.672 167.82 1.672C167.823 1.672 167.827 1.672 167.83 1.672C167.833 1.672 167.837 1.672 167.84 1.672C167.843 1.672 167.846 1.672 167.85 1.672C167.853 1.672 167.856 1.672 167.86 1.672C167.863 1.672 167.866 1.672 167.87 1.672C167.873 1.672 167.876 1.672 167.879 1.672C167.883 1.672 167.886 1.672 167.889 1.672C167.893 1.672 167.896 1.672 167.899 1.672C167.902 1.672 167.906 1.672 167.909 1.672C167.912 1.672 167.916 1.672 167.919 1.672C167.922 1.672 167.925 1.672 167.929 1.672C167.932 1.672 167.935 1.672 167.939 1.672C167.942 1.672 167.945 1.672 167.949 1.672C167.952 1.672 167.955 1.672 167.958 1.672C167.962 1.672 167.965 1.672 167.968 1.672C167.972 1.672 167.975 1.672 167.978 1.672C167.981 1.672 167.985 1.672 167.988 1.672C167.991 1.672 167.995 1.672 167.998 1.672C168.001 1.672 168.004 1.672 168.008 1.672C168.011 1.672 168.014 1.672 168.018 1.672C168.021 1.672 168.024 1.672 168.027 1.672C168.031 1.672 168.034 1.672 168.037 1.672C168.04 1.672 168.044 1.672 168.047 1.672C168.05 1.672 168.054 1.672 168.057 1.672C168.06 1.672 168.063 1.672 168.067 1.672C168.07 1.672 168.073 1.672 168.077 1.672C168.08 1.672 168.083 1.672 168.086 1.672C168.09 1.672 168.093 1.672 168.096 1.672C168.099 1.672 168.103 1.672 168.106 1.672C168.109 1.672 168.113 1.672 168.116 1.672C168.119 1.672 168.122 1.672 168.126 1.672C168.129 1.672 168.132 1.672 168.135 1.672C168.139 1.672 168.142 1.672 168.145 1.672C168.148 1.672 168.152 1.672 168.155 1.672C168.158 1.672 168.162 1.672 168.165 1.672C168.168 1.672 168.171 1.672 168.175 1.672C168.178 1.672 168.181 1.672 168.184 1.672C168.188 1.672 168.191 1.672 168.194 1.672C168.197 1.672 168.201 1.672 168.204 1.672C168.207 1.672 168.211 1.672 168.214 1.672C168.217 1.672 168.22 1.672 168.224 1.672C168.227 1.672 168.23 1.672 168.233 1.672C168.237 1.672 168.24 1.672 168.243 1.672C168.246 1.672 168.25 1.672 168.253 1.672C168.256 1.672 168.259 1.672 168.263 1.672C168.266 1.672 168.269 1.672 168.272 1.672C168.276 1.672 168.279 1.672 168.282 1.672C168.285 1.672 168.289 1.672 168.292 1.672C168.295 1.672 168.298 1.672 168.302 1.672C168.305 1.672 168.308 1.672 168.311 1.672C168.315 1.672 168.318 1.672 168.321 1.672C168.325 1.672 168.328 1.672 168.331 1.672V-0.328003C168.328 -0.328003 168.325 -0.328003 168.321 -0.328003C168.318 -0.328003 168.315 -0.328003 168.311 -0.328003C168.308 -0.328003 168.305 -0.328003 168.302 -0.328003C168.298 -0.328003 168.295 -0.328003 168.292 -0.328003C168.289 -0.328003 168.285 -0.328003 168.282 -0.328003C168.279 -0.328003 168.276 -0.328003 168.272 -0.328003C168.269 -0.328003 168.266 -0.328003 168.263 -0.328003C168.259 -0.328003 168.256 -0.328003 168.253 -0.328003C168.25 -0.328003 168.246 -0.328003 168.243 -0.328003C168.24 -0.328003 168.237 -0.328003 168.233 -0.328003C168.23 -0.328003 168.227 -0.328003 168.224 -0.328003C168.22 -0.328003 168.217 -0.328003 168.214 -0.328003C168.211 -0.328003 168.207 -0.328003 168.204 -0.328003C168.201 -0.328003 168.197 -0.328003 168.194 -0.328003C168.191 -0.328003 168.188 -0.328003 168.184 -0.328003C168.181 -0.328003 168.178 -0.328003 168.175 -0.328003C168.171 -0.328003 168.168 -0.328003 168.165 -0.328003C168.162 -0.328003 168.158 -0.328003 168.155 -0.328003C168.152 -0.328003 168.148 -0.328003 168.145 -0.328003C168.142 -0.328003 168.139 -0.328003 168.135 -0.328003C168.132 -0.328003 168.129 -0.328003 168.126 -0.328003C168.122 -0.328003 168.119 -0.328003 168.116 -0.328003C168.113 -0.328003 168.109 -0.328003 168.106 -0.328003C168.103 -0.328003 168.099 -0.328003 168.096 -0.328003C168.093 -0.328003 168.09 -0.328003 168.086 -0.328003C168.083 -0.328003 168.08 -0.328003 168.077 -0.328003C168.073 -0.328003 168.07 -0.328003 168.067 -0.328003C168.063 -0.328003 168.06 -0.328003 168.057 -0.328003C168.054 -0.328003 168.05 -0.328003 168.047 -0.328003C168.044 -0.328003 168.04 -0.328003 168.037 -0.328003C168.034 -0.328003 168.031 -0.328003 168.027 -0.328003C168.024 -0.328003 168.021 -0.328003 168.018 -0.328003C168.014 -0.328003 168.011 -0.328003 168.008 -0.328003C168.004 -0.328003 168.001 -0.328003 167.998 -0.328003C167.995 -0.328003 167.991 -0.328003 167.988 -0.328003C167.985 -0.328003 167.981 -0.328003 167.978 -0.328003C167.975 -0.328003 167.972 -0.328003 167.968 -0.328003C167.965 -0.328003 167.962 -0.328003 167.958 -0.328003C167.955 -0.328003 167.952 -0.328003 167.949 -0.328003C167.945 -0.328003 167.942 -0.328003 167.939 -0.328003C167.935 -0.328003 167.932 -0.328003 167.929 -0.328003C167.925 -0.328003 167.922 -0.328003 167.919 -0.328003C167.916 -0.328003 167.912 -0.328003 167.909 -0.328003C167.906 -0.328003 167.902 -0.328003 167.899 -0.328003C167.896 -0.328003 167.893 -0.328003 167.889 -0.328003C167.886 -0.328003 167.883 -0.328003 167.879 -0.328003C167.876 -0.328003 167.873 -0.328003 167.87 -0.328003C167.866 -0.328003 167.863 -0.328003 167.86 -0.328003C167.856 -0.328003 167.853 -0.328003 167.85 -0.328003C167.846 -0.328003 167.843 -0.328003 167.84 -0.328003C167.837 -0.328003 167.833 -0.328003 167.83 -0.328003C167.827 -0.328003 167.823 -0.328003 167.82 -0.328003C167.817 -0.328003 167.813 -0.328003 167.81 -0.328003C167.807 -0.328003 167.804 -0.328003 167.8 -0.328003C167.797 -0.328003 167.794 -0.328003 167.79 -0.328003C167.787 -0.328003 167.784 -0.328003 167.78 -0.328003C167.777 -0.328003 167.774 -0.328003 167.77 -0.328003C167.767 -0.328003 167.764 -0.328003 167.761 -0.328003C167.757 -0.328003 167.754 -0.328003 167.751 -0.328003C167.747 -0.328003 167.744 -0.328003 167.741 -0.328003C167.737 -0.328003 167.734 -0.328003 167.731 -0.328003C167.727 -0.328003 167.724 -0.328003 167.721 -0.328003C167.718 -0.328003 167.714 -0.328003 167.711 -0.328003C167.708 -0.328003 167.704 -0.328003 167.701 -0.328003C167.698 -0.328003 167.694 -0.328003 167.691 -0.328003C167.688 -0.328003 167.684 -0.328003 167.681 -0.328003C167.678 -0.328003 167.674 -0.328003 167.671 -0.328003C167.668 -0.328003 167.665 -0.328003 167.661 -0.328003C167.658 -0.328003 167.655 -0.328003 167.651 -0.328003C167.648 -0.328003 167.645 -0.328003 167.641 -0.328003C167.638 -0.328003 167.635 -0.328003 167.631 -0.328003C167.628 -0.328003 167.625 -0.328003 167.621 -0.328003C167.618 -0.328003 167.615 -0.328003 167.611 -0.328003C167.608 -0.328003 167.605 -0.328003 167.601 -0.328003C167.598 -0.328003 167.595 -0.328003 167.592 -0.328003C167.588 -0.328003 167.585 -0.328003 167.582 -0.328003C167.578 -0.328003 167.575 -0.328003 167.572 -0.328003C167.568 -0.328003 167.565 -0.328003 167.562 -0.328003C167.558 -0.328003 167.555 -0.328003 167.552 -0.328003C167.548 -0.328003 167.545 -0.328003 167.542 -0.328003C167.538 -0.328003 167.535 -0.328003 167.532 -0.328003C167.528 -0.328003 167.525 -0.328003 167.522 -0.328003C167.518 -0.328003 167.515 -0.328003 167.512 -0.328003C167.508 -0.328003 167.505 -0.328003 167.502 -0.328003C167.498 -0.328003 167.495 -0.328003 167.492 -0.328003C167.488 -0.328003 167.485 -0.328003 167.482 -0.328003C167.478 -0.328003 167.475 -0.328003 167.472 -0.328003C167.468 -0.328003 167.465 -0.328003 167.462 -0.328003C167.458 -0.328003 167.455 -0.328003 167.452 -0.328003C167.448 -0.328003 167.445 -0.328003 167.442 -0.328003C167.438 -0.328003 167.435 -0.328003 167.432 -0.328003C167.428 -0.328003 167.425 -0.328003 167.422 -0.328003C167.418 -0.328003 167.415 -0.328003 167.412 -0.328003C167.408 -0.328003 167.405 -0.328003 167.402 -0.328003C167.398 -0.328003 167.395 -0.328003 167.392 -0.328003C167.388 -0.328003 167.385 -0.328003 167.382 -0.328003C167.378 -0.328003 167.375 -0.328003 167.371 -0.328003C167.368 -0.328003 167.365 -0.328003 167.361 -0.328003C167.358 -0.328003 167.355 -0.328003 167.351 -0.328003C167.348 -0.328003 167.345 -0.328003 167.341 -0.328003C167.338 -0.328003 167.335 -0.328003 167.331 -0.328003C167.328 -0.328003 167.325 -0.328003 167.321 -0.328003C167.318 -0.328003 167.315 -0.328003 167.311 -0.328003C167.308 -0.328003 167.305 -0.328003 167.301 -0.328003C167.298 -0.328003 167.294 -0.328003 167.291 -0.328003C167.288 -0.328003 167.284 -0.328003 167.281 -0.328003C167.278 -0.328003 167.274 -0.328003 167.271 -0.328003C167.268 -0.328003 167.264 -0.328003 167.261 -0.328003C167.258 -0.328003 167.254 -0.328003 167.251 -0.328003C167.247 -0.328003 167.244 -0.328003 167.241 -0.328003C167.237 -0.328003 167.234 -0.328003 167.231 -0.328003C167.227 -0.328003 167.224 -0.328003 167.221 -0.328003C167.217 -0.328003 167.214 -0.328003 167.211 -0.328003C167.207 -0.328003 167.204 -0.328003 167.2 -0.328003C167.197 -0.328003 167.194 -0.328003 167.19 -0.328003C167.187 -0.328003 167.184 -0.328003 167.18 -0.328003C167.177 -0.328003 167.174 -0.328003 167.17 -0.328003C167.167 -0.328003 167.163 -0.328003 167.16 -0.328003C167.157 -0.328003 167.153 -0.328003 167.15 -0.328003C167.147 -0.328003 167.143 -0.328003 167.14 -0.328003C167.137 -0.328003 167.133 -0.328003 167.13 -0.328003C167.126 -0.328003 167.123 -0.328003 167.12 -0.328003C167.116 -0.328003 167.113 -0.328003 167.11 -0.328003C167.106 -0.328003 167.103 -0.328003 167.099 -0.328003C167.096 -0.328003 167.093 -0.328003 167.089 -0.328003C167.086 -0.328003 167.083 -0.328003 167.079 -0.328003C167.076 -0.328003 167.072 -0.328003 167.069 -0.328003C167.066 -0.328003 167.062 -0.328003 167.059 -0.328003C167.056 -0.328003 167.052 -0.328003 167.049 -0.328003C167.045 -0.328003 167.042 -0.328003 167.039 -0.328003C167.035 -0.328003 167.032 -0.328003 167.029 -0.328003C167.025 -0.328003 167.022 -0.328003 167.018 -0.328003C167.015 -0.328003 167.012 -0.328003 167.008 -0.328003C167.005 -0.328003 167.002 -0.328003 166.998 -0.328003C166.995 -0.328003 166.991 -0.328003 166.988 -0.328003C166.985 -0.328003 166.981 -0.328003 166.978 -0.328003C166.975 -0.328003 166.971 -0.328003 166.968 -0.328003C166.964 -0.328003 166.961 -0.328003 166.958 -0.328003C166.954 -0.328003 166.951 -0.328003 166.947 -0.328003C166.944 -0.328003 166.941 -0.328003 166.937 -0.328003C166.934 -0.328003 166.931 -0.328003 166.927 -0.328003C166.924 -0.328003 166.92 -0.328003 166.917 -0.328003C166.914 -0.328003 166.91 -0.328003 166.907 -0.328003C166.903 -0.328003 166.9 -0.328003 166.897 -0.328003C166.893 -0.328003 166.89 -0.328003 166.886 -0.328003C166.883 -0.328003 166.88 -0.328003 166.876 -0.328003C166.873 -0.328003 166.869 -0.328003 166.866 -0.328003C166.863 -0.328003 166.859 -0.328003 166.856 -0.328003C166.853 -0.328003 166.849 -0.328003 166.846 -0.328003C166.842 -0.328003 166.839 -0.328003 166.836 -0.328003C166.832 -0.328003 166.829 -0.328003 166.825 -0.328003C166.822 -0.328003 166.819 -0.328003 166.815 -0.328003C166.812 -0.328003 166.808 -0.328003 166.805 -0.328003C166.802 -0.328003 166.798 -0.328003 166.795 -0.328003C166.791 -0.328003 166.788 -0.328003 166.785 -0.328003C166.781 -0.328003 166.778 -0.328003 166.774 -0.328003C166.771 -0.328003 166.768 -0.328003 166.764 -0.328003C166.761 -0.328003 166.757 -0.328003 166.754 -0.328003C166.751 -0.328003 166.747 -0.328003 166.744 -0.328003C166.74 -0.328003 166.737 -0.328003 166.734 -0.328003C166.73 -0.328003 166.727 -0.328003 166.723 -0.328003C166.72 -0.328003 166.716 -0.328003 166.713 -0.328003C166.71 -0.328003 166.706 -0.328003 166.703 -0.328003C166.699 -0.328003 166.696 -0.328003 166.693 -0.328003C166.689 -0.328003 166.686 -0.328003 166.682 -0.328003C166.679 -0.328003 166.676 -0.328003 166.672 -0.328003C166.669 -0.328003 166.665 -0.328003 166.662 -0.328003C166.658 -0.328003 166.655 -0.328003 166.652 -0.328003C166.648 -0.328003 166.645 -0.328003 166.641 -0.328003C166.638 -0.328003 166.635 -0.328003 166.631 -0.328003C166.628 -0.328003 166.624 -0.328003 166.621 -0.328003C166.618 -0.328003 166.614 -0.328003 166.611 -0.328003C166.607 -0.328003 166.604 -0.328003 166.6 -0.328003C166.597 -0.328003 166.594 -0.328003 166.59 -0.328003C166.587 -0.328003 166.583 -0.328003 166.58 -0.328003C166.576 -0.328003 166.573 -0.328003 166.57 -0.328003C166.566 -0.328003 166.563 -0.328003 166.559 -0.328003C166.556 -0.328003 166.553 -0.328003 166.549 -0.328003C166.546 -0.328003 166.542 -0.328003 166.539 -0.328003C166.535 -0.328003 166.532 -0.328003 166.529 -0.328003C166.525 -0.328003 166.522 -0.328003 166.518 -0.328003C166.515 -0.328003 166.511 -0.328003 166.508 -0.328003C166.505 -0.328003 166.501 -0.328003 166.498 -0.328003C166.494 -0.328003 166.491 -0.328003 166.487 -0.328003C166.484 -0.328003 166.481 -0.328003 166.477 -0.328003C166.474 -0.328003 166.47 -0.328003 166.467 -0.328003C166.463 -0.328003 166.46 -0.328003 166.457 -0.328003C166.453 -0.328003 166.45 -0.328003 166.446 -0.328003C166.443 -0.328003 166.439 -0.328003 166.436 -0.328003C166.432 -0.328003 166.429 -0.328003 166.426 -0.328003C166.422 -0.328003 166.419 -0.328003 166.415 -0.328003C166.412 -0.328003 166.408 -0.328003 166.405 -0.328003C166.402 -0.328003 166.398 -0.328003 166.395 -0.328003C166.391 -0.328003 166.388 -0.328003 166.384 -0.328003C166.381 -0.328003 166.377 -0.328003 166.374 -0.328003C166.371 -0.328003 166.367 -0.328003 166.364 -0.328003C166.36 -0.328003 166.357 -0.328003 166.353 -0.328003C166.35 -0.328003 166.347 -0.328003 166.343 -0.328003C166.34 -0.328003 166.336 -0.328003 166.333 -0.328003C166.329 -0.328003 166.326 -0.328003 166.322 -0.328003C166.319 -0.328003 166.316 -0.328003 166.312 -0.328003C166.309 -0.328003 166.305 -0.328003 166.302 -0.328003C166.298 -0.328003 166.295 -0.328003 166.291 -0.328003C166.288 -0.328003 166.284 -0.328003 166.281 -0.328003C166.278 -0.328003 166.274 -0.328003 166.271 -0.328003C166.267 -0.328003 166.264 -0.328003 166.26 -0.328003C166.257 -0.328003 166.253 -0.328003 166.25 -0.328003C166.247 -0.328003 166.243 -0.328003 166.24 -0.328003C166.236 -0.328003 166.233 -0.328003 166.229 -0.328003C166.226 -0.328003 166.222 -0.328003 166.219 -0.328003C166.215 -0.328003 166.212 -0.328003 166.209 -0.328003C166.205 -0.328003 166.202 -0.328003 166.198 -0.328003C166.195 -0.328003 166.191 -0.328003 166.188 -0.328003C166.184 -0.328003 166.181 -0.328003 166.177 -0.328003C166.174 -0.328003 166.17 -0.328003 166.167 -0.328003C166.164 -0.328003 166.16 -0.328003 166.157 -0.328003C166.153 -0.328003 166.15 -0.328003 166.146 -0.328003C166.143 -0.328003 166.139 -0.328003 166.136 -0.328003C166.132 -0.328003 166.129 -0.328003 166.125 -0.328003C166.122 -0.328003 166.119 -0.328003 166.115 -0.328003C166.112 -0.328003 166.108 -0.328003 166.105 -0.328003C166.101 -0.328003 166.098 -0.328003 166.094 -0.328003C166.091 -0.328003 166.087 -0.328003 166.084 -0.328003C166.08 -0.328003 166.077 -0.328003 166.074 -0.328003C166.07 -0.328003 166.067 -0.328003 166.063 -0.328003C166.06 -0.328003 166.056 -0.328003 166.053 -0.328003C166.049 -0.328003 166.046 -0.328003 166.042 -0.328003C166.039 -0.328003 166.035 -0.328003 166.032 -0.328003C166.028 -0.328003 166.025 -0.328003 166.021 -0.328003C166.018 -0.328003 166.014 -0.328003 166.011 -0.328003C166.008 -0.328003 166.004 -0.328003 166.001 -0.328003C165.997 -0.328003 165.994 -0.328003 165.99 -0.328003C165.987 -0.328003 165.983 -0.328003 165.98 -0.328003C165.976 -0.328003 165.973 -0.328003 165.969 -0.328003C165.966 -0.328003 165.962 -0.328003 165.959 -0.328003C165.955 -0.328003 165.952 -0.328003 165.948 -0.328003C165.945 -0.328003 165.941 -0.328003 165.938 -0.328003C165.934 -0.328003 165.931 -0.328003 165.928 -0.328003C165.924 -0.328003 165.921 -0.328003 165.917 -0.328003C165.914 -0.328003 165.91 -0.328003 165.907 -0.328003C165.903 -0.328003 165.9 -0.328003 165.896 -0.328003C165.893 -0.328003 165.889 -0.328003 165.886 -0.328003C165.882 -0.328003 165.879 -0.328003 165.875 -0.328003C165.872 -0.328003 165.868 -0.328003 165.865 -0.328003C165.861 -0.328003 165.858 -0.328003 165.854 -0.328003C165.851 -0.328003 165.847 -0.328003 165.844 -0.328003C165.84 -0.328003 165.837 -0.328003 165.833 -0.328003C165.83 -0.328003 165.826 -0.328003 165.823 -0.328003C165.819 -0.328003 165.816 -0.328003 165.812 -0.328003C165.809 -0.328003 165.805 -0.328003 165.802 -0.328003C165.798 -0.328003 165.795 -0.328003 165.791 -0.328003C165.788 -0.328003 165.784 -0.328003 165.781 -0.328003C165.777 -0.328003 165.774 -0.328003 165.77 -0.328003C165.767 -0.328003 165.763 -0.328003 165.76 -0.328003C165.756 -0.328003 165.753 -0.328003 165.75 -0.328003C165.746 -0.328003 165.743 -0.328003 165.739 -0.328003C165.736 -0.328003 165.732 -0.328003 165.729 -0.328003C165.725 -0.328003 165.721 -0.328003 165.718 -0.328003C165.714 -0.328003 165.711 -0.328003 165.707 -0.328003C165.704 -0.328003 165.7 -0.328003 165.697 -0.328003C165.693 -0.328003 165.69 -0.328003 165.686 -0.328003C165.683 -0.328003 165.679 -0.328003 165.676 -0.328003C165.672 -0.328003 165.669 -0.328003 165.665 -0.328003C165.662 -0.328003 165.658 -0.328003 165.655 -0.328003C165.651 -0.328003 165.648 -0.328003 165.644 -0.328003C165.641 -0.328003 165.637 -0.328003 165.634 -0.328003C165.63 -0.328003 165.627 -0.328003 165.623 -0.328003C165.62 -0.328003 165.616 -0.328003 165.613 -0.328003C165.609 -0.328003 165.606 -0.328003 165.602 -0.328003C165.599 -0.328003 165.595 -0.328003 165.592 -0.328003C165.588 -0.328003 165.585 -0.328003 165.581 -0.328003C165.578 -0.328003 165.574 -0.328003 165.571 -0.328003C165.567 -0.328003 165.564 -0.328003 165.56 -0.328003C165.557 -0.328003 165.553 -0.328003 165.55 -0.328003C165.546 -0.328003 165.542 -0.328003 165.539 -0.328003C165.535 -0.328003 165.532 -0.328003 165.528 -0.328003C165.525 -0.328003 165.521 -0.328003 165.518 -0.328003C165.514 -0.328003 165.511 -0.328003 165.507 -0.328003C165.504 -0.328003 165.5 -0.328003 165.497 -0.328003C165.493 -0.328003 165.49 -0.328003 165.486 -0.328003C165.483 -0.328003 165.479 -0.328003 165.476 -0.328003C165.472 -0.328003 165.469 -0.328003 165.465 -0.328003C165.461 -0.328003 165.458 -0.328003 165.454 -0.328003C165.451 -0.328003 165.447 -0.328003 165.444 -0.328003C165.44 -0.328003 165.437 -0.328003 165.433 -0.328003C165.43 -0.328003 165.426 -0.328003 165.423 -0.328003C165.419 -0.328003 165.416 -0.328003 165.412 -0.328003C165.409 -0.328003 165.405 -0.328003 165.402 -0.328003C165.398 -0.328003 165.394 -0.328003 165.391 -0.328003C165.387 -0.328003 165.384 -0.328003 165.38 -0.328003C165.377 -0.328003 165.373 -0.328003 165.37 -0.328003C165.366 -0.328003 165.363 -0.328003 165.359 -0.328003C165.356 -0.328003 165.352 -0.328003 165.348 -0.328003C165.345 -0.328003 165.341 -0.328003 165.338 -0.328003C165.334 -0.328003 165.331 -0.328003 165.327 -0.328003C165.324 -0.328003 165.32 -0.328003 165.317 -0.328003C165.313 -0.328003 165.31 -0.328003 165.306 -0.328003C165.302 -0.328003 165.299 -0.328003 165.295 -0.328003C165.292 -0.328003 165.288 -0.328003 165.285 -0.328003C165.281 -0.328003 165.278 -0.328003 165.274 -0.328003C165.271 -0.328003 165.267 -0.328003 165.264 -0.328003C165.26 -0.328003 165.256 -0.328003 165.253 -0.328003C165.249 -0.328003 165.246 -0.328003 165.242 -0.328003C165.239 -0.328003 165.235 -0.328003 165.232 -0.328003C165.228 -0.328003 165.225 -0.328003 165.221 -0.328003C165.217 -0.328003 165.214 -0.328003 165.21 -0.328003C165.207 -0.328003 165.203 -0.328003 165.2 -0.328003C165.196 -0.328003 165.193 -0.328003 165.189 -0.328003C165.185 -0.328003 165.182 -0.328003 165.178 -0.328003C165.175 -0.328003 165.171 -0.328003 165.168 -0.328003C165.164 -0.328003 165.161 -0.328003 165.157 -0.328003C165.154 -0.328003 165.15 -0.328003 165.146 -0.328003C165.143 -0.328003 165.139 -0.328003 165.136 -0.328003C165.132 -0.328003 165.129 -0.328003 165.125 -0.328003C165.122 -0.328003 165.118 -0.328003 165.114 -0.328003C165.111 -0.328003 165.107 -0.328003 165.104 -0.328003C165.1 -0.328003 165.097 -0.328003 165.093 -0.328003C165.089 -0.328003 165.086 -0.328003 165.082 -0.328003C165.079 -0.328003 165.075 -0.328003 165.072 -0.328003C165.068 -0.328003 165.065 -0.328003 165.061 -0.328003C165.057 -0.328003 165.054 -0.328003 165.05 -0.328003C165.047 -0.328003 165.043 -0.328003 165.04 -0.328003C165.036 -0.328003 165.032 -0.328003 165.029 -0.328003C165.025 -0.328003 165.022 -0.328003 165.018 -0.328003C165.015 -0.328003 165.011 -0.328003 165.008 -0.328003C165.004 -0.328003 165 -0.328003 164.997 -0.328003C164.993 -0.328003 164.99 -0.328003 164.986 -0.328003C164.983 -0.328003 164.979 -0.328003 164.975 -0.328003C164.972 -0.328003 164.968 -0.328003 164.965 -0.328003C164.961 -0.328003 164.958 -0.328003 164.954 -0.328003C164.95 -0.328003 164.947 -0.328003 164.943 -0.328003C164.94 -0.328003 164.936 -0.328003 164.933 -0.328003C164.929 -0.328003 164.925 -0.328003 164.922 -0.328003C164.918 -0.328003 164.915 -0.328003 164.911 -0.328003C164.908 -0.328003 164.904 -0.328003 164.9 -0.328003C164.897 -0.328003 164.893 -0.328003 164.89 -0.328003C164.886 -0.328003 164.882 -0.328003 164.879 -0.328003C164.875 -0.328003 164.872 -0.328003 164.868 -0.328003C164.865 -0.328003 164.861 -0.328003 164.857 -0.328003C164.854 -0.328003 164.85 -0.328003 164.847 -0.328003C164.843 -0.328003 164.84 -0.328003 164.836 -0.328003C164.832 -0.328003 164.829 -0.328003 164.825 -0.328003C164.822 -0.328003 164.818 -0.328003 164.814 -0.328003C164.811 -0.328003 164.807 -0.328003 164.804 -0.328003C164.8 -0.328003 164.796 -0.328003 164.793 -0.328003C164.789 -0.328003 164.786 -0.328003 164.782 -0.328003C164.779 -0.328003 164.775 -0.328003 164.771 -0.328003C164.768 -0.328003 164.764 -0.328003 164.761 -0.328003C164.757 -0.328003 164.753 -0.328003 164.75 -0.328003C164.746 -0.328003 164.743 -0.328003 164.739 -0.328003C164.735 -0.328003 164.732 -0.328003 164.728 -0.328003C164.725 -0.328003 164.721 -0.328003 164.718 -0.328003C164.714 -0.328003 164.71 -0.328003 164.707 -0.328003C164.703 -0.328003 164.7 -0.328003 164.696 -0.328003C164.692 -0.328003 164.689 -0.328003 164.685 -0.328003C164.682 -0.328003 164.678 -0.328003 164.674 -0.328003C164.671 -0.328003 164.667 -0.328003 164.664 -0.328003C164.66 -0.328003 164.656 -0.328003 164.653 -0.328003C164.649 -0.328003 164.646 -0.328003 164.642 -0.328003C164.638 -0.328003 164.635 -0.328003 164.631 -0.328003C164.628 -0.328003 164.624 -0.328003 164.62 -0.328003C164.617 -0.328003 164.613 -0.328003 164.61 -0.328003C164.606 -0.328003 164.602 -0.328003 164.599 -0.328003C164.595 -0.328003 164.592 -0.328003 164.588 -0.328003C164.584 -0.328003 164.581 -0.328003 164.577 -0.328003C164.573 -0.328003 164.57 -0.328003 164.566 -0.328003C164.563 -0.328003 164.559 -0.328003 164.555 -0.328003C164.552 -0.328003 164.548 -0.328003 164.545 -0.328003C164.541 -0.328003 164.537 -0.328003 164.534 -0.328003C164.53 -0.328003 164.527 -0.328003 164.523 -0.328003C164.519 -0.328003 164.516 -0.328003 164.512 -0.328003C164.509 -0.328003 164.505 -0.328003 164.501 -0.328003C164.498 -0.328003 164.494 -0.328003 164.49 -0.328003C164.487 -0.328003 164.483 -0.328003 164.48 -0.328003C164.476 -0.328003 164.472 -0.328003 164.469 -0.328003C164.465 -0.328003 164.462 -0.328003 164.458 -0.328003C164.454 -0.328003 164.451 -0.328003 164.447 -0.328003C164.443 -0.328003 164.44 -0.328003 164.436 -0.328003C164.433 -0.328003 164.429 -0.328003 164.425 -0.328003C164.422 -0.328003 164.418 -0.328003 164.414 -0.328003C164.411 -0.328003 164.407 -0.328003 164.404 -0.328003C164.4 -0.328003 164.396 -0.328003 164.393 -0.328003C164.389 -0.328003 164.385 -0.328003 164.382 -0.328003C164.378 -0.328003 164.375 -0.328003 164.371 -0.328003C164.367 -0.328003 164.364 -0.328003 164.36 -0.328003C164.356 -0.328003 164.353 -0.328003 164.349 -0.328003C164.346 -0.328003 164.342 -0.328003 164.338 -0.328003C164.335 -0.328003 164.331 -0.328003 164.327 -0.328003C164.324 -0.328003 164.32 -0.328003 164.317 -0.328003C164.313 -0.328003 164.309 -0.328003 164.306 -0.328003C164.302 -0.328003 164.298 -0.328003 164.295 -0.328003C164.291 -0.328003 164.288 -0.328003 164.284 -0.328003C164.28 -0.328003 164.277 -0.328003 164.273 -0.328003C164.269 -0.328003 164.266 -0.328003 164.262 -0.328003C164.258 -0.328003 164.255 -0.328003 164.251 -0.328003C164.248 -0.328003 164.244 -0.328003 164.24 -0.328003C164.237 -0.328003 164.233 -0.328003 164.229 -0.328003C164.226 -0.328003 164.222 -0.328003 164.218 -0.328003C164.215 -0.328003 164.211 -0.328003 164.208 -0.328003C164.204 -0.328003 164.2 -0.328003 164.197 -0.328003C164.193 -0.328003 164.189 -0.328003 164.186 -0.328003C164.182 -0.328003 164.178 -0.328003 164.175 -0.328003C164.171 -0.328003 164.167 -0.328003 164.164 -0.328003C164.16 -0.328003 164.157 -0.328003 164.153 -0.328003C164.149 -0.328003 164.146 -0.328003 164.142 -0.328003C164.138 -0.328003 164.135 -0.328003 164.131 -0.328003C164.127 -0.328003 164.124 -0.328003 164.12 -0.328003C164.116 -0.328003 164.113 -0.328003 164.109 -0.328003C164.106 -0.328003 164.102 -0.328003 164.098 -0.328003C164.095 -0.328003 164.091 -0.328003 164.087 -0.328003C164.084 -0.328003 164.08 -0.328003 164.076 -0.328003C164.073 -0.328003 164.069 -0.328003 164.065 -0.328003C164.062 -0.328003 164.058 -0.328003 164.054 -0.328003C164.051 -0.328003 164.047 -0.328003 164.043 -0.328003C164.04 -0.328003 164.036 -0.328003 164.032 -0.328003C164.029 -0.328003 164.025 -0.328003 164.022 -0.328003C164.018 -0.328003 164.014 -0.328003 164.011 -0.328003C164.007 -0.328003 164.003 -0.328003 164 -0.328003C163.996 -0.328003 163.992 -0.328003 163.989 -0.328003C163.985 -0.328003 163.981 -0.328003 163.978 -0.328003C163.974 -0.328003 163.97 -0.328003 163.967 -0.328003C163.963 -0.328003 163.959 -0.328003 163.956 -0.328003C163.952 -0.328003 163.948 -0.328003 163.945 -0.328003C163.941 -0.328003 163.937 -0.328003 163.934 -0.328003C163.93 -0.328003 163.926 -0.328003 163.923 -0.328003C163.919 -0.328003 163.915 -0.328003 163.912 -0.328003C163.908 -0.328003 163.904 -0.328003 163.901 -0.328003C163.897 -0.328003 163.893 -0.328003 163.89 -0.328003C163.886 -0.328003 163.882 -0.328003 163.879 -0.328003C163.875 -0.328003 163.871 -0.328003 163.868 -0.328003C163.864 -0.328003 163.86 -0.328003 163.857 -0.328003C163.853 -0.328003 163.849 -0.328003 163.846 -0.328003C163.842 -0.328003 163.838 -0.328003 163.835 -0.328003C163.831 -0.328003 163.827 -0.328003 163.824 -0.328003C163.82 -0.328003 163.816 -0.328003 163.813 -0.328003C163.809 -0.328003 163.805 -0.328003 163.802 -0.328003C163.798 -0.328003 163.794 -0.328003 163.791 -0.328003C163.787 -0.328003 163.783 -0.328003 163.779 -0.328003C163.776 -0.328003 163.772 -0.328003 163.768 -0.328003C163.765 -0.328003 163.761 -0.328003 163.757 -0.328003C163.754 -0.328003 163.75 -0.328003 163.746 -0.328003C163.743 -0.328003 163.739 -0.328003 163.735 -0.328003C163.732 -0.328003 163.728 -0.328003 163.724 -0.328003C163.721 -0.328003 163.717 -0.328003 163.713 -0.328003C163.71 -0.328003 163.706 -0.328003 163.702 -0.328003C163.698 -0.328003 163.695 -0.328003 163.691 -0.328003C163.687 -0.328003 163.684 -0.328003 163.68 -0.328003C163.676 -0.328003 163.673 -0.328003 163.669 -0.328003C163.665 -0.328003 163.662 -0.328003 163.658 -0.328003C163.654 -0.328003 163.651 -0.328003 163.647 -0.328003C163.643 -0.328003 163.639 -0.328003 163.636 -0.328003C163.632 -0.328003 163.628 -0.328003 163.625 -0.328003C163.621 -0.328003 163.617 -0.328003 163.614 -0.328003C163.61 -0.328003 163.606 -0.328003 163.603 -0.328003C163.599 -0.328003 163.595 -0.328003 163.591 -0.328003C163.588 -0.328003 163.584 -0.328003 163.58 -0.328003C163.577 -0.328003 163.573 -0.328003 163.569 -0.328003C163.566 -0.328003 163.562 -0.328003 163.558 -0.328003C163.555 -0.328003 163.551 -0.328003 163.547 -0.328003C163.543 -0.328003 163.54 -0.328003 163.536 -0.328003C163.532 -0.328003 163.529 -0.328003 163.525 -0.328003C163.521 -0.328003 163.518 -0.328003 163.514 -0.328003C163.51 -0.328003 163.506 -0.328003 163.503 -0.328003C163.499 -0.328003 163.495 -0.328003 163.492 -0.328003C163.488 -0.328003 163.484 -0.328003 163.481 -0.328003C163.477 -0.328003 163.473 -0.328003 163.469 -0.328003C163.466 -0.328003 163.462 -0.328003 163.458 -0.328003C163.455 -0.328003 163.451 -0.328003 163.447 -0.328003C163.443 -0.328003 163.44 -0.328003 163.436 -0.328003C163.432 -0.328003 163.429 -0.328003 163.425 -0.328003C163.421 -0.328003 163.417 -0.328003 163.414 -0.328003C163.41 -0.328003 163.406 -0.328003 163.403 -0.328003C163.399 -0.328003 163.395 -0.328003 163.392 -0.328003C163.388 -0.328003 163.384 -0.328003 163.38 -0.328003C163.377 -0.328003 163.373 -0.328003 163.369 -0.328003C163.366 -0.328003 163.362 -0.328003 163.358 -0.328003C163.354 -0.328003 163.351 -0.328003 163.347 -0.328003C163.343 -0.328003 163.34 -0.328003 163.336 -0.328003C163.332 -0.328003 163.328 -0.328003 163.325 -0.328003C163.321 -0.328003 163.317 -0.328003 163.314 -0.328003C163.31 -0.328003 163.306 -0.328003 163.302 -0.328003C163.299 -0.328003 163.295 -0.328003 163.291 -0.328003C163.287 -0.328003 163.284 -0.328003 163.28 -0.328003C163.276 -0.328003 163.273 -0.328003 163.269 -0.328003C163.265 -0.328003 163.261 -0.328003 163.258 -0.328003C163.254 -0.328003 163.25 -0.328003 163.247 -0.328003C163.243 -0.328003 163.239 -0.328003 163.235 -0.328003C163.232 -0.328003 163.228 -0.328003 163.224 -0.328003C163.22 -0.328003 163.217 -0.328003 163.213 -0.328003C163.209 -0.328003 163.206 -0.328003 163.202 -0.328003C163.198 -0.328003 163.194 -0.328003 163.191 -0.328003C163.187 -0.328003 163.183 -0.328003 163.179 -0.328003C163.176 -0.328003 163.172 -0.328003 163.168 -0.328003C163.164 -0.328003 163.161 -0.328003 163.157 -0.328003C163.153 -0.328003 163.15 -0.328003 163.146 -0.328003C163.142 -0.328003 163.138 -0.328003 163.135 -0.328003C163.131 -0.328003 163.127 -0.328003 163.123 -0.328003C163.12 -0.328003 163.116 -0.328003 163.112 -0.328003C163.108 -0.328003 163.105 -0.328003 163.101 -0.328003C163.097 -0.328003 163.094 -0.328003 163.09 -0.328003C163.086 -0.328003 163.082 -0.328003 163.079 -0.328003C163.075 -0.328003 163.071 -0.328003 163.067 -0.328003C163.064 -0.328003 163.06 -0.328003 163.056 -0.328003C163.052 -0.328003 163.049 -0.328003 163.045 -0.328003C163.041 -0.328003 163.037 -0.328003 163.034 -0.328003C163.03 -0.328003 163.026 -0.328003 163.022 -0.328003C163.019 -0.328003 163.015 -0.328003 163.011 -0.328003C163.007 -0.328003 163.004 -0.328003 163 -0.328003C162.996 -0.328003 162.992 -0.328003 162.989 -0.328003C162.985 -0.328003 162.981 -0.328003 162.977 -0.328003C162.974 -0.328003 162.97 -0.328003 162.966 -0.328003C162.963 -0.328003 162.959 -0.328003 162.955 -0.328003V1.672ZM168.356 1.67168C170.054 1.62925 171.837 1.608 173.707 1.608V-0.392002C171.822 -0.392002 170.022 -0.370584 168.306 -0.327691L168.356 1.67168ZM172.707 0.607998V43.104H174.707V0.607998H172.707ZM173.707 42.104H165.259V44.104H173.707V42.104ZM166.259 43.104V4.128H164.259V43.104H166.259ZM188.92 42.72L188.213 42.0129L188.204 42.0215L188.196 42.0303L188.92 42.72ZM182.52 42.72L183.244 42.0303L183.244 42.0303L182.52 42.72ZM182.52 36.384L183.227 37.0911L183.227 37.0911L182.52 36.384ZM188.92 36.384L188.196 37.0737L188.213 37.0913L188.23 37.1081L188.92 36.384ZM189.264 39.52C189.264 40.485 188.926 41.2994 188.213 42.0129L189.627 43.4271C190.706 42.3486 191.264 41.0296 191.264 39.52H189.264ZM188.196 42.0303C187.538 42.7206 186.737 43.064 185.72 43.064V45.064C187.263 45.064 188.595 44.5114 189.644 43.4097L188.196 42.0303ZM185.72 43.064C184.703 43.064 183.902 42.7206 183.244 42.0303L181.796 43.4097C182.845 44.5114 184.177 45.064 185.72 45.064V43.064ZM183.244 42.0303C182.568 41.3203 182.24 40.5006 182.24 39.52H180.24C180.24 41.0141 180.765 42.3277 181.796 43.4097L183.244 42.0303ZM182.24 39.52C182.24 38.5404 182.567 37.7517 183.227 37.0911L181.813 35.6769C180.767 36.723 180.24 38.025 180.24 39.52H182.24ZM183.227 37.0911C183.941 36.3776 184.755 36.04 185.72 36.04V34.04C184.21 34.04 182.891 34.5984 181.813 35.6769L183.227 37.0911ZM185.72 36.04C186.737 36.04 187.538 36.3834 188.196 37.0737L189.644 35.6943C188.595 34.5926 187.263 34.04 185.72 34.04V36.04ZM188.23 37.1081C188.928 37.7727 189.264 38.5563 189.264 39.52H191.264C191.264 38.009 190.704 36.7019 189.61 35.6599L188.23 37.1081Z" fill="#616DBE" mask="url(#path-2-outside-1_118_179)"/>
</svg>
