<svg width="392" height="407" viewBox="0 0 392 407" fill="none" xmlns="http://www.w3.org/2000/svg">
<path d="M102.514 124.482C102.855 124.55 102.631 125.16 102.285 125.126C101.94 125.092 101.733 124.733 101.605 124.41C100.436 121.457 101.045 118.026 102.559 115.234C104.072 112.443 106.402 110.189 108.796 108.102C110.223 106.859 111.703 105.647 113.4 104.809C118.452 102.316 124.875 103.658 129.167 107.307C133.46 110.956 135.776 116.547 136.356 122.152" stroke="white" stroke-width="1.3"/>
<path d="M90.576 137.449C84.1544 141.345 77.4578 145.338 69.9869 146.117C64.2377 146.716 58.4686 145.354 52.688 145.321C43.789 145.271 35.1633 148.357 26.2932 149.073C17.4231 149.789 7.21745 147.271 3.00875 139.43C-1.70991 130.639 3.15894 120.072 4.71048 110.216C7.1886 94.4764 1.04314 77.0629 8.73717 63.1105C11.7842 57.5857 16.7163 53.3109 19.9479 47.8922C23.1214 42.5723 24.6034 36.2402 28.5965 31.505C33.7569 25.3849 42.1327 23.0447 48.2306 17.8581C51.1763 15.3524 53.5339 12.2281 56.3706 9.59936C64.7171 1.8646 77.2974 -0.979676 88.1598 2.41147C99.0218 5.80303 107.749 15.2993 110.213 26.4087" stroke="white" stroke-width="1.3"/>
<path d="M121.969 140.274C121.574 137.143 118.534 135.041 115.568 133.965C112.602 132.888 109.342 132.365 106.821 130.467C103.418 127.905 102.151 123.485 100.4 119.601C95.6714 109.109 85.8904 101.035 74.6919 98.3802C68.171 96.8338 61.3713 97.0488 54.7256 96.1812C48.0799 95.3136 41.1767 93.093 36.9375 87.9021C39.1704 98.7009 48.3918 106.434 57.0417 113.275L78.4912 130.237C82.212 133.18 86.1046 136.206 90.7355 137.234C93.1351 137.767 95.6187 137.732 98.0659 137.963M98.0659 137.963C108.257 138.922 119.316 144.284 128.026 138.908C136.469 133.697 137.318 121.279 144.77 114.728L144.998 114.439C155.724 111.915 159.932 113.343 161.726 115.28C162.301 115.901 163.57 117.68 165.678 117.911C167.162 118.073 168.515 117.142 169.945 116.713C175.993 114.901 181.025 122.018 187.234 123.172C189.357 123.567 191.541 123.235 193.701 123.278C203.908 123.48 211.917 131.709 218.698 139.341C219.536 140.285 220.421 141.338 220.469 142.6C220.545 144.619 218.51 146.025 216.645 146.8C201.29 153.174 181.826 144.72 167.935 153.854C164.434 156.157 161.646 159.407 158.206 161.802C153.727 164.92 148.093 166.648 144.791 170.992C139.876 177.455 141.61 187.844 135.408 193.084C128.246 199.135 114.971 194.252 109.468 201.845C107.866 204.055 107.387 206.861 106.316 209.372C104.034 214.721 98.7918 218.691 93.0239 219.438C87.2561 220.185 81.1755 217.681 77.6062 213.089C74.4963 209.089 73.2011 203.707 69.3381 200.428C65.7942 197.42 60.8503 196.827 56.617 194.906C50.7549 192.245 46.2348 186.796 44.7032 180.543C44.245 178.672 44.0583 176.624 44.8708 174.878C45.5284 173.463 46.7596 172.413 47.9713 171.432C62.7239 159.484 71.8795 155.963 74.1332 154.865C80.3614 151.831 88.8454 146.767 98.0659 137.963Z" stroke="white" stroke-width="1.3"/>
<path d="M190.265 122.49C193.236 122.45 194.586 121.44 195.228 120.736C195.65 120.273 196.366 120.086 197.602 115.768C197.822 115.001 198.039 114.201 198.563 113.599C201.371 110.378 207.734 116.52 210.526 113.285C211.714 111.909 211.202 109.693 212.159 108.148C213.313 106.287 215.928 106.213 218.116 106.169C222.215 106.085 226.276 105.361 230.151 104.023C231.489 103.561 232.916 102.922 233.531 101.647C234.097 100.471 233.805 99.0512 233.242 97.8729C229.973 91.0296 219.951 90.6992 214.959 84.9904C212.418 82.0854 213.293 81.3026 210.858 79.0921C205.27 74.0211 197.351 74.6017 195.588 74.7307C185.963 75.4354 179.896 81.936 178.388 83.652" stroke="white" stroke-width="1.3"/>
<path d="M37.0933 88.6013C36.8439 88.0082 36.6718 87.3855 36.5812 86.7486C36.0937 83.2709 38.2562 80.3367 39.6223 78.545C44.604 72.0117 46.1674 71.3957 48.0966 68.4335C51.1313 63.7734 51.738 58.0097 52.8942 52.5698C54.0507 47.1308 56.1835 41.3659 60.9645 38.5258C66.718 35.1084 73.9716 37.1198 80.6529 37.494C89.8594 38.0095 99.2191 35.0397 106.444 29.3108C109.644 26.7733 112.462 23.7037 116.027 21.7127C120.418 19.2604 125.615 18.6427 130.642 18.7929C135.529 18.9393 145.769 20.0241 164.706 32.5934C172.442 37.7274 182.922 45.6272 193.859 57.1901" stroke="white" stroke-width="1.3"/>
<path d="M132.777 134.381C133.741 130.633 135.862 126.814 136.286 122.572C137.559 111.117 135.862 99.6614 138.832 88.6305C140.953 82.2666 146.893 79.2967 152.408 76.3269C157.075 73.357 158.772 67.8416 161.742 62.7504C167.257 53.4166 179.137 58.5078 188.046 58.932C193.138 58.932 197.38 55.9622 202.047 55.5379C204.168 55.5379 206.29 54.6894 208.515 56.319M208.515 56.319C196.706 60.4072 207.516 55.8094 208.515 56.319ZM208.515 56.319C196.706 60.4072 186.331 70.4067 182.535 82.4257C180.664 88.3497 180.316 96.3941 174.498 100.051C172.558 101.271 170.45 101.788 168.279 102.035C163.621 102.565 162.617 101.876 158.566 102.757C156.034 103.307 152.457 104.086 150.454 107.122C148.856 109.547 149.008 112.28 149.18 113.596" stroke="white" stroke-width="1.3"/>
<path d="M130.79 99.6821C128.719 96.7517 129.088 92.6949 130.453 89.3759C131.818 86.0573 134.041 83.1634 135.614 79.9381C139.487 71.9963 139.017 62.094 134.407 54.5557" stroke="white" stroke-width="1.3"/>
<path d="M105.119 145.001C106.318 147.757 104.353 150.818 102.304 153.016C98.5914 156.994 94.2636 160.349 89.4861 162.954C85.6694 165.033 81.5464 166.646 78.1739 169.387C74.8019 172.129 72.2244 176.402 72.9941 180.68" stroke="white" stroke-width="1.3"/>
<path d="M134.905 138.493C138.306 139.096 141.383 136.409 143.441 133.636C145.5 130.863 147.345 127.624 150.516 126.255C153.022 125.173 155.883 125.487 158.592 125.821L177.993 128.211" stroke="white" stroke-width="1.3"/>
<path d="M77.0463 135.297C74.8982 138.8 70.0311 139.575 66.0129 138.718C61.9942 137.86 58.3197 135.78 54.3074 134.894C48.7165 133.659 42.6219 134.918 37.9788 138.268" stroke="white" stroke-width="1.3"/>
<path d="M142.646 111.644C145.257 107.132 143.422 101.441 143.964 96.2558C144.415 91.9427 146.648 87.8435 150.027 85.1252" stroke="white" stroke-width="1.3"/>
<path d="M105.436 134.699C102.108 133.524 98.9615 131.886 96.0895 129.834C94.7815 128.899 93.4913 127.827 92.812 126.37C92.0348 124.702 92.1638 122.777 92.0636 120.94C91.7183 114.586 88.2622 108.474 82.9958 104.903" stroke="white" stroke-width="1.3"/>
<path d="M101.748 110.272C101.396 107.907 99.548 106.028 97.5306 104.745C95.5128 103.462 93.2447 102.595 91.2842 101.226C87.8408 98.8213 85.6181 95.0789 83.5002 91.4527L78.4718 82.8435" stroke="white" stroke-width="1.3"/>
<path d="M134.401 112.434C134.532 112.025 134.631 111.611 134.686 111.192C134.644 111.371 134.602 111.555 134.56 111.741C134.509 111.968 134.456 112.2 134.401 112.434Z" fill="#FFBAFC" stroke="white" stroke-width="1.3"/>
<path d="M114.398 103.971C114.431 104.264 114.498 104.551 114.588 104.84C114.53 104.537 114.472 104.25 114.398 103.971Z" fill="#FFBAFC" stroke="white" stroke-width="1.3"/>
<path d="M125.005 103.118C124.936 102.725 124.843 102.344 124.712 101.975C124.791 102.309 124.878 102.639 124.968 102.979C124.98 103.025 124.992 103.072 125.005 103.118Z" fill="#FFBAFC" stroke="white" stroke-width="1.3"/>
<path d="M103.836 109.231C103.799 109.068 103.762 108.909 103.726 108.756C103.763 109.091 103.844 109.422 103.956 109.748C103.914 109.573 103.874 109.399 103.836 109.231Z" fill="#FFBAFC" stroke="white" stroke-width="1.3"/>
<path d="M105.594 122.847C105.486 122.669 105.386 122.521 105.275 122.393C105.357 122.557 105.464 122.703 105.594 122.847Z" fill="#FFBAFC" stroke="white" stroke-width="1.3"/>
<path d="M119.989 121.608C120.008 121.406 120.008 121.216 119.978 121.026C119.964 121.205 119.971 121.393 119.989 121.608Z" fill="#FFBAFC" stroke="white" stroke-width="1.3"/>
<path d="M112.03 117.593C111.999 117.682 111.987 117.789 111.996 117.925C112.028 117.775 112.038 117.694 112.032 117.625L112.031 117.612L112.031 117.598C112.031 117.596 112.03 117.594 112.03 117.593Z" fill="#FFBAFC" stroke="white" stroke-width="1.3"/>
<path d="M130.099 128.625C130.178 128.444 130.234 128.268 130.259 128.085C130.195 128.246 130.148 128.42 130.099 128.625Z" fill="#FFBAFC" stroke="white" stroke-width="1.3"/>
<path d="M145.898 168.985C158.383 172.881 166.297 184.928 169.081 197.185C172.737 213.281 169.191 230.184 165.324 245.89C161.218 262.567 155.833 278.896 151.769 295.583C147.711 312.242 144.966 329.49 146.559 346.668C148.095 363.242 154.332 378.897 156.626 395.338C156.921 397.426 157.141 399.525 157.287 401.629" stroke="white" stroke-width="1.3"/>
<path d="M166.445 397.255C168.003 402.126 169.618 406.98 171.239 411.83" stroke="white" stroke-width="1.3"/>
<path d="M166.206 154.447C159.293 167.729 171.046 182.172 174.716 194.549C178.788 208.281 178.321 222.915 175.883 236.898C173.356 251.388 168.605 265.327 164.146 279.303C159.634 293.448 155.365 307.819 154.055 322.673C152.726 337.757 154.507 352.926 157.781 367.658C158.191 369.504 158.625 371.344 159.078 373.179" stroke="white" stroke-width="1.3"/>
<path d="M259.98 245.036C269.779 246.517 277.72 248.766 283.403 250.674C283.403 250.674 304.034 257.596 320.697 272.629C322.824 274.547 325.529 277.667 326.976 282.313C328.131 286.02 327.804 290.36 325.362 293.378C321.117 298.626 312.958 297.87 306.872 300.789C296.973 305.536 294.245 318.992 285.009 324.927C282.962 326.242 280.638 327.151 278.809 328.754C273.759 333.177 274.056 341.148 270.557 346.876C268.094 350.908 263.563 354.444 264.204 359.125C264.586 361.921 266.776 364.061 268.262 366.46C271.571 371.804 271.389 378.572 270.453 384.787C269.128 393.573 266.526 402.118 262.731 410.151C271.087 411.78 277.423 401.221 285.932 400.949C289.865 400.823 293.524 402.96 297.433 403.411C307.831 404.609 316.003 394.096 326.318 392.327C330.781 391.562 336.201 392.142 338.953 388.547C340.22 386.891 340.549 384.709 341.536 382.873C344.905 376.601 354.015 376.627 359.58 372.187C368.005 365.466 365.755 351.074 373.499 343.578C375.587 341.557 378.286 340.185 380.108 337.92C382.938 334.403 383.088 329.308 381.633 325.035C380.432 321.509 378.656 318.806 374.569 313.559C372.12 310.415 371.004 309.525 369.063 306.511C367.495 304.073 366.179 301.481 365.136 298.776" stroke="white" stroke-width="1.3"/>
<path d="M299.215 257.779C310.106 260.198 316.985 264.528 321.195 267.932C329.382 274.55 331.595 280.789 339.647 282.456C344.031 283.364 348.543 282.132 352.85 280.91C357.523 279.585 362.446 278.109 365.736 274.536C367.916 272.167 369.16 269.093 371.092 266.518C374.279 262.272 379.396 259.536 384.696 259.246C385.512 259.201 386.395 259.231 387.049 259.721C387.666 260.183 387.95 260.953 388.202 261.681C390.053 267.001 391.924 272.721 390.452 278.159C389.743 280.775 388.282 283.192 387.993 285.887C387.361 291.797 392.469 297.701 390.39 303.27C388.946 307.135 384.263 308.424 382.67 308.905C375.735 311.001 369.892 307.086 369.063 306.511" stroke="white" stroke-width="1.3"/>
<path d="M259.98 245.036C258.809 245.723 257.703 246.514 256.675 247.4C251.419 251.935 251.11 256.535 247.142 261.301C244.604 264.349 242.544 265.203 239.139 267.406C228.554 274.253 218.944 284.272 217.168 296.753C216.15 303.911 217.803 311.15 219.445 318.191L224.693 340.688C225.759 345.259 226.833 349.852 228.608 354.197C233.66 366.562 240.124 371.598 247.522 381.251C252.212 387.369 258.14 396.69 262.731 410.151" stroke="white" stroke-width="1.3"/>
<path d="M268.03 245.859C269.521 239.373 275.711 234.278 282.363 234.062C286.073 233.941 289.717 235.175 293.429 235.142C296.946 235.112 300.341 233.949 303.799 233.312C311.371 231.917 318.232 232.926 329.012 235.46C352.207 240.91 382.049 257.739 384.696 259.246" stroke="white" stroke-width="1.3"/>
<path d="M272.19 343.68C273.255 346.395 275.692 351.396 280.949 355.133C282.98 356.577 285.959 358.696 289.78 358.72C292.668 358.739 296.847 358.492 302.307 351.229C308.123 343.493 313.263 334.924 321.158 329.325C324.326 327.079 327.99 325.254 330.102 321.995C331.229 320.258 331.848 318.193 333.207 316.63C335.967 313.455 340.971 313.184 343.964 310.228C346.448 307.776 347.144 303.856 349.832 301.629C353.893 298.265 360.114 300.383 365.137 298.776C371.57 296.719 372.162 292.215 377.425 292.106C380.708 292.038 383.229 293.542 384.318 294.312C389.287 297.825 389.631 303.854 389.666 304.697" stroke="white" stroke-width="1.3"/>
<path d="M270.801 373.923C271.362 375.868 273.365 381.864 279.345 385.758C280.862 386.746 286.09 390.725 291.471 388.777C294.547 387.663 296.841 385.005 299.849 383.721C304.956 381.542 310.823 383.724 316.352 383.216C323.028 382.603 328.643 378.164 333.825 373.911C339.056 369.617 344.331 365.279 348.524 359.968C351.641 356.021 354.17 351.528 358.02 348.292C365.727 341.812 368.102 342.882 370.652 338.514C373.066 334.379 372.579 323.818 367.135 313.404C365.305 309.903 362.027 304.705 356.274 299.582" stroke="white" stroke-width="1.3"/>
<path d="M224.747 279.718C220.442 284.724 220.856 292.334 223.178 298.515C225.5 304.696 229.418 310.189 231.641 316.406C235.535 327.294 234.267 340.326 241.555 349.303" stroke="white" stroke-width="1.3"/>
<path d="M306.959 345.284C307.07 345.782 307.186 346.279 307.312 346.774C308.97 353.303 312.281 359.406 316.849 364.358" stroke="white" stroke-width="1.3"/>
<path d="M344.099 310.113C347.328 312.188 349.102 315.88 350.442 319.476C352.415 324.773 353.798 330.272 354.567 335.872" stroke="white" stroke-width="1.3"/>
<path d="M293.419 315.869C293.011 319.291 294.231 322.872 296.645 325.332C298.47 327.192 301.013 328.567 301.865 331.031" stroke="white" stroke-width="1.3"/>
<path d="M268.409 349.303C270.392 358.336 275.939 366.537 283.585 371.74" stroke="white" stroke-width="1.3"/>
<path d="M281.625 387.744C285.694 392.232 291.399 395.202 297.408 395.962" stroke="white" stroke-width="1.3"/>
<path d="M244.576 263.627C234.139 252.875 218.794 240.303 202.939 247.877C188.083 254.973 183.746 273.566 179.875 288.029C175.392 304.781 172.308 321.884 170.227 339.094C168.13 356.431 167.043 373.877 166.521 391.329C166 408.754 166.043 426.191 166.23 443.621C166.253 445.773 166.278 447.925 166.305 450.077" stroke="white" stroke-width="1.3"/>
<path d="M250.432 256.165C232.026 238.194 210.134 228.939 195.004 235.926C183.566 241.209 177.879 253.894 171.941 276.079C167.457 292.83 164.374 309.934 162.293 327.144C160.196 344.481 159.109 361.927 158.587 379.378C157.988 399.397 158.216 423.438 158.296 431.671C158.322 434.383 158.351 436.623 158.371 438.127" stroke="white" stroke-width="1.3"/>
<path d="M157.437 447.037C152.883 420.157 140.592 395.189 126.474 371.866C112.357 348.543 96.2704 326.417 83.0554 302.571C62.8482 266.107 49.5755 225.816 44.1538 184.481" stroke="white" stroke-width="1.3" stroke-linecap="round" stroke-linejoin="round"/>
<path d="M146.663 410.144C144.302 399.754 144.133 388.713 147.212 378.451C148.102 375.486 149.341 372.659 150.509 369.798" stroke="white" stroke-width="1.3" stroke-linecap="round" stroke-linejoin="round"/>
<path d="M96.8975 325.634C94.4809 319.153 96.486 311.913 98.973 305.458C101.46 299.004 104.479 292.426 104.05 285.522C103.687 279.679 100.886 274.314 98.9819 268.778C97.0778 263.241 96.161 256.758 99.2984 251.815" stroke="white" stroke-width="1.3" stroke-linecap="round" stroke-linejoin="round"/>
<path d="M65.5612 266.183C63.445 259.781 66.2888 252.88 66.3432 246.138C66.3856 240.89 64.7276 235.8 63.7276 230.648C62.728 225.496 62.4565 219.863 65.0347 215.292" stroke="white" stroke-width="1.3" stroke-linecap="round" stroke-linejoin="round"/>
<path d="M151.531 424.432C149.875 417.982 143.48 413.079 136.821 413.153C131.253 413.215 126.214 416.313 120.808 417.645C110.884 420.089 99.6643 415.908 93.7603 407.565" stroke="white" stroke-width="1.3" stroke-linecap="round" stroke-linejoin="round"/>
<path d="M120.877 363.049C117.406 358.599 111.845 352.968 103.676 350.28C94.3485 347.211 88.6956 350.309 78.6062 347.963C73.165 346.699 65.7191 343.685 57.6632 335.794" stroke="white" stroke-width="1.3" stroke-linecap="round" stroke-linejoin="round"/>
<path d="M75.4034 287.975C73.7818 282.89 70.0093 278.528 65.21 276.192C61.7395 274.502 57.813 273.844 54.4604 271.932C49.1991 268.931 46.0838 263.314 43.2289 257.971" stroke="white" stroke-width="1.3" stroke-linecap="round" stroke-linejoin="round"/>
<path d="M53.9426 232.748C53.2723 230.34 51.9485 226.94 49.0801 223.981C45.9274 220.729 43.2316 220.405 40.4103 218.153C37.7196 216.005 34.6844 211.92 33.782 203.362" stroke="white" stroke-width="1.3" stroke-linecap="round" stroke-linejoin="round"/>
<path d="M166.705 386.018C169.466 384.442 176.346 384.767 174.249 389.561C173.413 391.471 171.294 391.775 169.91 393.115C168.429 394.547 167.645 396.546 166.592 398.279" stroke="white" stroke-width="1.3" stroke-linecap="round" stroke-linejoin="round"/>
<path d="M155.337 387.617C152.64 389.123 151.22 394.014 155.699 393.689" stroke="white" stroke-width="1.3" stroke-linecap="round" stroke-linejoin="round"/>
<path d="M168.182 364.785C169.824 363.09 171.562 363.533 173.035 365.099C174.518 366.675 175.192 368.21 174.697 370.376C173.861 374.032 170.606 376.729 167.225 378.001" stroke="white" stroke-width="1.3" stroke-linecap="round" stroke-linejoin="round"/>
<path d="M170.558 337.957C172.773 337.674 174.47 339.795 174.046 341.492C172.349 347.856 171.5 354.22 168.374 359.81" stroke="white" stroke-width="1.3" stroke-linecap="round" stroke-linejoin="round"/>
<path d="M163.586 320.171C159.196 323.248 157.499 329.612 161.649 333.367" stroke="white" stroke-width="1.3" stroke-linecap="round" stroke-linejoin="round"/>
<path d="M157.347 301.078C159.287 300.042 161.354 299.264 163.495 298.764C163.968 300.833 164.74 302.816 165.504 304.791" stroke="white" stroke-width="1.3" stroke-linecap="round" stroke-linejoin="round"/>
<path d="M57.0688 195.088C56.9488 196.394 56.5245 197.242 55.676 198.091C54.4032 200.212 55.2517 202.758 56.1002 204.879C56.1002 205.303 56.1002 205.727 55.676 206.152C47.1907 212.94 53.1304 223.971 56.9488 231.608C56.9488 232.032 57.7973 233.305 59.4944 231.608C59.9186 231.183 59.9186 230.335 59.9186 229.486C57.7973 223.547 54.4032 218.455 53.9789 212.091L54.4032 211.667M54.4032 211.667C54.8275 211.667 54.8275 212.091 55.2517 212.091M54.4032 211.667C53.9789 212.091 54.4032 212.516 54.8275 212.516L55.2517 212.091M54.4032 211.667H55.2517C56.9488 213.788 56.1002 218.031 59.0701 219.304C61.6157 218.031 59.0701 214.637 59.0701 212.516C59.0701 210.394 60.7672 209.122 62.4642 207.425C64.1613 205.303 62.8885 202.758 63.3127 200.212C63.737 199.363 64.1613 197.666 65.4341 197.666C69.6767 198.515 69.2524 203.606 70.101 207.425C70.5252 210.819 73.0708 212.94 75.1921 215.486C76.4649 217.607 76.4649 220.577 73.9193 222.274C70.9495 223.971 67.9796 225.244 67.5554 228.638C67.5554 229.486 67.9796 230.335 69.4043 230.82M55.2517 212.091H54.4032C54.5271 211.836 54.6552 211.582 54.7863 211.33C55.2517 211.243 55.2517 211.667 55.2517 212.091ZM69.4043 230.82C68.115 230.826 69.5477 229.111 69.4043 230.82ZM69.4043 230.82C68.2681 228.924 72.6678 229.547 73.4005 229.533C76.4064 229.473 77.1204 226.285 78.3181 224.128C79.9923 225.482 81.9583 227.752 80.6808 229.999C79.6541 231.805 77.2553 232.129 76.1539 233.857C74.857 235.893 76.7742 237.904 76.3326 240.016C75.8396 242.373 73.3809 241.971 71.6084 242.514C69.2024 243.25 69.3937 245.696 70.0713 247.666M70.0713 247.666C69.462 246.805 70.6436 246.712 70.0713 247.666ZM70.0713 247.666C71.3839 245.433 72.7883 244.576 73.8587 244.214C75.151 243.778 75.9516 244.065 77.1314 243.487C78.0042 243.059 78.6363 242.377 79.0988 241.651C79.6724 240.75 80.929 240.568 81.764 241.235C82.3915 241.736 82.8276 242.308 82.7899 242.933C82.7708 243.253 82.6515 243.582 82.4046 243.911C80.6906 246.31 78.977 248.71 78.6053 251.556C78.4902 252.455 78.1644 253.314 77.6544 254.063C77.1445 254.811 76.4648 255.429 75.6707 255.866C72.7607 257.461 69.1748 258.85 70.9495 260.033C72.6465 260.882 74.7679 259.609 76.4649 259.609C76.8892 259.609 77.3135 260.033 77.3135 260.458C77.7377 263.003 75.1921 264.7 73.9193 266.397C69.2524 273.61 77.3135 278.277 80.7076 283.792C82.8289 287.186 82.8289 291.429 84.5259 294.823C85.3745 296.52 86.6473 298.217 88.3443 299.066C89.6171 299.49 91.3142 298.217 91.7384 297.369C92.1627 296.52 92.1627 295.247 91.7384 293.974C89.6171 288.035 87.4958 282.519 84.9502 277.004C84.5259 275.731 84.5259 274.458 85.3745 273.185C86.223 272.761 87.4958 272.337 87.4958 273.185C87.9201 278.701 89.6171 285.913 95.5568 286.762C97.6781 287.186 97.2539 284.216 96.4053 282.519C94.7083 279.974 91.7384 278.277 91.7384 274.883C92.1627 270.64 91.3142 266.821 87.4958 264.276C85.3745 262.155 86.6473 259.185 85.7987 256.639C85.7987 256.215 84.9502 256.215 84.9502 255.791C84.5259 254.094 85.7987 252.397 87.4958 252.821C90.8899 254.094 89.6171 257.912 89.6171 260.882C89.6171 262.155 90.4656 263.852 92.1627 263.427C93.0112 263.003 93.4355 261.73 93.4355 260.882C91.3142 256.639 90.8899 251.548 93.4355 246.881C93.4355 246.457 93.4355 245.608 93.0112 245.184C88.7686 240.941 89.6171 235.426 93.4355 231.183C94.284 229.911 93.8598 228.213 93.606 226.664M93.606 226.664C94.1173 227.689 95.1304 226.957 93.606 226.664ZM93.606 226.664C95.9811 227.365 96.8296 229.911 97.2539 232.456C97.6781 235.426 97.6781 237.972 99.3752 240.517C104.891 243.063 110.83 249.002 107.012 255.366C104.891 258.76 101.497 260.882 101.497 265.124C101.921 267.246 102.164 270.268 105.596 269.326C103.301 265.872 106.982 262.007 108.828 259.284C109.894 257.711 110.88 256.004 112.252 254.672C112.832 254.109 113.903 252.976 114.736 253.412C115.427 253.773 115.52 254.996 115.536 255.685C115.624 259.374 110.798 262.613 112.401 266.204C113.193 267.976 114.687 269.589 114.382 271.673C114.086 273.703 112.458 275.609 111.268 277.198C108.943 280.301 109.526 288.225 109.982 288.459C110.454 285.509 111.069 282.844 113.982 281.484C116.602 280.261 118.907 278.574 119.231 275.478M119.231 275.478C119.083 276.759 121.165 276.989 119.231 275.478ZM119.231 275.478C122.71 277.852 123.134 282.944 121.437 286.762C119.74 289.732 116.77 290.58 114.224 292.702C113.8 293.126 113.376 293.974 113.376 294.823C113.8 299.066 112.103 302.46 108.709 305.005C105.739 307.975 106.714 313.802 106.951 314.25C107.23 314.776 107.69 315.3 107.916 315.516C109.194 311.704 112.46 309.606 115.739 307.662C118.467 305.854 119.74 303.308 121.437 300.763C121.861 300.338 123.134 300.338 123.558 300.763C125.255 302.035 125.255 304.581 124.407 306.702C123.983 307.127 123.558 307.975 123.134 308.824C120.588 311.793 118.891 315.188 117.194 319.006C116.77 319.855 115.921 320.703 114.649 321.127C110.83 321.976 106.163 324.521 106.588 329.188C107.012 332.582 108.709 335.552 109.982 338.522C112.103 341.916 114.649 345.31 117.194 348.28C121.013 352.523 124.407 356.341 128.649 360.16C131.195 363.129 133.316 366.099 135.862 369.493C137.135 371.19 138.832 371.615 140.529 371.19C141.377 370.766 141.802 369.918 141.802 369.069C140.953 364.827 140.105 360.16 143.499 356.766C144.347 352.099 139.68 350.402 137.135 347.432C135.438 344.886 136.286 341.916 136.71 338.946C136.71 338.522 136.286 338.098 136.286 337.674C134.589 335.128 129.074 330.885 133.741 329.613C138.407 327.916 137.559 334.704 138.832 338.098C139.256 340.219 140.529 341.068 142.65 340.643C143.923 340.219 144.771 339.371 144.347 338.098C143.499 335.552 141.377 333.431 141.802 330.461C142.226 328.764 144.347 327.491 144.771 325.794C145.196 322.824 141.802 321.127 140.105 318.582C139.68 317.309 140.105 315.612 141.377 314.763C143.499 313.915 143.923 317.309 144.771 318.582C145.287 318.84 145.646 319.568 146.262 319.642C146.94 319.723 147.587 319.289 147.883 318.666" stroke="white" stroke-width="1.3" stroke-linecap="round" stroke-linejoin="round"/>
<path d="M151.801 449.32C148.166 445.861 149.014 439.921 147.317 435.254C145.62 431.86 141.802 430.587 138.408 431.86C135.014 432.709 129.922 436.527 127.377 431.86C128.65 431.012 129.922 430.163 131.619 429.739C134.589 428.89 134.589 424.648 132.468 423.799C126.528 420.829 122.71 428.042 118.467 431.436C115.497 431.436 112.952 430.163 109.982 432.285C108.709 432.709 107.012 433.133 105.739 432.709C105.315 432.285 104.467 431.86 104.891 431.012C105.315 430.163 106.164 430.163 107.012 429.739C108.709 428.042 111.679 426.769 112.103 424.224C112.103 422.526 110.406 422.526 109.133 422.102C104.467 421.254 100.648 424.648 95.9813 425.921C92.5871 426.769 90.4658 424.224 88.3445 421.678C87.9202 420.829 87.0717 419.557 86.2232 418.708C81.9805 411.496 78.5864 405.132 73.9195 398.343C72.2225 395.798 70.1011 394.101 68.1364 392.312M68.1364 392.312C68.7079 392.512 69.2946 392.734 69.7358 393.163C69.1147 393.099 68.5695 392.746 68.1364 392.312ZM68.1364 392.312C69.6769 393.252 71.3739 392.828 73.071 392.828C78.5864 391.979 84.5261 390.707 88.7688 394.525C92.1629 398.343 94.7085 404.283 100.224 404.707C101.497 404.707 103.194 404.283 103.194 402.162C102.769 400.465 101.497 399.616 100.224 398.768C98.1026 397.919 95.557 396.646 96.4055 394.101C96.8298 393.252 98.1026 392.404 99.7996 392.828C102.769 393.676 103.194 396.646 105.315 398.768C107.012 400.465 109.558 400.465 112.103 400.465C113.8 400.889 115.922 401.313 116.77 403.435C117.619 405.98 116.77 408.95 118.892 410.647C120.164 411.496 122.286 411.496 123.558 409.799C124.407 408.101 123.983 405.98 123.134 404.283C121.013 401.313 116.77 399.192 117.418 395.01M117.418 395.01C117.337 396.021 118.637 395.733 117.418 395.01ZM117.418 395.01C120.115 398.948 125.396 397.354 129.357 397.332C134.162 397.306 136.374 401.18 138.114 405.089C139.052 407.193 140.234 410.18 143.045 409.958M143.045 409.958C142.795 409.387 142.534 408.812 142.145 408.32C142.243 408.952 142.551 409.547 143.045 409.958ZM143.045 409.958C137.983 398.768 132.892 388.585 125.68 378.403C124.407 376.706 122.286 375.433 120.164 376.282C118.467 377.13 116.77 377.554 115.073 377.979H113.376C108.709 376.282 104.042 375.857 98.9511 376.706C98.1026 376.706 96.8298 375.857 96.8298 375.009C97.254 374.16 98.1026 372.888 98.9511 372.463C100.224 372.039 101.072 371.19 101.921 370.342C104.891 367.796 108.709 367.372 112.528 368.645C113.376 369.069 114.649 368.645 115.073 368.221C115.922 366.099 113.8 363.978 112.103 363.554C109.558 362.705 106.164 361.857 103.618 363.978C101.497 366.099 99.7996 369.918 96.4055 369.069C93.0114 367.796 89.6173 368.645 86.2232 369.918C84.9504 369.918 83.2533 370.766 81.9805 369.493C81.132 368.221 82.4048 366.948 83.6776 366.099C88.7688 363.129 93.8599 361.432 99.3754 359.735M99.3754 359.735C98.2209 360.095 98.4725 357.385 99.3754 359.735ZM99.3754 359.735C95.9812 354.22 90.4658 359.311 85.7989 360.16C83.2533 360.584 80.7077 358.463 78.1622 358.463C76.0408 358.463 73.9195 360.584 71.7982 361.008C70.5254 361.008 69.2526 361.432 67.9798 360.16C67.5556 359.311 67.1313 358.463 67.9798 357.614C69.6769 355.917 72.2225 355.917 74.6913 356.67M74.6913 356.67C73.5487 356.359 74.687 354.894 74.6913 356.67ZM74.6913 356.67C72.7863 350.723 65.1419 353.789 60.7444 353.484C57.2892 353.245 55.0864 350.613 53.3406 347.895C50.9083 344.108 48.7106 340.187 46.3894 336.333C44.2155 332.725 41.2295 328.944 41.2512 324.521M41.2512 324.521C41.2117 327.58 42.6343 325.088 41.2512 324.521ZM41.2512 324.521C43.7968 329.188 49.7365 327.491 53.9791 326.218C54.4034 326.218 55.2519 326.218 55.6762 326.643C57.7975 328.34 58.2217 330.885 60.7673 332.158C62.8886 333.007 65.01 333.007 66.707 334.28C68.4041 335.977 68.8283 338.522 69.6769 340.643C70.1011 341.916 71.7982 341.492 73.071 341.492C73.071 340.219 74.3438 339.371 73.9195 338.098C73.071 335.128 70.1011 333.855 68.4041 331.734C67.1313 330.037 65.8585 327.916 66.2828 325.794C66.2828 324.521 67.5556 322.824 69.2526 323.673C71.3739 325.37 72.2225 327.916 73.9195 330.037C77.3136 333.431 79.0107 337.674 81.9805 341.916C82.8291 343.613 86.6474 344.886 87.496 342.341C89.193 338.522 84.9504 337.674 82.4048 335.552C81.132 333.855 82.4048 331.734 84.5261 331.31C85.3747 330.885 86.6474 331.31 87.496 332.158C89.6173 334.704 90.4658 337.249 91.7386 340.219C93.0114 342.341 94.7085 343.613 97.254 343.189C98.5268 342.765 100.224 342.765 99.7996 340.643C99.3754 337.674 97.6783 334.704 95.1327 332.582C91.3143 328.34 87.9202 324.097 84.5261 319.006C81.132 313.491 80.2835 307.551 78.1622 302.035C77.3136 300.338 75.6166 299.49 73.9195 298.641C71.7982 297.793 68.8283 299.066 66.707 297.793C66.2828 297.369 64.1614 296.096 66.707 295.247C67.1313 294.823 68.4041 295.671 69.2526 295.247C70.9497 294.399 71.7982 292.702 70.9497 291.005C67.5556 285.913 61.6159 291.005 57.7975 293.126C56.5247 293.974 54.8276 294.399 53.1306 294.399C50.585 294.399 48.0394 292.702 46.3423 290.58C45.9181 289.732 45.4938 288.459 44.0259 287.848M44.0259 287.848C44.7679 288.968 44.9037 287.145 44.0259 287.848ZM44.0259 287.848C44.8595 287.496 45.148 287.117 46.0394 287.362C46.8222 287.577 47.5447 288.12 48.2863 288.442C50.1264 289.24 51.3924 288.653 53.2396 288.246C55.8671 287.666 61.7537 287.45 61.7313 283.617C61.7062 279.325 55.4895 281.064 53.2765 281.86C51.7394 282.414 50.1603 283.133 48.806 281.821C47.7297 280.779 47.3988 279.395 45.9181 278.701C43.3602 277.501 36.5066 279.666 35.8558 275.655C35.328 272.401 42.311 274.348 43.9733 274.449C45.1671 274.521 48.5434 274.576 48.5218 272.947C48.5044 271.634 46.8069 270.864 45.739 270.611C43.0305 269.97 39.5741 270.282 38.4816 267.068C37.8223 265.127 38.1651 263.018 37.6462 261.048C37.0824 258.908 35.5987 257.452 35.5614 255.119C35.5028 251.511 38.9797 246.711 35.4918 243.986M35.4918 243.986C36.0917 244.875 37.1286 243.208 35.4918 243.986ZM35.4918 243.986C38.0026 242.908 39.5596 246.125 40.3186 247.949C40.8163 249.145 41.1511 250.402 41.8239 251.519C42.7255 253.015 44.0042 254.237 44.9614 255.693C46.2252 257.618 47.21 262.76 50.313 262.618C52.2948 262.528 51.3241 259.217 51.0466 258.069C50.6588 256.466 50.2337 254.862 49.6194 253.33C48.7895 251.259 47.1527 249.607 47.1909 247.305C49.4174 247.383 51.0699 249.675 52.24 251.31C54.8276 254.942 58.646 259.609 56.1004 264.276C55.2519 265.973 56.1004 267.67 57.7975 268.943C58.646 269.367 60.3431 270.216 60.7673 268.943C62.0401 266.821 60.7673 264.276 60.7673 262.155C59.4945 254.094 55.2519 247.73 52.7063 240.093C51.8578 237.972 50.585 235.85 48.4637 235.85C45.9181 235.426 43.7968 236.699 41.2512 235.85C39.2304 234.984 37.2105 233.922 35.1901 232.797C33.6751 231.843 32.7901 230.89 32.9954 230.408C33.2156 229.891 34.642 230.022 35.0217 230.063C35.7092 230.143 36.3901 230.271 37.059 230.448C39.9478 231.214 40.7569 232.403 41.9101 231.979C42.888 231.619 43.5995 230.294 43.4103 229.224C43.109 227.526 41.6491 227.46 40.2546 227.468C38.6487 227.477 37.8957 226.691 36.6806 225.767C35.346 224.755 33.8985 223.901 32.3671 223.223C29.9382 222.152 26.7099 221.515 26.0243 218.505M26.0243 218.505C26.1045 219.715 27.155 218.242 26.0243 218.505ZM26.0243 218.505C28.2182 218.547 31.4519 220.703 33.1902 218.455C31.3412 217 32.4401 214.458 31.855 212.525C31.1401 210.161 28.8762 210.646 26.9844 210.104C22.0049 208.676 26.7604 200.465 26.757 197.323C26.7545 194.788 27.1995 192.532 26.1834 192.236C25.1813 191.945 26.6993 190.207 27.0205 189.844C27.3438 191.809 27.8071 193.959 29.0952 195.543C30.2542 196.968 31.9895 197.287 33.4672 198.239C36.2381 200.023 35.9093 203.81 36.5805 206.638M36.5805 206.638C35.7646 205.201 37.1201 205.7 36.5805 206.638ZM36.5805 206.638C37.1239 205.688 38.6479 203.708 39.3479 205.668C39.8295 207.015 38.7658 208.576 39.3861 209.898C40.1354 211.495 41.7718 210.818 42.3615 209.558C43.1078 207.963 43.101 205.899 42.6462 204.239C41.5961 200.405 37.7149 198.307 36.3942 194.626C35.5983 192.408 36.5117 190.807 37.3535 188.79C38.2987 186.526 37.7493 184.239 38.0493 181.883C38.6466 177.191 44.0645 172.281 43.434 171.653C42.8977 171.118 44.6881 169.945 45.0301 169.714L44.9542 174.015" stroke="white" stroke-width="1.3" stroke-linecap="round" stroke-linejoin="round"/>
</svg>
