<svg width="238" height="528" viewBox="0 0 238 528" fill="none" xmlns="http://www.w3.org/2000/svg">
<path d="M287.693 484.344C274.193 439.962 248.016 400.485 219.101 364.18C190.188 327.874 158.201 294.017 130.701 256.633C88.652 199.469 57.5093 134.342 39.4259 65.7505" stroke="#ADB7FF" stroke-width="0.510638" stroke-linecap="round" stroke-linejoin="round"/>
<path d="M261.936 424.384C255.224 405.956 254.377 391.079 254.912 380.728C256.087 357.942 264.234 351.689 261.351 331.696C259.204 316.813 253.816 314.221 251.68 297.688C249.837 283.428 252.038 271.362 254.135 263.501" stroke="#ADB7FF" stroke-width="0.510638" stroke-linecap="round" stroke-linejoin="round"/>
<path d="M159.251 292.829C153.736 282.405 155.601 269.73 158.456 258.275C161.311 246.82 165.048 235.04 162.833 223.466C160.958 213.67 155.027 205.219 150.589 196.28C146.152 187.342 143.194 176.586 147.485 167.543" stroke="#ADB7FF" stroke-width="0.510638" stroke-linecap="round" stroke-linejoin="round"/>
<path d="M94.0547 199.322C89.0693 189.031 92.4779 176.798 91.1394 165.453C90.0982 156.622 86.1763 148.434 83.369 139.995C80.5626 131.556 78.9012 122.148 82.35 113.891" stroke="#ADB7FF" stroke-width="0.510638" stroke-linecap="round" stroke-linejoin="round"/>
<path d="M272.752 447.646C268.616 437.303 256.862 430.55 245.715 432.112C236.394 433.417 228.6 439.645 219.818 443.022C203.697 449.22 184.006 444.706 172.35 432.143" stroke="#ADB7FF" stroke-width="0.510638" stroke-linecap="round" stroke-linejoin="round"/>
<path d="M208.277 350.92C201.428 344.165 190.78 335.873 176.337 333.118C159.846 329.972 150.918 336.431 133.289 334.672C123.783 333.723 110.498 330.261 95.1277 318.698" stroke="#ADB7FF" stroke-width="0.510638" stroke-linecap="round" stroke-linejoin="round"/>
<path d="M114.929 233.739C111.122 225.558 103.867 219.053 95.3277 216.161C89.1541 214.071 82.4364 213.808 76.4117 211.319C66.9561 207.413 60.5324 198.659 54.6042 190.312" stroke="#ADB7FF" stroke-width="0.510638" stroke-linecap="round" stroke-linejoin="round"/>
<path d="M66.6392 145.847C64.9847 141.899 62.014 136.406 56.5408 131.991C50.525 127.14 45.9194 127.165 40.6813 123.942C35.6843 120.866 29.6857 114.574 26.2941 100.226" stroke="#ADB7FF" stroke-width="0.510638" stroke-linecap="round" stroke-linejoin="round"/>
<path d="M278.994 490.278C277.9 488.522 275.217 486.292 273.991 482.574C270.749 472.738 266.306 459.415 255.157 461.769C249.088 462.817 245.939 468.858 239.871 469.906C237.276 469.752 232.965 468.091 234.358 464.758C237.939 465.171 240.317 462.096 242.075 459.387C243.941 458.292 244.347 454.7 242.266 452.567C240.55 451.059 238.213 449.917 236.347 451.012C233.978 451.429 230.369 452.434 227.39 455.273C222.555 459.881 224.168 464.759 220.011 467.023C215.51 469.476 211.002 465.183 206.64 468.517C204.975 469.79 204.813 471.041 202.779 471.843C199.963 472.955 196.187 472.167 195.762 470.666C195.311 469.078 199.032 468.16 202.79 462.831C204.82 459.952 206.947 455.664 206.282 455.155C206.28 455.153 206.276 455.147 206.267 455.144C204.461 454.51 198.994 452.82 193.291 454.491C188.574 456.423 186.302 461.11 181.586 463.042C177.126 463.983 172.45 461.697 169.018 458.681C154.967 441.776 142.524 424.765 125.649 411.869L127.809 412.442C138.701 411.076 151.501 404.4 161.689 411.834C167.823 416.618 171.214 423.851 178.741 425.3C181.957 425.089 185.539 425.502 186.931 422.168C187.188 421.179 186.459 419.931 186.094 419.306C181.675 416.031 174.514 415.205 173.825 409.74C173.352 407.501 176.718 404.687 180.042 406.089C185.082 408.999 187.743 414.983 194.284 416.174C200.459 416.74 206.528 415.693 210.432 420.947C212.985 425.318 212.539 433.127 218.607 432.08C224.053 431.398 223.986 425.567 220.811 421.561C216.285 416.672 209.272 413.243 209.278 405.83M209.278 405.83C208.976 407.343 212.91 408.302 209.278 405.83ZM209.278 405.83C214.867 409.958 222.651 410.418 228.869 406.768C241.004 404.673 245.191 418.985 252.42 425.642C253.407 425.901 254.649 425.171 255.704 425.598L248.947 415.045C241.519 402.694 232.357 391.302 222.576 380.276C220.13 377.519 217.32 374.137 213.374 373.101L208.549 373.418C205.698 374.253 204.049 378.576 200.467 378.163C195.277 377.856 190.86 374.581 186.034 374.898C180.953 376.205 173.6 382.2 169.952 375.956C174.711 369.808 181.549 365.792 188.389 361.776C190.875 360.316 194.564 362.343 197.159 362.496L199.646 361.036C200.674 357.079 196.363 355.417 194.025 354.274C187.012 350.845 177.943 355.332 174.28 363.353C172.265 367.051 168.062 367.003 164.117 365.967C163.13 365.707 161.522 365.813 159.914 365.919C156.697 366.13 154.21 367.59 151.723 369.05C149.236 370.511 146.02 370.722 143.94 368.59C143.574 367.966 143.832 366.976 143.832 366.976C151.076 359.368 161.497 355.766 170.822 350.29C170.822 350.29 171.079 349.3 170.714 348.675C164.472 342.278 157.227 349.887 151.632 353.172C149.767 354.267 147.537 354.738 144.942 354.585C141.361 354.172 137.929 351.156 133.834 352.722C129.117 354.653 125.238 359.446 119.319 357.891C117.968 357.007 116.251 355.499 117.13 354.145C119.766 350.081 124.591 349.764 128.965 350.184M128.965 350.184C126.576 349.737 127.632 345.738 128.965 350.184ZM128.965 350.184C125.591 339.327 110.11 348 102.851 347.517C96.9599 347.124 93.3743 341.856 89.9196 337.646C85.7407 332.564 81.7492 327.329 77.9531 321.953C76.0886 319.307 74.1147 317.258 71.4514 313.58C68.2621 309.176 64.5851 304.099 65.3688 303.32C65.7686 302.923 67.4756 303.492 73.6909 308.376C79.3944 306.704 84.0031 303.159 90.1792 303.725C95.1111 305.022 95.7991 310.488 100.475 312.774C103.799 314.176 107.53 311.986 110.854 313.388C114.907 316.038 113.987 321.61 117.419 324.626C118.771 325.51 121.365 325.663 123.122 322.954C123.637 320.975 124.151 318.996 122.434 317.489C116.3 312.706 109.909 308.911 107.761 300.948C107.289 298.71 108.059 295.742 111.641 296.155C113.614 296.673 114.965 297.557 115.695 298.806C118.613 303.801 122.153 308.43 127.449 310.351C131.76 312.013 132.813 318.103 135.624 321.484C138.434 324.865 142.487 327.516 146.84 324.96C148.962 322.876 148.381 319.024 146.3 316.892C145.314 316.632 143.963 315.748 142.612 314.865C141.261 313.981 139.653 314.087 138.301 313.203C136.221 311.071 135.532 305.605 139.37 305.029C148.654 303.77 151.274 313.971 156.53 320.109C158.61 322.241 161.313 324.008 164.786 322.807C169.503 320.877 167.829 315.151 165.383 312.395C153.007 301.215 140.265 289.41 131.254 275.414C126.984 269.536 125.824 261.833 121.554 255.954C117.027 251.065 109.973 251.853 103.54 252.276C101.932 252.381 101.46 250.143 100.73 248.895C100.622 247.281 103.217 247.435 104.826 247.329C108.406 247.742 109.691 242.794 108.232 240.297C104.693 235.668 98.7317 238.329 94.6368 239.895C89.0413 243.18 85.527 248.598 78.8372 250.011C71.161 251.164 68.0273 242.942 62.3648 240.396C62.9865 240.031 62.622 239.407 63.2438 239.042C65.4735 238.571 66.8249 239.454 69.1626 240.597C70.1496 240.857 70.7707 240.492 72.1223 241.376C75.0817 242.154 76.109 238.196 78.9612 237.36C84.407 236.678 89.8533 235.995 91.3951 230.058C91.8014 226.466 87.8551 225.429 85.2608 225.275C82.0448 225.487 78.9362 227.312 75.8274 229.137C74.584 229.867 72.9754 229.973 71.3682 230.079C68.4087 229.301 67.2062 225.814 64.2468 225.036C60.3004 223.999 57.4489 224.835 53.6112 225.412C50.6517 224.634 44.4755 224.067 45.7602 219.121C52.4501 217.708 59.2472 217.909 66.5594 216.131C67.1805 215.767 67.4378 214.777 67.4378 214.777C65.6144 211.655 62.2897 210.253 58.4513 210.83C53.2621 210.523 46.3575 208.707 47.4261 200.533C47.4672 196.316 43.4141 193.665 42.2118 190.178C40.1718 183.829 43.3222 177.787 41.2822 171.438C40.5538 170.189 39.2016 169.305 38.4725 168.056C44.4326 165.395 47.5664 173.618 49.4985 178.353C50.592 180.227 52.9304 181.369 54.6457 182.877C59.0648 186.153 60.7389 191.878 65.158 195.153C66.5094 196.036 67.603 197.909 69.3609 195.2C69.6174 194.211 69.1447 191.973 68.4157 190.724C64.9837 187.708 65.3893 184.115 64.8088 180.264C64.3362 178.025 61.0128 176.623 59.918 174.751C59.1882 173.502 58.8237 172.878 59.0808 171.888C59.9598 170.534 62.9193 171.311 63.6484 172.56C67.5529 177.814 73.3221 181.973 77.2273 187.227C79.7811 191.598 75.9008 196.391 76.8459 200.867C77.0621 204.095 80.6432 204.508 82.9803 205.651C84.9535 206.169 86.9267 206.688 87.6969 203.72C88.1032 200.127 84.0495 197.476 83.8342 194.249C84.6051 191.28 83.1462 188.783 82.3085 185.921C80.8497 183.423 79.7554 181.55 77.6748 179.417C69.973 170.524 69.2593 155.01 57.0575 151.274C53.4763 150.861 50.7322 153.311 47.1509 152.898C42.5835 152.226 39.7733 148.845 35.2057 148.172C34.2196 147.914 32.9753 148.643 31.9891 148.385C31.0028 148.125 29.9085 146.252 29.9085 146.252C34.5171 142.707 39.9224 146.242 45.1123 146.549C47.342 146.078 49.7209 143.004 48.2613 140.506C46.8034 138.009 42.9648 138.586 39.7481 138.797C36.167 138.384 35.2211 133.908 31.8978 132.506C28.5738 131.103 26.1942 134.178 22.8702 132.775C20.5325 131.633 18.4512 129.5 16.9931 127.002C21.4525 126.061 27.2224 130.22 29.1287 124.908C24.4531 122.622 27.3457 117.569 24.9008 114.813C23.4418 112.314 18.9816 113.256 16.0223 112.479C13.6844 111.336 12.5903 109.463 12.3749 106.235C12.416 102.018 14.6875 97.3304 14.1069 93.4782C13.8916 90.251 11.8103 88.1185 10.9733 85.2561C10.5007 83.0182 10.0538 81.8108 12.4553 78.3192C13.8563 82.9298 15.9781 89.0283 21.2552 90.2256C24.7451 91.0175 27.2496 90.8559 29.0043 94.5396C30.5397 97.7626 30.2749 101.599 32.2076 104.664C32.7805 103.419 33.3769 100.628 34.8518 100.909C38.6198 102.564 36.349 107.252 37.8071 109.749C38.9021 111.622 41.7536 110.787 42.268 108.807C43.0382 105.839 43.1873 103.236 42.3502 100.374C40.0536 95.0138 35.8919 90.7493 31.4735 87.4738C26.3255 82.9497 29.1108 76.2835 30.6526 70.3469C26.4247 60.2517 33.2058 44.9011 38.4389 40.4036C36.6699 49.2042 42.9121 55.6007 50.2906 59.6539C55.33 62.5647 53.4237 67.8769 51.7745 72.1991C51.0036 75.1674 53.0842 77.3 55.0574 77.8184C58.0169 78.5963 62.6254 75.0513 63.5706 79.5279C64.7729 83.0145 62.3941 86.0887 61.3666 90.0461C60.595 93.0145 63.298 94.7816 64.7568 97.2791C65.1221 97.9034 64.865 98.8933 64.2432 99.2581C61.8636 102.333 60.1064 105.041 58.7145 108.374C57.9429 111.343 58.7806 114.205 59.8749 116.078C62.4942 126.279 66.7223 136.375 73.6943 144.02C78.0464 141.465 75.7499 136.105 73.3047 133.348C72.2104 131.475 69.5082 129.708 69.035 127.47C67.4681 123.359 66.523 118.883 63.3481 114.877C62.2539 113.004 63.3892 110.66 63.9037 108.681M63.9037 108.681C62.2913 111.465 66.0919 110.314 63.9037 108.681ZM63.9037 108.681C66.0919 110.314 67.095 112.799 68.207 115.197C68.9733 116.851 70.7485 120.926 72.9466 121.088C77.5434 121.426 72.3154 111.489 71.868 110.294C69.6583 104.398 75.3956 103.889 76.6719 99.0042C77.7841 94.7478 75.222 90.3835 76.7683 86.0802C79.0375 79.766 84.1408 86.5483 86.0767 89.3535C87.2859 91.1046 87.1341 92.9973 87.2402 95.0261C87.3681 97.4244 88.31 99.3986 89.6069 101.404C93.2725 107.07 105.214 113.576 99.5417 121.301C97.3582 124.274 94.104 126.278 91.4323 128.76C88.7201 131.281 87.7504 137.813 92.7641 138.498M92.7641 138.498C90.2482 138.449 91.4804 134.752 92.7641 138.498ZM92.7641 138.498C91.2379 134.967 98.13 135.623 99.7953 135.388C104.403 134.741 104.834 128.763 106.332 125.263C109.207 127.053 112.933 129.935 111.897 133.809C110.901 137.529 106.826 138.959 104.925 142.03C102.832 145.408 105.941 148.097 106.319 151.447C106.885 156.455 102.486 156.761 99.0203 157.838C94.3966 159.277 95.9041 163.438 97.5405 166.842M97.5405 166.842C96.4082 164.801 97.9388 163.545 97.5405 166.842ZM97.5405 166.842C98.0839 165.757 97.7186 165.133 98.3404 164.768C101.084 162.318 104.408 163.72 107.152 161.27C109.896 158.821 109.938 154.604 112.681 152.154C115.168 150.694 117.614 153.45 118.086 155.688C118.045 159.905 114.422 163.71 112.772 168.032C112.259 170.011 114.339 172.144 113.205 174.487C110.933 179.175 105.744 178.869 101.756 182.048C100.878 183.402 98.755 185.487 101.822 187.879C103.174 188.763 105.404 188.292 107.526 186.207C109.391 185.112 112.972 185.525 112.823 188.128C113.512 193.593 105.942 196.361 106.631 201.826C106.656 211.874 116.737 217.694 122.722 225.081C126.627 230.335 128.044 237.05 131.327 242.668C134.137 246.05 136.948 249.431 141.151 249.479C144.367 249.267 145.395 245.309 144.558 242.447C141.275 236.827 138.356 231.833 136.939 225.118C135.372 221.007 131.575 217.367 129.387 213.621C127.927 211.123 128.955 207.166 131.442 205.706C131.442 205.706 132.429 205.965 132.793 206.589C134.684 215.541 138.398 227.616 149.398 227.865C150.02 227.499 151.521 225.78 151.777 224.791C151.346 218.336 144.806 217.145 141.63 213.14C139.077 208.769 140.362 203.822 138.43 199.086C136.498 194.351 130.944 193.42 128.391 189.049C127.662 187.8 127.189 185.562 127.081 183.949C128.473 180.615 125.406 178.223 123.947 175.726C123.218 174.477 123.989 171.509 126.949 172.287C129.286 173.43 131.881 173.584 132.718 176.446C133.92 179.933 133.257 184.515 134.46 188.001C134.824 188.626 136.175 189.51 137.419 188.779C138.662 188.05 139.541 186.695 139.433 185.081C138.488 180.605 135.056 177.589 134.732 172.747C134.409 167.906 138.031 164.102 136.1 159.367C134.533 155.256 129.236 153.335 129.277 149.118C128.953 144.276 131.224 139.589 133.131 134.277C133.281 131.673 134.051 128.705 132.644 126.263M132.644 126.263C134.005 128.136 137.369 127.016 132.644 126.263ZM132.644 126.263C139.063 127.308 139.724 135.863 141.215 140.844C142.285 144.421 143.826 147.689 147.131 149.651C150.156 151.448 153.607 152.129 156.452 154.303C161.887 158.456 164.035 165.645 161.36 171.994C159.314 176.851 154.571 181.19 154.283 186.672C154.061 190.856 156.742 197.892 162.1 195.831C158.829 192.055 160.988 186.258 163.209 182.559C166.705 177.453 167.518 170.267 172.749 166.357C181.478 171.294 172.732 180.622 171.92 187.807C175.095 191.812 178.27 195.818 176.364 201.13C173.687 209.411 163.076 219.833 172.278 227.008C172.278 227.008 173.265 227.268 173.886 226.902C173.197 220.791 174.67 217.841 176.268 216.28C178.22 214.373 180.227 214.668 182.512 212.733C185.411 210.278 186.217 206.388 186.411 203.302C191.097 206.25 193.534 211.964 193.287 217.4C193.847 221.052 191.833 224.75 189.089 227.199C185.723 230.014 181.629 231.58 180.966 236.162C180.817 238.765 182.64 241.887 182.491 244.49C181.679 251.675 175.719 254.336 172.569 260.379C170.298 265.067 170.878 270.435 176.026 273.442C177.46 265.892 184.191 260.263 190.408 256.613C193.517 254.787 192.936 250.936 194.329 247.602C195.465 245.258 197.952 243.798 200.762 247.178C203.572 250.56 202.287 255.507 199.651 259.571C195.515 265.354 192.108 272.385 191.66 280.194C186.065 283.48 176.781 284.739 176.698 293.173C176.806 294.787 177.278 297.025 177.386 298.638C179.114 302.637 181.318 306.411 183.951 309.877C194.795 324.116 203.198 320.017 214.086 332.901C218.332 337.927 229.303 353.045 232.81 356.135C233.832 357.032 234.865 357.918 235.908 358.79C236.954 359.661 238.011 360.518 239.079 361.36C242.296 361.149 245.04 358.7 244.825 355.472C244.244 351.62 241.177 349.228 241.218 345.011C241.881 340.429 246.855 337.509 244.923 332.773C243.829 330.9 242.992 328.038 240.654 326.895C235.978 324.609 231.925 321.958 230.358 317.847C228.169 314.1 231.427 309.672 229.239 305.926C226.685 301.555 222.009 299.27 220.079 294.534C219.971 292.92 221.106 290.576 223.336 290.106C230.755 289.942 230.672 298.376 232.347 304.1C232.82 306.338 234.536 307.847 236.873 308.99C238.847 309.508 241.334 308.048 241.847 306.069C242.768 300.498 237.106 297.952 236.417 292.487C236.202 289.26 237.702 287.54 239.459 284.831C240.338 283.477 240.487 280.873 239.393 279C236.218 274.995 226.867 270.423 232.354 265.524C235.977 261.72 238.016 268.069 239.218 271.556C239.583 272.18 240.569 272.439 240.569 272.439C244.043 271.238 246.679 267.175 245.477 263.689C240.304 249.117 254.387 237.493 266.051 233.159C268.82 240.758 273.089 246.636 275.858 254.234C278.371 262.822 270.395 269.181 266.624 275.588C262.596 282.985 266.972 290.477 273.107 295.261C278.877 299.42 273.132 305.309 271.226 310.621C271.333 312.234 271.806 314.472 273.779 314.991C278.347 315.663 281.239 310.61 281.281 306.393C280.443 303.531 281.579 301.187 283.702 299.102C285.566 298.007 287.431 296.912 289.77 298.055C294.81 300.965 293.268 306.902 292.241 310.859C290.847 314.193 288.469 317.267 289.306 320.129C291.561 329.706 287.276 338.092 280.18 343.097C275.828 345.653 272.205 349.456 270.299 354.769C269.271 358.727 270.108 361.589 272.502 364.146M272.502 364.146C269.748 361.784 271.533 360.387 272.502 364.146ZM272.502 364.146C272.379 356.901 280.42 356.372 285.029 352.828C288.395 350.013 286.828 345.901 289.207 342.828C290.085 341.473 291.694 341.368 293.302 341.262C296.627 342.664 298.085 345.162 299.287 348.648C300.125 351.51 299.353 354.479 298.583 357.447C297.447 359.791 296.312 362.135 293.825 363.596C291.339 365.055 287.865 366.256 286.108 368.965C285.229 370.319 284.971 371.309 285.444 373.547C285.917 375.785 284.417 377.505 282.917 379.224C279.186 381.415 276.077 383.24 271.983 384.806C268.873 386.632 267.846 390.589 269.048 394.076C269.777 395.325 271.494 396.833 272.737 396.103C281.076 390.367 288.321 382.759 298.012 377.908C299.877 376.813 302.579 378.58 303.309 379.828C306.335 386.437 298.145 389.569 294.887 393.997C292.251 398.061 293.56 403.162 290.56 406.601C286.937 410.405 281.856 411.712 279.95 417.023C279.029 422.595 280.704 428.32 282.636 433.056C289.622 450.182 293.165 466.017 299.551 477.489" stroke="#ADB7FF" stroke-width="0.510638" stroke-linecap="round" stroke-linejoin="round"/>
</svg>
