<svg width="128" height="280" viewBox="0 0 128 280" fill="none" xmlns="http://www.w3.org/2000/svg">
<path d="M14.109 27.952V24.112H59.677V29.872C59.677 40.112 58.3543 48.944 55.709 56.368C53.0637 63.7067 49.821 69.8933 45.981 74.928C42.141 79.8773 38.0023 83.888 33.565 86.96C29.213 89.9467 25.2877 92.208 21.789 93.744C26.141 89.392 29.597 84.656 32.157 79.536C34.8023 74.3307 36.765 69.168 38.045 64.048C39.4103 58.928 40.3063 54.064 40.733 49.456C41.1597 44.7627 41.373 40.6667 41.373 37.168V27.952H14.109ZM96.285 6.064C98.1623 6.66133 99.8263 7.21599 101.277 7.728C102.728 8.15466 104.093 8.58133 105.373 9.008C106.738 9.43466 108.104 9.90399 109.469 10.416C110.92 10.8427 112.541 11.3547 114.333 11.952L113.309 39.728V111.024C110.578 111.707 108.104 112.304 105.885 112.816C103.752 113.328 101.362 113.883 98.717 114.48V62.512L87.581 63.408V105.52C84.9357 106.117 82.461 106.715 80.157 107.312C77.853 107.824 75.4637 108.336 72.989 108.848V18.224L70.557 13.616C72.349 14.128 73.9703 14.64 75.421 15.152C76.957 15.664 78.4077 16.176 79.773 16.688C81.2237 17.1147 82.6317 17.584 83.997 18.096C85.3623 18.5227 86.8983 18.992 88.605 19.504L87.581 38.96V58.544H98.717V10.672L96.285 6.064ZM50.554 187.912C55.162 187.912 59.002 188.424 62.074 189.448C65.2313 190.472 67.7487 191.752 69.626 193.288C71.5033 194.824 72.826 196.488 73.594 198.28C74.4473 200.072 74.874 201.736 74.874 203.272V206.728C74.874 207.923 74.5753 209.203 73.978 210.568C73.466 211.933 72.6127 213.299 71.418 214.664C70.2233 215.944 68.6447 217.181 66.682 218.376C64.7193 219.485 62.2873 220.424 59.386 221.192L60.282 233.992L88.698 232.072V160.904L86.01 156.68L107.642 162.568L106.362 190.344V217.48C108.922 216.2 111.269 215.133 113.402 214.28C115.621 213.341 117.242 212.872 118.266 212.872C120.741 212.957 122.831 213.853 124.538 215.56C126.245 217.267 127.055 219.357 126.97 221.832C126.97 224.307 126.074 226.397 124.282 228.104C122.575 229.811 120.485 230.664 118.01 230.664C117.071 230.664 115.535 230.237 113.402 229.384C111.354 228.445 109.007 227.251 106.362 225.8V261.896C103.119 262.493 100.133 263.048 97.402 263.56C94.6713 264.157 91.77 264.755 88.698 265.352V236.168C76.2393 237.363 63.482 238.515 50.426 239.624C37.37 240.733 24.57 241.885 12.026 243.08C11.77 241.971 11.4713 241.032 11.13 240.264C10.874 239.411 10.618 238.515 10.362 237.576L43.386 235.272L41.594 221.96C37.6687 221.533 34.3833 220.765 31.738 219.656C29.0927 218.461 26.9593 217.139 25.338 215.688C23.7167 214.237 22.522 212.744 21.754 211.208C21.0713 209.587 20.73 208.093 20.73 206.728V203.272C20.73 201.736 21.114 200.072 21.882 198.28C22.7353 196.488 24.1007 194.824 25.978 193.288C27.9407 191.752 30.5007 190.472 33.658 189.448C36.8153 188.424 40.698 187.912 45.306 187.912H50.554ZM76.154 177.672L75.898 180.616H18.042V176.776H44.154C45.3487 176.776 46.9273 176.776 48.89 176.776C50.8527 176.691 52.5167 176.008 53.882 174.728L76.154 177.672ZM52.602 217.352C54.8207 216.413 56.7407 214.877 58.362 212.744C60.0687 210.525 60.922 207.965 60.922 205.064C60.922 202.163 60.0687 199.603 58.362 197.384C56.7407 195.165 54.8207 193.587 52.602 192.648L52.73 192.776C52.0473 192.435 51.2793 192.179 50.426 192.008C49.5727 191.752 48.762 191.624 47.994 191.624C47.1407 191.624 46.2873 191.752 45.434 192.008C44.5807 192.179 43.8127 192.435 43.13 192.776L43.258 192.648C41.0393 193.587 39.0767 195.165 37.37 197.384C35.7487 199.603 34.938 202.163 34.938 205.064C34.938 207.965 35.7487 210.525 37.37 212.744C39.0767 214.877 41.0393 216.413 43.258 217.352L43.13 217.224C43.8127 217.565 44.5807 217.864 45.434 218.12C46.2873 218.376 47.1407 218.504 47.994 218.504C48.762 218.504 49.5727 218.376 50.426 218.12C51.2793 217.864 52.0473 217.565 52.73 217.224L52.602 217.352ZM54.266 156.808C56.2287 157.491 57.6793 158.557 58.618 160.008C59.642 161.459 59.9833 162.909 59.642 164.36C58.362 166.579 56.442 167.688 53.882 167.688C52.858 167.688 51.834 167.56 50.81 167.304C49.9567 167.048 48.89 166.536 47.61 165.768C46.4153 164.915 45.1353 163.976 43.77 162.952C42.4047 161.928 41.0393 160.861 39.674 159.752C38.3087 158.643 37.114 157.619 36.09 156.68C37.4553 156.68 38.8207 156.637 40.186 156.552C41.3807 156.467 42.5753 156.424 43.77 156.424C44.9647 156.339 46.0313 156.296 46.97 156.296C48.506 156.296 49.914 156.339 51.194 156.424C52.5593 156.509 53.5833 156.637 54.266 156.808Z" fill="white"/>
<path d="M46.1063 236.058C58.9728 234.965 71.5493 233.83 83.836 232.654V261.288V261.895L84.4314 261.779C87.504 261.181 90.4067 260.584 93.1394 259.986C95.8674 259.475 98.8512 258.92 102.091 258.324L102.5 258.248V257.832V222.578C104.853 223.852 106.964 224.918 108.832 225.774L108.843 225.78L108.854 225.784C110.985 226.637 112.602 227.1 113.648 227.1C116.249 227.1 118.467 226.198 120.269 224.398C122.155 222.599 123.106 220.382 123.108 217.777C123.196 215.171 122.335 212.948 120.53 211.142C118.731 209.344 116.519 208.398 113.921 208.308L113.913 208.308H113.904C112.77 208.308 111.066 208.816 108.85 209.754C106.905 210.531 104.789 211.484 102.5 212.61V186.292L103.779 158.527L103.798 158.127L103.411 158.021L81.7793 152.133L80.5323 151.794L81.2262 152.884L83.836 156.986V227.541L56.3839 229.395L55.5515 217.504C58.3074 216.748 60.6483 215.831 62.566 214.747L62.5731 214.743L62.58 214.739C64.5702 213.528 66.1878 212.263 67.4215 210.941L67.427 210.935L67.4323 210.929C68.6537 209.533 69.5414 208.121 70.0794 206.692C70.6943 205.283 71.012 203.939 71.012 202.664V199.208C71.012 197.582 70.5612 195.847 69.6876 194.01C68.8806 192.132 67.5022 190.409 65.5806 188.837C63.6414 187.25 61.0635 185.945 57.8682 184.909C54.729 183.863 50.832 183.348 46.192 183.348H40.944C36.3024 183.348 32.3641 183.863 29.1417 184.908C25.9461 185.945 23.3291 187.248 21.3078 188.83L21.3078 188.83L21.2994 188.837C19.3774 190.409 17.9599 192.129 17.0686 194.001L17.0643 194.01L17.0604 194.019C16.2727 195.857 15.868 197.589 15.868 199.208V202.664C15.868 204.112 16.2298 205.672 16.9312 207.338L16.9375 207.353L16.9448 207.368C17.7474 208.973 18.9863 210.515 20.6426 211.997C22.3123 213.49 24.4929 214.839 27.1702 216.048L27.1701 216.048L27.1826 216.053C29.7965 217.149 33.002 217.911 36.7885 218.349L38.4573 230.746L5.9652 233.013L5.35727 233.056L5.51762 233.644C5.77462 234.586 6.03178 235.486 6.28909 236.344L6.29821 236.374L6.31109 236.403C6.63582 237.134 6.92564 238.04 7.1768 239.128L7.27531 239.555L7.71141 239.514C20.2536 238.319 33.052 237.167 46.1063 236.058ZM72.2901 173.651L72.3316 173.175L71.8575 173.112L49.5855 170.168L49.3508 170.137L49.178 170.299C47.907 171.491 46.3619 172.13 44.517 172.212H44.5165H44.505H44.4935H44.4821H44.4706H44.4592H44.4477H44.4363H44.4249H44.4134H44.402H44.3906H44.3792H44.3679H44.3565H44.3451H44.3338H44.3224H44.3111H44.2998H44.2884H44.2771H44.2658H44.2545H44.2433H44.232H44.2207H44.2094H44.1982H44.187H44.1757H44.1645H44.1533H44.1421H44.1309H44.1197H44.1085H44.0974H44.0862H44.075H44.0639H44.0528H44.0416H44.0305H44.0194H44.0083H43.9972H43.9861H43.9751H43.964H43.9529H43.9419H43.9308H43.9198H43.9088H43.8978H43.8868H43.8758H43.8648H43.8538H43.8429H43.8319H43.8209H43.81H43.7991H43.7881H43.7772H43.7663H43.7554H43.7445H43.7337H43.7228H43.7119H43.7011H43.6902H43.6794H43.6686H43.6577H43.6469H43.6361H43.6253H43.6146H43.6038H43.593H43.5823H43.5715H43.5608H43.55H43.5393H43.5286H43.5179H43.5072H43.4965H43.4858H43.4752H43.4645H43.4539H43.4432H43.4326H43.422H43.4113H43.4007H43.3901H43.3795H43.369H43.3584H43.3478H43.3373H43.3267H43.3162H43.3056H43.2951H43.2846H43.2741H43.2636H43.2531H43.2427H43.2322H43.2217H43.2113H43.2008H43.1904H43.18H43.1696H43.1592H43.1488H43.1384H43.128H43.1176H43.1073H43.0969H43.0866H43.0762H43.0659H43.0556H43.0453H43.035H43.0247H43.0144H43.0041H42.9939H42.9836H42.9734H42.9631H42.9529H42.9427H42.9325H42.9223H42.9121H42.9019H42.8917H42.8815H42.8714H42.8612H42.8511H42.841H42.8308H42.8207H42.8106H42.8005H42.7904H42.7803H42.7703H42.7602H42.7501H42.7401H42.7301H42.72H42.71H42.7H42.69H42.68H42.67H42.6601H42.6501H42.6401H42.6302H42.6202H42.6103H42.6004H42.5905H42.5806H42.5707H42.5608H42.5509H42.541H42.5312H42.5213H42.5115H42.5016H42.4918H42.482H42.4722H42.4624H42.4526H42.4428H42.4331H42.4233H42.4135H42.4038H42.394H42.3843H42.3746H42.3649H42.3552H42.3455H42.3358H42.3261H42.3165H42.3068H42.2972H42.2875H42.2779H42.2683H42.2586H42.249H42.2394H42.2299H42.2203H42.2107H42.2011H42.1916H42.182H42.1725H42.163H42.1535H42.144H42.1344H42.125H42.1155H42.106H42.0965H42.0871H42.0776H42.0682H42.0588H42.0493H42.0399H42.0305H42.0211H42.0117H42.0024H41.993H41.9836H41.9743H41.9649H41.9556H41.9463H41.937H41.9277H41.9184H41.9091H41.8998H41.8905H41.8813H41.872H41.8628H41.8535H41.8443H41.8351H41.8259H41.8167H41.8075H41.7983H41.7891H41.7799H41.7708H41.7616H41.7525H41.7434H41.7342H41.7251H41.716H41.7069H41.6978H41.6888H41.6797H41.6706H41.6616H41.6525H41.6435H41.6345H41.6255H41.6165H41.6074H41.5985H41.5895H41.5805H41.5715H41.5626H41.5536H41.5447H41.5358H41.5269H41.5179H41.509H41.5001H41.4913H41.4824H41.4735H41.4647H41.4558H41.447H41.4381H41.4293H41.4205H41.4117H41.4029H41.3941H41.3853H41.3765H41.3678H41.359H41.3503H41.3416H41.3328H41.3241H41.3154H41.3067H41.298H41.2893H41.2806H41.272H41.2633H41.2547H41.246H41.2374H41.2288H41.2202H41.2116H41.203H41.1944H41.1858H41.1772H41.1687H41.1601H41.1516H41.1431H41.1345H41.126H41.1175H41.109H41.1005H41.092H41.0836H41.0751H41.0666H41.0582H41.0498H41.0413H41.0329H41.0245H41.0161H41.0077H40.9993H40.991H40.9826H40.9742H40.9659H40.9575H40.9492H40.9409H40.9326H40.9243H40.916H40.9077H40.8994H40.8911H40.8829H40.8746H40.8664H40.8581H40.8499H40.8417H40.8335H40.8253H40.8171H40.8089H40.8007H40.7926H40.7844H40.7763H40.7681H40.76H40.7519H40.7438H40.7357H40.7276H40.7195H40.7114H40.7033H40.6953H40.6872H40.6792H40.6712H40.6631H40.6551H40.6471H40.6391H40.6311H40.6231H40.6152H40.6072H40.5993H40.5913H40.5834H40.5755H40.5675H40.5596H40.5517H40.5438H40.5359H40.5281H40.5202H40.5124H40.5045H40.4967H40.4888H40.481H40.4732H40.4654H40.4576H40.4498H40.442H40.4343H40.4265H40.4188H40.411H40.4033H40.3956H40.3878H40.3801H40.3724H40.3647H40.3571H40.3494H40.3417H40.3341H40.3264H40.3188H40.3112H40.3035H40.2959H40.2883H40.2807H40.2731H40.2656H40.258H40.2504H40.2429H40.2354H40.2278H40.2203H40.2128H40.2053H40.1978H40.1903H40.1828H40.1753H40.1679H40.1604H40.153H40.1456H40.1381H40.1307H40.1233H40.1159H40.1085H40.1011H40.0938H40.0864H40.079H40.0717H40.0644H40.057H40.0497H40.0424H40.0351H40.0278H40.0205H40.0132H40.006H39.9987H39.9914H39.9842H39.977H39.9697H39.9625H39.9553H39.9481H39.9409H39.9338H39.9266H39.9194H39.9123H39.9051H39.898H39.8909H39.8837H39.8766H39.8695H39.8624H39.8554H39.8483H39.8412H39.8342H39.8271H39.8201H39.813H39.806H39.799H39.792H13.68H13.18V172.712V176.552V177.052H13.68H71.536H71.9944L72.0341 176.595L72.2901 173.651ZM38.9916 212.713L38.952 212.768C36.8788 211.862 35.0293 210.404 33.4053 208.376C31.8544 206.25 31.076 203.798 31.076 201C31.076 198.201 31.8554 195.747 33.4081 193.62C35.0336 191.508 36.8827 190.01 38.952 189.104L38.9916 189.159C39.6294 188.84 40.3543 188.597 41.1701 188.434L41.1931 188.43L41.2157 188.423C42.0245 188.18 42.8294 188.06 43.632 188.06C44.3443 188.06 45.1063 188.179 45.9203 188.423L45.9429 188.43L45.9659 188.434C46.7817 188.597 47.5066 188.84 48.1444 189.159L48.184 189.104C50.2501 190.01 52.0551 191.506 53.5963 193.615L53.5962 193.615L53.6037 193.625C55.2405 195.753 56.06 198.205 56.06 201C56.06 203.795 55.2405 206.247 53.6037 208.375L53.6019 208.377C52.0616 210.404 50.2553 211.862 48.184 212.768L48.1444 212.713C47.4912 213.039 46.7506 213.328 45.9203 213.577C45.1063 213.821 44.3443 213.94 43.632 213.94C42.8294 213.94 42.0245 213.82 41.2157 213.577C40.3854 213.328 39.6448 213.039 38.9916 212.713ZM50.0683 152.272L50.0471 152.264L50.0253 152.259C49.2973 152.077 48.2367 151.947 46.8642 151.861C45.5715 151.775 44.1526 151.732 42.608 151.732C41.6594 151.732 40.5865 151.775 39.3902 151.86C38.1903 151.86 36.9905 151.903 35.7907 151.989C34.4364 152.074 33.0822 152.116 31.728 152.116H30.4426L31.3901 152.985C32.4231 153.931 33.6256 154.962 34.9967 156.076C36.3669 157.189 37.7373 158.26 39.108 159.288C40.4759 160.314 41.7591 161.255 42.9574 162.111L42.9736 162.122L42.9908 162.133C44.2859 162.91 45.3934 163.446 46.3043 163.719L46.3155 163.722L46.3267 163.725C47.3892 163.991 48.4539 164.124 49.52 164.124C52.2588 164.124 54.3439 162.919 55.7131 160.546L55.7499 160.482L55.7667 160.41C56.1464 158.797 55.7551 157.204 54.6703 155.664C53.6595 154.106 52.1103 152.982 50.0683 152.272Z" stroke="#FF7C90"/>
<path d="M9.24695 23.888V24.388H9.74695H36.5109V33.104C36.5109 36.5833 36.2987 40.6634 35.873 45.3463C35.4493 49.9226 34.5589 54.7586 33.1998 59.8552L33.1998 59.8552L33.1979 59.8627C31.9279 64.9427 29.9793 70.0701 27.3492 75.2455L27.3477 75.2484C24.8135 80.3168 21.3903 85.0096 17.0734 89.3265L17.6279 90.1378C21.1638 88.5855 25.117 86.3065 29.4859 83.3083L29.4876 83.3071C33.9729 80.2018 38.1476 76.1538 42.014 71.1705L42.0165 71.1672C45.8937 66.0838 49.1585 59.8496 51.8173 52.4736L51.8179 52.4718C54.4872 44.9806 55.8149 36.089 55.8149 25.808V20.048V19.548H55.3149H9.74695H9.24695V20.048V23.888ZM92.0746 1.52354L90.9107 1.15321L91.4808 2.23338L93.8549 6.73185V53.98H83.7189V34.9091L84.7423 15.4663L84.7629 15.074L84.3866 14.9611C82.6869 14.4512 81.1572 13.9838 79.7974 13.5589C78.4299 13.0465 77.0206 12.5767 75.5695 12.1495C74.204 11.6377 72.7545 11.1262 71.2212 10.615C69.7603 10.0995 68.1304 9.58498 66.3323 9.07124L65.206 8.74944L65.7528 9.78538L68.127 14.2839V104.784V105.398L68.7283 105.274C71.2051 104.761 73.5969 104.249 75.9034 103.736L75.912 103.734L75.9204 103.732C78.2187 103.136 80.6882 102.54 83.3291 101.944L83.7189 101.856V101.456V59.8054L93.8549 58.9898V110.416V111.042L94.4651 110.904C97.111 110.306 99.5017 109.751 101.637 109.239C103.859 108.726 106.336 108.128 109.068 107.445L109.447 107.35V106.96V35.6733L110.471 7.90642L110.484 7.53211L110.129 7.41366C108.34 6.81727 106.719 6.30512 105.265 5.87745C103.899 5.36528 102.532 4.8955 101.165 4.46814C99.8833 4.04115 98.5181 3.61448 97.0688 3.18809C95.6151 2.67518 93.9502 2.12032 92.0746 1.52354Z" stroke="#FF7C90"/>
</svg>
