<svg width="1920" height="627" viewBox="0 0 1920 627" fill="none" xmlns="http://www.w3.org/2000/svg">
<path d="M-1 554.779C5.37308 550.386 10.7866 543.568 16.3704 537.881C36.9021 516.97 59.0148 503.336 83.6481 491.247C126.163 470.383 169.658 457.673 214.704 448.188C291.769 431.961 374.749 414.046 453.222 423.49C504.48 429.659 576.106 448.042 613.833 496.609C628.642 515.673 642.312 551.235 640.667 578.827C637.345 634.514 557.493 627.668 529.056 619.612C494.305 609.766 454.81 576.149 440.778 533.981C427.855 495.147 435.998 437.917 450.111 401.555C490.595 297.244 606.532 267.048 688.5 248.33C815.262 219.382 939.874 258.7 1064.3 287.002C1155.85 307.826 1245.68 340.139 1338.33 353.296C1421.06 365.043 1500.98 363.297 1582.04 339.485C1686.92 308.671 1770.74 235.949 1842.85 138.164C1869.5 102.025 1894.84 64.4221 1917 23.7732C1921.23 16.0094 1925.7 8.64802 1931 2" stroke="url(#paint0_linear_118_68)" stroke-width="3" stroke-linecap="round"/>
<defs>
<linearGradient id="paint0_linear_118_68" x1="-1" y1="313.5" x2="1931" y2="313.5" gradientUnits="userSpaceOnUse">
<stop stop-color="#ADB7FF"/>
<stop offset="1" stop-color="white"/>
</linearGradient>
</defs>
</svg>
