<svg width="130" height="276" viewBox="0 0 130 276" fill="none" xmlns="http://www.w3.org/2000/svg">
<path d="M117.843 35.984C120.232 35.984 122.323 36.88 124.115 38.672C125.907 40.3787 126.76 42.4693 126.675 44.944C126.675 47.4187 125.779 49.5093 123.987 51.216C122.28 52.9227 120.189 53.776 117.715 53.776C116.947 53.776 116.093 53.5627 115.155 53.136C114.301 52.624 113.277 51.984 112.083 51.216C111.4 50.7893 110.419 50.2347 109.139 49.552C107.859 48.784 105.939 47.8027 103.379 46.608V60.048C100.136 60.6453 97.1065 61.2427 94.2905 61.84C91.5598 62.352 88.6585 62.9067 85.5865 63.504V6.544L82.7705 2.064L104.403 8.07999L103.379 33.296V42.768C105.768 41.5733 107.56 40.6773 108.755 40.08C109.949 39.3973 110.973 38.8427 111.827 38.416H111.699C113.064 37.648 114.216 37.0507 115.155 36.624C116.093 36.112 116.947 35.8987 117.715 35.984H117.843ZM77.3945 55.44L31.4425 60.56L23.1225 61.2C21.1598 61.3707 19.4958 60.816 18.1305 59.536C16.7652 58.256 16.0398 56.6773 15.9545 54.8C15.6985 47.888 15.3998 40.976 15.0585 34.064C14.7172 27.0667 14.4185 20.112 14.1625 13.2L33.1065 14.608V56.336C39.9332 55.7387 47.1438 55.0987 54.7385 54.416C62.4185 53.648 69.7145 52.9227 76.6265 52.24L77.3945 55.44ZM102.995 78.736L101.715 107.408C98.5572 107.92 95.6985 108.432 93.1385 108.944C90.5785 109.541 87.8052 110.096 84.8185 110.608V78.352H28.3705V74.384H74.1945C75.1332 74.384 76.1998 74.1707 77.3945 73.744C78.6745 73.3173 79.8692 72.6347 80.9785 71.696L103.379 75.152L102.995 78.736ZM52.554 183.912C57.162 183.912 61.002 184.424 64.074 185.448C67.2313 186.472 69.7487 187.752 71.626 189.288C73.5033 190.824 74.826 192.488 75.594 194.28C76.4473 196.072 76.874 197.736 76.874 199.272V202.728C76.874 203.923 76.5753 205.203 75.978 206.568C75.466 207.933 74.6127 209.299 73.418 210.664C72.2233 211.944 70.6447 213.181 68.682 214.376C66.7193 215.485 64.2873 216.424 61.386 217.192L62.282 229.992L90.698 228.072V156.904L88.01 152.68L109.642 158.568L108.362 186.344V213.48C110.922 212.2 113.269 211.133 115.402 210.28C117.621 209.341 119.242 208.872 120.266 208.872C122.741 208.957 124.831 209.853 126.538 211.56C128.245 213.267 129.055 215.357 128.97 217.832C128.97 220.307 128.074 222.397 126.282 224.104C124.575 225.811 122.485 226.664 120.01 226.664C119.071 226.664 117.535 226.237 115.402 225.384C113.354 224.445 111.007 223.251 108.362 221.8V257.896C105.119 258.493 102.133 259.048 99.402 259.56C96.6713 260.157 93.77 260.755 90.698 261.352V232.168C78.2393 233.363 65.482 234.515 52.426 235.624C39.37 236.733 26.57 237.885 14.026 239.08C13.77 237.971 13.4713 237.032 13.13 236.264C12.874 235.411 12.618 234.515 12.362 233.576L45.386 231.272L43.594 217.96C39.6687 217.533 36.3833 216.765 33.738 215.656C31.0927 214.461 28.9593 213.139 27.338 211.688C25.7167 210.237 24.522 208.744 23.754 207.208C23.0713 205.587 22.73 204.093 22.73 202.728V199.272C22.73 197.736 23.114 196.072 23.882 194.28C24.7353 192.488 26.1007 190.824 27.978 189.288C29.9407 187.752 32.5007 186.472 35.658 185.448C38.8153 184.424 42.698 183.912 47.306 183.912H52.554ZM78.154 173.672L77.898 176.616H20.042V172.776H46.154C47.3487 172.776 48.9273 172.776 50.89 172.776C52.8527 172.691 54.5167 172.008 55.882 170.728L78.154 173.672ZM54.602 213.352C56.8207 212.413 58.7407 210.877 60.362 208.744C62.0687 206.525 62.922 203.965 62.922 201.064C62.922 198.163 62.0687 195.603 60.362 193.384C58.7407 191.165 56.8207 189.587 54.602 188.648L54.73 188.776C54.0473 188.435 53.2793 188.179 52.426 188.008C51.5727 187.752 50.762 187.624 49.994 187.624C49.1407 187.624 48.2873 187.752 47.434 188.008C46.5807 188.179 45.8127 188.435 45.13 188.776L45.258 188.648C43.0393 189.587 41.0767 191.165 39.37 193.384C37.7487 195.603 36.938 198.163 36.938 201.064C36.938 203.965 37.7487 206.525 39.37 208.744C41.0767 210.877 43.0393 212.413 45.258 213.352L45.13 213.224C45.8127 213.565 46.5807 213.864 47.434 214.12C48.2873 214.376 49.1407 214.504 49.994 214.504C50.762 214.504 51.5727 214.376 52.426 214.12C53.2793 213.864 54.0473 213.565 54.73 213.224L54.602 213.352ZM56.266 152.808C58.2287 153.491 59.6793 154.557 60.618 156.008C61.642 157.459 61.9833 158.909 61.642 160.36C60.362 162.579 58.442 163.688 55.882 163.688C54.858 163.688 53.834 163.56 52.81 163.304C51.9567 163.048 50.89 162.536 49.61 161.768C48.4153 160.915 47.1353 159.976 45.77 158.952C44.4047 157.928 43.0393 156.861 41.674 155.752C40.3087 154.643 39.114 153.619 38.09 152.68C39.4553 152.68 40.8207 152.637 42.186 152.552C43.3807 152.467 44.5753 152.424 45.77 152.424C46.9647 152.339 48.0313 152.296 48.97 152.296C50.506 152.296 51.914 152.339 53.194 152.424C54.5593 152.509 55.5833 152.637 56.266 152.808Z" fill="#B3BCFF"/>
<mask id="path-2-outside-1_118_339" maskUnits="userSpaceOnUse" x="9" y="-2" width="119" height="263" fill="black">
<rect fill="white" x="9" y="-2" width="119" height="263"/>
<path d="M115.843 33.984C118.232 33.984 120.323 34.88 122.115 36.672C123.907 38.3787 124.76 40.4693 124.675 42.944C124.675 45.4187 123.779 47.5093 121.987 49.216C120.28 50.9227 118.189 51.776 115.715 51.776C114.947 51.776 114.093 51.5627 113.155 51.136C112.301 50.624 111.277 49.984 110.083 49.216C109.4 48.7893 108.419 48.2347 107.139 47.552C105.859 46.784 103.939 45.8027 101.379 44.608V58.048C98.1358 58.6453 95.1065 59.2427 92.2905 59.84C89.5598 60.352 86.6585 60.9067 83.5865 61.504V4.544L80.7705 0.0639954L102.403 6.07999L101.379 31.296V40.768C103.768 39.5733 105.56 38.6773 106.755 38.08C107.949 37.3973 108.973 36.8427 109.827 36.416H109.699C111.064 35.648 112.216 35.0507 113.155 34.624C114.093 34.112 114.947 33.8987 115.715 33.984H115.843ZM75.3945 53.44L29.4425 58.56L21.1225 59.2C19.1598 59.3707 17.4958 58.816 16.1305 57.536C14.7652 56.256 14.0398 54.6773 13.9545 52.8C13.6985 45.888 13.3998 38.976 13.0585 32.064C12.7172 25.0667 12.4185 18.112 12.1625 11.2L31.1065 12.608V54.336C37.9332 53.7387 45.1438 53.0987 52.7385 52.416C60.4185 51.648 67.7145 50.9227 74.6265 50.24L75.3945 53.44ZM100.995 76.736L99.7145 105.408C96.5572 105.92 93.6985 106.432 91.1385 106.944C88.5785 107.541 85.8052 108.096 82.8185 108.608V76.352H26.3705V72.384H72.1945C73.1332 72.384 74.1998 72.1707 75.3945 71.744C76.6745 71.3173 77.8692 70.6347 78.9785 69.696L101.379 73.152L100.995 76.736ZM50.554 181.912C55.162 181.912 59.002 182.424 62.074 183.448C65.2313 184.472 67.7487 185.752 69.626 187.288C71.5033 188.824 72.826 190.488 73.594 192.28C74.4473 194.072 74.874 195.736 74.874 197.272V200.728C74.874 201.923 74.5753 203.203 73.978 204.568C73.466 205.933 72.6127 207.299 71.418 208.664C70.2233 209.944 68.6447 211.181 66.682 212.376C64.7193 213.485 62.2873 214.424 59.386 215.192L60.282 227.992L88.698 226.072V154.904L86.01 150.68L107.642 156.568L106.362 184.344V211.48C108.922 210.2 111.269 209.133 113.402 208.28C115.621 207.341 117.242 206.872 118.266 206.872C120.741 206.957 122.831 207.853 124.538 209.56C126.245 211.267 127.055 213.357 126.97 215.832C126.97 218.307 126.074 220.397 124.282 222.104C122.575 223.811 120.485 224.664 118.01 224.664C117.071 224.664 115.535 224.237 113.402 223.384C111.354 222.445 109.007 221.251 106.362 219.8V255.896C103.119 256.493 100.133 257.048 97.402 257.56C94.6713 258.157 91.77 258.755 88.698 259.352V230.168C76.2393 231.363 63.482 232.515 50.426 233.624C37.37 234.733 24.57 235.885 12.026 237.08C11.77 235.971 11.4713 235.032 11.13 234.264C10.874 233.411 10.618 232.515 10.362 231.576L43.386 229.272L41.594 215.96C37.6687 215.533 34.3833 214.765 31.738 213.656C29.0927 212.461 26.9593 211.139 25.338 209.688C23.7167 208.237 22.522 206.744 21.754 205.208C21.0713 203.587 20.73 202.093 20.73 200.728V197.272C20.73 195.736 21.114 194.072 21.882 192.28C22.7353 190.488 24.1007 188.824 25.978 187.288C27.9407 185.752 30.5007 184.472 33.658 183.448C36.8153 182.424 40.698 181.912 45.306 181.912H50.554ZM76.154 171.672L75.898 174.616H18.042V170.776H44.154C45.3487 170.776 46.9273 170.776 48.89 170.776C50.8527 170.691 52.5167 170.008 53.882 168.728L76.154 171.672ZM52.602 211.352C54.8207 210.413 56.7407 208.877 58.362 206.744C60.0687 204.525 60.922 201.965 60.922 199.064C60.922 196.163 60.0687 193.603 58.362 191.384C56.7407 189.165 54.8207 187.587 52.602 186.648L52.73 186.776C52.0473 186.435 51.2793 186.179 50.426 186.008C49.5727 185.752 48.762 185.624 47.994 185.624C47.1407 185.624 46.2873 185.752 45.434 186.008C44.5807 186.179 43.8127 186.435 43.13 186.776L43.258 186.648C41.0393 187.587 39.0767 189.165 37.37 191.384C35.7487 193.603 34.938 196.163 34.938 199.064C34.938 201.965 35.7487 204.525 37.37 206.744C39.0767 208.877 41.0393 210.413 43.258 211.352L43.13 211.224C43.8127 211.565 44.5807 211.864 45.434 212.12C46.2873 212.376 47.1407 212.504 47.994 212.504C48.762 212.504 49.5727 212.376 50.426 212.12C51.2793 211.864 52.0473 211.565 52.73 211.224L52.602 211.352ZM54.266 150.808C56.2287 151.491 57.6793 152.557 58.618 154.008C59.642 155.459 59.9833 156.909 59.642 158.36C58.362 160.579 56.442 161.688 53.882 161.688C52.858 161.688 51.834 161.56 50.81 161.304C49.9567 161.048 48.89 160.536 47.61 159.768C46.4153 158.915 45.1353 157.976 43.77 156.952C42.4047 155.928 41.0393 154.861 39.674 153.752C38.3087 152.643 37.114 151.619 36.09 150.68C37.4553 150.68 38.8207 150.637 40.186 150.552C41.3807 150.467 42.5753 150.424 43.77 150.424C44.9647 150.339 46.0313 150.296 46.97 150.296C48.506 150.296 49.914 150.339 51.194 150.424C52.5593 150.509 53.5833 150.637 54.266 150.808Z"/>
</mask>
<path d="M122.115 36.672L121.407 37.3791L121.416 37.3877L121.425 37.3961L122.115 36.672ZM124.675 42.944L123.675 42.9095L123.675 42.9268V42.944H124.675ZM121.987 49.216L121.297 48.4919L121.288 48.5003L121.279 48.5089L121.987 49.216ZM113.155 51.136L112.64 51.9935L112.689 52.0228L112.741 52.0464L113.155 51.136ZM110.083 49.216L110.623 48.3747L110.613 48.368L110.083 49.216ZM107.139 47.552L106.624 48.4095L106.646 48.4225L106.668 48.4344L107.139 47.552ZM101.379 44.608L101.801 43.7018L100.379 43.0378V44.608H101.379ZM101.379 58.048L101.56 59.0314L102.379 58.8806V58.048H101.379ZM92.2905 59.84L92.4748 60.8229L92.4864 60.8207L92.498 60.8182L92.2905 59.84ZM83.5865 61.504H82.5865V62.7172L83.7774 62.4856L83.5865 61.504ZM83.5865 4.544H84.5865V4.25581L84.4331 4.01183L83.5865 4.544ZM80.7705 0.0639954L81.0384 -0.899441L78.5485 -1.59191L79.9239 0.596167L80.7705 0.0639954ZM102.403 6.07999L103.402 6.12057L103.434 5.32886L102.67 5.11656L102.403 6.07999ZM101.379 31.296L100.379 31.2554L100.379 31.2757V31.296H101.379ZM101.379 40.768H100.379V42.386L101.826 41.6624L101.379 40.768ZM106.755 38.08L107.202 38.9744L107.227 38.962L107.251 38.9482L106.755 38.08ZM109.827 36.416L110.274 37.3104L109.827 35.416V36.416ZM109.699 36.416L109.208 35.5444L105.881 37.416H109.699V36.416ZM113.155 34.624L113.568 35.5344L113.601 35.5193L113.633 35.5019L113.155 34.624ZM115.715 33.984L115.604 34.9779L115.659 34.984H115.715V33.984ZM75.3945 53.44L75.5052 54.4338L76.6313 54.3084L76.3669 53.2066L75.3945 53.44ZM29.4425 58.56L29.5192 59.5571L29.5362 59.5557L29.5532 59.5538L29.4425 58.56ZM21.1225 59.2L21.0458 58.2029L21.0359 58.2038L21.1225 59.2ZM16.1305 57.536L15.4466 58.2655L15.4466 58.2655L16.1305 57.536ZM13.9545 52.8L12.9552 52.837L12.9555 52.8454L13.9545 52.8ZM13.0585 32.064L12.0597 32.1127L12.0597 32.1133L13.0585 32.064ZM12.1625 11.2L12.2366 10.2027L11.1218 10.1199L11.1632 11.237L12.1625 11.2ZM31.1065 12.608H32.1065V11.6796L31.1806 11.6107L31.1065 12.608ZM31.1065 54.336H30.1065V55.4273L31.1937 55.3322L31.1065 54.336ZM52.7385 52.416L52.828 53.412L52.838 53.411L52.7385 52.416ZM74.6265 50.24L75.5989 50.0066L75.3955 49.1592L74.5282 49.2448L74.6265 50.24ZM100.995 76.736L100 76.6295L99.9969 76.6604L99.9955 76.6914L100.995 76.736ZM99.7145 105.408L99.8746 106.395L100.677 106.265L100.714 105.453L99.7145 105.408ZM91.1385 106.944L90.9424 105.963L90.9268 105.967L90.9113 105.97L91.1385 106.944ZM82.8185 108.608H81.8185V109.794L82.9875 109.594L82.8185 108.608ZM82.8185 76.352H83.8185V75.352H82.8185V76.352ZM26.3705 76.352H25.3705V77.352H26.3705V76.352ZM26.3705 72.384V71.384H25.3705V72.384H26.3705ZM75.3945 71.744L75.0783 70.7953L75.0682 70.7987L75.0582 70.8023L75.3945 71.744ZM78.9785 69.696L79.131 68.7077L78.6805 68.6382L78.3326 68.9326L78.9785 69.696ZM101.379 73.152L102.373 73.2585L102.475 72.3093L101.531 72.1637L101.379 73.152ZM115.843 34.984C117.949 34.984 119.79 35.762 121.407 37.3791L122.822 35.9649C120.855 33.998 118.514 32.984 115.843 32.984V34.984ZM121.425 37.3961C123.01 38.9057 123.751 40.7202 123.675 42.9095L125.674 42.9785C125.769 40.2185 124.803 37.8517 122.804 35.9479L121.425 37.3961ZM123.675 42.944C123.675 45.145 122.891 46.9739 121.297 48.4919L122.676 49.9401C124.666 48.0447 125.675 45.6923 125.675 42.944H123.675ZM121.279 48.5089C119.766 50.0228 117.931 50.776 115.715 50.776V52.776C118.447 52.776 120.794 51.8226 122.694 49.9231L121.279 48.5089ZM115.715 50.776C115.129 50.776 114.419 50.6124 113.568 50.2256L112.741 52.0464C113.767 52.5129 114.764 52.776 115.715 52.776V50.776ZM113.669 50.2785C112.827 49.7735 111.813 49.1394 110.623 48.3748L109.542 50.0572C110.742 50.8286 111.775 51.4745 112.64 51.9935L113.669 50.2785ZM110.613 48.368C109.901 47.9232 108.896 47.356 107.609 46.6696L106.668 48.4344C107.941 49.1133 108.899 49.6554 109.553 50.064L110.613 48.368ZM107.653 46.6945C106.328 45.8994 104.37 44.9007 101.801 43.7018L100.956 45.5142C103.507 46.7047 105.389 47.6686 106.624 48.4095L107.653 46.6945ZM100.379 44.608V58.048H102.379V44.608H100.379ZM101.197 57.0645C97.9471 57.6633 94.9089 58.2623 92.083 58.8618L92.498 60.8182C95.3041 60.223 98.3246 59.6274 101.56 59.0314L101.197 57.0645ZM92.1062 58.8571C89.3731 59.3696 86.4696 59.9247 83.3956 60.5224L83.7774 62.4856C86.8474 61.8887 89.7466 61.3344 92.4748 60.8229L92.1062 58.8571ZM84.5865 61.504V4.544H82.5865V61.504H84.5865ZM84.4331 4.01183L81.6171 -0.468176L79.9239 0.596167L82.7399 5.07617L84.4331 4.01183ZM80.5026 1.02743L102.135 7.04343L102.67 5.11656L81.0384 -0.899441L80.5026 1.02743ZM101.403 6.03942L100.379 31.2554L102.378 31.3366L103.402 6.12057L101.403 6.03942ZM100.379 31.296V40.768H102.379V31.296H100.379ZM101.826 41.6624C104.215 40.4678 106.007 39.5718 107.202 38.9744L106.307 37.1856C105.113 37.7829 103.321 38.6789 100.931 39.8736L101.826 41.6624ZM107.251 38.9482C108.436 38.2711 109.442 37.7261 110.274 37.3104L109.379 35.5216C108.504 35.9592 107.463 36.5235 106.258 37.2117L107.251 38.9482ZM109.827 35.416H109.699V37.416H109.827V35.416ZM110.189 37.2876C111.541 36.5272 112.665 35.9448 113.568 35.5344L112.741 33.7136C111.766 34.1565 110.587 34.7688 109.208 35.5444L110.189 37.2876ZM113.633 35.5019C114.459 35.0514 115.104 34.9224 115.604 34.9779L115.825 32.9901C114.789 32.875 113.727 33.1726 112.676 33.7461L113.633 35.5019ZM115.715 34.984H115.843V32.984H115.715V34.984ZM75.2838 52.4461L29.3318 57.5661L29.5532 59.5538L75.5052 54.4338L75.2838 52.4461ZM29.3658 57.5629L21.0458 58.2029L21.1992 60.1971L29.5192 59.5571L29.3658 57.5629ZM21.0359 58.2038C19.3394 58.3513 17.9604 57.8808 16.8144 56.8065L15.4466 58.2655C17.0312 59.7512 18.9803 60.3901 21.2091 60.1962L21.0359 58.2038ZM16.8144 56.8065C15.6401 55.7056 15.027 54.3728 14.9535 52.7546L12.9555 52.8454C13.0526 54.9819 13.8902 56.8064 15.4466 58.2655L16.8144 56.8065ZM14.9538 52.763C14.6977 45.8469 14.3988 38.9308 14.0573 32.0147L12.0597 32.1133C12.4008 39.0212 12.6993 45.9291 12.9552 52.837L14.9538 52.763ZM14.0573 32.0153C13.7162 25.0218 13.4177 18.071 13.1618 11.163L11.1632 11.237C11.4193 18.153 11.7182 25.1115 12.0597 32.1127L14.0573 32.0153ZM12.0884 12.1972L31.0324 13.6052L31.1806 11.6107L12.2366 10.2027L12.0884 12.1972ZM30.1065 12.608V54.336H32.1065V12.608H30.1065ZM31.1937 55.3322C38.0212 54.7348 45.2327 54.0947 52.828 53.412L52.649 51.42C45.055 52.1026 37.8451 52.7425 31.0193 53.3398L31.1937 55.3322ZM52.838 53.411C60.5176 52.6431 67.8132 51.9178 74.7248 51.2352L74.5282 49.2448C67.6158 49.9275 60.3194 50.6529 52.639 51.421L52.838 53.411ZM73.6541 50.4734L74.4221 53.6734L76.3669 53.2066L75.5989 50.0066L73.6541 50.4734ZM99.9955 76.6914L98.7155 105.363L100.714 105.453L101.994 76.7806L99.9955 76.6914ZM99.5544 104.421C96.3876 104.934 93.5167 105.449 90.9424 105.963L91.3346 107.925C93.8803 107.415 96.7267 106.906 99.8746 106.395L99.5544 104.421ZM90.9113 105.97C88.3732 106.562 85.6195 107.113 82.6495 107.622L82.9875 109.594C85.9908 109.079 88.7838 108.52 91.3657 107.918L90.9113 105.97ZM83.8185 108.608V76.352H81.8185V108.608H83.8185ZM82.8185 75.352H26.3705V77.352H82.8185V75.352ZM27.3705 76.352V72.384H25.3705V76.352H27.3705ZM26.3705 73.384H72.1945V71.384H26.3705V73.384ZM72.1945 73.384C73.2802 73.384 74.4637 73.1383 75.7308 72.6857L75.0582 70.8023C73.936 71.203 72.9861 71.384 72.1945 71.384V73.384ZM75.7107 72.6927C77.1205 72.2228 78.4255 71.4738 79.6244 70.4594L78.3326 68.9326C77.3128 69.7955 76.2286 70.4119 75.0783 70.7953L75.7107 72.6927ZM78.826 70.6843L101.226 74.1403L101.531 72.1637L79.131 68.7077L78.826 70.6843ZM100.384 73.0455L100 76.6295L101.989 76.8425L102.373 73.2585L100.384 73.0455ZM62.074 183.448L61.7578 184.397L61.7655 184.399L62.074 183.448ZM69.626 187.288L70.2592 186.514L70.2592 186.514L69.626 187.288ZM73.594 192.28L72.6749 192.674L72.6826 192.692L72.6911 192.71L73.594 192.28ZM73.978 204.568L73.0618 204.167L73.0511 204.192L73.0417 204.217L73.978 204.568ZM71.418 208.664L72.1491 209.346L72.16 209.335L72.1706 209.323L71.418 208.664ZM66.682 212.376L67.1741 213.247L67.1881 213.239L67.202 213.23L66.682 212.376ZM59.386 215.192L59.1301 214.225L58.3307 214.437L58.3884 215.262L59.386 215.192ZM60.282 227.992L59.2844 228.062L59.3541 229.057L60.3494 228.99L60.282 227.992ZM88.698 226.072L88.7654 227.07L89.698 227.007V226.072H88.698ZM88.698 154.904H89.698V154.613L89.5417 154.367L88.698 154.904ZM86.01 150.68L86.2726 149.715L83.7787 149.036L85.1663 151.217L86.01 150.68ZM107.642 156.568L108.641 156.614L108.678 155.814L107.905 155.603L107.642 156.568ZM106.362 184.344L105.363 184.298L105.362 184.321V184.344H106.362ZM106.362 211.48H105.362V213.098L106.809 212.374L106.362 211.48ZM113.402 208.28L113.773 209.208L113.783 209.205L113.792 209.201L113.402 208.28ZM118.266 206.872L118.3 205.873L118.283 205.872H118.266V206.872ZM124.538 209.56L125.245 208.853L125.245 208.853L124.538 209.56ZM126.97 215.832L125.971 215.798L125.97 215.815V215.832H126.97ZM124.282 222.104L123.592 221.38L123.584 221.388L123.575 221.397L124.282 222.104ZM113.402 223.384L112.985 224.293L113.008 224.303L113.031 224.312L113.402 223.384ZM106.362 219.8L106.843 218.923L105.362 218.111V219.8H106.362ZM106.362 255.896L106.543 256.879L107.362 256.729V255.896H106.362ZM97.402 257.56L97.2177 256.577L97.203 256.58L97.1883 256.583L97.402 257.56ZM88.698 259.352H87.698V260.565L88.8889 260.334L88.698 259.352ZM88.698 230.168H89.698V229.068L88.6026 229.173L88.698 230.168ZM50.426 233.624L50.5107 234.62L50.426 233.624ZM12.026 237.08L11.0516 237.305L11.2486 238.159L12.1208 238.075L12.026 237.08ZM11.13 234.264L10.1722 234.551L10.1904 234.612L10.2162 234.67L11.13 234.264ZM10.362 231.576L10.2924 230.578L9.07655 230.663L9.39724 231.839L10.362 231.576ZM43.386 229.272L43.4556 230.27L44.5193 230.195L44.3771 229.139L43.386 229.272ZM41.594 215.96L42.5851 215.827L42.4806 215.05L41.7021 214.966L41.594 215.96ZM31.738 213.656L31.3264 214.567L31.3388 214.573L31.3513 214.578L31.738 213.656ZM25.338 209.688L24.6712 210.433L24.6712 210.433L25.338 209.688ZM21.754 205.208L20.8324 205.596L20.845 205.626L20.8596 205.655L21.754 205.208ZM21.882 192.28L20.9791 191.85L20.9706 191.868L20.9629 191.886L21.882 192.28ZM25.978 187.288L25.3617 186.5L25.3532 186.507L25.3448 186.514L25.978 187.288ZM33.658 183.448L33.9665 184.399L33.9665 184.399L33.658 183.448ZM76.154 171.672L77.1502 171.759L77.2331 170.806L76.2851 170.681L76.154 171.672ZM75.898 174.616V175.616H76.8148L76.8942 174.703L75.898 174.616ZM18.042 174.616H17.042V175.616H18.042V174.616ZM18.042 170.776V169.776H17.042V170.776H18.042ZM48.89 170.776V171.776H48.9117L48.9334 171.775L48.89 170.776ZM53.882 168.728L54.013 167.737L53.5436 167.675L53.1981 167.998L53.882 168.728ZM52.602 211.352L51.8949 210.645L52.9916 212.273L52.602 211.352ZM58.362 206.744L57.5694 206.134L57.5658 206.139L58.362 206.744ZM58.362 191.384L57.5546 191.974L57.5619 191.984L57.5694 191.994L58.362 191.384ZM52.602 186.648L52.9916 185.727L51.8949 187.355L52.602 186.648ZM52.73 186.776L52.2828 187.67L53.4371 186.069L52.73 186.776ZM50.426 186.008L50.1387 186.966L50.1837 186.979L50.2299 186.989L50.426 186.008ZM45.434 186.008L45.6301 186.989L45.6763 186.979L45.7214 186.966L45.434 186.008ZM43.13 186.776L42.4229 186.069L43.5772 187.67L43.13 186.776ZM43.258 186.648L43.9651 187.355L42.8684 185.727L43.258 186.648ZM37.37 191.384L36.5774 190.774L36.5699 190.784L36.5626 190.794L37.37 191.384ZM37.37 206.744L36.5626 207.334L36.5755 207.352L36.5891 207.369L37.37 206.744ZM43.258 211.352L42.8684 212.273L43.9651 210.645L43.258 211.352ZM43.13 211.224L43.5772 210.33L42.4229 211.931L43.13 211.224ZM45.434 212.12L45.1467 213.078L45.1467 213.078L45.434 212.12ZM50.426 212.12L50.7133 213.078L50.7134 213.078L50.426 212.12ZM52.73 211.224L53.4371 211.931L52.2828 210.33L52.73 211.224ZM54.266 150.808L54.5945 149.864L54.5521 149.849L54.5085 149.838L54.266 150.808ZM58.618 154.008L57.7784 154.551L57.7894 154.568L57.801 154.585L58.618 154.008ZM59.642 158.36L60.5082 158.86L60.5817 158.732L60.6154 158.589L59.642 158.36ZM50.81 161.304L50.5227 162.262L50.5449 162.268L50.5675 162.274L50.81 161.304ZM47.61 159.768L47.0288 160.582L47.0613 160.605L47.0955 160.625L47.61 159.768ZM39.674 153.752L39.0434 154.528L39.0434 154.528L39.674 153.752ZM36.09 150.68V149.68H33.5192L35.4143 151.417L36.09 150.68ZM40.186 150.552L40.2484 151.55L40.2572 151.549L40.186 150.552ZM43.77 150.424V151.424H43.8057L43.8412 151.421L43.77 150.424ZM51.194 150.424L51.1275 151.422L51.1316 151.422L51.194 150.424ZM50.554 182.912C55.0961 182.912 58.8209 183.418 61.7578 184.397L62.3902 182.499C59.1831 181.43 55.2279 180.912 50.554 180.912V182.912ZM61.7655 184.399C64.8452 185.398 67.2401 186.628 68.9928 188.062L70.2592 186.514C68.2573 184.876 65.6175 183.546 62.3825 182.497L61.7655 184.399ZM68.9928 188.062C70.7754 189.521 71.9838 191.062 72.6749 192.674L74.5131 191.886C73.6682 189.914 72.2312 188.127 70.2592 186.514L68.9928 188.062ZM72.6911 192.71C73.4985 194.405 73.874 195.922 73.874 197.272H75.874C75.874 195.55 75.3962 193.739 74.4969 191.85L72.6911 192.71ZM73.874 197.272V200.728H75.874V197.272H73.874ZM73.874 200.728C73.874 201.755 73.6171 202.898 73.0618 204.167L74.8942 204.969C75.5335 203.507 75.874 202.09 75.874 200.728H73.874ZM73.0417 204.217C72.5808 205.446 71.7995 206.709 70.6654 208.005L72.1706 209.323C73.4259 207.888 74.3512 206.421 74.9143 204.919L73.0417 204.217ZM70.687 207.982C69.5704 209.178 68.0696 210.361 66.1621 211.522L67.202 213.23C69.2197 212.002 70.8763 210.71 72.1491 209.346L70.687 207.982ZM66.19 211.505C64.3214 212.562 61.9744 213.472 59.1301 214.225L59.6419 216.159C62.6003 215.376 65.1172 214.409 67.1741 213.247L66.19 211.505ZM58.3884 215.262L59.2844 228.062L61.2796 227.922L60.3836 215.122L58.3884 215.262ZM60.3494 228.99L88.7654 227.07L88.6306 225.074L60.2146 226.994L60.3494 228.99ZM89.698 226.072V154.904H87.698V226.072H89.698ZM89.5417 154.367L86.8537 150.143L85.1663 151.217L87.8543 155.441L89.5417 154.367ZM85.7474 151.645L107.379 157.533L107.905 155.603L86.2726 149.715L85.7474 151.645ZM106.643 156.522L105.363 184.298L107.361 184.39L108.641 156.614L106.643 156.522ZM105.362 184.344V211.48H107.362V184.344H105.362ZM106.809 212.374C109.35 211.104 111.671 210.049 113.773 209.208L113.031 207.352C110.866 208.217 108.494 209.296 105.915 210.586L106.809 212.374ZM113.792 209.201C116.01 208.263 117.464 207.872 118.266 207.872V205.872C117.02 205.872 115.232 206.42 113.012 207.359L113.792 209.201ZM118.232 207.871C120.46 207.948 122.308 208.745 123.831 210.267L125.245 208.853C123.354 206.962 121.021 205.966 118.3 205.873L118.232 207.871ZM123.831 210.267C125.336 211.772 126.047 213.592 125.971 215.798L127.969 215.866C128.064 213.123 127.153 210.761 125.245 208.853L123.831 210.267ZM125.97 215.832C125.97 218.033 125.186 219.862 123.592 221.38L124.972 222.828C126.962 220.933 127.97 218.58 127.97 215.832H125.97ZM123.575 221.397C122.061 222.911 120.227 223.664 118.01 223.664V225.664C120.742 225.664 123.09 224.711 124.989 222.811L123.575 221.397ZM118.01 223.664C117.285 223.664 115.912 223.311 113.773 222.456L113.031 224.312C115.159 225.164 116.858 225.664 118.01 225.664V223.664ZM113.819 222.475C111.798 221.549 109.474 220.366 106.843 218.923L105.881 220.677C108.541 222.135 110.91 223.342 112.985 224.293L113.819 222.475ZM105.362 219.8V255.896H107.362V219.8H105.362ZM106.181 254.913C102.937 255.51 99.9496 256.065 97.2177 256.577L97.5863 258.543C100.316 258.031 103.301 257.477 106.543 256.879L106.181 254.913ZM97.1883 256.583C94.4661 257.179 91.5724 257.774 88.5071 258.37L88.8889 260.334C91.9676 259.735 94.8766 259.136 97.6157 258.537L97.1883 256.583ZM89.698 259.352V230.168H87.698V259.352H89.698ZM88.6026 229.173C76.1476 230.367 63.3939 231.519 50.3413 232.628L50.5107 234.62C63.5701 233.511 76.331 232.358 88.7935 231.163L88.6026 229.173ZM50.3413 232.628C37.2821 233.737 24.4787 234.89 11.9312 236.085L12.1208 238.075C24.6613 236.881 37.4579 235.729 50.5107 234.62L50.3413 232.628ZM13.0004 236.855C12.7347 235.704 12.4184 234.701 12.0438 233.858L10.2162 234.67C10.5243 235.363 10.8053 236.237 11.0516 237.305L13.0004 236.855ZM12.0878 233.977C11.8344 233.132 11.5808 232.244 11.3268 231.313L9.39724 231.839C9.65525 232.785 9.91355 233.689 10.1722 234.551L12.0878 233.977ZM10.4316 232.574L43.4556 230.27L43.3164 228.274L10.2924 230.578L10.4316 232.574ZM44.3771 229.139L42.5851 215.827L40.6029 216.093L42.3949 229.405L44.3771 229.139ZM41.7021 214.966C37.8393 214.546 34.6548 213.795 32.1247 212.734L31.3513 214.578C34.1119 215.736 37.498 216.521 41.4859 216.954L41.7021 214.966ZM32.1496 212.745C29.5683 211.579 27.5295 210.307 26.0048 208.943L24.6712 210.433C26.3892 211.97 28.6171 213.344 31.3264 214.567L32.1496 212.745ZM26.0048 208.943C24.4534 207.555 23.3472 206.158 22.6484 204.761L20.8596 205.655C21.6968 207.33 22.9799 208.92 24.6712 210.433L26.0048 208.943ZM22.6756 204.82C22.0304 203.288 21.73 201.928 21.73 200.728H19.73C19.73 202.259 20.1123 203.886 20.8324 205.596L22.6756 204.82ZM21.73 200.728V197.272H19.73V200.728H21.73ZM21.73 197.272C21.73 195.903 22.0727 194.374 22.8011 192.674L20.9629 191.886C20.1553 193.77 19.73 195.569 19.73 197.272H21.73ZM22.7849 192.71C23.5623 191.077 24.8232 189.525 26.6112 188.062L25.3448 186.514C23.3781 188.123 21.9084 189.899 20.9791 191.85L22.7849 192.71ZM26.5943 188.075C28.4398 186.631 30.8858 185.398 33.9665 184.399L33.3495 182.497C30.1155 183.546 27.4415 184.873 25.3617 186.5L26.5943 188.075ZM33.9665 184.399C36.9939 183.417 40.7653 182.912 45.306 182.912V180.912C40.6308 180.912 36.6368 181.431 33.3495 182.497L33.9665 184.399ZM45.306 182.912H50.554V180.912H45.306V182.912ZM75.1578 171.585L74.9018 174.529L76.8942 174.703L77.1502 171.759L75.1578 171.585ZM75.898 173.616H18.042V175.616H75.898V173.616ZM19.042 174.616V170.776H17.042V174.616H19.042ZM18.042 171.776H44.154V169.776H18.042V171.776ZM44.154 171.776C44.1563 171.776 44.1587 171.776 44.161 171.776C44.1633 171.776 44.1657 171.776 44.168 171.776C44.1704 171.776 44.1727 171.776 44.175 171.776C44.1774 171.776 44.1797 171.776 44.1821 171.776C44.1844 171.776 44.1868 171.776 44.1891 171.776C44.1915 171.776 44.1938 171.776 44.1962 171.776C44.1985 171.776 44.2009 171.776 44.2032 171.776C44.2056 171.776 44.2079 171.776 44.2103 171.776C44.2126 171.776 44.215 171.776 44.2174 171.776C44.2197 171.776 44.2221 171.776 44.2244 171.776C44.2268 171.776 44.2292 171.776 44.2315 171.776C44.2339 171.776 44.2363 171.776 44.2386 171.776C44.241 171.776 44.2434 171.776 44.2457 171.776C44.2481 171.776 44.2505 171.776 44.2529 171.776C44.2552 171.776 44.2576 171.776 44.26 171.776C44.2624 171.776 44.2647 171.776 44.2671 171.776C44.2695 171.776 44.2719 171.776 44.2743 171.776C44.2767 171.776 44.279 171.776 44.2814 171.776C44.2838 171.776 44.2862 171.776 44.2886 171.776C44.291 171.776 44.2934 171.776 44.2958 171.776C44.2982 171.776 44.3005 171.776 44.3029 171.776C44.3053 171.776 44.3077 171.776 44.3101 171.776C44.3125 171.776 44.3149 171.776 44.3173 171.776C44.3197 171.776 44.3221 171.776 44.3245 171.776C44.3269 171.776 44.3293 171.776 44.3317 171.776C44.3342 171.776 44.3366 171.776 44.339 171.776C44.3414 171.776 44.3438 171.776 44.3462 171.776C44.3486 171.776 44.351 171.776 44.3534 171.776C44.3559 171.776 44.3583 171.776 44.3607 171.776C44.3631 171.776 44.3655 171.776 44.368 171.776C44.3704 171.776 44.3728 171.776 44.3752 171.776C44.3777 171.776 44.3801 171.776 44.3825 171.776C44.3849 171.776 44.3874 171.776 44.3898 171.776C44.3922 171.776 44.3947 171.776 44.3971 171.776C44.3995 171.776 44.402 171.776 44.4044 171.776C44.4068 171.776 44.4093 171.776 44.4117 171.776C44.4141 171.776 44.4166 171.776 44.419 171.776C44.4215 171.776 44.4239 171.776 44.4263 171.776C44.4288 171.776 44.4312 171.776 44.4337 171.776C44.4361 171.776 44.4386 171.776 44.441 171.776C44.4435 171.776 44.4459 171.776 44.4484 171.776C44.4508 171.776 44.4533 171.776 44.4558 171.776C44.4582 171.776 44.4607 171.776 44.4631 171.776C44.4656 171.776 44.468 171.776 44.4705 171.776C44.473 171.776 44.4754 171.776 44.4779 171.776C44.4804 171.776 44.4828 171.776 44.4853 171.776C44.4878 171.776 44.4902 171.776 44.4927 171.776C44.4952 171.776 44.4977 171.776 44.5001 171.776C44.5026 171.776 44.5051 171.776 44.5076 171.776C44.51 171.776 44.5125 171.776 44.515 171.776C44.5175 171.776 44.52 171.776 44.5224 171.776C44.5249 171.776 44.5274 171.776 44.5299 171.776C44.5324 171.776 44.5349 171.776 44.5373 171.776C44.5398 171.776 44.5423 171.776 44.5448 171.776C44.5473 171.776 44.5498 171.776 44.5523 171.776C44.5548 171.776 44.5573 171.776 44.5598 171.776C44.5623 171.776 44.5648 171.776 44.5673 171.776C44.5698 171.776 44.5723 171.776 44.5748 171.776C44.5773 171.776 44.5798 171.776 44.5823 171.776C44.5848 171.776 44.5873 171.776 44.5898 171.776C44.5923 171.776 44.5948 171.776 44.5974 171.776C44.5999 171.776 44.6024 171.776 44.6049 171.776C44.6074 171.776 44.6099 171.776 44.6124 171.776C44.615 171.776 44.6175 171.776 44.62 171.776C44.6225 171.776 44.625 171.776 44.6276 171.776C44.6301 171.776 44.6326 171.776 44.6351 171.776C44.6377 171.776 44.6402 171.776 44.6427 171.776C44.6453 171.776 44.6478 171.776 44.6503 171.776C44.6529 171.776 44.6554 171.776 44.6579 171.776C44.6605 171.776 44.663 171.776 44.6655 171.776C44.6681 171.776 44.6706 171.776 44.6732 171.776C44.6757 171.776 44.6782 171.776 44.6808 171.776C44.6833 171.776 44.6859 171.776 44.6884 171.776C44.691 171.776 44.6935 171.776 44.6961 171.776C44.6986 171.776 44.7012 171.776 44.7037 171.776C44.7063 171.776 44.7088 171.776 44.7114 171.776C44.7139 171.776 44.7165 171.776 44.7191 171.776C44.7216 171.776 44.7242 171.776 44.7267 171.776C44.7293 171.776 44.7319 171.776 44.7344 171.776C44.737 171.776 44.7396 171.776 44.7421 171.776C44.7447 171.776 44.7473 171.776 44.7498 171.776C44.7524 171.776 44.755 171.776 44.7576 171.776C44.7601 171.776 44.7627 171.776 44.7653 171.776C44.7679 171.776 44.7704 171.776 44.773 171.776C44.7756 171.776 44.7782 171.776 44.7808 171.776C44.7833 171.776 44.7859 171.776 44.7885 171.776C44.7911 171.776 44.7937 171.776 44.7963 171.776C44.7989 171.776 44.8014 171.776 44.804 171.776C44.8066 171.776 44.8092 171.776 44.8118 171.776C44.8144 171.776 44.817 171.776 44.8196 171.776C44.8222 171.776 44.8248 171.776 44.8274 171.776C44.83 171.776 44.8326 171.776 44.8352 171.776C44.8378 171.776 44.8404 171.776 44.843 171.776C44.8456 171.776 44.8482 171.776 44.8508 171.776C44.8534 171.776 44.8561 171.776 44.8587 171.776C44.8613 171.776 44.8639 171.776 44.8665 171.776C44.8691 171.776 44.8717 171.776 44.8744 171.776C44.877 171.776 44.8796 171.776 44.8822 171.776C44.8848 171.776 44.8875 171.776 44.8901 171.776C44.8927 171.776 44.8953 171.776 44.8979 171.776C44.9006 171.776 44.9032 171.776 44.9058 171.776C44.9085 171.776 44.9111 171.776 44.9137 171.776C44.9164 171.776 44.919 171.776 44.9216 171.776C44.9243 171.776 44.9269 171.776 44.9295 171.776C44.9322 171.776 44.9348 171.776 44.9375 171.776C44.9401 171.776 44.9427 171.776 44.9454 171.776C44.948 171.776 44.9507 171.776 44.9533 171.776C44.956 171.776 44.9586 171.776 44.9613 171.776C44.9639 171.776 44.9666 171.776 44.9692 171.776C44.9719 171.776 44.9745 171.776 44.9772 171.776C44.9798 171.776 44.9825 171.776 44.9851 171.776C44.9878 171.776 44.9905 171.776 44.9931 171.776C44.9958 171.776 44.9985 171.776 45.0011 171.776C45.0038 171.776 45.0064 171.776 45.0091 171.776C45.0118 171.776 45.0145 171.776 45.0171 171.776C45.0198 171.776 45.0225 171.776 45.0251 171.776C45.0278 171.776 45.0305 171.776 45.0332 171.776C45.0358 171.776 45.0385 171.776 45.0412 171.776C45.0439 171.776 45.0466 171.776 45.0492 171.776C45.0519 171.776 45.0546 171.776 45.0573 171.776C45.06 171.776 45.0627 171.776 45.0653 171.776C45.068 171.776 45.0707 171.776 45.0734 171.776C45.0761 171.776 45.0788 171.776 45.0815 171.776C45.0842 171.776 45.0869 171.776 45.0896 171.776C45.0923 171.776 45.095 171.776 45.0977 171.776C45.1004 171.776 45.1031 171.776 45.1058 171.776C45.1085 171.776 45.1112 171.776 45.1139 171.776C45.1166 171.776 45.1193 171.776 45.122 171.776C45.1247 171.776 45.1274 171.776 45.1301 171.776C45.1328 171.776 45.1356 171.776 45.1383 171.776C45.141 171.776 45.1437 171.776 45.1464 171.776C45.1491 171.776 45.1519 171.776 45.1546 171.776C45.1573 171.776 45.16 171.776 45.1627 171.776C45.1655 171.776 45.1682 171.776 45.1709 171.776C45.1736 171.776 45.1764 171.776 45.1791 171.776C45.1818 171.776 45.1846 171.776 45.1873 171.776C45.19 171.776 45.1927 171.776 45.1955 171.776C45.1982 171.776 45.201 171.776 45.2037 171.776C45.2064 171.776 45.2092 171.776 45.2119 171.776C45.2147 171.776 45.2174 171.776 45.2201 171.776C45.2229 171.776 45.2256 171.776 45.2284 171.776C45.2311 171.776 45.2339 171.776 45.2366 171.776C45.2394 171.776 45.2421 171.776 45.2449 171.776C45.2476 171.776 45.2504 171.776 45.2531 171.776C45.2559 171.776 45.2586 171.776 45.2614 171.776C45.2642 171.776 45.2669 171.776 45.2697 171.776C45.2724 171.776 45.2752 171.776 45.278 171.776C45.2807 171.776 45.2835 171.776 45.2863 171.776C45.289 171.776 45.2918 171.776 45.2946 171.776C45.2973 171.776 45.3001 171.776 45.3029 171.776C45.3057 171.776 45.3084 171.776 45.3112 171.776C45.314 171.776 45.3168 171.776 45.3195 171.776C45.3223 171.776 45.3251 171.776 45.3279 171.776C45.3307 171.776 45.3334 171.776 45.3362 171.776C45.339 171.776 45.3418 171.776 45.3446 171.776C45.3474 171.776 45.3502 171.776 45.3529 171.776C45.3557 171.776 45.3585 171.776 45.3613 171.776C45.3641 171.776 45.3669 171.776 45.3697 171.776C45.3725 171.776 45.3753 171.776 45.3781 171.776C45.3809 171.776 45.3837 171.776 45.3865 171.776C45.3893 171.776 45.3921 171.776 45.3949 171.776C45.3977 171.776 45.4005 171.776 45.4033 171.776C45.4061 171.776 45.409 171.776 45.4118 171.776C45.4146 171.776 45.4174 171.776 45.4202 171.776C45.423 171.776 45.4258 171.776 45.4286 171.776C45.4315 171.776 45.4343 171.776 45.4371 171.776C45.4399 171.776 45.4427 171.776 45.4456 171.776C45.4484 171.776 45.4512 171.776 45.454 171.776C45.4569 171.776 45.4597 171.776 45.4625 171.776C45.4653 171.776 45.4682 171.776 45.471 171.776C45.4738 171.776 45.4767 171.776 45.4795 171.776C45.4823 171.776 45.4852 171.776 45.488 171.776C45.4908 171.776 45.4937 171.776 45.4965 171.776C45.4994 171.776 45.5022 171.776 45.5051 171.776C45.5079 171.776 45.5107 171.776 45.5136 171.776C45.5164 171.776 45.5193 171.776 45.5221 171.776C45.525 171.776 45.5278 171.776 45.5307 171.776C45.5335 171.776 45.5364 171.776 45.5392 171.776C45.5421 171.776 45.545 171.776 45.5478 171.776C45.5507 171.776 45.5535 171.776 45.5564 171.776C45.5592 171.776 45.5621 171.776 45.565 171.776C45.5678 171.776 45.5707 171.776 45.5736 171.776C45.5764 171.776 45.5793 171.776 45.5822 171.776C45.585 171.776 45.5879 171.776 45.5908 171.776C45.5937 171.776 45.5965 171.776 45.5994 171.776C45.6023 171.776 45.6052 171.776 45.608 171.776C45.6109 171.776 45.6138 171.776 45.6167 171.776C45.6196 171.776 45.6224 171.776 45.6253 171.776C45.6282 171.776 45.6311 171.776 45.634 171.776C45.6369 171.776 45.6398 171.776 45.6426 171.776C45.6455 171.776 45.6484 171.776 45.6513 171.776C45.6542 171.776 45.6571 171.776 45.66 171.776C45.6629 171.776 45.6658 171.776 45.6687 171.776C45.6716 171.776 45.6745 171.776 45.6774 171.776C45.6803 171.776 45.6832 171.776 45.6861 171.776C45.689 171.776 45.6919 171.776 45.6948 171.776C45.6977 171.776 45.7006 171.776 45.7036 171.776C45.7065 171.776 45.7094 171.776 45.7123 171.776C45.7152 171.776 45.7181 171.776 45.721 171.776C45.7239 171.776 45.7269 171.776 45.7298 171.776C45.7327 171.776 45.7356 171.776 45.7385 171.776C45.7415 171.776 45.7444 171.776 45.7473 171.776C45.7502 171.776 45.7532 171.776 45.7561 171.776C45.759 171.776 45.762 171.776 45.7649 171.776C45.7678 171.776 45.7707 171.776 45.7737 171.776C45.7766 171.776 45.7796 171.776 45.7825 171.776C45.7854 171.776 45.7884 171.776 45.7913 171.776C45.7942 171.776 45.7972 171.776 45.8001 171.776C45.8031 171.776 45.806 171.776 45.809 171.776C45.8119 171.776 45.8149 171.776 45.8178 171.776C45.8208 171.776 45.8237 171.776 45.8267 171.776C45.8296 171.776 45.8326 171.776 45.8355 171.776C45.8385 171.776 45.8414 171.776 45.8444 171.776C45.8473 171.776 45.8503 171.776 45.8533 171.776C45.8562 171.776 45.8592 171.776 45.8621 171.776C45.8651 171.776 45.8681 171.776 45.871 171.776C45.874 171.776 45.877 171.776 45.8799 171.776C45.8829 171.776 45.8859 171.776 45.8888 171.776C45.8918 171.776 45.8948 171.776 45.8978 171.776C45.9007 171.776 45.9037 171.776 45.9067 171.776C45.9097 171.776 45.9127 171.776 45.9156 171.776C45.9186 171.776 45.9216 171.776 45.9246 171.776C45.9276 171.776 45.9306 171.776 45.9335 171.776C45.9365 171.776 45.9395 171.776 45.9425 171.776C45.9455 171.776 45.9485 171.776 45.9515 171.776C45.9545 171.776 45.9575 171.776 45.9605 171.776C45.9635 171.776 45.9665 171.776 45.9694 171.776C45.9724 171.776 45.9754 171.776 45.9784 171.776C45.9814 171.776 45.9845 171.776 45.9875 171.776C45.9905 171.776 45.9935 171.776 45.9965 171.776C45.9995 171.776 46.0025 171.776 46.0055 171.776C46.0085 171.776 46.0115 171.776 46.0145 171.776C46.0175 171.776 46.0206 171.776 46.0236 171.776C46.0266 171.776 46.0296 171.776 46.0326 171.776C46.0356 171.776 46.0387 171.776 46.0417 171.776C46.0447 171.776 46.0477 171.776 46.0508 171.776C46.0538 171.776 46.0568 171.776 46.0598 171.776C46.0629 171.776 46.0659 171.776 46.0689 171.776C46.072 171.776 46.075 171.776 46.078 171.776C46.0811 171.776 46.0841 171.776 46.0871 171.776C46.0902 171.776 46.0932 171.776 46.0962 171.776C46.0993 171.776 46.1023 171.776 46.1054 171.776C46.1084 171.776 46.1115 171.776 46.1145 171.776C46.1175 171.776 46.1206 171.776 46.1236 171.776C46.1267 171.776 46.1297 171.776 46.1328 171.776C46.1358 171.776 46.1389 171.776 46.1419 171.776C46.145 171.776 46.1481 171.776 46.1511 171.776C46.1542 171.776 46.1572 171.776 46.1603 171.776C46.1633 171.776 46.1664 171.776 46.1695 171.776C46.1725 171.776 46.1756 171.776 46.1787 171.776C46.1817 171.776 46.1848 171.776 46.1879 171.776C46.1909 171.776 46.194 171.776 46.1971 171.776C46.2001 171.776 46.2032 171.776 46.2063 171.776C46.2094 171.776 46.2124 171.776 46.2155 171.776C46.2186 171.776 46.2217 171.776 46.2248 171.776C46.2278 171.776 46.2309 171.776 46.234 171.776C46.2371 171.776 46.2402 171.776 46.2433 171.776C46.2463 171.776 46.2494 171.776 46.2525 171.776C46.2556 171.776 46.2587 171.776 46.2618 171.776C46.2649 171.776 46.268 171.776 46.2711 171.776C46.2742 171.776 46.2773 171.776 46.2804 171.776C46.2835 171.776 46.2866 171.776 46.2897 171.776C46.2928 171.776 46.2959 171.776 46.299 171.776C46.3021 171.776 46.3052 171.776 46.3083 171.776C46.3114 171.776 46.3145 171.776 46.3176 171.776C46.3207 171.776 46.3238 171.776 46.3269 171.776C46.3301 171.776 46.3332 171.776 46.3363 171.776C46.3394 171.776 46.3425 171.776 46.3456 171.776C46.3488 171.776 46.3519 171.776 46.355 171.776C46.3581 171.776 46.3612 171.776 46.3644 171.776C46.3675 171.776 46.3706 171.776 46.3737 171.776C46.3769 171.776 46.38 171.776 46.3831 171.776C46.3863 171.776 46.3894 171.776 46.3925 171.776C46.3957 171.776 46.3988 171.776 46.4019 171.776C46.4051 171.776 46.4082 171.776 46.4113 171.776C46.4145 171.776 46.4176 171.776 46.4208 171.776C46.4239 171.776 46.427 171.776 46.4302 171.776C46.4333 171.776 46.4365 171.776 46.4396 171.776C46.4428 171.776 46.4459 171.776 46.4491 171.776C46.4522 171.776 46.4554 171.776 46.4585 171.776C46.4617 171.776 46.4648 171.776 46.468 171.776C46.4712 171.776 46.4743 171.776 46.4775 171.776C46.4806 171.776 46.4838 171.776 46.487 171.776C46.4901 171.776 46.4933 171.776 46.4964 171.776C46.4996 171.776 46.5028 171.776 46.5059 171.776C46.5091 171.776 46.5123 171.776 46.5155 171.776C46.5186 171.776 46.5218 171.776 46.525 171.776C46.5282 171.776 46.5313 171.776 46.5345 171.776C46.5377 171.776 46.5409 171.776 46.544 171.776C46.5472 171.776 46.5504 171.776 46.5536 171.776C46.5568 171.776 46.56 171.776 46.5631 171.776C46.5663 171.776 46.5695 171.776 46.5727 171.776C46.5759 171.776 46.5791 171.776 46.5823 171.776C46.5855 171.776 46.5887 171.776 46.5918 171.776C46.595 171.776 46.5982 171.776 46.6014 171.776C46.6046 171.776 46.6078 171.776 46.611 171.776C46.6142 171.776 46.6174 171.776 46.6206 171.776C46.6238 171.776 46.627 171.776 46.6303 171.776C46.6335 171.776 46.6367 171.776 46.6399 171.776C46.6431 171.776 46.6463 171.776 46.6495 171.776C46.6527 171.776 46.6559 171.776 46.6592 171.776C46.6624 171.776 46.6656 171.776 46.6688 171.776C46.672 171.776 46.6752 171.776 46.6785 171.776C46.6817 171.776 46.6849 171.776 46.6881 171.776C46.6914 171.776 46.6946 171.776 46.6978 171.776C46.701 171.776 46.7043 171.776 46.7075 171.776C46.7107 171.776 46.714 171.776 46.7172 171.776C46.7204 171.776 46.7237 171.776 46.7269 171.776C46.7301 171.776 46.7334 171.776 46.7366 171.776C46.7398 171.776 46.7431 171.776 46.7463 171.776C46.7496 171.776 46.7528 171.776 46.756 171.776C46.7593 171.776 46.7625 171.776 46.7658 171.776C46.769 171.776 46.7723 171.776 46.7755 171.776C46.7788 171.776 46.782 171.776 46.7853 171.776C46.7885 171.776 46.7918 171.776 46.7951 171.776C46.7983 171.776 46.8016 171.776 46.8048 171.776C46.8081 171.776 46.8113 171.776 46.8146 171.776C46.8179 171.776 46.8211 171.776 46.8244 171.776C46.8277 171.776 46.8309 171.776 46.8342 171.776C46.8375 171.776 46.8407 171.776 46.844 171.776C46.8473 171.776 46.8505 171.776 46.8538 171.776C46.8571 171.776 46.8604 171.776 46.8636 171.776C46.8669 171.776 46.8702 171.776 46.8735 171.776C46.8768 171.776 46.88 171.776 46.8833 171.776C46.8866 171.776 46.8899 171.776 46.8932 171.776C46.8965 171.776 46.8997 171.776 46.903 171.776C46.9063 171.776 46.9096 171.776 46.9129 171.776C46.9162 171.776 46.9195 171.776 46.9228 171.776C46.9261 171.776 46.9294 171.776 46.9327 171.776C46.936 171.776 46.9393 171.776 46.9426 171.776C46.9459 171.776 46.9492 171.776 46.9525 171.776C46.9558 171.776 46.9591 171.776 46.9624 171.776C46.9657 171.776 46.969 171.776 46.9723 171.776C46.9756 171.776 46.9789 171.776 46.9822 171.776C46.9856 171.776 46.9889 171.776 46.9922 171.776C46.9955 171.776 46.9988 171.776 47.0021 171.776C47.0054 171.776 47.0088 171.776 47.0121 171.776C47.0154 171.776 47.0187 171.776 47.0221 171.776C47.0254 171.776 47.0287 171.776 47.032 171.776C47.0354 171.776 47.0387 171.776 47.042 171.776C47.0453 171.776 47.0487 171.776 47.052 171.776C47.0553 171.776 47.0587 171.776 47.062 171.776C47.0653 171.776 47.0687 171.776 47.072 171.776C47.0754 171.776 47.0787 171.776 47.082 171.776C47.0854 171.776 47.0887 171.776 47.0921 171.776C47.0954 171.776 47.0988 171.776 47.1021 171.776C47.1054 171.776 47.1088 171.776 47.1121 171.776C47.1155 171.776 47.1188 171.776 47.1222 171.776C47.1256 171.776 47.1289 171.776 47.1323 171.776C47.1356 171.776 47.139 171.776 47.1423 171.776C47.1457 171.776 47.1491 171.776 47.1524 171.776C47.1558 171.776 47.1591 171.776 47.1625 171.776C47.1659 171.776 47.1692 171.776 47.1726 171.776C47.176 171.776 47.1793 171.776 47.1827 171.776C47.1861 171.776 47.1895 171.776 47.1928 171.776C47.1962 171.776 47.1996 171.776 47.2029 171.776C47.2063 171.776 47.2097 171.776 47.2131 171.776C47.2165 171.776 47.2198 171.776 47.2232 171.776C47.2266 171.776 47.23 171.776 47.2334 171.776C47.2368 171.776 47.2401 171.776 47.2435 171.776C47.2469 171.776 47.2503 171.776 47.2537 171.776C47.2571 171.776 47.2605 171.776 47.2639 171.776C47.2673 171.776 47.2707 171.776 47.2741 171.776C47.2775 171.776 47.2809 171.776 47.2843 171.776C47.2877 171.776 47.2911 171.776 47.2945 171.776C47.2979 171.776 47.3013 171.776 47.3047 171.776C47.3081 171.776 47.3115 171.776 47.3149 171.776C47.3183 171.776 47.3217 171.776 47.3251 171.776C47.3285 171.776 47.332 171.776 47.3354 171.776C47.3388 171.776 47.3422 171.776 47.3456 171.776C47.349 171.776 47.3525 171.776 47.3559 171.776C47.3593 171.776 47.3627 171.776 47.3661 171.776C47.3696 171.776 47.373 171.776 47.3764 171.776C47.3798 171.776 47.3833 171.776 47.3867 171.776C47.3901 171.776 47.3936 171.776 47.397 171.776C47.4004 171.776 47.4038 171.776 47.4073 171.776C47.4107 171.776 47.4142 171.776 47.4176 171.776C47.421 171.776 47.4245 171.776 47.4279 171.776C47.4314 171.776 47.4348 171.776 47.4382 171.776C47.4417 171.776 47.4451 171.776 47.4486 171.776C47.452 171.776 47.4555 171.776 47.4589 171.776C47.4624 171.776 47.4658 171.776 47.4693 171.776C47.4727 171.776 47.4762 171.776 47.4796 171.776C47.4831 171.776 47.4865 171.776 47.49 171.776C47.4935 171.776 47.4969 171.776 47.5004 171.776C47.5038 171.776 47.5073 171.776 47.5108 171.776C47.5142 171.776 47.5177 171.776 47.5212 171.776C47.5246 171.776 47.5281 171.776 47.5316 171.776C47.535 171.776 47.5385 171.776 47.542 171.776C47.5455 171.776 47.5489 171.776 47.5524 171.776C47.5559 171.776 47.5594 171.776 47.5628 171.776C47.5663 171.776 47.5698 171.776 47.5733 171.776C47.5768 171.776 47.5802 171.776 47.5837 171.776C47.5872 171.776 47.5907 171.776 47.5942 171.776C47.5977 171.776 47.6012 171.776 47.6047 171.776C47.6082 171.776 47.6116 171.776 47.6151 171.776C47.6186 171.776 47.6221 171.776 47.6256 171.776C47.6291 171.776 47.6326 171.776 47.6361 171.776C47.6396 171.776 47.6431 171.776 47.6466 171.776C47.6501 171.776 47.6536 171.776 47.6571 171.776C47.6606 171.776 47.6641 171.776 47.6676 171.776C47.6712 171.776 47.6747 171.776 47.6782 171.776C47.6817 171.776 47.6852 171.776 47.6887 171.776C47.6922 171.776 47.6957 171.776 47.6993 171.776C47.7028 171.776 47.7063 171.776 47.7098 171.776C47.7133 171.776 47.7169 171.776 47.7204 171.776C47.7239 171.776 47.7274 171.776 47.731 171.776C47.7345 171.776 47.738 171.776 47.7415 171.776C47.7451 171.776 47.7486 171.776 47.7521 171.776C47.7557 171.776 47.7592 171.776 47.7627 171.776C47.7663 171.776 47.7698 171.776 47.7733 171.776C47.7769 171.776 47.7804 171.776 47.7839 171.776C47.7875 171.776 47.791 171.776 47.7946 171.776C47.7981 171.776 47.8017 171.776 47.8052 171.776C47.8088 171.776 47.8123 171.776 47.8159 171.776C47.8194 171.776 47.823 171.776 47.8265 171.776C47.8301 171.776 47.8336 171.776 47.8372 171.776C47.8407 171.776 47.8443 171.776 47.8478 171.776C47.8514 171.776 47.855 171.776 47.8585 171.776C47.8621 171.776 47.8656 171.776 47.8692 171.776C47.8728 171.776 47.8763 171.776 47.8799 171.776C47.8835 171.776 47.887 171.776 47.8906 171.776C47.8942 171.776 47.8977 171.776 47.9013 171.776C47.9049 171.776 47.9085 171.776 47.912 171.776C47.9156 171.776 47.9192 171.776 47.9228 171.776C47.9263 171.776 47.9299 171.776 47.9335 171.776C47.9371 171.776 47.9407 171.776 47.9443 171.776C47.9478 171.776 47.9514 171.776 47.955 171.776C47.9586 171.776 47.9622 171.776 47.9658 171.776C47.9694 171.776 47.973 171.776 47.9766 171.776C47.9801 171.776 47.9837 171.776 47.9873 171.776C47.9909 171.776 47.9945 171.776 47.9981 171.776C48.0017 171.776 48.0053 171.776 48.0089 171.776C48.0125 171.776 48.0161 171.776 48.0197 171.776C48.0233 171.776 48.027 171.776 48.0306 171.776C48.0342 171.776 48.0378 171.776 48.0414 171.776C48.045 171.776 48.0486 171.776 48.0522 171.776C48.0558 171.776 48.0595 171.776 48.0631 171.776C48.0667 171.776 48.0703 171.776 48.0739 171.776C48.0775 171.776 48.0812 171.776 48.0848 171.776C48.0884 171.776 48.092 171.776 48.0957 171.776C48.0993 171.776 48.1029 171.776 48.1065 171.776C48.1102 171.776 48.1138 171.776 48.1174 171.776C48.1211 171.776 48.1247 171.776 48.1283 171.776C48.132 171.776 48.1356 171.776 48.1392 171.776C48.1429 171.776 48.1465 171.776 48.1501 171.776C48.1538 171.776 48.1574 171.776 48.1611 171.776C48.1647 171.776 48.1684 171.776 48.172 171.776C48.1756 171.776 48.1793 171.776 48.1829 171.776C48.1866 171.776 48.1902 171.776 48.1939 171.776C48.1975 171.776 48.2012 171.776 48.2049 171.776C48.2085 171.776 48.2122 171.776 48.2158 171.776C48.2195 171.776 48.2231 171.776 48.2268 171.776C48.2305 171.776 48.2341 171.776 48.2378 171.776C48.2414 171.776 48.2451 171.776 48.2488 171.776C48.2524 171.776 48.2561 171.776 48.2598 171.776C48.2635 171.776 48.2671 171.776 48.2708 171.776C48.2745 171.776 48.2781 171.776 48.2818 171.776C48.2855 171.776 48.2892 171.776 48.2928 171.776C48.2965 171.776 48.3002 171.776 48.3039 171.776C48.3076 171.776 48.3112 171.776 48.3149 171.776C48.3186 171.776 48.3223 171.776 48.326 171.776C48.3297 171.776 48.3334 171.776 48.3371 171.776C48.3407 171.776 48.3444 171.776 48.3481 171.776C48.3518 171.776 48.3555 171.776 48.3592 171.776C48.3629 171.776 48.3666 171.776 48.3703 171.776C48.374 171.776 48.3777 171.776 48.3814 171.776C48.3851 171.776 48.3888 171.776 48.3925 171.776C48.3962 171.776 48.3999 171.776 48.4036 171.776C48.4073 171.776 48.411 171.776 48.4148 171.776C48.4185 171.776 48.4222 171.776 48.4259 171.776C48.4296 171.776 48.4333 171.776 48.437 171.776C48.4408 171.776 48.4445 171.776 48.4482 171.776C48.4519 171.776 48.4556 171.776 48.4593 171.776C48.4631 171.776 48.4668 171.776 48.4705 171.776C48.4742 171.776 48.478 171.776 48.4817 171.776C48.4854 171.776 48.4892 171.776 48.4929 171.776C48.4966 171.776 48.5003 171.776 48.5041 171.776C48.5078 171.776 48.5116 171.776 48.5153 171.776C48.519 171.776 48.5228 171.776 48.5265 171.776C48.5302 171.776 48.534 171.776 48.5377 171.776C48.5415 171.776 48.5452 171.776 48.549 171.776C48.5527 171.776 48.5565 171.776 48.5602 171.776C48.5639 171.776 48.5677 171.776 48.5714 171.776C48.5752 171.776 48.579 171.776 48.5827 171.776C48.5865 171.776 48.5902 171.776 48.594 171.776C48.5977 171.776 48.6015 171.776 48.6052 171.776C48.609 171.776 48.6128 171.776 48.6165 171.776C48.6203 171.776 48.6241 171.776 48.6278 171.776C48.6316 171.776 48.6354 171.776 48.6391 171.776C48.6429 171.776 48.6467 171.776 48.6504 171.776C48.6542 171.776 48.658 171.776 48.6618 171.776C48.6655 171.776 48.6693 171.776 48.6731 171.776C48.6769 171.776 48.6806 171.776 48.6844 171.776C48.6882 171.776 48.692 171.776 48.6958 171.776C48.6996 171.776 48.7033 171.776 48.7071 171.776C48.7109 171.776 48.7147 171.776 48.7185 171.776C48.7223 171.776 48.7261 171.776 48.7299 171.776C48.7337 171.776 48.7375 171.776 48.7412 171.776C48.745 171.776 48.7488 171.776 48.7526 171.776C48.7564 171.776 48.7602 171.776 48.764 171.776C48.7678 171.776 48.7716 171.776 48.7754 171.776C48.7792 171.776 48.7831 171.776 48.7869 171.776C48.7907 171.776 48.7945 171.776 48.7983 171.776C48.8021 171.776 48.8059 171.776 48.8097 171.776C48.8135 171.776 48.8173 171.776 48.8212 171.776C48.825 171.776 48.8288 171.776 48.8326 171.776C48.8364 171.776 48.8403 171.776 48.8441 171.776C48.8479 171.776 48.8517 171.776 48.8555 171.776C48.8594 171.776 48.8632 171.776 48.867 171.776C48.8708 171.776 48.8747 171.776 48.8785 171.776C48.8823 171.776 48.8862 171.776 48.89 171.776V169.776C48.8862 169.776 48.8823 169.776 48.8785 169.776C48.8747 169.776 48.8708 169.776 48.867 169.776C48.8632 169.776 48.8594 169.776 48.8555 169.776C48.8517 169.776 48.8479 169.776 48.8441 169.776C48.8403 169.776 48.8364 169.776 48.8326 169.776C48.8288 169.776 48.825 169.776 48.8212 169.776C48.8173 169.776 48.8135 169.776 48.8097 169.776C48.8059 169.776 48.8021 169.776 48.7983 169.776C48.7945 169.776 48.7907 169.776 48.7869 169.776C48.7831 169.776 48.7792 169.776 48.7754 169.776C48.7716 169.776 48.7678 169.776 48.764 169.776C48.7602 169.776 48.7564 169.776 48.7526 169.776C48.7488 169.776 48.745 169.776 48.7412 169.776C48.7375 169.776 48.7337 169.776 48.7299 169.776C48.7261 169.776 48.7223 169.776 48.7185 169.776C48.7147 169.776 48.7109 169.776 48.7071 169.776C48.7033 169.776 48.6996 169.776 48.6958 169.776C48.692 169.776 48.6882 169.776 48.6844 169.776C48.6806 169.776 48.6769 169.776 48.6731 169.776C48.6693 169.776 48.6655 169.776 48.6618 169.776C48.658 169.776 48.6542 169.776 48.6504 169.776C48.6467 169.776 48.6429 169.776 48.6391 169.776C48.6354 169.776 48.6316 169.776 48.6278 169.776C48.6241 169.776 48.6203 169.776 48.6165 169.776C48.6128 169.776 48.609 169.776 48.6052 169.776C48.6015 169.776 48.5977 169.776 48.594 169.776C48.5902 169.776 48.5865 169.776 48.5827 169.776C48.579 169.776 48.5752 169.776 48.5714 169.776C48.5677 169.776 48.5639 169.776 48.5602 169.776C48.5565 169.776 48.5527 169.776 48.549 169.776C48.5452 169.776 48.5415 169.776 48.5377 169.776C48.534 169.776 48.5302 169.776 48.5265 169.776C48.5228 169.776 48.519 169.776 48.5153 169.776C48.5116 169.776 48.5078 169.776 48.5041 169.776C48.5003 169.776 48.4966 169.776 48.4929 169.776C48.4892 169.776 48.4854 169.776 48.4817 169.776C48.478 169.776 48.4742 169.776 48.4705 169.776C48.4668 169.776 48.4631 169.776 48.4593 169.776C48.4556 169.776 48.4519 169.776 48.4482 169.776C48.4445 169.776 48.4408 169.776 48.437 169.776C48.4333 169.776 48.4296 169.776 48.4259 169.776C48.4222 169.776 48.4185 169.776 48.4148 169.776C48.411 169.776 48.4073 169.776 48.4036 169.776C48.3999 169.776 48.3962 169.776 48.3925 169.776C48.3888 169.776 48.3851 169.776 48.3814 169.776C48.3777 169.776 48.374 169.776 48.3703 169.776C48.3666 169.776 48.3629 169.776 48.3592 169.776C48.3555 169.776 48.3518 169.776 48.3481 169.776C48.3444 169.776 48.3407 169.776 48.3371 169.776C48.3334 169.776 48.3297 169.776 48.326 169.776C48.3223 169.776 48.3186 169.776 48.3149 169.776C48.3112 169.776 48.3076 169.776 48.3039 169.776C48.3002 169.776 48.2965 169.776 48.2928 169.776C48.2892 169.776 48.2855 169.776 48.2818 169.776C48.2781 169.776 48.2745 169.776 48.2708 169.776C48.2671 169.776 48.2635 169.776 48.2598 169.776C48.2561 169.776 48.2524 169.776 48.2488 169.776C48.2451 169.776 48.2414 169.776 48.2378 169.776C48.2341 169.776 48.2305 169.776 48.2268 169.776C48.2231 169.776 48.2195 169.776 48.2158 169.776C48.2122 169.776 48.2085 169.776 48.2049 169.776C48.2012 169.776 48.1975 169.776 48.1939 169.776C48.1902 169.776 48.1866 169.776 48.1829 169.776C48.1793 169.776 48.1756 169.776 48.172 169.776C48.1684 169.776 48.1647 169.776 48.1611 169.776C48.1574 169.776 48.1538 169.776 48.1501 169.776C48.1465 169.776 48.1429 169.776 48.1392 169.776C48.1356 169.776 48.132 169.776 48.1283 169.776C48.1247 169.776 48.1211 169.776 48.1174 169.776C48.1138 169.776 48.1102 169.776 48.1065 169.776C48.1029 169.776 48.0993 169.776 48.0957 169.776C48.092 169.776 48.0884 169.776 48.0848 169.776C48.0812 169.776 48.0775 169.776 48.0739 169.776C48.0703 169.776 48.0667 169.776 48.0631 169.776C48.0595 169.776 48.0558 169.776 48.0522 169.776C48.0486 169.776 48.045 169.776 48.0414 169.776C48.0378 169.776 48.0342 169.776 48.0306 169.776C48.027 169.776 48.0233 169.776 48.0197 169.776C48.0161 169.776 48.0125 169.776 48.0089 169.776C48.0053 169.776 48.0017 169.776 47.9981 169.776C47.9945 169.776 47.9909 169.776 47.9873 169.776C47.9837 169.776 47.9801 169.776 47.9766 169.776C47.973 169.776 47.9694 169.776 47.9658 169.776C47.9622 169.776 47.9586 169.776 47.955 169.776C47.9514 169.776 47.9478 169.776 47.9443 169.776C47.9407 169.776 47.9371 169.776 47.9335 169.776C47.9299 169.776 47.9263 169.776 47.9228 169.776C47.9192 169.776 47.9156 169.776 47.912 169.776C47.9085 169.776 47.9049 169.776 47.9013 169.776C47.8977 169.776 47.8942 169.776 47.8906 169.776C47.887 169.776 47.8835 169.776 47.8799 169.776C47.8763 169.776 47.8728 169.776 47.8692 169.776C47.8656 169.776 47.8621 169.776 47.8585 169.776C47.855 169.776 47.8514 169.776 47.8478 169.776C47.8443 169.776 47.8407 169.776 47.8372 169.776C47.8336 169.776 47.8301 169.776 47.8265 169.776C47.823 169.776 47.8194 169.776 47.8159 169.776C47.8123 169.776 47.8088 169.776 47.8052 169.776C47.8017 169.776 47.7981 169.776 47.7946 169.776C47.791 169.776 47.7875 169.776 47.7839 169.776C47.7804 169.776 47.7769 169.776 47.7733 169.776C47.7698 169.776 47.7663 169.776 47.7627 169.776C47.7592 169.776 47.7557 169.776 47.7521 169.776C47.7486 169.776 47.7451 169.776 47.7415 169.776C47.738 169.776 47.7345 169.776 47.731 169.776C47.7274 169.776 47.7239 169.776 47.7204 169.776C47.7169 169.776 47.7133 169.776 47.7098 169.776C47.7063 169.776 47.7028 169.776 47.6993 169.776C47.6957 169.776 47.6922 169.776 47.6887 169.776C47.6852 169.776 47.6817 169.776 47.6782 169.776C47.6747 169.776 47.6712 169.776 47.6676 169.776C47.6641 169.776 47.6606 169.776 47.6571 169.776C47.6536 169.776 47.6501 169.776 47.6466 169.776C47.6431 169.776 47.6396 169.776 47.6361 169.776C47.6326 169.776 47.6291 169.776 47.6256 169.776C47.6221 169.776 47.6186 169.776 47.6151 169.776C47.6116 169.776 47.6082 169.776 47.6047 169.776C47.6012 169.776 47.5977 169.776 47.5942 169.776C47.5907 169.776 47.5872 169.776 47.5837 169.776C47.5802 169.776 47.5768 169.776 47.5733 169.776C47.5698 169.776 47.5663 169.776 47.5628 169.776C47.5594 169.776 47.5559 169.776 47.5524 169.776C47.5489 169.776 47.5455 169.776 47.542 169.776C47.5385 169.776 47.535 169.776 47.5316 169.776C47.5281 169.776 47.5246 169.776 47.5212 169.776C47.5177 169.776 47.5142 169.776 47.5108 169.776C47.5073 169.776 47.5038 169.776 47.5004 169.776C47.4969 169.776 47.4935 169.776 47.49 169.776C47.4865 169.776 47.4831 169.776 47.4796 169.776C47.4762 169.776 47.4727 169.776 47.4693 169.776C47.4658 169.776 47.4624 169.776 47.4589 169.776C47.4555 169.776 47.452 169.776 47.4486 169.776C47.4451 169.776 47.4417 169.776 47.4382 169.776C47.4348 169.776 47.4314 169.776 47.4279 169.776C47.4245 169.776 47.421 169.776 47.4176 169.776C47.4142 169.776 47.4107 169.776 47.4073 169.776C47.4038 169.776 47.4004 169.776 47.397 169.776C47.3936 169.776 47.3901 169.776 47.3867 169.776C47.3833 169.776 47.3798 169.776 47.3764 169.776C47.373 169.776 47.3696 169.776 47.3661 169.776C47.3627 169.776 47.3593 169.776 47.3559 169.776C47.3525 169.776 47.349 169.776 47.3456 169.776C47.3422 169.776 47.3388 169.776 47.3354 169.776C47.332 169.776 47.3285 169.776 47.3251 169.776C47.3217 169.776 47.3183 169.776 47.3149 169.776C47.3115 169.776 47.3081 169.776 47.3047 169.776C47.3013 169.776 47.2979 169.776 47.2945 169.776C47.2911 169.776 47.2877 169.776 47.2843 169.776C47.2809 169.776 47.2775 169.776 47.2741 169.776C47.2707 169.776 47.2673 169.776 47.2639 169.776C47.2605 169.776 47.2571 169.776 47.2537 169.776C47.2503 169.776 47.2469 169.776 47.2435 169.776C47.2401 169.776 47.2368 169.776 47.2334 169.776C47.23 169.776 47.2266 169.776 47.2232 169.776C47.2198 169.776 47.2165 169.776 47.2131 169.776C47.2097 169.776 47.2063 169.776 47.2029 169.776C47.1996 169.776 47.1962 169.776 47.1928 169.776C47.1895 169.776 47.1861 169.776 47.1827 169.776C47.1793 169.776 47.176 169.776 47.1726 169.776C47.1692 169.776 47.1659 169.776 47.1625 169.776C47.1591 169.776 47.1558 169.776 47.1524 169.776C47.1491 169.776 47.1457 169.776 47.1423 169.776C47.139 169.776 47.1356 169.776 47.1323 169.776C47.1289 169.776 47.1256 169.776 47.1222 169.776C47.1188 169.776 47.1155 169.776 47.1121 169.776C47.1088 169.776 47.1054 169.776 47.1021 169.776C47.0988 169.776 47.0954 169.776 47.0921 169.776C47.0887 169.776 47.0854 169.776 47.082 169.776C47.0787 169.776 47.0754 169.776 47.072 169.776C47.0687 169.776 47.0653 169.776 47.062 169.776C47.0587 169.776 47.0553 169.776 47.052 169.776C47.0487 169.776 47.0453 169.776 47.042 169.776C47.0387 169.776 47.0354 169.776 47.032 169.776C47.0287 169.776 47.0254 169.776 47.0221 169.776C47.0187 169.776 47.0154 169.776 47.0121 169.776C47.0088 169.776 47.0054 169.776 47.0021 169.776C46.9988 169.776 46.9955 169.776 46.9922 169.776C46.9889 169.776 46.9856 169.776 46.9822 169.776C46.9789 169.776 46.9756 169.776 46.9723 169.776C46.969 169.776 46.9657 169.776 46.9624 169.776C46.9591 169.776 46.9558 169.776 46.9525 169.776C46.9492 169.776 46.9459 169.776 46.9426 169.776C46.9393 169.776 46.936 169.776 46.9327 169.776C46.9294 169.776 46.9261 169.776 46.9228 169.776C46.9195 169.776 46.9162 169.776 46.9129 169.776C46.9096 169.776 46.9063 169.776 46.903 169.776C46.8997 169.776 46.8965 169.776 46.8932 169.776C46.8899 169.776 46.8866 169.776 46.8833 169.776C46.88 169.776 46.8768 169.776 46.8735 169.776C46.8702 169.776 46.8669 169.776 46.8636 169.776C46.8604 169.776 46.8571 169.776 46.8538 169.776C46.8505 169.776 46.8473 169.776 46.844 169.776C46.8407 169.776 46.8375 169.776 46.8342 169.776C46.8309 169.776 46.8277 169.776 46.8244 169.776C46.8211 169.776 46.8179 169.776 46.8146 169.776C46.8113 169.776 46.8081 169.776 46.8048 169.776C46.8016 169.776 46.7983 169.776 46.7951 169.776C46.7918 169.776 46.7885 169.776 46.7853 169.776C46.782 169.776 46.7788 169.776 46.7755 169.776C46.7723 169.776 46.769 169.776 46.7658 169.776C46.7625 169.776 46.7593 169.776 46.756 169.776C46.7528 169.776 46.7496 169.776 46.7463 169.776C46.7431 169.776 46.7398 169.776 46.7366 169.776C46.7334 169.776 46.7301 169.776 46.7269 169.776C46.7237 169.776 46.7204 169.776 46.7172 169.776C46.714 169.776 46.7107 169.776 46.7075 169.776C46.7043 169.776 46.701 169.776 46.6978 169.776C46.6946 169.776 46.6914 169.776 46.6881 169.776C46.6849 169.776 46.6817 169.776 46.6785 169.776C46.6752 169.776 46.672 169.776 46.6688 169.776C46.6656 169.776 46.6624 169.776 46.6592 169.776C46.6559 169.776 46.6527 169.776 46.6495 169.776C46.6463 169.776 46.6431 169.776 46.6399 169.776C46.6367 169.776 46.6335 169.776 46.6303 169.776C46.627 169.776 46.6238 169.776 46.6206 169.776C46.6174 169.776 46.6142 169.776 46.611 169.776C46.6078 169.776 46.6046 169.776 46.6014 169.776C46.5982 169.776 46.595 169.776 46.5918 169.776C46.5887 169.776 46.5855 169.776 46.5823 169.776C46.5791 169.776 46.5759 169.776 46.5727 169.776C46.5695 169.776 46.5663 169.776 46.5631 169.776C46.56 169.776 46.5568 169.776 46.5536 169.776C46.5504 169.776 46.5472 169.776 46.544 169.776C46.5409 169.776 46.5377 169.776 46.5345 169.776C46.5313 169.776 46.5282 169.776 46.525 169.776C46.5218 169.776 46.5186 169.776 46.5155 169.776C46.5123 169.776 46.5091 169.776 46.5059 169.776C46.5028 169.776 46.4996 169.776 46.4964 169.776C46.4933 169.776 46.4901 169.776 46.487 169.776C46.4838 169.776 46.4806 169.776 46.4775 169.776C46.4743 169.776 46.4712 169.776 46.468 169.776C46.4648 169.776 46.4617 169.776 46.4585 169.776C46.4554 169.776 46.4522 169.776 46.4491 169.776C46.4459 169.776 46.4428 169.776 46.4396 169.776C46.4365 169.776 46.4333 169.776 46.4302 169.776C46.427 169.776 46.4239 169.776 46.4208 169.776C46.4176 169.776 46.4145 169.776 46.4113 169.776C46.4082 169.776 46.4051 169.776 46.4019 169.776C46.3988 169.776 46.3957 169.776 46.3925 169.776C46.3894 169.776 46.3863 169.776 46.3831 169.776C46.38 169.776 46.3769 169.776 46.3737 169.776C46.3706 169.776 46.3675 169.776 46.3644 169.776C46.3612 169.776 46.3581 169.776 46.355 169.776C46.3519 169.776 46.3488 169.776 46.3456 169.776C46.3425 169.776 46.3394 169.776 46.3363 169.776C46.3332 169.776 46.3301 169.776 46.3269 169.776C46.3238 169.776 46.3207 169.776 46.3176 169.776C46.3145 169.776 46.3114 169.776 46.3083 169.776C46.3052 169.776 46.3021 169.776 46.299 169.776C46.2959 169.776 46.2928 169.776 46.2897 169.776C46.2866 169.776 46.2835 169.776 46.2804 169.776C46.2773 169.776 46.2742 169.776 46.2711 169.776C46.268 169.776 46.2649 169.776 46.2618 169.776C46.2587 169.776 46.2556 169.776 46.2525 169.776C46.2494 169.776 46.2463 169.776 46.2433 169.776C46.2402 169.776 46.2371 169.776 46.234 169.776C46.2309 169.776 46.2278 169.776 46.2248 169.776C46.2217 169.776 46.2186 169.776 46.2155 169.776C46.2124 169.776 46.2094 169.776 46.2063 169.776C46.2032 169.776 46.2001 169.776 46.1971 169.776C46.194 169.776 46.1909 169.776 46.1879 169.776C46.1848 169.776 46.1817 169.776 46.1787 169.776C46.1756 169.776 46.1725 169.776 46.1695 169.776C46.1664 169.776 46.1633 169.776 46.1603 169.776C46.1572 169.776 46.1542 169.776 46.1511 169.776C46.1481 169.776 46.145 169.776 46.1419 169.776C46.1389 169.776 46.1358 169.776 46.1328 169.776C46.1297 169.776 46.1267 169.776 46.1236 169.776C46.1206 169.776 46.1175 169.776 46.1145 169.776C46.1115 169.776 46.1084 169.776 46.1054 169.776C46.1023 169.776 46.0993 169.776 46.0962 169.776C46.0932 169.776 46.0902 169.776 46.0871 169.776C46.0841 169.776 46.0811 169.776 46.078 169.776C46.075 169.776 46.072 169.776 46.0689 169.776C46.0659 169.776 46.0629 169.776 46.0598 169.776C46.0568 169.776 46.0538 169.776 46.0508 169.776C46.0477 169.776 46.0447 169.776 46.0417 169.776C46.0387 169.776 46.0356 169.776 46.0326 169.776C46.0296 169.776 46.0266 169.776 46.0236 169.776C46.0206 169.776 46.0175 169.776 46.0145 169.776C46.0115 169.776 46.0085 169.776 46.0055 169.776C46.0025 169.776 45.9995 169.776 45.9965 169.776C45.9935 169.776 45.9905 169.776 45.9875 169.776C45.9845 169.776 45.9814 169.776 45.9784 169.776C45.9754 169.776 45.9724 169.776 45.9694 169.776C45.9665 169.776 45.9635 169.776 45.9605 169.776C45.9575 169.776 45.9545 169.776 45.9515 169.776C45.9485 169.776 45.9455 169.776 45.9425 169.776C45.9395 169.776 45.9365 169.776 45.9335 169.776C45.9306 169.776 45.9276 169.776 45.9246 169.776C45.9216 169.776 45.9186 169.776 45.9156 169.776C45.9127 169.776 45.9097 169.776 45.9067 169.776C45.9037 169.776 45.9007 169.776 45.8978 169.776C45.8948 169.776 45.8918 169.776 45.8888 169.776C45.8859 169.776 45.8829 169.776 45.8799 169.776C45.877 169.776 45.874 169.776 45.871 169.776C45.8681 169.776 45.8651 169.776 45.8621 169.776C45.8592 169.776 45.8562 169.776 45.8533 169.776C45.8503 169.776 45.8473 169.776 45.8444 169.776C45.8414 169.776 45.8385 169.776 45.8355 169.776C45.8326 169.776 45.8296 169.776 45.8267 169.776C45.8237 169.776 45.8208 169.776 45.8178 169.776C45.8149 169.776 45.8119 169.776 45.809 169.776C45.806 169.776 45.8031 169.776 45.8001 169.776C45.7972 169.776 45.7942 169.776 45.7913 169.776C45.7884 169.776 45.7854 169.776 45.7825 169.776C45.7796 169.776 45.7766 169.776 45.7737 169.776C45.7707 169.776 45.7678 169.776 45.7649 169.776C45.762 169.776 45.759 169.776 45.7561 169.776C45.7532 169.776 45.7502 169.776 45.7473 169.776C45.7444 169.776 45.7415 169.776 45.7385 169.776C45.7356 169.776 45.7327 169.776 45.7298 169.776C45.7269 169.776 45.7239 169.776 45.721 169.776C45.7181 169.776 45.7152 169.776 45.7123 169.776C45.7094 169.776 45.7065 169.776 45.7036 169.776C45.7006 169.776 45.6977 169.776 45.6948 169.776C45.6919 169.776 45.689 169.776 45.6861 169.776C45.6832 169.776 45.6803 169.776 45.6774 169.776C45.6745 169.776 45.6716 169.776 45.6687 169.776C45.6658 169.776 45.6629 169.776 45.66 169.776C45.6571 169.776 45.6542 169.776 45.6513 169.776C45.6484 169.776 45.6455 169.776 45.6426 169.776C45.6398 169.776 45.6369 169.776 45.634 169.776C45.6311 169.776 45.6282 169.776 45.6253 169.776C45.6224 169.776 45.6196 169.776 45.6167 169.776C45.6138 169.776 45.6109 169.776 45.608 169.776C45.6052 169.776 45.6023 169.776 45.5994 169.776C45.5965 169.776 45.5937 169.776 45.5908 169.776C45.5879 169.776 45.585 169.776 45.5822 169.776C45.5793 169.776 45.5764 169.776 45.5736 169.776C45.5707 169.776 45.5678 169.776 45.565 169.776C45.5621 169.776 45.5592 169.776 45.5564 169.776C45.5535 169.776 45.5507 169.776 45.5478 169.776C45.545 169.776 45.5421 169.776 45.5392 169.776C45.5364 169.776 45.5335 169.776 45.5307 169.776C45.5278 169.776 45.525 169.776 45.5221 169.776C45.5193 169.776 45.5164 169.776 45.5136 169.776C45.5107 169.776 45.5079 169.776 45.5051 169.776C45.5022 169.776 45.4994 169.776 45.4965 169.776C45.4937 169.776 45.4908 169.776 45.488 169.776C45.4852 169.776 45.4823 169.776 45.4795 169.776C45.4767 169.776 45.4738 169.776 45.471 169.776C45.4682 169.776 45.4653 169.776 45.4625 169.776C45.4597 169.776 45.4569 169.776 45.454 169.776C45.4512 169.776 45.4484 169.776 45.4456 169.776C45.4427 169.776 45.4399 169.776 45.4371 169.776C45.4343 169.776 45.4315 169.776 45.4286 169.776C45.4258 169.776 45.423 169.776 45.4202 169.776C45.4174 169.776 45.4146 169.776 45.4118 169.776C45.409 169.776 45.4061 169.776 45.4033 169.776C45.4005 169.776 45.3977 169.776 45.3949 169.776C45.3921 169.776 45.3893 169.776 45.3865 169.776C45.3837 169.776 45.3809 169.776 45.3781 169.776C45.3753 169.776 45.3725 169.776 45.3697 169.776C45.3669 169.776 45.3641 169.776 45.3613 169.776C45.3585 169.776 45.3557 169.776 45.3529 169.776C45.3502 169.776 45.3474 169.776 45.3446 169.776C45.3418 169.776 45.339 169.776 45.3362 169.776C45.3334 169.776 45.3307 169.776 45.3279 169.776C45.3251 169.776 45.3223 169.776 45.3195 169.776C45.3168 169.776 45.314 169.776 45.3112 169.776C45.3084 169.776 45.3057 169.776 45.3029 169.776C45.3001 169.776 45.2973 169.776 45.2946 169.776C45.2918 169.776 45.289 169.776 45.2863 169.776C45.2835 169.776 45.2807 169.776 45.278 169.776C45.2752 169.776 45.2724 169.776 45.2697 169.776C45.2669 169.776 45.2642 169.776 45.2614 169.776C45.2586 169.776 45.2559 169.776 45.2531 169.776C45.2504 169.776 45.2476 169.776 45.2449 169.776C45.2421 169.776 45.2394 169.776 45.2366 169.776C45.2339 169.776 45.2311 169.776 45.2284 169.776C45.2256 169.776 45.2229 169.776 45.2201 169.776C45.2174 169.776 45.2147 169.776 45.2119 169.776C45.2092 169.776 45.2064 169.776 45.2037 169.776C45.201 169.776 45.1982 169.776 45.1955 169.776C45.1927 169.776 45.19 169.776 45.1873 169.776C45.1846 169.776 45.1818 169.776 45.1791 169.776C45.1764 169.776 45.1736 169.776 45.1709 169.776C45.1682 169.776 45.1655 169.776 45.1627 169.776C45.16 169.776 45.1573 169.776 45.1546 169.776C45.1519 169.776 45.1491 169.776 45.1464 169.776C45.1437 169.776 45.141 169.776 45.1383 169.776C45.1356 169.776 45.1328 169.776 45.1301 169.776C45.1274 169.776 45.1247 169.776 45.122 169.776C45.1193 169.776 45.1166 169.776 45.1139 169.776C45.1112 169.776 45.1085 169.776 45.1058 169.776C45.1031 169.776 45.1004 169.776 45.0977 169.776C45.095 169.776 45.0923 169.776 45.0896 169.776C45.0869 169.776 45.0842 169.776 45.0815 169.776C45.0788 169.776 45.0761 169.776 45.0734 169.776C45.0707 169.776 45.068 169.776 45.0653 169.776C45.0627 169.776 45.06 169.776 45.0573 169.776C45.0546 169.776 45.0519 169.776 45.0492 169.776C45.0466 169.776 45.0439 169.776 45.0412 169.776C45.0385 169.776 45.0358 169.776 45.0332 169.776C45.0305 169.776 45.0278 169.776 45.0251 169.776C45.0225 169.776 45.0198 169.776 45.0171 169.776C45.0145 169.776 45.0118 169.776 45.0091 169.776C45.0064 169.776 45.0038 169.776 45.0011 169.776C44.9985 169.776 44.9958 169.776 44.9931 169.776C44.9905 169.776 44.9878 169.776 44.9851 169.776C44.9825 169.776 44.9798 169.776 44.9772 169.776C44.9745 169.776 44.9719 169.776 44.9692 169.776C44.9666 169.776 44.9639 169.776 44.9613 169.776C44.9586 169.776 44.956 169.776 44.9533 169.776C44.9507 169.776 44.948 169.776 44.9454 169.776C44.9427 169.776 44.9401 169.776 44.9375 169.776C44.9348 169.776 44.9322 169.776 44.9295 169.776C44.9269 169.776 44.9243 169.776 44.9216 169.776C44.919 169.776 44.9164 169.776 44.9137 169.776C44.9111 169.776 44.9085 169.776 44.9058 169.776C44.9032 169.776 44.9006 169.776 44.8979 169.776C44.8953 169.776 44.8927 169.776 44.8901 169.776C44.8875 169.776 44.8848 169.776 44.8822 169.776C44.8796 169.776 44.877 169.776 44.8744 169.776C44.8717 169.776 44.8691 169.776 44.8665 169.776C44.8639 169.776 44.8613 169.776 44.8587 169.776C44.8561 169.776 44.8534 169.776 44.8508 169.776C44.8482 169.776 44.8456 169.776 44.843 169.776C44.8404 169.776 44.8378 169.776 44.8352 169.776C44.8326 169.776 44.83 169.776 44.8274 169.776C44.8248 169.776 44.8222 169.776 44.8196 169.776C44.817 169.776 44.8144 169.776 44.8118 169.776C44.8092 169.776 44.8066 169.776 44.804 169.776C44.8014 169.776 44.7989 169.776 44.7963 169.776C44.7937 169.776 44.7911 169.776 44.7885 169.776C44.7859 169.776 44.7833 169.776 44.7808 169.776C44.7782 169.776 44.7756 169.776 44.773 169.776C44.7704 169.776 44.7679 169.776 44.7653 169.776C44.7627 169.776 44.7601 169.776 44.7576 169.776C44.755 169.776 44.7524 169.776 44.7498 169.776C44.7473 169.776 44.7447 169.776 44.7421 169.776C44.7396 169.776 44.737 169.776 44.7344 169.776C44.7319 169.776 44.7293 169.776 44.7267 169.776C44.7242 169.776 44.7216 169.776 44.7191 169.776C44.7165 169.776 44.7139 169.776 44.7114 169.776C44.7088 169.776 44.7063 169.776 44.7037 169.776C44.7012 169.776 44.6986 169.776 44.6961 169.776C44.6935 169.776 44.691 169.776 44.6884 169.776C44.6859 169.776 44.6833 169.776 44.6808 169.776C44.6782 169.776 44.6757 169.776 44.6732 169.776C44.6706 169.776 44.6681 169.776 44.6655 169.776C44.663 169.776 44.6605 169.776 44.6579 169.776C44.6554 169.776 44.6529 169.776 44.6503 169.776C44.6478 169.776 44.6453 169.776 44.6427 169.776C44.6402 169.776 44.6377 169.776 44.6351 169.776C44.6326 169.776 44.6301 169.776 44.6276 169.776C44.625 169.776 44.6225 169.776 44.62 169.776C44.6175 169.776 44.615 169.776 44.6124 169.776C44.6099 169.776 44.6074 169.776 44.6049 169.776C44.6024 169.776 44.5999 169.776 44.5974 169.776C44.5948 169.776 44.5923 169.776 44.5898 169.776C44.5873 169.776 44.5848 169.776 44.5823 169.776C44.5798 169.776 44.5773 169.776 44.5748 169.776C44.5723 169.776 44.5698 169.776 44.5673 169.776C44.5648 169.776 44.5623 169.776 44.5598 169.776C44.5573 169.776 44.5548 169.776 44.5523 169.776C44.5498 169.776 44.5473 169.776 44.5448 169.776C44.5423 169.776 44.5398 169.776 44.5373 169.776C44.5349 169.776 44.5324 169.776 44.5299 169.776C44.5274 169.776 44.5249 169.776 44.5224 169.776C44.52 169.776 44.5175 169.776 44.515 169.776C44.5125 169.776 44.51 169.776 44.5076 169.776C44.5051 169.776 44.5026 169.776 44.5001 169.776C44.4977 169.776 44.4952 169.776 44.4927 169.776C44.4902 169.776 44.4878 169.776 44.4853 169.776C44.4828 169.776 44.4804 169.776 44.4779 169.776C44.4754 169.776 44.473 169.776 44.4705 169.776C44.468 169.776 44.4656 169.776 44.4631 169.776C44.4607 169.776 44.4582 169.776 44.4558 169.776C44.4533 169.776 44.4508 169.776 44.4484 169.776C44.4459 169.776 44.4435 169.776 44.441 169.776C44.4386 169.776 44.4361 169.776 44.4337 169.776C44.4312 169.776 44.4288 169.776 44.4263 169.776C44.4239 169.776 44.4215 169.776 44.419 169.776C44.4166 169.776 44.4141 169.776 44.4117 169.776C44.4093 169.776 44.4068 169.776 44.4044 169.776C44.402 169.776 44.3995 169.776 44.3971 169.776C44.3947 169.776 44.3922 169.776 44.3898 169.776C44.3874 169.776 44.3849 169.776 44.3825 169.776C44.3801 169.776 44.3777 169.776 44.3752 169.776C44.3728 169.776 44.3704 169.776 44.368 169.776C44.3655 169.776 44.3631 169.776 44.3607 169.776C44.3583 169.776 44.3559 169.776 44.3534 169.776C44.351 169.776 44.3486 169.776 44.3462 169.776C44.3438 169.776 44.3414 169.776 44.339 169.776C44.3366 169.776 44.3342 169.776 44.3317 169.776C44.3293 169.776 44.3269 169.776 44.3245 169.776C44.3221 169.776 44.3197 169.776 44.3173 169.776C44.3149 169.776 44.3125 169.776 44.3101 169.776C44.3077 169.776 44.3053 169.776 44.3029 169.776C44.3005 169.776 44.2982 169.776 44.2958 169.776C44.2934 169.776 44.291 169.776 44.2886 169.776C44.2862 169.776 44.2838 169.776 44.2814 169.776C44.279 169.776 44.2767 169.776 44.2743 169.776C44.2719 169.776 44.2695 169.776 44.2671 169.776C44.2647 169.776 44.2624 169.776 44.26 169.776C44.2576 169.776 44.2552 169.776 44.2529 169.776C44.2505 169.776 44.2481 169.776 44.2457 169.776C44.2434 169.776 44.241 169.776 44.2386 169.776C44.2363 169.776 44.2339 169.776 44.2315 169.776C44.2292 169.776 44.2268 169.776 44.2244 169.776C44.2221 169.776 44.2197 169.776 44.2174 169.776C44.215 169.776 44.2126 169.776 44.2103 169.776C44.2079 169.776 44.2056 169.776 44.2032 169.776C44.2009 169.776 44.1985 169.776 44.1962 169.776C44.1938 169.776 44.1915 169.776 44.1891 169.776C44.1868 169.776 44.1844 169.776 44.1821 169.776C44.1797 169.776 44.1774 169.776 44.175 169.776C44.1727 169.776 44.1704 169.776 44.168 169.776C44.1657 169.776 44.1633 169.776 44.161 169.776C44.1587 169.776 44.1563 169.776 44.154 169.776V171.776ZM48.9334 171.775C51.122 171.68 53.017 170.91 54.5659 169.458L53.1981 167.998C52.0164 169.106 50.5833 169.701 48.8466 169.777L48.9334 171.775ZM53.751 169.719L76.023 172.663L76.2851 170.681L54.013 167.737L53.751 169.719ZM52.9916 212.273C55.3886 211.259 57.4433 209.605 59.1582 207.349L57.5658 206.139C56.038 208.149 54.2528 209.568 52.2124 210.431L52.9916 212.273ZM59.1546 207.354C61.001 204.953 61.922 202.177 61.922 199.064H59.922C59.922 201.753 59.1364 204.097 57.5694 206.134L59.1546 207.354ZM61.922 199.064C61.922 195.951 61.001 193.175 59.1546 190.774L57.5694 191.994C59.1364 194.031 59.922 196.375 59.922 199.064H61.922ZM59.1694 190.794C57.4566 188.45 55.3993 186.746 52.9916 185.727L52.2124 187.569C54.242 188.428 56.0247 189.88 57.5546 191.974L59.1694 190.794ZM51.8949 187.355L52.0229 187.483L53.4371 186.069L53.3091 185.941L51.8949 187.355ZM53.1772 185.882C52.4048 185.495 51.5507 185.213 50.6221 185.027L50.2299 186.989C51.008 187.144 51.6898 187.374 52.2828 187.67L53.1772 185.882ZM50.7134 185.05C49.7814 184.771 48.8734 184.624 47.994 184.624V186.624C48.6506 186.624 49.364 186.733 50.1387 186.966L50.7134 185.05ZM47.994 184.624C47.0391 184.624 46.0891 184.767 45.1467 185.05L45.7214 186.966C46.4856 186.737 47.2422 186.624 47.994 186.624V184.624ZM45.2379 185.027C44.3093 185.213 43.4552 185.495 42.6828 185.882L43.5772 187.67C44.1702 187.374 44.852 187.144 45.6301 186.989L45.2379 185.027ZM43.8371 187.483L43.9651 187.355L42.5509 185.941L42.4229 186.069L43.8371 187.483ZM42.8684 185.727C40.4667 186.743 38.3721 188.441 36.5774 190.774L38.1626 191.994C39.7813 189.889 41.612 188.43 43.6476 187.569L42.8684 185.727ZM36.5626 190.794C34.8089 193.194 33.938 195.963 33.938 199.064H35.938C35.938 196.362 36.6885 194.012 38.1774 191.974L36.5626 190.794ZM33.938 199.064C33.938 202.165 34.8089 204.934 36.5626 207.334L38.1774 206.154C36.6885 204.116 35.938 201.766 35.938 199.064H33.938ZM36.5891 207.369C38.3855 209.614 40.4772 211.261 42.8684 212.273L43.6476 210.431C41.6015 209.565 39.7678 208.141 38.1509 206.119L36.5891 207.369ZM43.9651 210.645L43.8371 210.517L42.4229 211.931L42.5509 212.059L43.9651 210.645ZM42.6828 212.118C43.4245 212.489 44.2472 212.808 45.1467 213.078L45.7214 211.162C44.9142 210.92 44.2008 210.641 43.5772 210.33L42.6828 212.118ZM45.1467 213.078C46.0891 213.361 47.0391 213.504 47.994 213.504V211.504C47.2422 211.504 46.4856 211.391 45.7213 211.162L45.1467 213.078ZM47.994 213.504C48.8734 213.504 49.7814 213.357 50.7133 213.078L50.1387 211.162C49.364 211.395 48.6506 211.504 47.994 211.504V213.504ZM50.7134 213.078C51.6128 212.808 52.4355 212.489 53.1772 212.118L52.2828 210.33C51.6592 210.641 50.9458 210.92 50.1387 211.162L50.7134 213.078ZM52.0229 210.517L51.8949 210.645L53.3091 212.059L53.4371 211.931L52.0229 210.517ZM53.9375 151.752C55.7339 152.377 56.9838 153.323 57.7784 154.551L59.4576 153.465C58.3749 151.792 56.7235 150.604 54.5945 149.864L53.9375 151.752ZM57.801 154.585C58.6946 155.851 58.9318 157.012 58.6686 158.131L60.6154 158.589C61.0349 156.806 60.5894 155.067 59.435 153.431L57.801 154.585ZM58.7758 157.86C57.6743 159.77 56.0844 160.688 53.882 160.688V162.688C56.7996 162.688 59.0497 161.388 60.5082 158.86L58.7758 157.86ZM53.882 160.688C52.9423 160.688 51.9997 160.571 51.0525 160.334L50.5675 162.274C51.6683 162.549 52.7738 162.688 53.882 162.688V160.688ZM51.0973 160.346C50.3591 160.125 49.3742 159.66 48.1245 158.911L47.0955 160.625C48.4058 161.412 49.5542 161.971 50.5227 162.262L51.0973 160.346ZM48.1912 158.954C47.0038 158.106 45.7301 157.172 44.37 156.152L43.17 157.752C44.5406 158.78 45.8269 159.723 47.0288 160.582L48.1912 158.954ZM44.37 156.152C43.0153 155.136 41.6602 154.077 40.3046 152.976L39.0434 154.528C40.4185 155.645 41.794 156.72 43.17 157.752L44.37 156.152ZM40.3046 152.976C38.9508 151.876 37.7718 150.865 36.7657 149.943L35.4143 151.417C36.4562 152.372 37.6665 153.409 39.0434 154.528L40.3046 152.976ZM36.09 151.68C37.4762 151.68 38.8623 151.637 40.2484 151.55L40.1236 149.554C38.779 149.638 37.4345 149.68 36.09 149.68V151.68ZM40.2572 151.549C41.4283 151.466 42.5992 151.424 43.77 151.424V149.424C42.5515 149.424 41.3331 149.468 40.1148 149.555L40.2572 151.549ZM43.8412 151.421C45.0183 151.337 46.0605 151.296 46.97 151.296V149.296C46.0021 149.296 44.911 149.34 43.6988 149.427L43.8412 151.421ZM46.97 151.296C48.488 151.296 49.8734 151.338 51.1275 151.422L51.2605 149.426C49.9546 149.339 48.524 149.296 46.97 149.296V151.296ZM51.1316 151.422C52.4817 151.506 53.4319 151.63 54.0235 151.778L54.5085 149.838C53.7348 149.644 52.637 149.512 51.2564 149.426L51.1316 151.422Z" fill="#616DBE" mask="url(#path-2-outside-1_118_339)"/>
</svg>
