<svg width="486" height="362" viewBox="0 0 486 362" fill="none" xmlns="http://www.w3.org/2000/svg">
<path d="M209.973 163.245C210.121 162.715 211.051 163.142 210.955 163.684C210.86 164.225 210.27 164.509 209.748 164.671C204.97 166.159 199.658 164.781 195.459 162.054C191.261 159.326 188.006 155.375 185.022 151.342C183.244 148.939 181.521 146.454 180.413 143.673C177.114 135.394 180.004 125.417 186.256 119.081C192.508 112.746 201.568 109.765 210.438 109.53" stroke="white" stroke-width="2" stroke-linecap="round" stroke-linejoin="round"/>
<path d="M230.791 175.711C244.235 189.971 251.373 203.088 255.422 212.557C257.496 217.408 261.892 232.032 278.725 256.36C280.147 258.414 281.677 260.511 283.859 261.734C286.557 263.247 289.857 263.202 292.91 262.702C303.11 261.03 312.392 254.489 317.374 245.461C320.972 238.942 322.529 231.125 327.783 225.841C333.509 220.08 342.285 218.678 349.074 214.209C356.866 209.079 361.623 199.683 361.138 190.385C360.653 181.087 354.942 172.23 346.658 167.927C342.77 165.906 338.336 164.796 334.995 161.966C323.517 152.245 332.971 131.66 324.164 119.481C316.538 108.934 299.692 110.418 289.948 101.776C283.399 95.9672 281.327 86.7618 276.887 79.2282C273.476 73.4418 268.615 68.591 265.359 62.7162C252.446 39.4175 268.38 9.39608 260.065 -15.8973C259.055 -18.972 257.054 -22.3936 253.811 -22.5205C251.786 -22.5995 249.991 -21.3179 248.376 -20.0964C235.32 -10.2176 221.159 1.54787 219.577 17.8151C219.243 21.2563 219.506 24.7836 218.613 28.1238C215.999 37.8902 203.983 45.0412 206.141 54.9199C206.65 57.2544 207.975 59.5302 207.532 61.8771C206.903 65.2139 203.899 67.0195 202.834 67.86C199.51 70.4854 196.706 77.0243 199.426 94.4552" stroke="white" stroke-width="2" stroke-linecap="round" stroke-linejoin="round"/>
<path d="M229.54 184.688C234.987 195.43 240.555 206.621 240.88 218.653C241.131 227.913 238.239 236.962 237.474 246.193C236.295 260.403 240.174 274.565 240.227 288.825C240.28 303.084 234.989 319.078 221.914 324.832C207.256 331.285 190.935 322.2 175.344 318.504C150.446 312.599 121.804 320.265 100.411 306.248C91.9401 300.697 85.7024 292.289 77.4248 286.456C69.2968 280.729 59.3405 277.578 52.25 270.614C43.0864 261.613 40.3724 247.942 32.8188 237.56C29.1696 232.544 24.4574 228.391 20.5972 223.534C9.24156 209.243 6.2385 188.793 13.0084 171.858C19.7782 154.924 36.061 142.155 54.1548 139.592" stroke="white" stroke-width="2" stroke-linecap="round" stroke-linejoin="round"/>
<path d="M199.965 94.6797C209.447 107.402 229.064 110.284 236.296 124.427C243.759 139.019 233.878 156.051 231.097 172.235C230.429 176.121 230.177 180.098 229.034 183.871C226.831 191.153 221.543 197.009 216.411 202.599L186.824 234.83C174.893 247.828 161.474 261.63 144.048 263.878C152.816 257.734 157.194 246.963 159.392 236.439C161.59 225.916 162.089 215.013 165.35 204.771C170.949 187.184 184.978 172.528 202.225 166.25C208.609 163.926 215.785 162.44 220.274 157.311C223.6 153.511 224.832 148.362 226.909 143.749C228.985 139.136 232.697 134.53 237.718 134.283" stroke="white" stroke-width="2" stroke-linecap="round" stroke-linejoin="round"/>
<path d="M260.415 48.1938C265.182 48.0783 267.333 46.4283 268.352 45.2841C269.023 44.5306 270.167 44.2167 272.083 37.2411C272.423 36.0016 272.759 34.7079 273.59 33.7307C278.045 28.4957 288.357 38.2798 292.785 33.0223C294.669 30.7844 293.813 27.2241 295.325 24.7188C297.147 21.7016 301.342 21.5376 304.855 21.4296C311.433 21.2265 317.938 19.9914 324.136 17.7695C326.275 17.0017 328.556 15.9498 329.522 13.8858C330.413 11.9819 329.921 9.69932 328.999 7.81044C323.643 -3.15722 307.553 -3.5203 299.449 -12.6317C295.325 -17.2674 296.717 -18.5446 292.773 -22.0633C283.723 -30.1369 271.022 -29.0685 268.196 -28.8306C252.758 -27.5318 243.125 -16.9577 240.733 -14.1677" stroke="white" stroke-width="2" stroke-linecap="round" stroke-linejoin="round"/>
<path d="M156.271 261.458C147.744 265.472 137.063 264.436 129.468 258.857C123.76 254.664 119.93 248.327 114.312 244.015C107.219 238.571 98.0577 236.885 89.4839 234.357C80.91 231.83 71.935 227.696 67.9756 219.677C63.2116 210.025 67.3332 198.64 68.7596 187.97C70.7253 173.267 67.1248 157.889 58.8388 145.591C55.1684 140.146 50.5976 135.247 47.8484 129.282C44.4622 121.935 44.1149 113.524 44.9784 105.48C47.1267 85.4668 56.6488 66.3283 71.3114 52.5507C86.4214 38.3539 107.597 28.4484 114.339 8.8356" stroke="white" stroke-width="2" stroke-linecap="round" stroke-linejoin="round"/>
<path d="M229.68 116.03C221.866 112.018 215.197 109.959 210.672 108.828C196.513 105.288 190.146 107.542 171.486 103.946C161.591 102.04 156.839 100.834 153.423 98.3796C143.285 91.0954 141.691 75.6963 131.542 68.4266C127.063 65.2182 121.304 63.9344 117.306 60.1403C111.464 54.5965 111.089 45.3858 112.571 37.4616C114.053 29.5365 116.989 21.6999 116.311 13.6667C115.509 4.16673 109.861 -6.07135 114.848 -14.1935C120.339 6.82244 136.656 24.681 157.07 32.0192C165.272 34.9666 174.853 36.8798 179.613 44.1902C184.396 51.5363 182.234 61.1478 182.375 69.917C182.516 78.687 188.066 89.3877 196.726 88.0838" stroke="white" stroke-width="2" stroke-linecap="round" stroke-linejoin="round"/>
<path d="M174.558 115.492C169.581 118.379 163.083 117.294 157.895 114.738C152.707 112.183 148.31 108.33 143.298 105.459C130.959 98.3887 114.93 97.8944 102.213 104.194" stroke="white" stroke-width="2" stroke-linecap="round" stroke-linejoin="round"/>
<path d="M243.198 161.799C247.814 160.203 252.531 163.767 255.836 167.361C261.819 173.872 266.717 181.301 270.341 189.365C273.234 195.806 275.333 202.685 279.355 208.49C283.377 214.295 289.98 219.003 297.01 218.292" stroke="white" stroke-width="2" stroke-linecap="round" stroke-linejoin="round"/>
<path d="M236.753 113.567C238.139 108.212 234.213 102.966 230.026 99.337C225.837 95.7079 220.878 92.3613 219.076 87.1292C217.652 82.9938 218.507 78.4661 219.376 74.1802L225.595 43.5003" stroke="white" stroke-width="2" stroke-linecap="round" stroke-linejoin="round"/>
<path d="M224.257 205.879C230.052 209.801 230.79 217.729 228.807 224.076C226.825 230.422 222.769 236.052 220.737 242.384C217.906 251.209 219.329 261.176 224.551 269.089" stroke="white" stroke-width="2" stroke-linecap="round" stroke-linejoin="round"/>
<path d="M194.941 98.304C187.973 93.5083 178.543 95.7738 170.228 94.2477C163.312 92.9781 156.964 88.847 152.992 83.0304" stroke="white" stroke-width="2" stroke-linecap="round" stroke-linejoin="round"/>
<path d="M227.291 159.976C224.992 165.154 221.973 169.984 218.322 174.323C216.659 176.3 214.779 178.23 212.354 179.136C209.579 180.173 206.505 179.728 203.54 179.66C193.293 179.425 183.05 184.194 176.663 192.176" stroke="white" stroke-width="2" stroke-linecap="round" stroke-linejoin="round"/>
<path d="M262.733 -13.3304C270.275 -14.6088 277.615 -10.2237 283.345 -5.15568C289.074 -0.0876926 294.189 5.95767 301.112 9.21021" stroke="white" stroke-width="2" stroke-linecap="round" stroke-linejoin="round"/>
<path d="M187.945 162.957C184.118 163.238 180.881 166.014 178.575 169.141C176.268 172.266 174.597 175.85 172.161 178.873C167.884 184.18 161.619 187.337 155.552 190.336L141.151 197.458" stroke="white" stroke-width="2" stroke-linecap="round" stroke-linejoin="round"/>
<ellipse cx="8" cy="11" rx="8" ry="11" transform="matrix(0.0769567 -0.997034 -0.997034 -0.0769567 207.13 122.313)" fill="white"/>
<circle cx="8" cy="8" r="8" transform="matrix(0.0769567 -0.997034 -0.997034 -0.0769567 190.404 144.091)" fill="white"/>
<ellipse cx="8" cy="11.5" rx="8" ry="11.5" transform="matrix(0.0769567 -0.997034 -0.997034 -0.0769567 193.553 129.289)" fill="white"/>
<ellipse cx="8" cy="8.5" rx="8" ry="8.5" transform="matrix(0.0769567 -0.997034 -0.997034 -0.0769567 197.072 161.656)" fill="white"/>
<circle cx="8" cy="8" r="8" transform="matrix(0.0769567 -0.997034 -0.997034 -0.0769567 213.179 160.893)" fill="white"/>
<circle cx="8" cy="8" r="8" transform="matrix(0.0769567 -0.997034 -0.997034 -0.0769567 215.946 138.038)" fill="white"/>
<circle cx="8" cy="8" r="8" transform="matrix(0.0769567 -0.997034 -0.997034 -0.0769567 206.049 149.31)" fill="white"/>
<circle cx="8" cy="8" r="8" transform="matrix(0.0769567 -0.997034 -0.997034 -0.0769567 226.994 124.849)" fill="white"/>
<path d="M287.13 99.4016C293.852 82.6894 310.656 71.4164 328.374 67.4056C346.092 63.3948 364.677 65.7161 382.397 69.7714C415.359 77.3146 446.616 90.687 478.537 101.798C510.457 112.911 543.886 121.88 577.652 120.062C605.438 118.567 632.587 109.799 660.415 110.088" stroke="white" stroke-width="2" stroke-linecap="round" stroke-linejoin="round"/>
<path d="M266.688 65.3764C274.993 70.5817 285.595 70.5805 295.124 68.3367C304.654 66.0921 313.592 61.8291 322.947 58.9239C357.923 48.063 395.867 56.8921 430.133 69.7655C464.399 82.6397 497.582 99.6325 533.663 105.669C581.767 113.717 630.719 101.647 678.039 89.6614" stroke="white" stroke-width="2" stroke-linecap="round" stroke-linejoin="round"/>
</svg>
